<?xml version="1.0" encoding="utf-8"?>
<!-- Generator: Adobe Illustrator 18.0.0, SVG Export Plug-In . SVG Version: 6.00 Build 0)  -->
<!DOCTYPE svg PUBLIC "-//W3C//DTD SVG 1.1//EN" "http://www.w3.org/Graphics/SVG/1.1/DTD/svg11.dtd">
<svg version="1.1" id="Ebene_1" xmlns="http://www.w3.org/2000/svg" xmlns:xlink="http://www.w3.org/1999/xlink" x="0px" y="0px"
	 viewBox="0 0 841.9 595.3" enable-background="new 0 0 841.9 595.3" xml:space="preserve">

    <style>
        polygon, path{ fill:transparent; stroke-width: 2px; stroke: #000000; stroke-linejoin: round; }
    </style>

<path style="fill:#990033;" id="reinickendorf" d="M381.2,187.6l0.4-0.6l-5.6-5l-0.9,0.5l-2.8-0.8L358,168.5l-3.8-3.3l-16-14.1l-0.3-0.3l0.8-0.2l3.1-0.9l2.7-0.3l3.9-0.1 l1.7-0.2l1.9-0.4l0.1-0.2l1-1.4l2.7-4l0.3-0.4l3.4-4.3l0.5-0.6l0.8-1.1l2.1-2.7l4.9-12.1l0.2-0.5l0.5-1.1l0.2-0.4l0.1-6.1l-0.4-3.2 l-1-3l-1.7-4l-3.1-7.4l-1.8-3.4l-2.4-4.1l-0.3-0.1l-0.5,0.2l-0.5,0.2l-0.5-0.5l-0.8,0.3l0.5,0.4l0.5,0.4l-0.6,0.5l-1.1,0l-0.4-0.5 l-0.6,0l-0.8,0.5l-0.3,0.5l-0.6,0l-0.5,0.4l-0.7-0.1l-0.5,0.3l-0.5,0.9l-0.9,0.2l-0.6,0.4l-1-0.2l-0.5-0.1l-0.5-0.3l-0.4-0.2 l-0.5,0.3l-0.4,0.4l-1.1,0.1l-0.5,0.1l-0.3,0.2l-0.3,0.5l-0.1-0.5l-0.6-0.2l-0.5,0.2l-0.3-1.6l-4.7,0.4l-2.8-0.2l-0.9,0.4l-0.6,0 l-0.7,0.3l-0.8-0.1l-0.9,0.3l-0.6-0.2l-1,0.1l-0.8-0.2l-0.1,0.5l-0.4,0.1l-0.9,0.2l-0.4,0.4l-0.3-0.2l-3.8-2.5l-0.5,0.2l-0.5-0.3 l-1.6-1l-1.2-0.7l-0.6-0.3l-1.8-0.5l-1.5-0.4l-0.6-0.3l-1-0.4l-0.7-0.2l-1.2-0.2l-2.1-0.2l-1.2-0.2l-0.4-0.1l-1.9-0.8l-2-0.6 l-0.5-0.2l-1.2-0.6l-0.9-0.3l-0.5,0l-1.7,0.2l-1.8,0.2l-0.8,0l-1.4,0.4l-4.8,0.7l-0.2-0.2l0.6-0.5l2-0.8l0.9-0.6l0.4-0.2l2.6-0.8 l1.3-1l0.3-0.6l-0.6-0.2l0.4-0.8l-0.3-0.5l-0.1-0.5l-0.4-2.3l-1.9-3.8l-1.3-2.4l-0.5-1.4l0-0.8l1.3-0.8l-0.2-0.8l-0.2-1.1l-0.6-1.4 l1-0.2l0-0.6l1-0.4l-0.1-0.9l0.9-1.2l0.2-0.9l0.3-1.5l-0.1-0.4l-0.2-1.8l-0.8,0.2l-1.8-3.4l-0.9-2.4l-5.8-11.1l10.3-6.9l-0.5-0.2 l-0.8-1.2l-1.4-1.5l-0.5-1l-2.9,0.3l-1.6,0.3l-0.7,0.1l-0.6,0l-1-0.2l-0.9,0h-2l-1.9,0l-1,0l-0.5,0l-0.5,0L280,29l-0.5-0.2l-3.5-0.7 l-1.3-0.2l-0.5,0.1l-0.5,0l-0.6-0.1l-0.7-0.2l-0.7-0.3l-0.7-0.2l-0.8-0.1l-0.8-0.1l-1.1-0.4l-0.4,6.6l-0.3,4l-0.2,3.6l3.4,0.2l0,0.7 l-0.2,3.1l-0.8,3.3l0.4,1l-0.3,2.9l-0.8,9.1l-0.7,0.1l-1.4,0.2l-4.9,1.2l-0.6,0.1l-2.2-0.1l-2.8,0.8l-2.4,0.2l-4.5-1l-3.3-0.8 l0.1,1.1l0.1,0.6l0.1,0.8l0.3,1l0.3,0.7l0.8,1.5l0.3,0.6l0.5,1.4l0.5,1.9l0.2,1l-0.1,2.3l-0.1,1.5l0,0.7l-0.1,1.2l-0.1,1.8l-0.2,2 l-0.1,1.6l-0.1,1.7l0,1l-0.2-0.1l-0.7-0.5l-0.9-0.2l-1.3-0.6l-1.3-0.3l-0.6,0.1l-1.9,0H241l-0.9,0.3l-2,0.1l-0.6,0l-1.4,0.3l-0.6,0 l-1.8-0.1l-0.6-0.1l-0.9-0.1l-1.3,0.3l-0.5,0.2l-0.5,0l-1.1-0.1l-2.5-1.4l-0.5-0.2l-0.6-0.1l-0.7,0.1l-0.6,0.2l-0.4,0.2l-1,0.2 l-5,0.2l-3.3,0.7l-1.8,0.1l-0.7-0.1l-1.2-0.1l-0.7-0.1l-0.7-0.1l-1.4-0.3l-0.5-0.8l-0.5,0l-1-0.3l-1.7,0.4l-1.3-0.1l-0.9-0.1l0,0.7 l-0.1,0.8l-0.2,0.7l-0.1,2l-0.1,1l-0.3,1.1l-1.9,4.1l-0.3,0.6l-1.2,3l-1.6,1.5l-0.5,0.4l-1.2,2.6l-1.6,3.4l-3.1,6.2l-0.8,1.7 l-0.9,1.8l-0.7,1.2l-0.3,0.6l-0.4,0.6l-0.5,0.5l-0.8,0.4l-2.2,1l-0.4,0.2l-0.5,0.3l-0.7,0.7l-0.2,0.5l-0.1,0.7l0,0.8l0.2,1.5 l0.5,1.3l0.6,0.8l0.9,1l2.2,3.2l1.5,2.5l0.7,1.1l2,2.2l1.5,1.6l0.8,0.7l3,2.2l1.3,1l3,3.1l0.5,1l0.2,0.4l0.4,1.8l-0.4,1.2l-0.9,3 l-0.8,2.6l-0.4,1.4l-0.9,1.6l0.6,3.2l0.8,2.3l0.3,3.4l0.4,2.8l0.1,1l0.2,1.7l1.2,1.8l1.3,1.2l1.5,2l1.5,1.5l1.3,1.7l0.6,0.9l0.4,2.5 l0.7,1.6l0.8,2.2l0.2,1.6l0.5,1.7l0.5,0.9l0.1,0.3l0.2,0.6l0,0.7l-0.1,1.5l0,1.4l0.1,1.2l0.2,0.5l0.2,0.5l-0.2,0.6l0.3,0.8l0.3,0.5 l0.1,0.1l0.5,0.7l1.4,1l7.1,5.5l1.8,1.4l10.3,8.4l3.1,2.2l1.8,1.2l1.8,0.6l2.4,0.5l3.6,0.3l10.3,0.3l32.8,1.2l9.5-16.8l0.7-0.5 l7.6-2.8l4.2-0.9v0l0.2,0l1.7-0.4l0.6-0.1l0.7-0.2l1-0.5l0.5-0.5l0.4-0.6l0.3-0.7l0.2-0.8l4.5,0.4l0.9,0.9l5.9-5l13,4.3l4.7,0 l3.6,0.1l0.4,0l2.5,0.2l0.3,2.4l4.7-1.2l0.6,5.5l1.5-0.2l0.3-0.2l4.6-4l6.3-0.2l1.8-9.6l2.8-0.5l3.4-2.1l3.5,0.5l0.9-0.8l0.5-0.6 l0.4-0.4L381.2,187.6z M290,85.5L290,85.5"/>
<path style="fill:#00FF66;" id="spandau" d="M267.3,249.3l-1.5-0.5l-4.4-2.1l-0.1-0.9l-0.5-1.8l-0.8-1.2l-0.7-0.7l-0.9-0.6l-0.7-0.4l-0.5-0.2l0.3-1.7l1-4.6l-3.5-10.3 l0-0.9l0-0.4l-10.3-0.3l-3.6-0.3l-2.4-0.5l-1.8-0.6l-1.8-1.2l-3.1-2.2l-10.3-8.4l-1.8-1.4l-7.1-5.5l-1.4-1l-0.5-0.7l-0.1-0.1 l-0.3-0.5l-0.3-0.8l0.2-0.6l-0.2-0.5l-0.2-0.5l-0.1-1.2l0-1.4l0.1-1.5l0-0.7l-0.2-0.6l-0.1-0.3l-0.5-0.9l-0.5-1.7l-0.2-1.6l-0.8-2.2 l-0.7-1.6l-0.4-2.5l-0.6-0.9l-1.3-1.7l-1.5-1.5l-1.5-2l-1.3-1.2l-1.2-1.8l-0.2-1.7l-0.1-1l-0.4-2.8l-0.3-3.4l-0.8-2.3l-0.6-3.2 l-3.5-0.5l-1.8,0.1l-0.8-0.1l-1-0.3l-0.9-0.2l-0.9-0.3l-1.2-0.2l-1-0.3l-0.5-0.3l-2.5-1.4l-0.7-0.5l-0.5-0.3l-0.7-0.5l-0.6-0.4 l-0.7-0.2l-1.4-0.2l-0.8-0.5l-0.6-0.2l-0.7-0.3l-2.8-0.5l-1.4-0.4l-1.2-0.4l-0.6-0.3l-1.2-1l-0.7-0.6l-1.5-0.7l-1-0.5l-0.8-0.4 l-0.5-0.4l-1.4-1.5l-0.7-0.3l-0.6-0.2l-0.7-0.1l-1.1-0.3l-0.8-0.3l-1.1-0.5l-0.8-0.5l-0.8-0.2l-1.2,0l-1.4-0.1l-1.4-0.3l-0.7-0.3 l-1.1-1l-0.5-0.5l-2.3-1l-2-0.4l-0.7-0.3l-0.8-0.9l-0.5-0.4l-2.2-1.5l-3.2,0.8l-2,0.5l-2.6,0.8l-0.9,0.4l-0.7,0.5l-0.5,0.5l-0.4,0.5 l-0.8,1.4l-0.7,1.3l-1.7,2.4l-2.7,3.3l-3.1,1.8l-3,1.9l-4.3,1l-1.5,0.6l-2.7,2.4l-3,0.8l-1.7,0.1l-1.7-1.2l-1,0.6l-0.2,2.1l0.9,0.1 l-1.4,4.9l1.8-0.2l0.5,0.4l0.4,0.5l0.6,1.9l0.3,1.5l0.4,1.3l0.8,0.8l2.9-0.7l0.8-0.2l1.6-0.6l0.8,0.1l1,0.1l0.9-0.6l2.2-1l0.8-0.3 l1-0.2l0.9-0.8l3-1.3l2.4-0.8l0.4,0.7l0.7,0.5l0.5,0.7l0.2,1.5l0.5,1.4l0.6,1.3l0.6,1.5l0.3,1.3l0.2,1.5l-0.1,1.1l0.1,1.7l-0.1,0.7 l0.1,0.9l-0.2,0.8l-0.2,2.3l-0.4,0.6l-0.1,0.6l0.1,0.8l-0.4,1.8l-0.5,1.1l-0.7,0.4l-0.2,0.5l0,1l-0.9,2.5l-0.3,1.3l-0.1,0.2h0 l-0.7,1.4l-0.5,0.8l-1,1.5l-0.3,0.6l-0.1,0.7l-0.5,4.7l-0.5,0.5l-0.9,0.9l0.3,0.5l0.4,2l0.2,0.5l0.2,0.5l0.1,1.2l0,1.4l0.3,1.9 l0.1,1.1l-0.1,1.1l-0.2,0.7l-0.7,0.9l-0.3,0.8l-0.1,0.7l-0.7,0.8l-0.9,0.2l-0.3,0.6l-0.2,0.1l-0.2,0.1l-0.8,0l-0.7-0.1l-1-0.3 l-0.6-0.1l-2.7-0.2l-1.6-0.1l-0.7-0.2l-0.7-0.4l-1.3-0.8l-1.2-1.3l-1.3-1.9l-1.1-1l-0.7-0.5l-0.6,2.4l-1.2,4.3l-1.1,4l-0.6,2.2 l-1,3.5l-1.1,3.9l0.1,1.5l-0.9,6l-0.4,1.8l-0.1,0.6l-0.4,2l-0.2,0.8l-0.5,1.3l-1.4,3.4l-0.5,1.2l-0.7,1.7l-0.5,1.3L94,254l-0.3,1 l-0.2,0.8l-0.1,0.8l0,0.6l-0.1,0.9l-0.1,0.6l-0.1,0.5l0,1.3l0,0.9l0,0.6l-0.1,1.2l0,1l-0.1,2.5l-0.2,1.6l0.1,0.8l0,0.5l0.1,1.1 l-0.3,2.1l-0.3,1.3l-0.1,0.7l-0.1,0.6l-0.1,0.8l-0.1,1l-0.3,1.8l1.2,0.1l0.7,0l0.9,0l0.4-0.1l3-0.5l1.8-0.2l1.5,0l0.5-0.1l1.4-0.4 l0.9-0.2l0.9-0.2l1.2-0.1l1.2-0.2l2.9-0.7l1.3-0.2l0.6-0.1l1-0.2l0.9-0.3l1.2-0.4l2-0.6l1.3-0.2l0.5,0.4l0.5,0.3l0.5,0.3l0.5,0.5 l0.3,0.9l0.2,0.8l0.6,0.9l0.9,0.1l1.1,0.3l0.7,0.4l0.5,0.3l2,1.3l1,0.6l0.8,0.5l0.8,0.7l0.6,0.5l0.7,0.5l1.3,0.9l0.5,0.3l0.5,0.3 l1.1,0.7l0.5,0.3l1,0.3l0.9,0.4l0.2,0.1l1.5,1l1.3,0.9l1,0.6l0.9,0.6l0.5,0.3l2.8,1.6l0.7,0.4l0.9,0.5l-0.8,0.7l-0.3,0.6l-4.2,4.7 l-3.5,3.8l-1.9,1.9l-0.6,0.7l-1,1.2l-0.6,0.7l-0.2,0.2l-1.6,1.8l-0.6,0.7l-0.5,0.6l-0.6,0.8l-0.5,0.6l-0.4,0.5l-1.1,1.3l-1.9,1.9 l-0.5,0.6l-2.6,3.3l-3.5,4.4l-2.9,3.7l-3.6,4.6l-1.4,1.7l-0.8,1l-0.5,0.7l0,0l-0.8,1.1l-1.2,1.6l-1.8,2.5l-1.4,1.8l-1.7,2.1 l-1.5,1.5l-0.8,0.6l-3.3,0.8l-3.1,0.7l-2.8,0.9v3.3v0.8l-0.1,0.6l-0.5,1.3l-0.8,2.2l-0.7,1.5l-2.3,3l0.1,2.2l-2,1.9l-0.9,1.8 l-0.5,1.3l0.5,2.2l0.2,1.3l0,0.7l0,2.5l-0.9,3.4l2,2.1l0.3,2.1l-0.6,6.2l-0.2,0.8L85,391l-0.4,1.2l-0.8,1.2l-0.6,1l-0.6,1.3l1.8,1.4 l0.6,0.6l0.5,0.6l0.6,1.1l1.3,0.7l0.8,0.4l0.5,0.6l-1.5,1l1.8,2.5l1.4,0.1l1,1.3l0.4-0.5l1.3,1.1l1.4,2.4l0.9,0.9l0.4,0.5l0.5,0.9 l0.5,0.5l1.5,1.6l4.5-0.9l15-3.5l20.5-13.7l0.3-0.2l7.1-4.8l17.5-15l1.4-5.7l0.7-2.8l1.6-6.9l-0.7-11.4l2.8-9.6l-3.5-11.4l3.1-8.4 l0.4-6l0-0.3l2.4-1.8l2.3-1.7l6.4-0.1l8.3-3.9l1.2-1.6l-0.4-3.2l2.3-6.5l0.3-1.4l0.7,0.2l0.7,0.2l0.5,0.1l1.1,0.1l1.5,0.1l0.3-0.7 l-0.7-0.2l0.5-1.2l0.2-0.8l0.6-1.4l1.1-1.7l1.3-2l0.9-0.5l0.3,0.5l1.3-0.1l-0.7-1.1l-0.2-0.8l-0.3-2.4l-0.4-7.7l0-1.3l0.2-1.1 l0.2-0.8l0.4-1.6l0.8-2.2l0.8-2.1l0.4-1l0.4,0.1l0.2,0l1.4,0.4l2,0.2l1.3,0.3l1-0.2l0.8-0.4l2.2,0.2l0.4,0l5.6-0.6l1.4,0.1h1 l1.1,0.4l0.2-0.5l7.4,3.1l0.8,0.3l0.4-0.6l-0.7-1.7l-0.1-0.9l-0.1-1.2l-0.2-0.7l-0.4-0.6l-0.6-0.4l1.3-1.3l0-0.3l0.8,1.6l0.6,0.3 l0.8,0.3l0.5,0.2l0.8,0.1l1.2,0l1.6,0.1l3.9-0.2l2.4-0.3l0.8-0.2l2.3-1.2l1-0.4l1.2-0.4l1.3-0.2l0.7-0.1l0.4,0l1.6-0.2l0.8-0.1 l0.5,0l0.7,0l1.2,0l1.5,0.2l0.8,0.1h0.8l0.9-0.1l2-1.3l0.9-0.7l0.7-0.4l0.9-0.2l1,0l1.2,0.4l0.3-0.9l0-0.1l0.7-3.5l0.5-2.4 L267.3,249.3z"/>
<path style="fill:#660099;" id="charlottenburg_wilmersdorf" d="M331.3,300.4l-1.1-0.3l-0.6,0l-0.7,0.1l-0.3-0.6l-0.3-0.9l-0.5,0.1l-0.8,0.2l-0.5,0.1l-1.3-0.1l-0.7-0.4l-1.1-0.9l-0.2-0.9 l0.8-2.2l-0.6-0.8l-0.9-0.4l-3.8-2l1.1-0.5l2.2-1.1l0.5-0.4l0.5-1.1l-0.5-0.2l-1.7-0.9l-0.6-0.4l-0.4-0.7l5.2-0.5l0.2-0.8l0.2-0.6 l0.1-0.5l-0.8-0.8l-1.4-3.6l-0.3,0.1l-0.9,0.1l-0.8-0.1l-0.6-0.2l-1.1-0.7l-0.4-0.5l-0.4-0.4l-0.3-0.6l-0.2-0.5l-0.2-0.6l0-0.8 l0-0.6l0.2-0.8l0.2-1l0-0.8l-0.1-0.8l-0.4-1l-0.5-0.8l-0.6-0.7l-1-1.1l-1-0.8l-0.9-0.5l-0.7-0.4l-0.7-0.2l-0.7-0.1l-0.9,0l-0.9,0.1 l-1.1,0.4l-0.5,0.3l-0.5,0.4l-0.5,0.6l-0.3,0.6l-0.2,0.7l-0.1,0.6l-0.1,1.1l0.1,0.6l0.4,0.5l-1.3,1.7l-0.9-0.5l-3.8-16.7l3.5-1.2 l0-0.5l0.5-0.6l0.2-1.5l-4.8,0.9l-0.1-0.4l-1.4-6.3l9.6-2l8.1-1.9l0.6-0.2l0.6-0.3l-2.2-4.5l0-0.7l0-0.4l-1.4-1.3l-2-1.5l-5.5-6.7 l-1.5-1.5l-0.7-0.3l-13.9-0.9l-3.2-0.2l-32.8-1.2l0,0.4l0,0.9l3.5,10.3l-1,4.6l-0.3,1.7l0.5,0.2l0.7,0.4l0.9,0.6l0.7,0.7l0.8,1.2 l0.5,1.8l0.1,0.9l4.4,2.1l1.5,0.5l0.8,0.2l-0.5,2.4l-0.7,3.5l0,0l0,0.1l-0.3,0.9l-1.2-0.4l-1,0l-0.9,0.2l-0.7,0.4l-0.9,0.7l-2,1.3 l-0.9,0.1h-0.8l-0.8-0.1l-1.5-0.2l-1.2,0l-0.7,0l-0.5,0l-0.8,0.1l-1.6,0.2l-0.4,0l-0.7,0.1l-1.3,0.2l-1.2,0.4l-1,0.4l-2.3,1.2 l-0.8,0.2l-2.4,0.3l-3.9,0.2l-1.6-0.1l-1.2,0l-0.8-0.1l-0.5-0.2l-0.8-0.3l-0.6-0.3l-0.8-1.6l0,0.3l-1.3,1.3l0.6,0.4l0.4,0.6l0.2,0.7 l0.1,1.2l0.1,0.9l0.7,1.7l-0.4,0.6l-0.8-0.3l-7.4-3.1l-0.2,0.5l-1.1-0.4h-1l-1.4-0.1l-5.6,0.6l-0.4,0l-2.2-0.2l-0.8,0.4l-1,0.2 l-1.3-0.3l-2-0.2l-1.4-0.4l-0.2,0l-0.4-0.1l-0.4,1l-0.8,2.1l-0.8,2.2l-0.4,1.6l-0.2,0.8l-0.2,1.1l0,1.3l0.4,7.7l0.3,2.4l0.2,0.8 l0.7,1.1l-1.3,0.1l-0.3-0.5l-0.9,0.5l-1.3,2l-1.1,1.7l-0.6,1.4l-0.2,0.8l-0.5,1.2l0.7,0.2l-0.3,0.7l-1.5-0.1l-1.1-0.1l-0.5-0.1 l-0.7-0.2l-0.7-0.2l-0.3,1.4l-2.3,6.5l0.4,3.2l-1.2,1.6l-8.3,3.9l-6.4,0.1l-2.3,1.7l-2.4,1.8l0,0.3l-0.4,6l-3.1,8.4L169,339 l-2.8,9.6l0.7,11.4l6.3,0.4l1.2-0.6l1.5-0.1l0.8,0.5l0.7,1.2l0.4,2l0.7,0.5l0.6,0.1l0.8-0.3l0.6-0.3l0.8-1.2l0.6-0.6l1.2-0.4 l0.4-0.3l0.7-0.1l0.8,0.1l0.8,0.2l1,0.1l1.7,0.7l2.1,0.4l1.5,0.4l0.6-0.2l1.2-0.1l0.5-0.2l1.4-0.4l1.2-0.3l2.7,0.1l3.8,0.3l5.2-0.9 l3.5-0.6l0.8,0l0.7,0.2l2.5,1.1l1.9,0.8l0.3,0l1.7,0.5l1.6,0.4l3.8,1l5.2,1.4l0.5,0.1l4.5,1.3l0.7,0.2l1.7-0.3l0.9,0.1l2.1,0.2 l1.6,0.2l0.9-0.7l1-0.7l0.9-0.9l1,0.6l0.4,0.8l1.1,0.1l1-0.2l1.8-0.4l1.4-0.2l1.6-0.3l3.2-0.5l1.5-0.3l4.8-1l0.4,0.2l2.8-0.7 l8.4-2.7l0.7,0.9l0.7-0.6l8.4,2.6l0.2,0.1l8.7,2.3l1.1-0.8l1.1,0.7l0.6-0.5l0.6,0.5l0.5,0.4l1,0.3l0.6-0.1l0.5,0l8.7,0.3l0-5.4 l0.1-0.9l0.2-12.2l8.3,0.1l5,0.1l0.1-0.8l4.3-0.5l0-0.5l0-0.2l0-0.6l0-2.2l0-0.5l0-3.7l0-6l0-4l-0.2-2.6l0-1.2l0.6-0.6l-0.5-0.6 l0-2.2l0.4-4l-0.1-2.5l0.8-3.3l1-2.8l-0.1-0.9l-2.1-1.4l2.7-4.4L331.3,300.4z"/>
<path style="fill:#CC0099;" id="steglitz" d="M363.6,433.3l-4.8-12.9l-4.2-13l0.3-0.2l-0.1-0.2l-1.1-2.2l-0.1,0l-1.3-2.5l-0.9-2.7l-0.7-2l-2.7-7.3l-0.6-1.9l-0.6-1.3l0,0 l-1.9,0l0-0.5l-0.2-0.9l-0.7-1.1l-0.7,0l-0.6,0.4l-1.2,0.3l-2-0.2l0-3.2l-0.7,0l-0.5-0.2l-0.5-0.3l0.3-0.6l-3.2-4.4l-6.3-6.6 l-0.4-1.6l-0.4-0.3l-2-1.4l-1.9,2l-3.4,0.7l-0.7,1l-1.5-0.8l-1.3,2.1l-7.6-4.4l-1,0l-8.7-0.3l-0.5,0l-0.6,0.1l-1-0.3l-0.5-0.4 l-0.6-0.5l-0.6,0.5l-1.1-0.7l-1.1,0.8l-8.7-2.3L285,364l-8.4-2.6l-0.7,0.6l-0.7-0.9l-8.4,2.7l-2.8,0.7l-0.4-0.2l-4.8,1l-1.5,0.3 l-3.2,0.5l-1.6,0.3l-1.4,0.2l-1.8,0.4l-1,0.2l-1.1-0.1l-0.4-0.8l-1-0.6l-0.9,0.9l-1,0.7l-0.9,0.7l-1.6-0.2l-2.1-0.2l-0.9-0.1 l-1.7,0.3l-0.7-0.2l-4.5-1.3l-0.5-0.1l-5.2-1.4l-3.8-1v0l-1.6-0.4l-1.7-0.5l-0.3,0l-1.9-0.8l-2.5-1.1l-0.7-0.2l-0.8,0l-3.5,0.6 l-5.2,0.9l-3.8-0.3l-2.7-0.1l-1.2,0.3l-1.4,0.4l-0.5,0.2l-1.2,0.1l-0.6,0.2l-1.5-0.4l-2.1-0.4l-1.7-0.7l-1-0.1l-0.8-0.2l-0.8-0.1 l-0.7,0.1l-0.4,0.3l-1.2,0.4l-0.6,0.6l-0.8,1.2l-0.6,0.3l-0.8,0.3l-0.6-0.1l-0.7-0.5l-0.4-2l-0.7-1.2l-0.8-0.5l-1.5,0.1l-1.2,0.6 l-6.3-0.4l-1.6,6.9l-0.7,2.8l-1.4,5.7l-17.5,15l-7.1,4.8l0,0l-0.3,0.2L117.9,409l-15,3.5l-4.5,0.9l-0.8,1.9l0,1.6l-1.2,1.4l-0.9,0.5 l-4.4,2.6l-3.5,5.4l-1.9,1.1l0.8,5.7l-5,4.4l-1.6,2l-1.4,0.6l-0.9,2.3l-1.5-0.8l-1-0.2l-1-0.4l-0.7-0.8l-1.1-0.4l-0.4,0.1l-1.1,1.1 l0,0.6l-0.5,1.7l-1.2,1.5l-1,1.2l-8,4l2.2,10.7l0,1.7l0.4,1.5l0.7,0.2l0.5,0.1l0.5,0.3l1,1l4.4,2l0.8-0.7l0.9-0.6l-0.2-0.6l0.1-0.5 l-0.4-0.6l-0.7-0.5l-0.7-0.9l-0.8-1.5l0.1-0.4l0.8-0.1l1.3-0.6l1.5-0.5l0.9,0.1l-0.2,0.5l0.1,0.8l0.4,1.7l0,1.8l0,0.9l2.5,0.8 l1.4,0.5l0.5-0.2l0.8,0.5l0.5-0.1l0.4,0l0.4,0l0.2-0.5l0-0.8l0.3-2.7l0-0.5l-0.1-0.8l-0.1-0.5l0-0.6l0.8,0l1.5,0.6l0.3,1.7l0.2,1.2 l0.8-0.1l0.6-0.1l0.3,1.7l-0.6,0.1l-0.8,0.1l0.2,1.4l-2.4,0.4l-1.8-0.5l-0.3,1.6l2.4,0.4l0.9,0.7l-1.1,1.4l0.6,0.5l0.8,0.8l0.6,0.8 l0.7,1l0.3,0.4l0.3,1.6l0.6,0.7l4.4,2.7l1.4,0.4l0.5,0.1l0.6,1.2l1.6,2.3l0.5,0.8l1.3,1.5l2.8,2.4l0.6,0.7l0.7,0.4l0.5,0.3l1.4,0.2 l0.8-0.2l1-0.6l4.1-3l1.2-1.2l1,1l1.6,0.8l0.6,0.1l1.2,0.8l-3,0.5l0.6,2.1l2,0.1l0.7,0.1l0.5,0.3l-5.1,4.6l-2.7,2.9l-0.5,0.7 l-0.8,1.4l-0.5-0.4l1.4-1.8l-2.9,0.1l-0.9,0.1l-0.3,1.3l-0.2,2.4l1.4,1.3l1.1,1.1l1.4,1.4l0.6,0.3l0.7-0.4l0.8,0.1l0.7,0.1l0.5-2.7 l-0.5,0.1l-0.5-0.1l-2.8-2.7l1.3-1.7l2.8-3.2l4.4-3.8l1.2-1l2.7-1.9l1.3-0.5l-0.1,1.1l0.5,0.7l0.3,0.4l2.2,1l0.6,0.1l1.4,0.2 l5.5,0.8l2.3,0.6l1.4,0.4l3.2,0.5l1.1,0l2.8-0.3l5.5-0.4l0.7,0l0.6-0.4l2.4-1.8l-0.5-3.6l-0.8,0.2l-2.3,0.6l-8.4,1.3l-2.8,0.1l0-0.5 l0.1-0.9l0.5-1.3l0.4-1.4l0.6-1.3l0-0.7l0.1-5.1l14.1-7.5l1.3-0.7l6.9-3.6l3.1-1.6l2.6-1.4l0.2-0.1l9.9-5.8l1.6-1.1l0.6-0.2l1-0.2 l1.6,0.1l0.7-0.1l1.1,0l3.7-0.6l1.3-0.3l1.7-0.4l2-0.6l2.6-1l1.5-0.8l0.7-0.2l1.5-0.8l0.5-0.4l1.4-1.1l1.1-0.3l0.5-0.1l1.7-0.7 l1.2-0.5l0.8-0.3l1.8-0.6l1-0.5l0.7,0l1.2,0.2l1,0.1l1.3,0.2l0.4,0.1l1,0.2l2.6,0.2l1.1,0l1.6-0.6l1.3-0.3l2.3,0.1l2.8-0.2l3.7-0.2 l2.1-0.3l0.2,0.6l0.5,1.4l0.5,1.9l0.5,2.8l0.3,1.7l0.1,1.3l0.6,2.8l0.6,4.1l0,0.5l-0.1,4.5l-0.2,0.8l0.4,0.9l0,0.7l0.3,3.8l0.1,0.7 l1.6-0.9l0.8-0.4l1.1-0.4l1.5-0.3l0.6-0.1l0.7-0.1l1.6-0.1l1.4,0l0.9,0.1l1,0.3l1,0.4l2.5,1.6l1,0.5l2,0.8l0.5,0l2.1,0l0.5,0l0.1,0 l0.6,0.1l0.9,0l1.7-0.2l0.5-0.4l0.6-0.1l1.9-0.7l0.5-0.2l0.6-0.3l2.3-1.8l2.9-2.3l0.9-0.7l2-1.8l3.9-3.6l1.3-1.3l5-4.6l0.8-0.7 l3.3-2.2l0.3,0.5l0,0.5l-0.2,0.8l-0.4,0.6l-0.6,0.3l2.9,4.6l1.4,2.1l0.7,1.1l0.6,0.9l1.2,1.7l3.1,4.7l1.8,2.7l2.9,4.9l1.8,2.8 l0.9,1.2l1.1-1.2l0.8-1l4.9-3.3l5.2-3.2l4.3-2.6l4.6-2.7l1.4-0.8l3-1.8l6.8-4.4l1.2-0.8l-0.5,0l0.5-1.7l-0.1-1.6l-0.4-1.2l1.3-0.8 l1.7-1l3.1-1.6l2-1.1l5.4-3l1-0.6l3-1.8l1.4-1.3l3.4-1.8l4.3-9l0.7-1.5l1.8-1.2l1.2-0.9l0.8-0.8L363.6,433.3z"/>
<path style="fill:#99FFFF;" id="pankow" d="M524.5,54.8l-1.3,0.1l-0.8-2.4l-0.6-1.7l-3,1l-1.1,0.5l-2.9,1.4l-2.7-2.6l-1.9-1.7l-1.2-1l-1.2-1.2l-0.8-0.4l-1.1-0.7 l-0.9-0.3l-0.5-0.3l-0.6-0.5l-1-0.6l-1.1-0.7l-0.6-0.1l-1.6-1l-0.9-0.6l-1.3-1.1l-2.6-1.4l-1.8-1.5l-1-1l-1.3-1.5l-0.6-0.6l-4.5-6.2 l1-5.3l0.3-2.3l0.3-2.7l0.4-2.4l0.3-2.5l0.3-1.6l0.7-1.6l-0.3-0.8l-2.2,1.2l-1.1,0.5l-7.5,3l-2.2,1.7l0-1l-0.5-1.1l-0.6-1l1.4-4.8 l4-6.6l-0.5-1l-2.7,2.8L475,1.6l-5.3,6.9l-4.9,6.9l-6.9-3.2L458,13l-4.3,4.9l-0.5,0.3l-3.7,4.2l-0.9,0.9l3.3,1.3l9.2,7.7l11.8,1.7 l0.3,0.5l0.3,0.5l0.2,0.9l-0.1,0.6l-0.1,0.6l-0.2,1.3l-0.6,0.6l-0.9,0.5l-0.9,0.8l-1.2,1.3l-0.5,0.7l-0.7,0.3l-0.6-0.1l-0.6,0.1 l-0.6-0.1l-0.7,0l-0.6,0.3l-1.2,0.9l-0.5,0.5l-0.7,0.4l-0.7,0.3l-0.6,0.5l-0.4,0.6l-0.7,1.4l-1.1,0.5l-0.5,0.2l-0.9,0.7l-3.3-0.4 l-3.8-0.5l-1-0.2l-0.1-1l-0.2-0.7l-0.5-0.1l-0.7-0.1l-0.9-0.1l-2.2-0.1h-0.6l-0.7,0.2l-0.6,0.3l-0.8,0.3l-2.2,0.1l-0.7,0.7l-0.6,0.1 l-0.4,0l-0.4-0.5l-0.6,0.4l-0.7,3.8l-0.5,2.8l-3.4,0.9l-1.1,0.3l-1.3,0.4l-0.4,0.5l-0.2,1.7l-0.3,2.2l-0.1,0.9l0.3,2.2l0.2,1.4 l0.1,0.8l0.5,0.6l0.1,0.8l-1.4,1.1l-0.7,0.3l-4.3-0.3l-0.7,0.4l-0.6,0.4l-0.5,0.4l-2.3,2l-0.7-0.6l-2.3-1.8l-1.7-1.3l-3.2-2.4 l-0.6-0.5l-2.1-2.7l-0.1-0.5l0.4-0.7l0-0.5l0-0.5l-0.3-0.5l-0.8-0.1l-0.6-0.2l-0.6-0.7l-0.5-0.6l-2.4,0.6l-1.4,0.4l-1.1,0.5L402,58 l-0.7-0.9l-0.7-0.6l-1.6-1l-1.1-0.8L397,54l-1.3-1.2l-1.6-1.7l-0.5-0.6l-0.7-0.7l-1-1.2l-0.4-0.3l-0.5,0.2l-0.5,0.7l0.4,0.3 l-0.9,0.7l-0.7,0l-1.4-0.4l-0.2,0.8l-0.1,0.8l-0.8,1.4l-0.3,0.4l-0.4,0.6l-0.2,1l-0.2,0.8l-0.1,1l-0.5,0.2l-0.8,1.1l-0.7,1l-0.3,0.6 l-0.1,0.6l0,1l0,1.1l0,0.4l0,0.9l-0.2,0.6l-0.3,0.6l-0.2,1.1l-0.4,0.7l-1.1,1.2l-0.5,0.2l-0.6,0.3l-1.5,0.7l-0.7,0.2l-0.7,0 l-0.5-0.1l-0.5-0.1l-0.5-0.1l-0.4,0.1l-0.7,0.3l-0.5,0.7l1.1,0.8l0.2,0.6l-2.4,1l-0.3,0.5l-0.6,0.8l-0.7-0.8l-0.6,0.8l-0.6,0.8 l-0.2,0.8l-1.6,2.6l-0.6,0.3l0.8,1.1l0.8,1.7l-0.7,0.6l-2.6,2.5l-1.5,0.6l-0.6,0.5l-0.7,0.1l-0.7-0.3l-0.5,0.6l-0.6,1l-0.2,0.6 l-1.1,0.9l-0.5-0.2l-0.5-0.4l-0.5,0.3l0.3,0.6l-0.6,0l2.4,4.1l1.8,3.4l3.1,7.4l1.7,4l1,3l0.4,3.2l-0.1,6.1l-0.2,0.4l-0.5,1.1 l-0.2,0.5l-4.9,12.1l-2.1,2.7l-0.8,1.1l-0.5,0.6l-3.4,4.3l-0.3,0.4l-2.7,4l-1,1.4l-0.1,0.2l-1.9,0.4l-1.7,0.2l-3.9,0.1l-2.7,0.3 l-3.1,0.9l0.2,0.1l-0.7,0.3l16,14.1l3.8,3.3l14.4,13.2l2.8,0.8l0.9-0.5l5.6,5l-0.4,0.6l1.6,1.6l-0.4,0.4l-0.5,0.6l0.6,0.7l-0.4,0.5 l2.1,2l0.2,0.5l0.7,0.5l1.4,1.3l0.7,0.7l0.9,1.2l1,1.6l0.7,1.7l0.6,1.7l0.5,2.4l0.3,1.6l0,1.4l0,0.4l0,0l0,0.7l0,1.5l0.1,0.9 l0.2,1.4l0.4,3l0.1,0.9l-0.1,0.9l-0.2,0.8l-0.3,1l-0.5,0.8l1.4-0.2l2.2,7.5l3.5,10.8l1-0.4l0.1,0.4l2.1,7.1l0.9,3l0.9,0.7l-2,3.5 l-0.4,2.1l-0.1,0.9l-0.4,1.7l1.8,0.6l2.7,0.7l1.7,0.5l3,1.4l1,0.5l0.6,0.4l2.5,1.9l2,1.4l4.4-4.6l1.2,0.1l0.7-0.3l4.9-0.9l7.7-1.5 l1,1.4l2.7-2.7l1.5-1.4l5.4,8.2l3.5-1.7l1.5-0.7l1.3,2.7l1.7,3.9l1.1,2.7l-0.7,2.1l0.5,0.2l1.3,0.4l5.2,1.6l0.7,0.2l1.6-0.2l6-1 l2.9-0.3l-1.4-2.4l-1.3-1.4l-0.3-0.2l-1.1-0.8l-2.1-1.1l-3.9-0.8l-2.8-1.5l-1.7-1.3l-0.7-1l-1.5-3l4.6-1.6l2.9-5.8l1.2-0.9l3-1.5 l1.6-1.2l-1-2.6l-1-0.5l-0.5-0.4l0.6-1.9l0,0l0.4-1.4l2.5-3l0.2-0.3l-2.7-13.8l1.1,0.1l1.2,0.8l4.5,0.1l6.3,0.2l0.9-1.1l-0.7-1.8 l0.4-0.6l1.7-0.1l0.5-0.2l3.7-4.6l0.7-0.4l4.4,1.2l4.3,1.6l1.4-4.9l0-1l-0.1-1.5l-0.7-1.9l-4.1-6.7l-1.1-1l-3.3-1.6l-1.6-0.2 l-0.2-0.5l0.3-1l0.4-2.5l0.1-0.7l-2.5-0.4l0.1-0.4l0.3-1.3l0-0.8l-0.4-0.7l4.1-5.3l0-0.1l-4.9-4.1l-0.3-2l-0.8,0.3l-0.9-0.2l-1.3,0 l-0.7-0.2l0.4-1l-0.3-0.5l0.1-1.5l0.3-1l-0.2-0.7l0.4-4.3l-0.3-2.4l-0.2-0.8l0-1.1l0-1.5l0.8-4.1l1.1,0.3l0.5-1.2l1.7-0.1l1.1-2.8 l1-2.9l0.2-0.6l0-0.1l0.7-1.3l2.1-2.4l0.6-0.5l17.3-11.2l-0.2-0.5l-2.5-5.8l-0.9-2.1l-1.8-4.3l-2.9-2.4l0-0.6l-0.2-2.4l1.4-7 l0.1-0.6l0.7-1.9l0.9-2.5l0.3-0.7l0.8-2.1l1.2-3.5l1.6-3.5l0.2-0.1l0.7-0.3l0.6-0.4l0.3-0.1l0.1-0.6l0-1l0-3l0.2-4.1l0.1-1.9 l0.8-0.7l1.4-0.9l2.7-1.7l0.6-0.3l1.2-0.6l3.9-1.8l2.1-1.2l0.7-3.4l2-6.3l1.3-5.1l0.2-1l0.1-0.5l0.4-1.4l0.2-1.3l0.2-1.2l0.5-5.1 l0.1-1.2L524.5,54.8z"/>
<path style="fill:#FFFF66;" id="tempelhof_schoeneberg" d="M423.5,508.9l-0.5-2.7l-0.4-1.2l-1.4-5.5l-1.7-6l-2.4-8.7l-1.6-5.7l-0.5-1.8l-0.4-1.4l-0.7-3.7l-0.2-2.7l0-0.8l0.3-1.4 l0.9-0.3l0.2-0.5l-1.6-0.5l-3.4-2.3l-4.8-2.3l-1.3-0.3l-1.8,0.1l-2,0.4l-3.5,1.1l-2.7-8.1l-0.5-1.6l0.8-1.4l5-2l0.7-2.9l-3.2-0.8 l3.4-8.5l0.2-0.8l0.1-0.3l1.2-6.1l0.5-3.4l0.3-0.5l0.1-1.7l1.7-3l3.5-15.4l4-12.1l0.2-0.7h0l0.1-0.3l0.9,0l3.7-7.9l1.8,0.2l1.7,0.1 l1.7-0.1l0.6-0.2l-1.9-1.8l-4.6-2.7l0.9-2.3l1.9,0.4l-0.1-0.5l-0.2-1l-1.1-0.4l0.1-2.1l-0.4-5.8l-5.1,1l-3.6-23.7l-2.1,1.1l-4.7-0.7 l-0.9-2.8l-0.3-4.2l0.5-4.9l0.4-0.8l-2.6,1.6l-3,0l-0.4,0.5l-0.9,1.7l-6.7-0.1l0-3.3l-3.4-0.1l-5.1,0.1l-0.1,1.7l-0.7,0.1l-0.7-0.2 l-8.6-0.2l-4.9,0h0h-0.6l0.6-0.1l1.7-0.2l0.1-4.6l-0.6,0l1.2-2.3l0.9-0.5l0-2l1.1-1.6l0.1-0.5l-5.8-1.8l-3-1.1l0.5-1.1l-0.4-1.1 l0.3-4.7l1.2-1.6l0.1-0.9l-0.7-0.1l-6.8-1.6l-0.6-0.3l-9.8-4l-7.7-2.9l-5-2.1l-2,3.2l-2.7,4.4l2.1,1.4l0.1,0.9l-1,2.8l-0.8,3.3 l0.1,2.5l-0.4,4l0,2.2l0.5,0.6l-0.6,0.6l0,1.2l0.2,2.6l0,4l0,6l0,3.7l0,0.5l0,2.2l0,0.6l0,0.2l0,0.5l-4.3,0.5l-0.1,0.8l-5-0.1 l-8.3-0.1l-0.2,12.2l-0.1,0.9l0,5.4l1,0l7.6,4.4l1.3-2.1l1.5,0.8l0.7-1l3.4-0.7l1.9-2l2,1.4l0.4,0.3l0.4,1.6l6.3,6.6l3.2,4.4 l-0.3,0.6l0.5,0.3l0.5,0.2l0.7,0l0,3.2l2,0.2l1.2-0.3l0.6-0.4l0.7,0l0.7,1.1l0.2,0.9l0,0.5l1.9,0l0,0l0.3-1.3l-0.3,1.3l0.6,1.3 l0.6,1.9l2.7,7.3l0.7,2l0.9,2.7l1.3,2.5l0.1,0l1.1,2.2l0.1,0.2l-0.3,0.2l4.2,13l4.8,12.9l0.1,0.3l-0.8,0.8l-1.2,0.9l-1.8,1.2 l-0.7,1.5l-4.3,9l-3.4,1.8l-1.4,1.3l-3,1.8l-1,0.6l-5.4,3l-2,1.1l-3.1,1.6l-1.7,1l-1.3,0.8l0.4,1.2l0.1,1.6l-0.5,1.7l0.5,0l0.1,1.7 l-0.1,5.3l3.2,3.2l3.4,3.4l1.7,1.7l2.1,1.6l1.7,1.7l2.3,1.9l1.3,1.1l1,0.8l0.8,0.8l2,1.3l1.8,1.2l1.7,0.9l4.5,2.8l3.6,2.3l-1.9,9.2 l4.8,0.5l1.3,0.1l0.7,0l1.9,0l3.9-0.3l0.3,0l0.2,0l3.1-0.2l1.8-0.1l0.3,3.3l0.1,0.9l0.3,3.3l0.3,3.6l-0.1,0.9l0.2,1.4l-0.1,1.5 l-0.1,1.4l0.4,1.1l0,1.4l3.8,0.2l6.9,0.4l1.7,0.2l0.9,0.1l1.5,0.3l1.9,0.3l0.6,0.1l2.1,0.1l1.1,0.2l2.3,0.4l0.7-0.1l2.5-0.3 l-0.1,0.7l5.5,0.3l3.2,0.2l0.1-0.4l1-2.7l2.6-6.1l2-4.7l0.9-2l0.5-1.1L423.5,508.9z"/>
<path style="fill:#FFFF66;" id="lichtenberg" d="M573.7,178.1l-1.1-2.7l-2.2-3.9l-1-1.2l-1.3-1.7l-0.6-0.7l-1.5-1.7l-2.6-2.4l-2.1-1.9l-1-0.9l-0.4-0.3l-1.8-1.3l-2.7-1.9 l-1.2-0.7l-0.7-0.4l-1-0.6l-0.9-0.4l0.2-0.5l-0.9-0.4l-5-1.9l-3.4-1.3l-1.4-0.5l-1.4-0.5l-1.2-0.4l-5.3-1.9l-2.7-0.8l-4.7-0.9 l-2.3,0.1l-3.2,0.2l-0.5,0.1l-1.1,0.1l-5.7,0.4l-3,0.1l-2.4-5.8l-0.8-1.7L489.5,151l-0.6,0.5l-2.1,2.4l-0.7,1.3l0,0.1l-0.2,0.6 l-1,2.9l-1.1,2.8l-1.7,0.1l-0.5,1.2l-1.1-0.3l-0.8,4.1l0,1.5l0,1.1l0.2,0.8l0.3,2.4l-0.4,4.3l0.2,0.7l-0.3,1l-0.1,1.5l0.3,0.5 l-0.4,1l0.7,0.2l1.3,0l0.9,0.2l0.8-0.3l0.3,2l4.9,4.1l0,0.1l0,0l-4.1,5.3l0.4,0.7l0,0.8l-0.3,1.3l-0.1,0.4l2.5,0.4l-0.1,0.7 l-0.4,2.5l-0.3,1l0.2,0.5l1.6,0.2l3.3,1.6l1.1,1l4.1,6.7l0.7,1.9l0.1,1.5l0,1l-1.4,4.9l-4.3-1.6l-4.4-1.2l-0.7,0.4l-3.7,4.6 l-0.5,0.2l-1.7,0.1l-0.4,0.6l0.7,1.8l-0.9,1.1l-6.3-0.2l-4.5-0.1l-1.2-0.8l-1.1-0.1l2.7,13.8l-0.2,0.3l-2.5,3l-0.4,1.4l-0.6,1.9 l0.5,0.4l1,0.5l1,2.6l-1.6,1.2l-3,1.5l-1.2,0.9l-2.9,5.8l-4.6,1.6l1.5,3l0.7,1l1.7,1.3l2.8,1.5l3.9,0.8l2.1,1.1l1.1,0.8l0.3,0.2 l1.3,1.4l1.4,2.4l1,1.4l0.6,1.4l0.5-0.2l1.6,4.1l0.8,3.1l1.5,0.7l-1.9-0.5l-0.7,2.5l0.4,2.2l0.2,0.9l0.3,1.3l-0.2,1l-0.2,0.7 l-0.3,0.6l-0.3,0.5l-0.7,1.2l-0.6,1.1l-1,1.7l0.8,0.4l-0.9,0.5l0,0.3l-0.8,0.8l-0.9,1.3l-0.1,0.7l-0.6,1.2l-0.6,1.1l-0.7,2.6l-1,4.8 l1.2,0.4l1.4,0.3l1.7,0.3l4.6,2.9l1.1,2.1l2,2.9l4.3,4.7l0.4,0.6l1,0.3l0.8,1.1l1.5,1.3l0.3,0.5l0.1,0.5l4.1,2.1l-0.5,1.4l2.1,3 l0.4,1l1.1,3.6l0.1,0l2.4-0.3l1.4,0l4.3,1.5l0.1,0l0,0.1l0.3,1l0.9,2.7l1.1,3.4l3.9,5.9l4.2-1l1.9-0.4l0.6-0.1l0.5,0l0.5,0.1 l0.5,0.1l0.9,0.4l4.6,2.5l1.3-2l1.2,1.4l1.4,1.7l6.9,9.8l1.8-2.1l6-7.2l2.2-3l2.1,1.5l1,0.2l0.1,0l5.8,1l-0.4-1l0.9-0.1l0.5,0.1 l0.9,0.3l0.6,0.1h2.5l-0.7-6.3l-3.2-4.9l-3.9-21.6l-0.1-0.5l-0.2-0.6l-0.4-0.9l-0.4-1.4l-0.3-2.3l-0.4-1.4l-2.2-3.6l-0.2-0.3 l-1.3-1.4l-0.4,0.6l-0.2,0.3l-0.5,0.3l-0.1-0.2l-1.1-2l-3.5-6.5l-0.5-1.1l1.8-0.1l0.5-0.3l0.2-0.6l-0.5-2.9l-0.1-2.6l0.1-1.6 l-0.5-0.4l0-1.5l1.6,0.1l0-0.2l0-0.4l0-0.6l0-0.6l-0.1-0.6l-0.2-0.7l-0.2-0.5l-0.4-0.7l-0.4-0.5l-0.5-0.5l-0.5-0.4l-0.5-0.3 l-0.4-0.2l-0.5-0.2l-0.8-0.1l-1-0.1l-0.9-0.1l-0.8-0.1h-0.6l-0.7,0.1l-1.5,0.2l-3.4-0.2l-0.6,0l-6.6-0.3l0-0.5l0-0.4l0.2-3.5 l0.3-7.8l0.2-7.3l-0.3-6.4l-0.3-4.7l-0.2-2.5l-0.3-1.5l-1.6-3.3l0-0.3l0,0.3l1.3-0.2l1.9-0.2l1.3-0.2l1.1-0.2l0.5-0.2l0.8-0.3l1-0.5 l0.5-0.3l2.4-1.2l1.5-0.7l2.2-0.9l2.5-0.9l-7.8-29.6v0l2.7-2.3l1.3-1.2l2.8-2.7l2.2-2.2l3.1-3.9l3.1-3.8l1.2-1.5v0l0.3-0.3l1.2-0.2 l2.1-1.2l1.2-1.7l0.6-0.3l4.2-1.7l0.8-0.3l5.8-2.3l5.5-2.1l2.1-0.8l2-1l1.2-0.8l1.3-2.6l0,0L573.7,178.1z"/>
<path style="fill:#CC0066;" id="marzahn_hellersdorf" d="M670.9,263.2l-0.2-0.5l-0.2-1.3l-0.7-3.2l-0.3-1.5l-1.5,0l-4.9,0.1l-2.8,0.2l-1.4,0l-2.1-0.2l-1-0.1l-0.6-0.1l-0.7-0.3 l-1.2-0.4l-1.1-0.2l-0.5-0.1l-3.8-0.1l-2.9,0l-1-0.1l-1.5,0l-0.9,0.1l-1.9,0.3l-2.5,0.4l-0.7,0.1v0l-0.2,0l-0.1-0.7l-0.2-1.3 l-0.2-1.3l-0.2-1.3l-0.2-1.6l1-1l-0.2-1.1l-0.2-1.2l-0.2-1.3l-0.2-1.6l-0.2-1.5l3,0.8l0.6-0.2l0.6-0.6l0.5,0.2l1.2,0.4l0.5-0.4 l0.9-0.3l1.4,0.4l0.5-0.1l0.5,0.3l0.5-0.5l0.6-0.8l0.6-1l0.7-1.1l0.8-1.4l0.5-0.9l-0.1-0.5l-0.3-1.3l-0.1-0.7l-0.9,0l-0.7,0 l-0.6-0.2l-0.8-0.5l-0.9-0.4l-0.5-0.1l-1.2-0.2l-1.3-0.2l-0.8-0.1l-1.9-0.3l-2.6-0.3l-1.3-0.2l-1.5-0.1l-2.3-0.3l-1.2-0.1l-0.7-0.1 l-0.6-0.2l-0.5-0.1l-1.2-0.2l-3.8-1l-3.2-0.8l-0.3-0.1l-0.8-0.2l-2.4-0.6l-4.4-1.2l-3.8-1.1l-1.8-0.5l-3.4-0.9l-2-0.6l-0.5-0.1 l-2.7-0.7l-3-0.8l-0.5-0.1l-0.5-0.2l-0.1-0.5l0.2-0.7l0,0l0.4-1.1l0.1-0.6l0-0.6l0.3-0.7l0.3-0.7l0.2-0.7l0.1-2.4l0.1-2l-0.1-0.8 l-1.3-2.7l-0.2-0.7l-1.4-2l-0.4-1.1l-0.2-1l-0.1-2.1l-0.3-1.3l-0.1-0.6l-0.1-0.6l-0.1-1.2l-0.1-0.9l-0.8-2.4l0-0.7l-0.1-1.2l0.2-1 l0-0.6l-0.1-1l-0.1-0.5l-0.2-0.9l-0.3-1l-0.8-2.3l-0.7-1.3l-1.1,0l-1.3,0l-1.3-0.2l-0.5-1.7l-0.3-1.1l-0.4-0.6l-0.9-0.7l-0.5-0.4 l-0.8-0.2l-1.3,0.4l-1.9,0.6l-0.8-0.1l-1.3-0.1l-0.5,0.4l-0.7,0l-0.1-0.5l-0.3-0.7l-0.5-1.2l0,0l-1.3,2.6l-1.2,0.8l-2,1l-2.1,0.8 l-5.5,2.1l-5.8,2.3l-0.8,0.3l-4.2,1.7l-0.6,0.3l-1.2,1.7l-2.1,1.2l-1.2,0.2l-0.3,0.3l-1.2,1.5l-3.1,3.8l-3.1,3.9l-2.2,2.2l-2.8,2.7 l-1.3,1.2l-2.7,2.3v0l7.8,29.6l-2.5,0.9l-2.2,0.9l-1.5,0.7l-2.4,1.2l-0.5,0.3l-1,0.5l-0.8,0.3l-0.5,0.2l-1.1,0.2l-1.3,0.2l-1.9,0.2 l-1.3,0.2l1.6,3.3l0.3,1.5l0.2,2.5l0.3,4.7l0.3,6.4l-0.2,7.3l-0.3,7.8l-0.2,3.5l0,0.4l0,0.5l6.6,0.3l0.6,0l3.4,0.2l1.5-0.2l0.7-0.1 h0.6l0.8,0.1l0.9,0.1l1,0.1l0.8,0.1l0.5,0.2l0.4,0.2l0.5,0.3l0.5,0.4l0.5,0.5l0.4,0.5l0.4,0.7l0.2,0.5l0.2,0.7l0.1,0.6l0,0.6l0,0.6 l0,0.4l0,0.2l-1.6-0.1l0,1.5l0.5,0.4l-0.1,1.6l0.1,2.6l0.5,2.9l-0.2,0.6l-0.5,0.3l-1.8,0.1l0.5,1.1l3.5,6.5l1.1,2l0.8-0.4l0.4-0.6 l1.3,1.4l0.2,0.3l2.2,3.6l0.4,1.4l0.3,2.3l0.4,1.4l0.4,0.9l0.2,0.6l0.1,0.5l3.9,21.6l3.2,4.9l0.7,6.3l1.9,0.1l1.9,0.4l1.2,0.2 l1.4,0.1l3.9-0.2l2.5-0.9l0.2,0.4l0.2-0.3l0.5-0.4l0.3-0.5l0.9-0.8l1.2-0.8l0.1-0.1l3.4-1.5l2.2-1.4l0.1,0.6l0.2-0.7l0.7-1.8 l0.5-2.8l5.2-2.7l2.2,2l1.2-0.6l3.1-1.4l0.4-0.2l4.9,3.8l2.2,1.8l0.9,0.7l1.9,1.6l0.8,0.8l1.1,0.8l0.9,1l1.3,1.1l0.8,0.6l1.6,1.3 l1.5,1l1.1,0.1l4.6-0.1l-0.1,3.1l3.4,1l0.3-0.4l-0.4-0.2l0.7-0.9l1.1-1.5l1.4-1.8l1.8-2.3l0.3-0.8l-0.5-0.3l-1.1-0.5l-1.3-0.5l0.1-1 l0.5-2.7l0.4-2.9l0.3-2l0.4-0.7l3.3-4.6l2.2-3l2.8-3.9l0.4-0.5l2.1-2.8l1.6-2.2l1.3-1.7l1.9-2.5l-4.2-1l-1.1-0.7l-0.8-0.4l1.2-2.7 l0.3-1.3l1.9-6.1l0.8-4.5l0.3-1.5l0.7-2.7l0.5-2l0.2-0.6l0.2-0.6l0.2-0.5l0.6-1.4l1.6-3.7l0.8-1.7l0.3-0.6l0.6-1.1l0.5-1l0.5-0.8 l0.7-1.1l0.5-0.6l2-2.3l2.2-2.1l1.8-2.2l0.9-1l0.6-0.6l0.8-0.7l1.2-0.9l2.5-1.9l0.5-0.4l1.8-1.2l3.3-2.2l3.9-2.7l1.7-1.7l1.4-1.4 L670.9,263.2z"/>
<polygon style="fill:#FFCC00;" id="mitte" points="423.9,292.5 420.5,289.3 419.2,288.2 418.7,287.7 419.4,286.7 419.9,285.5 421.7,280.9 423,277.7 422.4,277.4 423.4,275.1 424.7,274.8 425.6,271.6 424.4,271.1 422.3,270 422.4,268.2 421.6,268.1 420.9,267.8 419,266.8 417.2,265.6 415.4,264.5 413.4,263.2 410.9,261.3 410.3,260.9 409.3,260.4 406.3,259 404.6,258.5 401.9,257.7 400,257.2 400.4,255.5 400.5,254.6 400.9,252.5 402.9,248.9 402,248.2 401.1,245.3 399,238.2 398.9,237.8 398,238.2 394.5,227.4 392.3,219.9 390.9,220.1 391.4,219.3 391.7,218.3 391.9,217.6 392,216.7 391.8,215.8 391.5,212.8 391.3,211.4 391.2,210.5 391.2,209 391.2,208.3 391.2,207.9 391.2,206.5 390.9,204.9 390.4,202.4 389.8,200.7 389,199 388.1,197.4 387.2,196.2 386.5,195.5 385.1,194.2 384.4,193.8 384.2,193.3 382.1,191.3 382.5,190.8 381.9,190.1 380.9,190.9 377.4,190.4 374,192.4 371.2,192.9 369.5,202.5 363.2,202.7 358.6,206.7 358.6,206.7 358.4,206.9 356.8,207.1 356.2,201.6 351.5,202.8 351.2,200.4 348.7,200.2 348.2,200.1 344.6,200 339.9,200 326.9,195.8 321,200.7 320.1,199.9 315.6,199.5 315.4,200.2 315.1,200.9 314.7,201.5 314.2,201.9 313.2,202.4 312.5,202.7 311.9,202.7 310.2,203.2 310.1,203.2 305.8,204.1 298.3,206.9 297.6,207.4 288,224.2 291.2,224.3 305.1,225.3 305.8,225.6 307.2,227 312.7,233.7 314.6,235.2 316,236.6 316,237 316,237 316,237.6 318.2,242.2 317.7,242.4 317,242.7 308.9,244.6 299.3,246.6 300.7,252.8 300.8,253.2 305.5,252.3 305.3,253.8 304.8,254.4 304.8,254.8 301.3,256.1 305.1,272.8 306,273.3 307.3,271.6 307,271.1 306.9,270.5 307,269.4 307.1,268.8 307.4,268.1 307.7,267.5 308.2,267 308.7,266.6 309.3,266.3 310.4,265.9 311.3,265.7 312.2,265.7 312.9,265.8 313.6,266 314.4,266.4 315.2,266.9 316.2,267.7 317.2,268.8 317.8,269.5 318.2,270.3 318.6,271.3 318.7,272.2 318.7,272.9 318.5,274 318.3,274.8 318.2,275.4 318.3,276.2 318.5,276.7 318.6,277.2 319,277.8 319.4,278.3 319.8,278.7 320.9,279.4 321.5,279.7 322.3,279.7 323.2,279.7 323.5,279.6 323.9,279.4 323.5,279.6 324.9,283.2 325.8,284 325.6,284.5 325.7,284.5 325.6,284.5 325.4,285 325.2,285.8 320,286.3 320.4,287 321,287.4 322.8,288.2 323.3,288.4 322.8,289.5 322.3,289.8 320,291 318.9,291.5 322.7,293.5 323.5,293.9 324.1,294.7 323.3,296.8 323.4,297.8 324.6,298.6 325.2,299 326.5,299.1 327.1,299 327.9,298.9 328.4,298.8 328.6,299.6 328.9,300.2 329.6,300.1 330.2,300.1 331.3,300.4 336.2,302.5 343.9,305.4 353.7,309.4 354.3,309.7 361.1,311.3 362.1,310.1 362.7,309.3 363.4,306 364.8,303.7 365.2,303.2 366,302.8 367.4,303.6 368.8,299.5 369.2,298.4 369.7,296.9 370.1,295.9 370.3,295.3 371.5,296.9 378.6,296.2 383.8,295.7 385.9,295.5 388,295.3 391.1,295 393.2,294.8 393.9,293.1 394.3,292.4 396,293.4 396.9,294 398.3,294.8 399,295.4 399.8,294.6 402.7,298.2 404.8,296.8 406.8,300.5 409.4,301.9 410.1,300.5 413,301.8 413.6,300.4 414.5,300 415,299.2 416.3,299.8 417.1,300.1 417.8,300.3 418.7,300.4 419.6,300.4 420.4,300.2 421.2,299.9 422,299.5 422.7,299 423.3,298.4 423.9,297.6 424.2,297 424.5,296.2 424.6,295.1 425.2,293.7 424.4,293 "/>
<polygon style="fill:#CC0000;" id="neukoelln" points="526.2,462.9 527.2,461 525.1,459.9 524.9,459.3 525.7,457.6 525.6,456.2 525.5,455 525.1,454 525.1,452.6 524.9,452 524.4,451.3 523.9,450.1 523.5,449.4 523.3,448.2 522.8,447.6 522.3,447.4 521.5,446.1 521.4,445.5 521.1,444.5 521.7,443.2 522.5,441.4 523.3,438.9 523.4,438.5 522.5,438.3 522.6,438.1 521.8,438 519,437.6 516,437 511.7,435.5 509.1,433.9 502.1,428.4 499.1,426.1 494,422.1 488.7,417.8 485.5,415.3 484.5,414.5 480.4,411.3 478.9,410.1 478.5,409.8 477.3,408.8 469.2,402.4 463.8,398 462.7,396.6 461.7,395.1 460.8,393.4 460.2,392 459.3,389.8 458.5,388.1 457.6,385.9 456,382.7 455.2,381 455.7,381 462.4,381.1 471,381.5 474.5,381.7 474.7,380.9 475.2,379.5 475.4,379 475.5,378.4 475.8,377.6 476.7,376.3 477.3,375.4 477.9,374.1 478.3,373.3 478.6,372.4 478.6,371.1 478,369.7 476.6,367.6 475,365.2 473.2,362.8 472.4,361.6 469.3,356.5 469.1,354.3 469.9,350.6 470,349.7 468.6,348 460.7,338.9 456.7,334.3 456.6,334.1 454.3,336.9 448.9,332.3 446.3,330.3 444.2,328.5 441.7,331.3 437.2,327.4 436.5,326.8 436.7,327.4 436.1,327.5 436,327 435.5,326.5 434.9,326 434.1,325.6 433.3,325.2 423.9,320.2 418.9,317.4 417.6,316.8 416.3,316.4 418,321.4 419.3,324.7 420.3,327.5 421.4,330.4 420.9,330.7 419.9,332.7 416.9,331.7 413.1,330.9 403.1,328.7 402.5,328.7 403.1,331.2 403.2,331.8 402.1,333.6 401.6,333.9 401.3,334.7 400.8,339.6 401,343.8 402,346.5 406.6,347.3 408.7,346.2 412.3,369.9 417.4,368.9 417.8,374.7 417.7,376.8 418.8,377.2 418.9,378.3 418.9,378.3 419,378.7 417.1,378.3 416.2,380.6 420.8,383.3 422.6,385.2 422,385.3 420.3,385.4 418.6,385.3 416.8,385.2 413.1,393.1 412.1,393.2 412,393.5 411.8,394.2 407.8,406.3 404.3,421.7 402.6,424.7 402.5,426.4 402.2,426.9 401.7,430.3 400.5,436.4 400.5,436.8 400.5,436.8 400.3,437.5 396.9,446 400,446.8 399.3,449.7 394.3,451.7 393.5,453.1 394.1,454.8 396.8,462.8 400.3,461.7 402.4,461.3 404.2,461.2 405.5,461.4 410.3,463.7 413.7,466 415.3,466.5 415.1,467 415.6,466.9 417.5,466.4 420,465.4 421.9,464.7 423.9,464.1 425.8,463.6 426.8,463.4 428.5,462.9 435.6,459.6 436.2,459.5 438.1,458.8 439.7,457.9 441.2,457.2 443.3,456 445.5,454.8 446.1,454.6 446.6,454.4 447.2,453.8 449.9,452.5 451.3,451.8 453.1,451 454.8,450.2 455.6,449.9 458.8,448.9 460.6,448.6 462.4,448.3 463.1,448.5 465.3,449.4 466.9,450 467.3,451.1 467.4,451.4 467.9,453 468.5,455.3 470.3,460.7 471.6,464 473.5,469.7 475.2,473.9 476.5,478.1 477.2,478.7 477.4,479.5 477.4,480.1 478,482.5 478.6,484.2 478.9,485.2 479,486.6 479.7,492 482.4,490.9 483.8,490.3 487,489.5 490.7,488.9 491.2,488.9 493.2,488.3 496,487.5 498.6,487 499.7,486.9 501.3,486.5 502.2,486.2 503.8,486 507.7,485.3 509.1,484.9 512.9,484 516.5,483 518.7,481.6 518.5,481.1 519.4,480 519.3,479.3 519.6,478.7 521.8,476.3 523.4,474 524.1,472.7 524.4,472.2 524.9,471.1 525.5,468.7 526.1,466.2 525.6,465.6 526.2,465.1 526.3,464.2 525.9,463.6 "/>
<polygon style="fill:#6666FF;" id="friedrichshain_kreuzberg" points="488.1,327.9 488,327.4 487.6,326.8 486.1,325.5 485.3,324.4 484.2,324.1 483.9,323.5 479.6,318.8 477.6,316 476.5,313.8 471.9,310.9 470.2,310.6 468.8,310.3 467.6,309.9 468.6,305.2 469.3,302.6 469.8,301.6 470.5,300.4 470.6,299.7 471.5,298.4 472.3,297.7 472.3,297.4 473.2,296.9 472.4,296.5 473.4,294.8 474,293.8 474.7,292.5 475,292.1 475.2,291.4 475.4,290.7 475.7,289.6 475.4,288.3 475.2,287.4 474.8,285.2 475.5,282.7 477.4,283.2 475.9,282.5 475.1,279.4 473.5,275.3 473,275.5 472.4,274.1 471.5,272.8 468.6,273.1 462.6,274.1 461,274.3 460.3,274 455.1,272.4 453.8,272 453.3,271.8 454,269.7 452.9,267.1 451.2,263.1 449.9,260.4 448.4,261.1 444.9,262.8 439.5,254.6 438,255.9 435.3,258.7 434.3,257.3 426.6,258.8 421.7,259.7 420.9,260 419.8,259.9 415.4,264.5 417.2,265.6 419,266.8 420.9,267.8 421.6,268.1 422.4,268.2 422.3,270 424.4,271.1 425.6,271.6 424.7,274.8 423.4,275.1 422.4,277.4 423,277.7 421.7,280.9 419.9,285.5 419.4,286.7 418.7,287.7 419.2,288.2 420.5,289.3 423.9,292.5 424.4,293 424.5,292.9 424.5,292.9 424.4,293 425.2,293.7 424.6,295.1 424.5,296.2 424.2,297 423.9,297.6 423.3,298.4 422.7,299 422,299.5 421.2,299.9 420.4,300.2 419.6,300.4 418.7,300.4 417.8,300.3 417.1,300.1 416.3,299.8 415,299.2 414.5,300 413.6,300.4 413,301.8 410.1,300.5 409.4,301.9 406.8,300.5 404.8,296.8 402.7,298.2 399.8,294.6 399,295.4 398.3,294.8 396.9,294 396,293.4 394.3,292.4 393.9,293.1 393.2,294.8 391.1,295 388,295.3 385.9,295.5 383.8,295.7 378.6,296.2 371.5,296.9 370.3,295.3 370.1,295.9 369.7,296.9 369.2,298.4 368.8,299.5 367.4,303.6 366,302.8 365.2,303.2 364.8,303.7 363.4,306 362.7,309.3 362.1,310.1 361.1,311.3 361.9,311.4 361.8,312.3 360.7,313.8 360.3,318.6 360.7,319.7 360.2,320.8 363.2,321.9 369,323.7 368.9,324.2 367.8,325.8 367.8,327.8 366.9,328.3 365.7,330.6 366.3,330.6 366.2,335.3 364.5,335.5 364.4,335.6 369.3,335.6 377.9,335.8 378.6,335.9 379.3,335.8 379.4,334.1 384.6,334.1 388,334.2 387.9,337.5 394.7,337.6 395.6,336 396,335.5 399.1,335.4 401.6,333.9 402.1,333.6 403.2,331.8 403.1,331.2 402.5,328.7 403.1,328.7 413.1,330.9 416.9,331.7 419.9,332.7 420.9,330.7 421.4,330.4 420.3,327.5 419.3,324.7 418,321.4 416.3,316.4 417.6,316.8 418.9,317.4 423.9,320.2 433.3,325.2 434.1,325.6 434.9,326 435.5,326.5 436,327 436.1,327.5 436.7,327.4 436.5,326.8 436.6,326.2 437.1,325.4 437.8,324.6 442.9,318.3 445.1,318.2 447.1,315.9 448.4,314.3 449.2,313.9 450.3,313.5 450.6,313.5 451.1,313.5 451.9,313.4 453.4,313.8 456.6,314.8 458,315.2 460.8,317 461.7,317.2 462.9,317.8 461.9,319.1 464.8,321.4 469.4,323.6 472.3,324.5 473,324.6 475,326 475.9,326.9 477.6,329.1 477.7,330.3 478.5,331.8 478.9,330.9 479.3,330.3 479.9,330.3 481.5,330.7 482.2,331.2 482.8,333.4 482.9,333.6 485.3,331.9 486.3,331.1 487.3,330.7 489.2,330.5 489.8,330.6 491.7,331.4 492.2,330 "/>

<g id="treptow_koepenick">
	<path style="fill:#66FF33;" d="M776.7,409.6l-0.6-0.1l-2.3-0.5l0.4-0.9l1.1-2.4l0.4-0.9l0.3-0.7l-0.1-0.6l-1.3,0.1l-0.3-0.8l-0.7-0.6l-0.6-0.7l-0.9-0.5 l-0.6-0.2l-0.8-0.3L766,399l-1.4-0.3l-0.9-0.3l-1.6,0.5l-1.7-0.5l-2.1-0.4l-1.9-0.3l-0.5-0.2l-1.1-0.2l-1-0.7l-0.1-0.6l-1.3-0.2 l-1.5,0.5l-2.9-0.4l-0.5,0l-1-0.3l-2.2-2.6l-2.7-3.1l-2.1-2.3l-1.7-2l-0.6-0.6l-3.9-8l-0.4-0.5l-1.5-1.9l-0.8,0.3l-0.3-0.5l-1-0.1 l-1.4-0.4l-0.6-0.3l-1.6-1l-3.5-2.3l-1.1-0.9l-1.5-1.3l-0.5-0.4l-1.7-1.4l-0.4-0.5l-0.3-0.7l-1.4,0l-0.8,0l0.8,1.9l1,1.5l1.2,2.9 l0.4,0.5l0.2,2.2l0.4,3.4l0.3,1.8l2.2,0.8l0.4,2.5l0,0.5l-0.3,1.4l-0.4,2.8l-0.6,1.5l-1.5-0.2l-2.1-0.2l-1.3-0.3l-0.7-0.2l-1.1-0.3 l0.3-1.8l0-0.5l-0.1-0.7l-0.9-2.2l0.1-3l-0.4-0.7l-0.4-3.2l-0.6-1.4l-0.6-1.5l-0.3-0.5l-0.7-0.5l-3.8-0.8l-1.2-0.4l-0.8-0.1l-1.3,0 l-1.6,0.1l-0.5-0.4l-0.6-0.2l-3.4-1.6l-2.1-2l-0.7-1.2l-0.7-1l-0.3-0.5l-0.4-0.5l-2.4-1.5l-1.9-1.4l-1.8-1.2l-2.8-2.5l-0.7-0.5 l-0.3-0.2l-0.2-0.1l-2.4-1.5l-2.6,0.7l-1.1,0.1l-1.2,0.1l-0.7-0.2l-0.7-0.4l-0.6-0.3l-1.4-0.8l-1-0.4L671,353l-1.5-1.4l-1.1-1 l-1.1-0.7l-2.4-0.6l-1.2-0.6l-2-1.1l-0.6-0.4l-1.4-0.8l-2.7-0.2l-1-0.3l-0.8-0.2l-0.7,0.8l-0.9,0.7l-0.5,0.3l-1.6,1l-2.2,1.6 l-0.8,0.7l-1,0.4l-0.9,0.3l-4.5,1.5l-0.7,0.6l-0.4,0.5l-1.1,1l-1.3,0.6l-0.5,0l-0.6-0.1l-0.6-0.3l-0.7,0l-0.6,0.3l-0.4,5.7 l-0.2,0.6l0,0.8l0,0.7l0.6,0.6l-1.8,0l-0.7,0.1l0,1.7l0.3,1.1l0.3,0.5l-0.7,0.7l-1.4-0.4l0,0l0.3-0.5l0.2-0.5l0.1-2.2l-0.7-0.1 l0-2.4l0.1-1.1l-0.8-0.3l-3.5-0.9l-0.5,0.1l-1.9,2l-3.6-1.3l-0.3,0.4l-3.4-1l0.1-3.1L613,357l-1.1-0.1l-1.5-1l-1.6-1.3l-0.8-0.6 l-1.3-1.1l-0.9-1l-1.1-0.8l-0.8-0.8l-1.9-1.6l-0.9-0.7l-2.2-1.8l-4.9-3.8l-0.4,0.2l-3.1,1.4l-1.2,0.6l-2.2-2l-5.2,2.7l-0.5,2.8 l-0.7,1.8l-0.2,0.7l-0.1-0.6l-2.2,1.4l-3.4,1.5l-0.1,0.1l-1.2,0.8l-0.9,0.8l-0.3,0.5l-0.5,0.4l-0.2,0.3l-0.2-0.4l-2.5,0.9l-3.9,0.2 l-1.4-0.1l-1.2-0.2l-1.9-0.4l-1.9-0.1h-2.5l-0.6-0.1l-0.9-0.3l-0.5-0.1l-0.9,0.1l0.4,1l-5.8-1l-0.1,0l-1-0.2l-2.1-1.5l-2.2,3 l-6,7.2l-1.8,2.1l-6.9-9.8l-1.4-1.7l-1.2-1.4l-1.3,2l-4.6-2.5l-0.9-0.4l-0.5-0.1l-0.5-0.1l-0.5,0l-0.6,0.1l-1.9,0.4l-4.2,1 l-3.9-5.9l-1.1-3.4l-0.9-2.7l-0.3-1l0-0.1l-0.1,0l-4.3-1.5l-1.4,0l-2.4,0.3l-0.1,0l-1.1-3.6l-0.4-1l-2.1-3l-1.9-0.8l-0.6-0.1 l-2,0.2l-0.9,0.4l-1,0.8l-2.5,1.7l-0.1-0.3l-0.6-2.2l-0.7-0.5l-1.7-0.4l-0.6,0.1l-0.4,0.6l-0.4,0.9l-0.9-1.5l-0.1-1.3l-1.6-2.2 L475,326l-2-1.4l-0.6-0.1l-2.9-0.9l-4.6-2.3l-2.9-2.2l1-1.4l-1.2-0.6l-0.9-0.2l-2.8-1.8l-1.4-0.4l-3.2-1l-1.6-0.3l-0.7,0.1l-0.5,0 l-0.3,0.1l-1.1,0.3l-0.8,0.5l-1.3,1.5l-2,2.4l-2.2,0.1l-5.1,6.3l-0.7,0.8l-0.5,0.8l0,0.6l0.6,0.7l4.5,3.8l2.5-2.8l2,1.8l2.7,2.1 l5.4,4.6l2.3-2.8l0.1,0.2l4,4.6l7.9,9.1l1.4,1.7l-0.1,0.9l-0.8,3.8l0.3,2.2l3,5.1l0.9,1.2l1.7,2.4l1.6,2.4l1.5,2.1l0.6,1.4l0,1.3 l-0.3,0.9l-0.4,0.8l-0.6,1.3l-0.6,0.9l-0.9,1.3l-0.3,0.8l-0.1,0.6l-0.2,0.5l-0.5,1.4l-0.2,0.8l-3.5-0.2l-8.6-0.4l-6.7-0.1l-0.5,0 l0.8,1.7l1.6,3.2l0.9,2.2l0.8,1.8l0.9,2.1l0.6,1.5l0.9,1.6l1,1.6l1.1,1.4l5.4,4.5l8.1,6.4l1.2,1l0.3,0.3l1.5,1.2l4.2,3.2l1,0.8 l3.2,2.5l5.3,4.3l5.1,4l3,2.3l7,5.5l2.6,1.6l4.3,1.6l2.9,0.6l2.9,0.4l0.7,0.1l0,0.2l0.9,0.2l-0.1,0.4l-0.8,2.5l-0.8,1.8l-0.6,1.2 l0.3,1l0.1,0.6l0.7,1.3l0.6,0.2l0.5,0.6l0.2,1.2l0.4,0.7l0.5,1.2l0.4,0.7l0.2,0.6l0,1.4l0.4,1.1l0.1,1.2l0.2,1.3l-0.8,1.8l0.2,0.6 l2.1,1.1l-1,1.8l-0.4,0.7l0.4,0.6l-0.1,0.8l-0.5,0.6l0.4,0.6l-0.5,2.5l-0.6,2.4l-0.5,1.1l-0.3,0.6l-0.8,1.2l-1.5,2.3l-2.2,2.5 l-0.3,0.6l0.2,0.7l-0.9,1.1l0.1,0.5l1.5,0.5l2.4,1.3l1.1,0.8l0.5,0.2l1.6,0.7l0.8,0.4l0.7,0.4l0.5,0.2l0.8,0.3l0.7,0.2l0.8,0.5 l0.7,0.6l0.6,0.5l0.5,0.4l0.7,0.7l0.5,0.4l0.6-0.4l0.9-0.6l0.8-0.5l1.1-0.7l1-0.6l1.3-0.7l1.2-0.6l0.6-0.3l0.5-0.1l1.3-1l-0.2,1.1 l-0.3,1.1l-0.8,1.6l0.2,0.5l0.1,0.2l-1,0.4l0.3,0.7l-1.1,4L539,497l-0.5,3.9l0.8,3.6l17,0.8l6.1,0.4l1.9,0.1l0.6,0l0.7,0l1.8,0 l1.8,0.1l0.5,0l0.8-0.1l0.8-0.2l1.2-0.2l1.3-0.3l3.5-1.1l4-1.4l1.2-0.3l0.7-0.2l4.5-1.2l1.9-0.6l3.1-1l2.5-0.9l0.6-0.3l1.9-1 l2.3-0.8l0.9-0.4l0,0l0,0l0.2,0.3l1.4,2l0,0.6l-0.5,3.1l0,0.6l0.6,1l0,0.6l0.5,0.2l0.5,0.1l0.2,0.7l-0.1,0.6l-0.4,0.9l0,0.6 l1.5,2.3l3.4,1l0.7,1.2l0.6,0.9l0.9,0.6l0.4,0.5l1.1,1.1l0.5,1.3l0.3,0.6l0.5,0.7l0.7,0.7l0.5,0.6l0.7,1.2l0.2,0.7l0.1,1.4l0.3,3.9 l0.1,0.5l0.2,1.1l0,0.5l-0.1,0.6l-0.1,0.5l-0.9,2.3l0.6-0.3l1-0.3l1.5-0.8l0.5-0.4l0.7-0.3l1-0.6l1.8-1l0-0.5l2.5-1.4l5.9-3.4 l7.1-4.1l1-0.7l1-0.4l0.6,0.8l1.1,2.2l1.7,3.1l1.5,2.6l2.5-0.6l3.8-0.9l3.4-0.6l0.8,0.6l0.1,2.6l0.1,4.4l0.1,1.3l-0.2,1.3l-0.8,2.2 l0.9,0.3l0.7,0.3l3,0.3l0.1,0.5l0.1,0.6l0.2,1.4l0.3,0.8l0.2,1l0,1.6l-0.2,0.8l-0.4,0.9l-0.3,0.6l-0.5,0.6l-1,1l-0.9,0.9l-2.7,2.7 l-1.9,2.4l-0.6,0.8l-0.6,1l-0.7,1.5l-0.3,0.9l-0.3,1.1l-0.4,2.9L648,567l0,2.4l0,1l-0.2,2.6v3.5l-0.3,1.8l0,0.8l0.2,0.8l0.4,1.3 l0.7,1.8l0.8,1.5l1.8,2.3l1.7,1.6l0.5,0.7l0.5,1l0.5,0.8l0.5,0l1.5,0.1l0.7,1.3l0.7,0.8l2,0.8l0.5,0l0.5-0.1l0.8-0.4l1.2-0.8 l0.9-0.9l0.4-0.9l0-0.7l-0.4-3l0.1-1.2l0.6-1l0.5-0.9l0.1-0.5l0.7-1.8l0.5-1l2.1-2.5l0.4-0.9v-1.3l0.8-1.7l0.1-0.5l0-0.5l0.3-2.7 l0.5-0.6l1.6-1l0.1-0.6l0.5-0.8l0.6-0.4l1.2-0.6l0.5-0.5l0.7-1.5l0-0.5l0-0.8l0.3-1.1l0.3-0.6l0.3-0.7l0.6-0.9l0.6-0.6l0.7-0.4 l1.2-0.4l0-0.6l-0.3-1.3l0-1l0.2-0.8l0.1-1.3l0.2-1l0.3-1.2l0.5-1l0.5-0.8l1-1.5l0.5-0.5l0.9-0.4l0.5-0.5l0.4-1.1l0.3-0.6l0.7-1.3 l0.6-0.3l1.8-0.5l1.2-0.5l1.1-0.6l1-0.8l1.4-1.2l0.5-0.3l1.5-0.4l1.7-0.1l0.8,0l1.3,0.8l0.9,0.2l2,1.8l0.5,0.4l1,0.5l0.8-0.1 l0.7-0.2l0.5-0.3l0.9-0.2l0.3,0.5l1.6,0.4l0-0.4l-0.7-0.6l0.4-0.2l1.4-0.2l0.1-0.5l-0.4-0.9l0.1-0.5l0.4-0.7l0.5-0.5l0.5-0.6l1-1.1 l0.9-1.5l0.4-0.6l0.3-0.6l1.3-2.3l0.7-1.3l0.3-0.6l0.3-0.7l1-1.8l0.5-2.7l-0.7-0.3l-0.6-0.4l-2.3,0.4l1.3-7l-3,0.6l-1.1,0.1 l-0.7-0.4l-2.8-2.1l-1.3-1.1l-0.5-0.3l-1.4,0.5l-0.8-0.4l-0.6-0.6l-0.8-0.6l0.3-0.5l0.3-1.5l0.9,0.2l0.1-0.3l0.1-0.5l0.4-0.7 l0.3,0.5l0.7,0.7l0.6,0l0.6-0.1l0.7-0.3l0.5-0.6l1.4-1.5l0.6-0.7l1.2-1.5l0.7-1l0.6-0.8l0.5-0.4l0.5-0.8l0.6-0.7l0-0.7l0.2-0.6 l-0.1-1.8l0.5-0.8l0.6-0.2l0.6,0l0.4,0.6l-0.2,0.6l-0.5,1.2l0.5,0.2l0.6-0.4l0.8-0.8l0.7-1l0.5-1.2l0.2-0.6l0.8-0.8l0.8-0.2 l0.6,0.1l0.7-0.2l0.4-0.5l0.6-1l0.5-0.3l0.4-0.6l1-0.5l0.7-0.1l0.9,0l0.8-0.6l0.5-0.5l0.3-0.6l1-0.4l0.6-1.1l0.5-0.3l0.6-0.6 l0.6-0.3l0.5-0.2l0.7-0.5l0.3-0.6l0.5-0.7l1.1-0.7l0.5-0.5l0.9-0.1l0.8,0.6l0.4,0.7l0.6,0.2l1.2-0.2l0.9,0l0.9,0.4l0.8,0.4l0.9,0.4 l0.7-0.5l0.8-0.5l0.6-0.4l0.5-0.7l0.7,0.1l0.8-0.4l0.9-0.7l0.5,0.2l0.6,0.2l0.5-0.2l0.5-0.3l0.4,0.6l1.2-0.6l0.4-0.4l0.3-0.7 l1.1-1.1l0.6-0.6l0.7-1.2l0-0.6l-0.1-1l0-0.9l0.6-1.9l0.8-2.3l1.7-0.8l0.9-0.3l0.3-0.7l0.1-0.6l0.1-0.5l-0.5-1.3l-0.2-1l-0.3-0.7 l-0.9-1.2l-0.6-0.3l-0.8-0.4l-0.8-0.5l-0.4-0.5l-0.1-0.6l-0.1-0.5l-0.5-0.5l-0.7-1l-0.4-0.7l-0.8-1.3l-0.6-1l-0.4-0.6l-0.9-1.5 l-0.2-0.5l-0.1-0.6l0-0.6l0.1-0.2l0.1-0.5l0.2-0.8l0.5-1.3l0.7-1.3l0.1-0.7l0-1l0-0.3l-0.2-0.7l0.3-0.5l0.5-0.7l2.1-3.2l4.3-6.9 l1.9,0.3l1.6,0l0.3-1.5l0.3-1.2l0.1-0.5l-2.8-1l0.6-1.5l0.4-2.8l0.1-0.9l0.1-0.8l-2.2-0.5l-0.6-0.1l-2.2-0.5l-2.8-0.7l-0.7-0.1 l-1.2-0.4l-1.3-0.5l-2.2-1.2l-0.9-0.5l-0.5-0.4l-0.5-0.3l-2.1-1.7l-1.1-0.8l0-0.6l0.5,0.6l1,0.5l2.5,2l2.2,1.3l1.6,0.8l0.8,0.3 l1.8,0.6l5.1,1l0.6,0.1l0.2-0.7l2.3,0.4l2.6-0.2l0.3-2.3l-0.2-0.7l0.3-2l0.5-3.4l0.5-0.4l2.3-2l4.5-3.8l6.5-0.2L776.7,409.6z"/> <polygon points="780.9,418.2 775.1,417.3 776.1,412.5 774.1,420.5 776.6,420.9 778.3,421.2 779.8,421.5 780.1,420.7 780.5,420.2 781,418.9 	"/>
</g>

<polygon id="city_boundary" points="417.3,68.5 415.7,67.1 412.5,64.7 411.9,64.2 409.8,61.5 409.7,61 410.1,60.2 410.1,59.8 410.1,59.2 409.8,58.7 409,58.7 408.4,58.4 407.8,57.7 407.3,57.1 404.9,57.8 403.5,58.1 402.4,58.6 402,58 401.3,57.1 400.6,56.5 398.9,55.5 397.9,54.7 397,54 395.7,52.8 394.1,51.2 393.6,50.6 392.9,49.9 391.9,48.7 391.6,48.4 391,48.6 390.5,49.3 390.9,49.7 390,50.4 389.3,50.3 387.9,50 387.7,50.8 387.6,51.5 386.8,53 386.5,53.4 386.1,54 386,55 385.8,55.8 385.7,56.8 385.2,57 384.4,58.2 383.7,59.1 383.4,59.8 383.3,60.3 383.3,61.3 383.3,62.4 383.3,62.8 383.3,63.7 383.1,64.3 382.9,64.9 382.7,66.1 382.2,66.8 381.2,68 380.7,68.2 380.1,68.5 378.7,69.2 378,69.4 377.3,69.4 376.9,69.3 376.3,69.2 375.9,69.1 375.4,69.2 374.7,69.5 374.2,70.2 375.3,71 375.5,71.5 373.1,72.5 372.8,73 372.2,73.8 371.5,73 370.9,73.8 370.4,74.6 370.2,75.4 368.6,78.1 368,78.3 368.8,79.5 369.5,81.2 368.9,81.8 366.3,84.3 364.8,84.8 364.1,85.4 363.5,85.5 362.8,85.2 362.3,85.9 361.7,86.8 361.4,87.4 360.3,88.3 359.8,88.1 359.3,87.7 358.8,88 359.1,88.6 358.5,88.7 358.2,88.5 357.7,88.7 357.2,88.9 356.7,88.5 355.9,88.8 356.5,89.2 357,89.5 356.3,90 355.2,90 354.8,89.5 354.2,89.5 353.4,90 353,90.6 352.5,90.6 351.9,91 351.2,90.9 350.7,91.2 350.3,92.1 349.4,92.3 348.8,92.7 347.8,92.5 347.3,92.4 346.8,92.1 346.4,91.9 345.9,92.1 345.5,92.6 344.4,92.6 343.9,92.8 343.7,93 343.3,93.4 343.2,92.9 342.6,92.8 342.1,93 341.8,91.4 337.2,91.8 334.4,91.6 333.5,92.1 332.8,92.1 332.2,92.3 331.4,92.3 330.5,92.5 329.9,92.3 328.9,92.5 328.1,92.2 328,92.7 327.6,92.8 326.7,93.1 326.3,93.5 322.1,90.7 321.7,90.9 321.2,90.6 319.6,89.6 318.4,88.9 317.8,88.6 316,88.1 314.5,87.8 313.9,87.4 312.9,87.1 312.2,86.9 311,86.7 308.9,86.6 307.7,86.4 307.3,86.3 305.4,85.5 303.4,84.9 302.9,84.7 301.7,84.1 300.9,83.8 300.4,83.7 298.7,84 296.9,84.1 296.1,84.2 294.8,84.5 290,85.3 289.8,85.1 290.4,84.6 292.4,83.8 293.4,83.2 293.8,83 296.5,82.2 297.7,81.2 298.1,80.6 297.5,80.4 297.9,79.6 297.5,79.1 297.5,78.7 297.1,76.4 295.2,72.6 293.9,70.2 293.4,68.8 293.4,68 294.7,67.3 294.5,66.4 294.3,65.4 293.7,63.9 294.7,63.8 294.8,63.1 295.8,62.8 295.7,61.9 296.6,60.7 296.8,59.8 297.1,58.3 297,57.9 296.8,56.1 296,56.3 294.2,53 293.3,50.5 287.5,39.5 297.8,32.5 297.4,32.3 296.5,31.1 295.1,29.6 294.5,28.6 291.6,28.9 290,29.2 289.3,29.3 288.6,29.3 287.6,29.1 286.7,29.1 284.7,29.1 282.8,29.1 281.8,29.1 281.3,29.1 280.8,29.1 280,29 279.5,28.8 276,28.1 274.7,27.9 274.3,28 273.8,28 273.2,28 272.6,27.7 271.9,27.5 271.2,27.3 270.4,27.1 269.6,27 268.4,26.6 268,33.2 267.8,37.2 267.5,40.8 271,41.1 270.9,41.7 270.7,44.9 269.9,48.2 270.3,49.1 270,52.1 269.2,61.2 268.5,61.3 267.1,61.5 262.2,62.6 261.6,62.7 259.3,62.6 256.5,63.4 254.2,63.7 249.7,62.6 246.3,61.8 246.4,62.9 246.5,63.5 246.6,64.3 246.8,65.3 247.1,66 248,67.5 248.3,68.1 248.8,69.5 249.3,71.4 249.5,72.4 249.4,74.7 249.3,76.2 249.3,76.9 249.2,78.1 249.1,79.8 248.9,81.9 248.9,83.5 248.7,85.2 248.7,86.2 247.9,85.5 246.9,85.4 245.6,84.8 244.3,84.6 243.7,84.7 241.9,84.7 241,84.7 240.2,85 238.2,85 237.6,85.1 236.2,85.3 235.6,85.4 233.8,85.2 233.3,85.1 232.4,85 231.2,85.3 230.6,85.5 230.1,85.5 229,85.4 226.5,83.9 226,83.7 225.4,83.6 224.7,83.7 224.1,83.9 223.6,84.1 222.6,84.4 217.7,84.5 214.3,85.2 212.5,85.3 211.8,85.3 210.6,85.2 209.9,85.1 209.1,85 207.7,84.6 207.2,83.8 206.7,83.9 205.8,83.6 204,83.9 202.7,83.8 201.8,83.8 201.8,84.5 201.7,85.3 201.6,86.1 201.4,88.1 201.3,89.1 201.1,90.2 199.2,94.3 198.9,94.9 197.7,98 196,99.5 195.6,99.9 194.3,102.5 192.7,105.8 189.6,112 188.8,113.7 187.9,115.6 187.2,116.8 186.8,117.3 186.4,118 185.9,118.5 185.1,118.9 182.9,119.9 182.5,120.1 182,120.4 181.3,121.1 181.2,121.6 181.1,122.3 181.1,123.1 181.3,124.5 181.8,125.9 182.3,126.7 183.2,127.7 185.4,130.9 187,133.4 187.6,134.5 189.6,136.7 191.1,138.3 191.9,139.1 194.9,141.3 196.2,142.3 199.2,145.4 199.9,146.8 200.3,148.5 200,149.7 199.1,152.8 198.3,155.3 197.9,156.7 197,158.3 193.5,157.9 191.7,158 190.9,157.9 189.9,157.6 189,157.4 188,157.1 186.9,156.9 185.9,156.6 185.4,156.3 182.9,154.8 182.1,154.4 181.6,154.1 181,153.6 180.4,153.2 179.7,152.9 178.3,152.7 177.5,152.2 176.8,152 176.1,151.8 173.3,151.2 171.9,150.9 170.7,150.5 170.1,150.2 168.9,149.2 168.3,148.5 166.8,147.8 165.8,147.3 165,146.9 164.4,146.4 163,144.9 162.3,144.6 161.7,144.3 161,144.2 159.9,143.9 159.1,143.6 157.9,143.1 157.1,142.6 156.3,142.4 155.1,142.3 153.7,142.2 152.3,141.9 151.6,141.6 150.5,140.6 150,140.1 147.7,139.1 145.7,138.7 145,138.4 144.2,137.5 143.7,137.1 141.5,135.6 138.3,136.4 136.3,136.9 133.7,137.6 132.8,138 132,138.5 131.5,139 131.1,139.6 130.3,141 129.6,142.3 127.9,144.7 125.2,147.9 122.1,149.8 119.1,151.7 114.8,152.7 113.3,153.3 110.6,155.7 107.6,156.4 105.9,156.5 104.2,155.3 103.2,155.9 103.1,158 104,158.1 102.6,163 104.4,162.8 104.9,163.2 105.3,163.7 105.9,165.6 106.2,167.1 106.6,168.4 107.4,169.2 110.3,168.4 111.1,168.3 112.8,167.6 113.6,167.7 114.5,167.8 115.4,167.2 117.7,166.2 118.5,165.9 119.5,165.8 120.4,164.9 123.4,163.6 125.8,162.8 126.1,163.5 126.8,164 127.4,164.7 127.6,166.2 128.1,167.6 128.7,168.9 129.3,170.4 129.6,171.7 129.8,173.2 129.6,174.3 129.8,176 129.7,176.7 129.8,177.6 129.6,178.4 129.5,180.7 129.1,181.3 128.9,181.9 129,182.8 128.7,184.6 128.1,185.7 127.5,186.1 127.3,186.7 127.3,187.6 126.4,190.1 126.1,191.5 125.3,193 124.8,193.8 123.8,195.3 123.5,195.9 123.4,196.6 122.9,201.3 122.4,201.8 121.5,202.7 121.8,203.2 122.2,205.2 122.4,205.8 122.6,206.3 122.7,207.4 122.7,208.9 123,210.8 123.2,211.9 123.1,213 122.9,213.6 122.2,214.5 121.9,215.3 121.8,215.9 121.1,216.8 120.3,216.9 120,217.5 119.6,217.7 118.8,217.6 118.1,217.5 117.1,217.3 116.5,217.2 113.8,217 112.3,216.9 111.5,216.7 110.8,216.3 109.6,215.5 108.3,214.2 107,212.3 105.9,211.3 105.3,210.8 104.6,213.2 103.4,217.5 102.3,221.6 101.8,223.8 100.7,227.3 99.7,231.2 99.8,232.7 98.9,238.7 98.5,240.5 98.4,241.1 97.9,243.1 97.7,243.9 97.3,245.2 95.9,248.6 95.4,249.8 94.7,251.5 94.2,252.9 94,254 93.7,255 93.5,255.9 93.4,256.7 93.4,257.3 93.3,258.2 93.2,258.8 93.1,259.3 93.1,260.6 93,261.6 93,262.1 92.9,263.4 92.9,264.3 92.8,266.8 92.6,268.4 92.7,269.2 92.6,269.7 92.7,270.8 92.4,272.9 92.1,274.2 92,274.9 91.9,275.5 91.8,276.3 91.6,277.2 91.3,279.1 92.6,279.2 93.2,279.1 94.2,279.1 94.6,279 97.7,278.6 99.4,278.4 100.9,278.4 101.4,278.4 102.8,278 103.7,277.8 104.6,277.6 105.8,277.5 107.1,277.3 110,276.6 111.3,276.3 111.9,276.2 112.9,275.9 113.8,275.7 115.1,275.3 117.1,274.7 118.3,274.6 118.8,274.9 119.3,275.2 119.8,275.5 120.3,276 120.6,276.9 120.8,277.8 121.4,278.6 122.3,278.7 123.4,279 124.1,279.4 124.5,279.7 126.5,281 127.5,281.6 128.3,282.1 129.2,282.8 129.8,283.3 130.5,283.8 131.8,284.7 132.3,285 132.7,285.3 133.8,286 134.3,286.3 135.3,286.5 136.2,286.9 137.9,288.1 139.2,288.9 140.2,289.6 141.1,290.2 141.6,290.4 144.5,292 145.2,292.4 146.1,292.9 145.3,293.6 145,294.2 140.8,298.9 137.3,302.7 135.5,304.6 134.9,305.3 133.9,306.4 133.1,307.3 131.5,309.2 130.8,309.9 130.3,310.5 129.7,311.3 129.1,311.9 128.7,312.4 127.6,313.7 125.7,315.6 125.3,316.2 122.7,319.5 119.2,323.9 116.3,327.6 112.7,332.3 111.4,334 110.6,335 109.3,336.7 108,338.3 106.2,340.8 104.8,342.6 103.2,344.7 101.6,346.2 100.8,346.7 97.5,347.6 94.4,348.3 91.6,349.2 91.7,352.6 91.7,353.3 91.6,353.9 91.1,355.2 90.3,357.4 89.6,359 87.3,362 87.4,364.2 85.3,366.1 84.4,367.9 83.9,369.2 84.4,371.4 84.6,372.7 84.6,373.4 84.6,375.9 83.7,379.3 85.8,381.4 86,383.5 85.4,389.7 85.2,390.5 85,391 84.5,392.2 83.7,393.4 83.2,394.5 82.6,395.7 84.4,397.1 85,397.6 85.5,398.2 86.1,399.3 87.5,400 88.3,400.5 88.8,401.1 87.3,402.1 89.1,404.5 90.5,404.7 91.5,405.9 92,405.4 93.3,406.5 94.6,409 95.5,409.9 95.9,410.4 96.4,411.3 96.9,411.8 98.4,413.5 97.6,415.3 97.6,416.9 96.5,418.4 95.6,418.9 91.2,421.5 87.7,427 85.8,428 86.6,433.8 81.6,438.1 80,440.1 78.6,440.7 77.7,443 76.3,442.3 75.3,442 74.2,441.6 73.5,440.8 72.4,440.4 71.9,440.6 70.8,441.6 70.8,442.2 70.3,443.9 69,445.4 68,446.7 60,450.7 62.2,461.4 62.2,463.1 62.6,464.7 63.3,464.9 63.8,465 64.3,465.3 65.3,466.3 69.7,468.3 70.5,467.6 71.3,467 71.2,466.5 71.3,466 70.9,465.3 70.2,464.8 69.6,463.9 68.8,462.4 68.9,462 69.7,461.9 71,461.3 72.5,460.8 73.5,460.9 73.3,461.3 73.3,462.1 73.7,463.8 73.7,465.6 73.7,466.4 76.2,467.3 77.6,467.8 78.1,467.6 78.9,468.1 79.3,467.9 80.1,467.9 80.3,467.3 80.3,466.6 80.6,463.9 80.6,463.4 80.5,462.6 80.4,462.2 80.4,461.6 81.2,461.6 82.7,462.2 83.1,463.9 83.3,465.1 84.2,465 84.8,464.9 85.1,466.5 84.4,466.6 83.7,466.8 83.9,468.2 81.5,468.6 79.7,468.1 79.4,469.6 81.7,470.1 82.6,470.8 81.5,472.3 82.1,472.8 82.9,473.6 83.6,474.4 84.2,475.5 84.5,475.9 84.8,477.5 85.5,478.2 89.9,480.9 91.3,481.3 91.7,481.4 92.3,482.6 93.9,484.9 94.5,485.7 95.8,487.3 98.5,489.7 99.2,490.4 99.8,490.8 100.3,491.1 101.7,491.3 102.4,491 103.5,490.4 107.6,487.5 108.8,486.2 109.8,487.2 111.5,488.1 112.1,488.2 113.3,489 110.3,489.5 110.8,491.7 112.9,491.8 113.6,491.8 114.1,492.1 109,496.7 106.3,499.6 105.8,500.2 105,501.7 104.5,501.3 105.9,499.4 103,499.6 102,499.6 101.8,501 101.6,503.4 102.9,504.7 104.1,505.7 105.5,507.1 106.1,507.4 106.8,507 107.6,507.1 108.3,507.2 108.8,504.6 108.3,504.7 107.9,504.5 105.1,501.8 106.4,500.1 109.2,496.9 113.6,493.1 114.8,492.2 117.6,490.2 118.9,489.8 118.8,490.8 119.2,491.5 119.5,491.9 121.7,492.9 122.4,493 123.7,493.2 129.2,494 131.6,494.6 132.9,495.1 136.1,495.6 137.2,495.5 140,495.3 145.5,494.8 146.2,494.8 146.9,494.4 149.3,492.6 148.8,488.9 148,489.2 145.7,489.7 137.3,491 134.5,491.1 134.5,490.6 134.5,489.7 135.1,488.4 135.5,487 136,485.7 136.1,484.9 136.2,479.9 150.3,472.4 151.6,471.7 158.5,468.1 164.2,465 164.5,464.9 174.4,459.1 176,458 176.6,457.8 177.6,457.6 179.2,457.7 179.8,457.6 180.9,457.6 184.6,456.9 186,456.6 187.7,456.3 189.6,455.7 192.2,454.6 193.7,453.8 194.4,453.6 196,452.8 196.5,452.4 198,451.3 199.1,451.1 199.6,450.9 201.3,450.2 202.6,449.7 203.4,449.4 205.1,448.8 206.1,448.3 206.7,448.3 208,448.5 209,448.6 210.6,448.9 211.6,449.1 214.2,449.3 215.3,449.3 216.9,448.7 218.1,448.4 220.4,448.5 223.2,448.3 226.9,448.1 229,447.8 229.2,448.4 229.7,449.8 230.2,451.7 230.7,454.5 231,456.1 231.1,457.4 231.7,460.2 232.4,464.3 232.3,464.8 232.3,469.4 232.1,470.2 232.5,471.1 232.6,471.7 232.9,475.5 233,476.2 234.6,475.2 235.4,474.8 236.5,474.4 238,474 238.6,473.9 239.3,473.8 240.9,473.7 242.3,473.7 243.3,473.8 244.3,474.1 245.3,474.5 247.8,476 248.7,476.5 250.7,477.3 251.2,477.4 253.3,477.4 253.8,477.4 254.5,477.5 255.4,477.6 257.1,477.3 257.6,477 258.1,476.9 260.1,476.2 260.5,476 261.2,475.6 263.4,473.9 266.4,471.5 267.3,470.8 269.3,469 273.2,465.4 274.5,464.2 279.5,459.6 280.3,458.9 283.7,456.7 283.9,457.2 283.9,457.8 283.7,458.5 283.3,459.2 282.7,459.5 285.6,464.1 286.9,466.1 287.6,467.2 288.2,468.1 289.4,469.8 292.5,474.5 294.3,477.2 297.2,482.1 299,484.9 299.9,486.2 301,484.9 301.8,484 306.8,480.7 312,477.5 316.3,474.9 320.9,472.2 322.3,471.3 325.2,469.5 332,465.2 333.2,464.4 333.2,466.2 333.1,471.4 336.3,474.7 339.7,478.1 341.4,479.8 343.5,481.4 345.2,483.1 347.4,484.9 348.8,486 349.8,486.8 350.6,487.6 352.6,488.9 354.4,490.1 356.1,490.9 360.7,493.7 364.3,496 362.4,505.2 367.3,505.7 368.6,505.8 369.4,505.8 371.2,505.7 375.1,505.4 375.4,505.4 378.7,505.2 380.5,505 380.8,508.3 380.9,509.2 381.2,512.6 381.5,516.2 381.4,517.1 381.5,518.5 381.4,520 381.4,521.4 381.7,522.5 381.7,523.9 385.5,524 392.4,524.4 394.1,524.6 395,524.8 396.6,525 398.5,525.3 399.1,525.4 401.2,525.5 402.3,525.7 404.7,526.1 405.4,526 407.9,525.7 407.8,526.3 413.3,526.7 416.5,526.9 416.6,526.5 417.6,523.8 420.2,517.8 422.2,513.1 423.1,511 423.6,510 423.5,508.9 423.1,506.2 422.7,505.1 421.3,499.6 419.6,493.6 417.2,484.9 415.6,479.2 415.2,477.4 414.8,476 414.1,472.3 413.9,469.6 413.9,468.8 414.3,467.4 415.1,467 415.6,466.9 417.5,466.4 420,465.4 421.9,464.7 423.9,464.1 425.8,463.6 426.8,463.4 428.5,462.9 435.6,459.6 436.2,459.5 438.1,458.8 439.7,457.9 441.2,457.2 443.3,456 445.5,454.8 446.1,454.6 446.6,454.4 447.3,453.8 449.9,452.5 451.3,451.8 453.1,451 454.8,450.2 455.6,449.9 458.8,448.9 462.4,448.3 463.1,448.5 465.3,449.4 466.9,450 467.4,451.4 467.9,453 468.5,455.3 470.3,460.7 471.6,464 473.5,469.7 475.2,473.9 476.5,478.1 477.2,478.7 477.5,479.5 477.4,480.1 478,482.5 478.6,484.2 478.9,485.2 479,486.6 479.7,492 482.4,490.9 483.8,490.3 487,489.5 490.7,488.9 491.2,488.9 493.2,488.3 496,487.5 498.6,487 499.7,486.9 501.3,486.5 502.2,486.2 503.8,486 507.7,485.3 509.1,484.9 512.8,484 516.5,483 518.7,481.6 520.2,482.1 522.6,483.4 523.7,484.2 524.2,484.4 525.8,485.2 526.6,485.6 527.3,485.9 527.8,486.2 528.6,486.5 529.3,486.8 530.1,487.3 530.8,487.8 531.4,488.3 531.9,488.7 532.6,489.4 533.1,489.8 533.7,489.4 534.6,488.7 535.4,488.2 536.6,487.5 537.6,486.8 538.8,486.2 540,485.5 540.6,485.2 541.1,485.1 542.4,484.1 542.2,485.1 541.9,486.2 541.1,487.8 541.3,488.5 540.3,489 540.6,489.7 539.5,493.7 539,497 538.6,500.8 539.3,504.4 556.4,505.2 562.5,505.6 564.4,505.7 564.9,505.7 565.6,505.8 567.4,505.7 569.1,505.8 569.6,505.8 570.4,505.7 571.2,505.6 572.5,505.3 573.7,505 577.2,503.9 581.2,502.5 582.4,502.3 583.1,502.1 587.6,500.9 589.5,500.4 592.6,499.3 595,498.4 595.7,498.1 597.5,497.1 599.8,496.3 600.7,495.9 600.9,496.3 602.3,498.3 602.3,498.9 601.8,502 601.8,502.6 602.4,503.6 602.4,504.2 602.9,504.4 603.3,504.5 603.6,505.2 603.4,505.8 603.1,506.7 603.1,507.3 604.6,509.7 608,510.6 608.7,511.8 609.3,512.7 610.2,513.3 610.7,513.9 611.7,514.9 612.2,516.2 612.5,516.8 613,517.4 613.7,518.1 614.1,518.7 614.8,519.9 615,520.6 615.5,525.9 615.5,526.5 615.7,527.6 615.7,528.1 615.6,528.7 615.6,529.2 614.7,531.5 615.3,531.2 616.3,530.9 617.8,530.1 618.3,529.7 619,529.5 620,528.8 621.8,527.8 621.8,527.4 624.2,526 630.1,522.6 637.2,518.6 638.2,517.9 639.3,517.5 639.8,518.3 641,520.6 642.7,523.7 644.2,526.3 646.7,525.7 650.5,524.8 653.9,524.3 654.7,524.9 654.8,527.5 654.9,531.9 655,533.2 654.8,534.5 654,536.7 654.9,537 655.6,537.3 658.6,537.5 658.7,538.1 658.7,538.6 658.9,540 659.2,540.9 659.4,541.8 659.4,543.4 659.2,544.2 658.7,545.1 658.4,545.7 657.9,546.2 656.9,547.2 655.9,548.1 653.2,550.9 651.3,553.3 650.7,554.1 650.1,555.2 649.3,556.7 649,557.6 648.7,558.7 648.3,561.7 648,567 648,569.3 648,570.3 647.7,572.9 647.7,576.4 647.5,578.2 647.4,579 647.6,579.8 648,581.1 648.7,582.9 649.5,584.4 651.3,586.7 652.9,588.3 653.4,589 653.9,590 654.4,590.8 654.9,590.8 656.4,590.9 657,592.2 657.7,593 659.8,593.7 660.2,593.8 660.7,593.6 661.5,593.3 662.7,592.5 663.6,591.5 664,590.6 664,589.9 663.6,587 663.7,585.7 664.3,584.7 664.8,583.8 664.9,583.3 665.7,581.5 666.2,580.5 668.3,577.9 668.7,577 668.7,575.7 669.5,574 669.6,573.5 669.6,573 669.9,570.3 670.4,569.6 672,568.7 672.1,568.1 672.6,567.3 673.2,566.9 674.5,566.3 674.9,565.8 675.6,564.3 675.7,563.8 675.7,563 675.9,562 676.2,561.4 676.5,560.7 677.2,559.8 677.8,559.2 678.5,558.8 679.7,558.4 679.7,557.8 679.4,556.5 679.5,555.5 679.7,554.7 679.8,553.5 679.9,552.4 680.3,551.3 680.7,550.3 681.2,549.4 682.2,548 682.6,547.5 683.5,547.1 684,546.5 684.4,545.4 684.7,544.8 685.4,543.5 686.1,543.2 687.8,542.7 689.1,542.2 690.2,541.6 691.2,540.8 692.6,539.6 693.1,539.3 694.6,538.9 696.3,538.8 697,538.8 698.3,539.6 699.2,539.8 701.2,541.6 701.7,542.1 702.7,542.6 703.4,542.5 704.1,542.3 704.6,542 705.5,541.8 705.8,542.3 707.4,542.7 707.3,542.3 706.6,541.7 707.1,541.5 708.4,541.3 708.5,540.8 708.2,539.9 708.2,539.5 708.6,538.8 709.1,538.3 709.6,537.7 710.6,536.6 711.5,535.2 711.8,534.6 712.2,534 713.5,531.7 714.2,530.4 714.4,529.8 714.7,529.2 715.7,527.4 716.2,524.7 715.5,524.4 714.9,523.9 712.7,524.3 714,517.3 711,518 709.9,518 709.2,517.6 706.3,515.5 705.1,514.4 704.5,514.1 703.1,514.6 702.3,514.2 701.7,513.6 700.9,513.1 701.2,512.5 701.5,511 702.4,511.2 702.6,510.5 703,509.7 703.3,510.2 704.1,510.9 704.6,510.9 705.2,510.8 705.9,510.5 706.4,509.9 707.8,508.4 708.3,507.7 709.6,506.3 710.2,505.3 710.8,504.5 711.3,504.1 711.8,503.3 712.5,502.5 712.4,501.9 712.6,501.3 712.5,499.5 713,498.8 713.6,498.5 714.3,498.5 714.7,499.1 714.5,499.7 713.9,500.9 714.4,501.1 715,500.8 715.7,500 716.5,498.9 717,497.8 717.2,497.2 717.9,496.4 718.7,496.2 719.3,496.3 720,496 720.4,495.6 721,494.5 721.5,494.3 721.9,493.7 722.9,493.2 723.6,493.1 724.5,493.1 725.2,492.5 725.7,492 726.1,491.4 727,490.9 727.6,489.9 728.1,489.6 728.7,489 729.2,488.7 729.7,488.5 730.4,488 730.6,487.5 731.1,486.8 732.3,486.1 732.8,485.6 733.6,485.5 734.4,486.1 734.8,486.7 735.4,487 736.5,486.7 737.4,486.8 738.4,487.2 739.2,487.6 740.1,488 740.9,487.5 741.6,487 742.2,486.6 742.8,485.9 743.5,486 744.2,485.7 745.1,484.9 745.6,485.2 746.3,485.4 746.8,485.2 747.4,484.9 747.7,485.5 748.9,484.9 749.4,484.5 749.7,483.8 750.8,482.8 751.5,482.2 752.1,481 752.2,480.4 752.1,479.4 752.1,478.5 752.7,476.6 753.5,474.3 755.1,473.5 756.1,473.1 756.3,472.4 756.5,471.8 756.6,471.3 756.1,470 755.8,469 755.5,468.4 754.6,467.2 754.1,466.9 753.3,466.5 752.5,466 752.2,465.5 752,464.8 751.9,464.3 751.4,463.9 750.7,462.9 750.3,462.2 749.5,460.9 749,459.9 748.6,459.2 747.7,457.7 747.5,457.2 747.4,456.6 747.5,456 747.7,455.3 747.9,454.5 748.4,453.2 749,451.9 749.1,451.2 749.1,450.3 749.1,450 748.9,449.2 749.2,448.7 749.7,448 751.8,444.8 756.1,437.9 758,438.3 759.6,438.3 759.9,436.8 760.2,435.6 760.3,435.1 757.5,434 758,432.5 758.4,429.7 758.5,428.9 758.6,428.1 756.5,427.6 755.9,427.5 753.7,427 750.9,426.4 750.2,426.2 749,425.8 747.7,425.3 745.5,424.1 744.6,423.6 744.1,423.2 743.6,422.9 741.5,421.2 740.4,420.4 740.4,419.8 740.9,420.4 741.9,421 744.4,423 746.6,424.3 748.2,425.1 749,425.4 750.8,426 756,427 756.6,427.1 756.8,426.4 759,426.9 761.6,426.7 761.9,424.4 761.7,423.7 762,421.7 762.5,418.3 762.9,417.9 765.2,415.9 769.7,412.1 776.2,411.9 774.1,420.5 776.6,420.9 778.3,421.2 779.8,421.5 780.1,420.7 780.5,420.2 781,418.9 780.9,418.2 775.1,417.3 776.7,409.6 776.1,409.5 773.8,409 774.2,408.2 775.3,405.7 775.7,404.8 776.1,404.1 776,403.4 774.7,403.5 774.4,402.7 773.6,402.2 773,401.5 772.1,401 771.5,400.8 770.7,400.4 766,399 764.5,398.7 763.7,398.4 762,398.9 760.3,398.4 758.3,398 756.4,397.7 756,397.5 754.9,397.3 753.9,396.6 753.8,396.1 752.6,395.8 751.1,396.4 748.2,395.9 747.8,395.9 746.8,395.6 744.6,393 741.9,389.9 739.8,387.6 738.1,385.6 737.5,385 733.6,377 733.2,376.5 731.7,374.6 730.9,374.9 730.7,374.4 729.6,374.3 728.3,373.8 727.7,373.6 726.1,372.6 722.6,370.3 721.5,369.4 720,368.2 719.5,367.7 717.8,366.3 717.4,365.8 717.1,365.1 715.7,365.1 714.9,365.1 715.7,367 716.7,368.5 717.9,371.5 718.3,371.9 718.5,374.1 718.9,377.6 719.3,379.4 721.5,380.2 721.8,382.7 721.8,383.2 721.6,384.7 721.2,387.4 720.6,388.9 719.2,388.8 717,388.6 715.7,388.3 715,388.2 713.9,387.9 714.2,386.1 714.2,385.7 714.1,384.9 713.2,382.7 713.3,379.7 712.9,379 712.5,375.8 711.9,374.3 711.3,372.9 711,372.4 710.3,371.9 706.6,371.2 705.4,370.8 704.6,370.7 703.3,370.6 701.7,370.8 701.2,370.4 700.6,370.2 697.2,368.6 695.1,366.6 694.5,365.4 693.7,364.4 693.4,364 693.1,363.4 690.7,362 688.8,360.6 687,359.4 684.2,356.9 683.4,356.4 682.9,356.1 680.6,354.6 678,355.3 676.9,355.4 675.7,355.5 675.1,355.2 674.4,354.9 673.8,354.6 672.5,353.8 671.5,353.4 671,353 669.5,351.6 668.4,350.5 667.3,349.9 664.8,349.3 663.6,348.7 661.6,347.6 660.9,347.3 659.5,346.4 656.8,346.2 655.8,345.9 655,345.6 654.3,346.4 653.4,347.1 652.9,347.5 651.3,348.5 649,350.1 648.2,350.8 647.2,351.2 646.3,351.6 641.9,353.1 641.2,353.6 640.8,354.1 639.7,355.1 638.5,355.7 638,355.7 637.4,355.6 636.9,355.3 636.1,355.3 635.5,355.6 635.1,361.4 634.9,361.9 634.9,362.7 634.9,363.5 635.5,364.1 633.7,364.1 633,364.1 633,365.9 633.2,367 633.5,367.6 632.8,368.2 631.5,367.9 631.7,367.3 631.9,366.8 632,364.6 631.3,364.5 631.3,362.1 631.4,361 630.6,360.7 627.1,359.8 626.6,359.9 624.8,361.9 621.2,360.6 620.8,360.4 621.5,359.5 622.6,358 624,356.2 625.7,353.9 626.1,353.2 625.5,352.8 624.4,352.4 623.1,351.9 623.2,350.9 623.8,348.2 624.1,345.3 624.4,343.3 624.8,342.5 628.1,338 630.3,334.9 633.1,331.1 633.5,330.5 635.6,327.8 637.2,325.6 638.5,323.9 640.4,321.3 636.2,320.3 635,319.7 634.3,319.2 635.4,316.5 635.8,315.2 637.6,309.2 638.4,304.7 638.7,303.2 639.4,300.5 639.9,298.6 640,298 640.2,297.4 640.4,296.9 641,295.4 642.6,291.8 643.4,290.1 643.7,289.4 644.2,288.3 644.8,287.3 645.2,286.5 646,285.4 646.5,284.8 648.5,282.5 650.6,280.4 652.5,278.2 653.4,277.2 654,276.7 654.8,276 656,275.1 658.5,273.2 659,272.8 660.7,271.7 664.1,269.5 668,266.8 669.7,265 671.2,263.6 670.9,263.2 670.8,262.7 670.5,261.3 669.9,258.1 669.6,256.6 668,256.7 663.1,256.8 660.3,257 658.8,257 656.7,256.8 655.6,256.6 655.1,256.5 654.4,256.2 653.2,255.9 652.1,255.7 651.5,255.6 647.7,255.5 644.8,255.5 643.8,255.4 642.3,255.4 641.4,255.5 639.6,255.7 637,256.1 636.1,256.2 636,255.6 635.8,254.3 635.6,253 635.4,251.7 635.2,250.1 636.2,249.1 636,247.9 635.8,246.7 635.7,245.4 635.4,243.8 635.3,242.3 638.3,243.1 638.9,242.9 639.5,242.3 640.1,242.5 641.2,242.9 641.7,242.5 642.6,242.2 644,242.7 644.5,242.6 644.9,242.9 645.5,242.4 646.1,241.6 646.7,240.6 647.4,239.5 648.3,238.1 648.7,237.2 648.7,236.7 648.4,235.4 648.3,234.7 647.4,234.6 646.7,234.6 646.1,234.4 645.3,233.9 644.5,233.5 644,233.4 642.7,233.2 641.5,233 640.7,233 638.8,232.7 636.2,232.4 635,232.2 633.4,232.1 631.1,231.8 629.9,231.7 629.2,231.6 628.6,231.4 628.1,231.3 626.9,231.1 623.2,230.1 620,229.3 619.7,229.2 618.8,229 616.5,228.3 612.1,227.2 608.3,226.1 606.5,225.6 603.1,224.6 601.1,224.1 600.6,224 597.9,223.2 594.9,222.4 594.4,222.3 593.9,222.1 593.8,221.6 594,220.9 594.5,219.8 594.6,219.2 594.6,218.5 594.9,217.8 595.2,217.1 595.3,216.4 595.4,214.1 595.5,212 595.3,211.2 594.1,208.5 593.9,207.8 592.5,205.8 592.1,204.8 591.9,203.8 591.8,201.7 591.5,200.5 591.4,199.8 591.3,199.2 591.3,198 591.2,197.1 590.3,194.7 590.4,194 590.3,192.8 590.6,191.9 590.6,191.3 590.5,190.3 590.4,189.8 590.2,188.8 589.8,187.9 589.1,185.6 588.4,184.3 587.3,184.3 586,184.3 584.7,184.1 584.2,182.5 583.9,181.3 583.5,180.7 582.6,180 582,179.6 581.3,179.4 579.9,179.8 578,180.3 577.2,180.3 575.9,180.2 575.5,180.6 574.8,180.6 574.7,180.2 574.4,179.5 573.8,178.3 573.7,178.1 572.6,175.4 570.4,171.5 569.4,170.4 568.1,168.6 567.6,167.9 566.1,166.2 563.5,163.8 561.3,161.9 560.4,161 559.9,160.6 558.1,159.3 555.4,157.4 554.2,156.7 552.6,155.7 551.7,155.2 551.9,154.8 550.9,154.4 546,152.5 542.6,151.2 541.1,150.7 539.7,150.2 538.5,149.8 533.2,147.9 530.5,147.1 525.8,146.2 523.4,146.3 520.2,146.5 519.7,146.6 518.6,146.7 512.9,147.1 509.9,147.3 507.5,141.5 506.8,139.8 506.5,139.2 504,133.4 503.2,131.3 501.3,127 498.4,124.6 498.2,121.7 499.6,114.7 499.7,114.1 500.4,112.1 501.3,109.7 501.6,108.9 502.4,106.8 503.6,103.3 505.2,99.8 506,99.4 506.7,99 507,98.9 507.1,98.3 507.1,97.3 507.2,94.3 507.4,90.2 507.5,88.3 508.3,87.6 509.7,86.7 512.4,85.1 513,84.7 514.2,84.1 518.1,82.4 520.2,81.2 520.9,77.8 522.9,71.5 524.2,66.4 524.4,65.4 524.5,64.9 524.9,63.5 525,62.2 525.2,61 525.7,55.8 525.8,54.6 524.5,54.8 523.1,54.9 522.3,52.5 521.7,50.8 518.7,51.9 517.7,52.4 514.8,53.8 512.1,51.2 510.2,49.5 509,48.5 507.8,47.3 507,46.9 505.9,46.2 505,45.9 504.5,45.6 503.9,45.1 502.9,44.5 501.8,43.9 501.2,43.8 499.6,42.7 498.7,42.2 497.3,41.1 494.8,39.7 493,38.2 491.9,37.2 490.6,35.7 490.1,35.1 485.6,28.9 486.6,23.6 486.9,21.3 487.2,18.6 487.6,16.2 487.9,13.7 488.2,12.1 488.9,10.5 488.6,9.7 486.4,10.9 485.2,11.4 477.7,14.5 475.6,16.1 475.6,15.2 475.1,14.1 474.5,13.1 475.9,8.4 480,1.8 479.4,0.8 476.8,3.5 475,1.6 469.7,8.5 464.8,15.4 457.9,12.2 458,13 453.7,17.8 453.1,18.2 449.5,22.3 448.6,23.2 451.8,24.5 461,32.3 472.9,34 473.1,34.5 473.5,35 473.7,35.8 473.6,36.5 473.4,37 473.2,38.3 472.6,38.9 471.7,39.4 470.8,40.2 469.6,41.5 469.1,42.2 468.4,42.5 467.8,42.4 467.2,42.5 466.6,42.5 466,42.5 465.3,42.8 464.1,43.7 463.6,44.1 462.9,44.5 462.2,44.8 461.6,45.3 461.2,45.9 460.5,47.3 459.3,47.8 458.9,48 458,48.7 454.7,48.3 450.9,47.8 450,47.6 449.9,46.6 449.7,45.9 449.2,45.8 448.5,45.6 447.5,45.6 445.3,45.4 444.7,45.4 444.1,45.6 443.5,46 442.7,46.3 440.4,46.4 439.8,47.1 439.2,47.2 438.8,47.3 438.4,46.7 437.8,47.1 437.1,50.8 436.6,53.7 433.1,54.6 432,54.9 430.8,55.3 430.3,55.8 430.1,57.5 429.8,59.8 429.8,60.6 430.1,62.9 430.3,64.3 430.4,65.1 430.8,65.6 430.9,66.4 429.5,67.6 428.7,67.9 424.4,67.6 423.7,68 423.1,68.4 422.7,68.8 420.3,70.8 "/>
</svg>
