<?xml version="1.0" encoding="UTF-8" standalone="no"?>
    <svg xmlns="http://www.w3.org/2000/svg" version="1.1" width="120%" height="120%" viewbox="0 0 959 593">
    <path class = "bezirk" id="Spandau" d="M267.3,249.3l-1.5-0.5l-4.4-2.1l-0.1-0.9l-0.5-1.8l-0.8-1.2l-0.7-0.7l-0.9-0.6l-0.7-0.4l-0.5-0.2l0.3-1.7l1-4.6l-3.5-10.3 l0-0.9l0-0.4l-10.3-0.3l-3.6-0.3l-2.4-0.5l-1.8-0.6l-1.8-1.2l-3.1-2.2l-10.3-8.4l-1.8-1.4l-7.1-5.5l-1.4-1l-0.5-0.7l-0.1-0.1 l-0.3-0.5l-0.3-0.8l0.2-0.6l-0.2-0.5l-0.2-0.5l-0.1-1.2l0-1.4l0.1-1.5l0-0.7l-0.2-0.6l-0.1-0.3l-0.5-0.9l-0.5-1.7l-0.2-1.6l-0.8-2.2 l-0.7-1.6l-0.4-2.5l-0.6-0.9l-1.3-1.7l-1.5-1.5l-1.5-2l-1.3-1.2l-1.2-1.8l-0.2-1.7l-0.1-1l-0.4-2.8l-0.3-3.4l-0.8-2.3l-0.6-3.2 l-3.5-0.5l-1.8,0.1l-0.8-0.1l-1-0.3l-0.9-0.2l-0.9-0.3l-1.2-0.2l-1-0.3l-0.5-0.3l-2.5-1.4l-0.7-0.5l-0.5-0.3l-0.7-0.5l-0.6-0.4 l-0.7-0.2l-1.4-0.2l-0.8-0.5l-0.6-0.2l-0.7-0.3l-2.8-0.5l-1.4-0.4l-1.2-0.4l-0.6-0.3l-1.2-1l-0.7-0.6l-1.5-0.7l-1-0.5l-0.8-0.4 l-0.5-0.4l-1.4-1.5l-0.7-0.3l-0.6-0.2l-0.7-0.1l-1.1-0.3l-0.8-0.3l-1.1-0.5l-0.8-0.5l-0.8-0.2l-1.2,0l-1.4-0.1l-1.4-0.3l-0.7-0.3 l-1.1-1l-0.5-0.5l-2.3-1l-2-0.4l-0.7-0.3l-0.8-0.9l-0.5-0.4l-2.2-1.5l-3.2,0.8l-2,0.5l-2.6,0.8l-0.9,0.4l-0.7,0.5l-0.5,0.5l-0.4,0.5 l-0.8,1.4l-0.7,1.3l-1.7,2.4l-2.7,3.3l-3.1,1.8l-3,1.9l-4.3,1l-1.5,0.6l-2.7,2.4l-3,0.8l-1.7,0.1l-1.7-1.2l-1,0.6l-0.2,2.1l0.9,0.1 l-1.4,4.9l1.8-0.2l0.5,0.4l0.4,0.5l0.6,1.9l0.3,1.5l0.4,1.3l0.8,0.8l2.9-0.7l0.8-0.2l1.6-0.6l0.8,0.1l1,0.1l0.9-0.6l2.2-1l0.8-0.3 l1-0.2l0.9-0.8l3-1.3l2.4-0.8l0.4,0.7l0.7,0.5l0.5,0.7l0.2,1.5l0.5,1.4l0.6,1.3l0.6,1.5l0.3,1.3l0.2,1.5l-0.1,1.1l0.1,1.7l-0.1,0.7 l0.1,0.9l-0.2,0.8l-0.2,2.3l-0.4,0.6l-0.1,0.6l0.1,0.8l-0.4,1.8l-0.5,1.1l-0.7,0.4l-0.2,0.5l0,1l-0.9,2.5l-0.3,1.3l-0.1,0.2h0 l-0.7,1.4l-0.5,0.8l-1,1.5l-0.3,0.6l-0.1,0.7l-0.5,4.7l-0.5,0.5l-0.9,0.9l0.3,0.5l0.4,2l0.2,0.5l0.2,0.5l0.1,1.2l0,1.4l0.3,1.9 l0.1,1.1l-0.1,1.1l-0.2,0.7l-0.7,0.9l-0.3,0.8l-0.1,0.7l-0.7,0.8l-0.9,0.2l-0.3,0.6l-0.2,0.1l-0.2,0.1l-0.8,0l-0.7-0.1l-1-0.3 l-0.6-0.1l-2.7-0.2l-1.6-0.1l-0.7-0.2l-0.7-0.4l-1.3-0.8l-1.2-1.3l-1.3-1.9l-1.1-1l-0.7-0.5l-0.6,2.4l-1.2,4.3l-1.1,4l-0.6,2.2 l-1,3.5l-1.1,3.9l0.1,1.5l-0.9,6l-0.4,1.8l-0.1,0.6l-0.4,2l-0.2,0.8l-0.5,1.3l-1.4,3.4l-0.5,1.2l-0.7,1.7l-0.5,1.3L94,254l-0.3,1 l-0.2,0.8l-0.1,0.8l0,0.6l-0.1,0.9l-0.1,0.6l-0.1,0.5l0,1.3l0,0.9l0,0.6l-0.1,1.2l0,1l-0.1,2.5l-0.2,1.6l0.1,0.8l0,0.5l0.1,1.1 l-0.3,2.1l-0.3,1.3l-0.1,0.7l-0.1,0.6l-0.1,0.8l-0.1,1l-0.3,1.8l1.2,0.1l0.7,0l0.9,0l0.4-0.1l3-0.5l1.8-0.2l1.5,0l0.5-0.1l1.4-0.4 l0.9-0.2l0.9-0.2l1.2-0.1l1.2-0.2l2.9-0.7l1.3-0.2l0.6-0.1l1-0.2l0.9-0.3l1.2-0.4l2-0.6l1.3-0.2l0.5,0.4l0.5,0.3l0.5,0.3l0.5,0.5 l0.3,0.9l0.2,0.8l0.6,0.9l0.9,0.1l1.1,0.3l0.7,0.4l0.5,0.3l2,1.3l1,0.6l0.8,0.5l0.8,0.7l0.6,0.5l0.7,0.5l1.3,0.9l0.5,0.3l0.5,0.3 l1.1,0.7l0.5,0.3l1,0.3l0.9,0.4l0.2,0.1l1.5,1l1.3,0.9l1,0.6l0.9,0.6l0.5,0.3l2.8,1.6l0.7,0.4l0.9,0.5l-0.8,0.7l-0.3,0.6l-4.2,4.7 l-3.5,3.8l-1.9,1.9l-0.6,0.7l-1,1.2l-0.6,0.7l-0.2,0.2l-1.6,1.8l-0.6,0.7l-0.5,0.6l-0.6,0.8l-0.5,0.6l-0.4,0.5l-1.1,1.3l-1.9,1.9 l-0.5,0.6l-2.6,3.3l-3.5,4.4l-2.9,3.7l-3.6,4.6l-1.4,1.7l-0.8,1l-0.5,0.7l0,0l-0.8,1.1l-1.2,1.6l-1.8,2.5l-1.4,1.8l-1.7,2.1 l-1.5,1.5l-0.8,0.6l-3.3,0.8l-3.1,0.7l-2.8,0.9v3.3v0.8l-0.1,0.6l-0.5,1.3l-0.8,2.2l-0.7,1.5l-2.3,3l0.1,2.2l-2,1.9l-0.9,1.8 l-0.5,1.3l0.5,2.2l0.2,1.3l0,0.7l0,2.5l-0.9,3.4l2,2.1l0.3,2.1l-0.6,6.2l-0.2,0.8L85,391l-0.4,1.2l-0.8,1.2l-0.6,1l-0.6,1.3l1.8,1.4 l0.6,0.6l0.5,0.6l0.6,1.1l1.3,0.7l0.8,0.4l0.5,0.6l-1.5,1l1.8,2.5l1.4,0.1l1,1.3l0.4-0.5l1.3,1.1l1.4,2.4l0.9,0.9l0.4,0.5l0.5,0.9 l0.5,0.5l1.5,1.6l4.5-0.9l15-3.5l20.5-13.7l0.3-0.2l7.1-4.8l17.5-15l1.4-5.7l0.7-2.8l1.6-6.9l-0.7-11.4l2.8-9.6l-3.5-11.4l3.1-8.4 l0.4-6l0-0.3l2.4-1.8l2.3-1.7l6.4-0.1l8.3-3.9l1.2-1.6l-0.4-3.2l2.3-6.5l0.3-1.4l0.7,0.2l0.7,0.2l0.5,0.1l1.1,0.1l1.5,0.1l0.3-0.7 l-0.7-0.2l0.5-1.2l0.2-0.8l0.6-1.4l1.1-1.7l1.3-2l0.9-0.5l0.3,0.5l1.3-0.1l-0.7-1.1l-0.2-0.8l-0.3-2.4l-0.4-7.7l0-1.3l0.2-1.1 l0.2-0.8l0.4-1.6l0.8-2.2l0.8-2.1l0.4-1l0.4,0.1l0.2,0l1.4,0.4l2,0.2l1.3,0.3l1-0.2l0.8-0.4l2.2,0.2l0.4,0l5.6-0.6l1.4,0.1h1 l1.1,0.4l0.2-0.5l7.4,3.1l0.8,0.3l0.4-0.6l-0.7-1.7l-0.1-0.9l-0.1-1.2l-0.2-0.7l-0.4-0.6l-0.6-0.4l1.3-1.3l0-0.3l0.8,1.6l0.6,0.3 l0.8,0.3l0.5,0.2l0.8,0.1l1.2,0l1.6,0.1l3.9-0.2l2.4-0.3l0.8-0.2l2.3-1.2l1-0.4l1.2-0.4l1.3-0.2l0.7-0.1l0.4,0l1.6-0.2l0.8-0.1 l0.5,0l0.7,0l1.2,0l1.5,0.2l0.8,0.1h0.8l0.9-0.1l2-1.3l0.9-0.7l0.7-0.4l0.9-0.2l1,0l1.2,0.4l0.3-0.9l0-0.1l0.7-3.5l0.5-2.4 L267.3,249.3z"/>
    <path class = "bezirk" id="Reinickendorf" d="M381.2,187.6l0.4-0.6l-5.6-5l-0.9,0.5l-2.8-0.8L358,168.5l-3.8-3.3l-16-14.1l-0.3-0.3l0.8-0.2l3.1-0.9l2.7-0.3l3.9-0.1 l1.7-0.2l1.9-0.4l0.1-0.2l1-1.4l2.7-4l0.3-0.4l3.4-4.3l0.5-0.6l0.8-1.1l2.1-2.7l4.9-12.1l0.2-0.5l0.5-1.1l0.2-0.4l0.1-6.1l-0.4-3.2 l-1-3l-1.7-4l-3.1-7.4l-1.8-3.4l-2.4-4.1l-0.3-0.1l-0.5,0.2l-0.5,0.2l-0.5-0.5l-0.8,0.3l0.5,0.4l0.5,0.4l-0.6,0.5l-1.1,0l-0.4-0.5 l-0.6,0l-0.8,0.5l-0.3,0.5l-0.6,0l-0.5,0.4l-0.7-0.1l-0.5,0.3l-0.5,0.9l-0.9,0.2l-0.6,0.4l-1-0.2l-0.5-0.1l-0.5-0.3l-0.4-0.2 l-0.5,0.3l-0.4,0.4l-1.1,0.1l-0.5,0.1l-0.3,0.2l-0.3,0.5l-0.1-0.5l-0.6-0.2l-0.5,0.2l-0.3-1.6l-4.7,0.4l-2.8-0.2l-0.9,0.4l-0.6,0 l-0.7,0.3l-0.8-0.1l-0.9,0.3l-0.6-0.2l-1,0.1l-0.8-0.2l-0.1,0.5l-0.4,0.1l-0.9,0.2l-0.4,0.4l-0.3-0.2l-3.8-2.5l-0.5,0.2l-0.5-0.3 l-1.6-1l-1.2-0.7l-0.6-0.3l-1.8-0.5l-1.5-0.4l-0.6-0.3l-1-0.4l-0.7-0.2l-1.2-0.2l-2.1-0.2l-1.2-0.2l-0.4-0.1l-1.9-0.8l-2-0.6 l-0.5-0.2l-1.2-0.6l-0.9-0.3l-0.5,0l-1.7,0.2l-1.8,0.2l-0.8,0l-1.4,0.4l-4.8,0.7l-0.2-0.2l0.6-0.5l2-0.8l0.9-0.6l0.4-0.2l2.6-0.8 l1.3-1l0.3-0.6l-0.6-0.2l0.4-0.8l-0.3-0.5l-0.1-0.5l-0.4-2.3l-1.9-3.8l-1.3-2.4l-0.5-1.4l0-0.8l1.3-0.8l-0.2-0.8l-0.2-1.1l-0.6-1.4 l1-0.2l0-0.6l1-0.4l-0.1-0.9l0.9-1.2l0.2-0.9l0.3-1.5l-0.1-0.4l-0.2-1.8l-0.8,0.2l-1.8-3.4l-0.9-2.4l-5.8-11.1l10.3-6.9l-0.5-0.2 l-0.8-1.2l-1.4-1.5l-0.5-1l-2.9,0.3l-1.6,0.3l-0.7,0.1l-0.6,0l-1-0.2l-0.9,0h-2l-1.9,0l-1,0l-0.5,0l-0.5,0L280,29l-0.5-0.2l-3.5-0.7 l-1.3-0.2l-0.5,0.1l-0.5,0l-0.6-0.1l-0.7-0.2l-0.7-0.3l-0.7-0.2l-0.8-0.1l-0.8-0.1l-1.1-0.4l-0.4,6.6l-0.3,4l-0.2,3.6l3.4,0.2l0,0.7 l-0.2,3.1l-0.8,3.3l0.4,1l-0.3,2.9l-0.8,9.1l-0.7,0.1l-1.4,0.2l-4.9,1.2l-0.6,0.1l-2.2-0.1l-2.8,0.8l-2.4,0.2l-4.5-1l-3.3-0.8 l0.1,1.1l0.1,0.6l0.1,0.8l0.3,1l0.3,0.7l0.8,1.5l0.3,0.6l0.5,1.4l0.5,1.9l0.2,1l-0.1,2.3l-0.1,1.5l0,0.7l-0.1,1.2l-0.1,1.8l-0.2,2 l-0.1,1.6l-0.1,1.7l0,1l-0.2-0.1l-0.7-0.5l-0.9-0.2l-1.3-0.6l-1.3-0.3l-0.6,0.1l-1.9,0H241l-0.9,0.3l-2,0.1l-0.6,0l-1.4,0.3l-0.6,0 l-1.8-0.1l-0.6-0.1l-0.9-0.1l-1.3,0.3l-0.5,0.2l-0.5,0l-1.1-0.1l-2.5-1.4l-0.5-0.2l-0.6-0.1l-0.7,0.1l-0.6,0.2l-0.4,0.2l-1,0.2 l-5,0.2l-3.3,0.7l-1.8,0.1l-0.7-0.1l-1.2-0.1l-0.7-0.1l-0.7-0.1l-1.4-0.3l-0.5-0.8l-0.5,0l-1-0.3l-1.7,0.4l-1.3-0.1l-0.9-0.1l0,0.7 l-0.1,0.8l-0.2,0.7l-0.1,2l-0.1,1l-0.3,1.1l-1.9,4.1l-0.3,0.6l-1.2,3l-1.6,1.5l-0.5,0.4l-1.2,2.6l-1.6,3.4l-3.1,6.2l-0.8,1.7 l-0.9,1.8l-0.7,1.2l-0.3,0.6l-0.4,0.6l-0.5,0.5l-0.8,0.4l-2.2,1l-0.4,0.2l-0.5,0.3l-0.7,0.7l-0.2,0.5l-0.1,0.7l0,0.8l0.2,1.5 l0.5,1.3l0.6,0.8l0.9,1l2.2,3.2l1.5,2.5l0.7,1.1l2,2.2l1.5,1.6l0.8,0.7l3,2.2l1.3,1l3,3.1l0.5,1l0.2,0.4l0.4,1.8l-0.4,1.2l-0.9,3 l-0.8,2.6l-0.4,1.4l-0.9,1.6l0.6,3.2l0.8,2.3l0.3,3.4l0.4,2.8l0.1,1l0.2,1.7l1.2,1.8l1.3,1.2l1.5,2l1.5,1.5l1.3,1.7l0.6,0.9l0.4,2.5 l0.7,1.6l0.8,2.2l0.2,1.6l0.5,1.7l0.5,0.9l0.1,0.3l0.2,0.6l0,0.7l-0.1,1.5l0,1.4l0.1,1.2l0.2,0.5l0.2,0.5l-0.2,0.6l0.3,0.8l0.3,0.5 l0.1,0.1l0.5,0.7l1.4,1l7.1,5.5l1.8,1.4l10.3,8.4l3.1,2.2l1.8,1.2l1.8,0.6l2.4,0.5l3.6,0.3l10.3,0.3l32.8,1.2l9.5-16.8l0.7-0.5 l7.6-2.8l4.2-0.9v0l0.2,0l1.7-0.4l0.6-0.1l0.7-0.2l1-0.5l0.5-0.5l0.4-0.6l0.3-0.7l0.2-0.8l4.5,0.4l0.9,0.9l5.9-5l13,4.3l4.7,0 l3.6,0.1l0.4,0l2.5,0.2l0.3,2.4l4.7-1.2l0.6,5.5l1.5-0.2l0.3-0.2l4.6-4l6.3-0.2l1.8-9.6l2.8-0.5l3.4-2.1l3.5,0.5l0.9-0.8l0.5-0.6 l0.4-0.4L381.2,187.6z M290,85.5L290,85.5"/>
    <path class = "bezirk" id="Pankow" d="M524.5,54.8l-1.3,0.1l-0.8-2.4l-0.6-1.7l-3,1l-1.1,0.5l-2.9,1.4l-2.7-2.6l-1.9-1.7l-1.2-1l-1.2-1.2l-0.8-0.4l-1.1-0.7 l-0.9-0.3l-0.5-0.3l-0.6-0.5l-1-0.6l-1.1-0.7l-0.6-0.1l-1.6-1l-0.9-0.6l-1.3-1.1l-2.6-1.4l-1.8-1.5l-1-1l-1.3-1.5l-0.6-0.6l-4.5-6.2 l1-5.3l0.3-2.3l0.3-2.7l0.4-2.4l0.3-2.5l0.3-1.6l0.7-1.6l-0.3-0.8l-2.2,1.2l-1.1,0.5l-7.5,3l-2.2,1.7l0-1l-0.5-1.1l-0.6-1l1.4-4.8 l4-6.6l-0.5-1l-2.7,2.8L475,1.6l-5.3,6.9l-4.9,6.9l-6.9-3.2L458,13l-4.3,4.9l-0.5,0.3l-3.7,4.2l-0.9,0.9l3.3,1.3l9.2,7.7l11.8,1.7 l0.3,0.5l0.3,0.5l0.2,0.9l-0.1,0.6l-0.1,0.6l-0.2,1.3l-0.6,0.6l-0.9,0.5l-0.9,0.8l-1.2,1.3l-0.5,0.7l-0.7,0.3l-0.6-0.1l-0.6,0.1 l-0.6-0.1l-0.7,0l-0.6,0.3l-1.2,0.9l-0.5,0.5l-0.7,0.4l-0.7,0.3l-0.6,0.5l-0.4,0.6l-0.7,1.4l-1.1,0.5l-0.5,0.2l-0.9,0.7l-3.3-0.4 l-3.8-0.5l-1-0.2l-0.1-1l-0.2-0.7l-0.5-0.1l-0.7-0.1l-0.9-0.1l-2.2-0.1h-0.6l-0.7,0.2l-0.6,0.3l-0.8,0.3l-2.2,0.1l-0.7,0.7l-0.6,0.1 l-0.4,0l-0.4-0.5l-0.6,0.4l-0.7,3.8l-0.5,2.8l-3.4,0.9l-1.1,0.3l-1.3,0.4l-0.4,0.5l-0.2,1.7l-0.3,2.2l-0.1,0.9l0.3,2.2l0.2,1.4 l0.1,0.8l0.5,0.6l0.1,0.8l-1.4,1.1l-0.7,0.3l-4.3-0.3l-0.7,0.4l-0.6,0.4l-0.5,0.4l-2.3,2l-0.7-0.6l-2.3-1.8l-1.7-1.3l-3.2-2.4 l-0.6-0.5l-2.1-2.7l-0.1-0.5l0.4-0.7l0-0.5l0-0.5l-0.3-0.5l-0.8-0.1l-0.6-0.2l-0.6-0.7l-0.5-0.6l-2.4,0.6l-1.4,0.4l-1.1,0.5L402,58 l-0.7-0.9l-0.7-0.6l-1.6-1l-1.1-0.8L397,54l-1.3-1.2l-1.6-1.7l-0.5-0.6l-0.7-0.7l-1-1.2l-0.4-0.3l-0.5,0.2l-0.5,0.7l0.4,0.3 l-0.9,0.7l-0.7,0l-1.4-0.4l-0.2,0.8l-0.1,0.8l-0.8,1.4l-0.3,0.4l-0.4,0.6l-0.2,1l-0.2,0.8l-0.1,1l-0.5,0.2l-0.8,1.1l-0.7,1l-0.3,0.6 l-0.1,0.6l0,1l0,1.1l0,0.4l0,0.9l-0.2,0.6l-0.3,0.6l-0.2,1.1l-0.4,0.7l-1.1,1.2l-0.5,0.2l-0.6,0.3l-1.5,0.7l-0.7,0.2l-0.7,0 l-0.5-0.1l-0.5-0.1l-0.5-0.1l-0.4,0.1l-0.7,0.3l-0.5,0.7l1.1,0.8l0.2,0.6l-2.4,1l-0.3,0.5l-0.6,0.8l-0.7-0.8l-0.6,0.8l-0.6,0.8 l-0.2,0.8l-1.6,2.6l-0.6,0.3l0.8,1.1l0.8,1.7l-0.7,0.6l-2.6,2.5l-1.5,0.6l-0.6,0.5l-0.7,0.1l-0.7-0.3l-0.5,0.6l-0.6,1l-0.2,0.6 l-1.1,0.9l-0.5-0.2l-0.5-0.4l-0.5,0.3l0.3,0.6l-0.6,0l2.4,4.1l1.8,3.4l3.1,7.4l1.7,4l1,3l0.4,3.2l-0.1,6.1l-0.2,0.4l-0.5,1.1 l-0.2,0.5l-4.9,12.1l-2.1,2.7l-0.8,1.1l-0.5,0.6l-3.4,4.3l-0.3,0.4l-2.7,4l-1,1.4l-0.1,0.2l-1.9,0.4l-1.7,0.2l-3.9,0.1l-2.7,0.3 l-3.1,0.9l0.2,0.1l-0.7,0.3l16,14.1l3.8,3.3l14.4,13.2l2.8,0.8l0.9-0.5l5.6,5l-0.4,0.6l1.6,1.6l-0.4,0.4l-0.5,0.6l0.6,0.7l-0.4,0.5 l2.1,2l0.2,0.5l0.7,0.5l1.4,1.3l0.7,0.7l0.9,1.2l1,1.6l0.7,1.7l0.6,1.7l0.5,2.4l0.3,1.6l0,1.4l0,0.4l0,0l0,0.7l0,1.5l0.1,0.9 l0.2,1.4l0.4,3l0.1,0.9l-0.1,0.9l-0.2,0.8l-0.3,1l-0.5,0.8l1.4-0.2l2.2,7.5l3.5,10.8l1-0.4l0.1,0.4l2.1,7.1l0.9,3l0.9,0.7l-2,3.5 l-0.4,2.1l-0.1,0.9l-0.4,1.7l1.8,0.6l2.7,0.7l1.7,0.5l3,1.4l1,0.5l0.6,0.4l2.5,1.9l2,1.4l4.4-4.6l1.2,0.1l0.7-0.3l4.9-0.9l7.7-1.5 l1,1.4l2.7-2.7l1.5-1.4l5.4,8.2l3.5-1.7l1.5-0.7l1.3,2.7l1.7,3.9l1.1,2.7l-0.7,2.1l0.5,0.2l1.3,0.4l5.2,1.6l0.7,0.2l1.6-0.2l6-1 l2.9-0.3l-1.4-2.4l-1.3-1.4l-0.3-0.2l-1.1-0.8l-2.1-1.1l-3.9-0.8l-2.8-1.5l-1.7-1.3l-0.7-1l-1.5-3l4.6-1.6l2.9-5.8l1.2-0.9l3-1.5 l1.6-1.2l-1-2.6l-1-0.5l-0.5-0.4l0.6-1.9l0,0l0.4-1.4l2.5-3l0.2-0.3l-2.7-13.8l1.1,0.1l1.2,0.8l4.5,0.1l6.3,0.2l0.9-1.1l-0.7-1.8 l0.4-0.6l1.7-0.1l0.5-0.2l3.7-4.6l0.7-0.4l4.4,1.2l4.3,1.6l1.4-4.9l0-1l-0.1-1.5l-0.7-1.9l-4.1-6.7l-1.1-1l-3.3-1.6l-1.6-0.2 l-0.2-0.5l0.3-1l0.4-2.5l0.1-0.7l-2.5-0.4l0.1-0.4l0.3-1.3l0-0.8l-0.4-0.7l4.1-5.3l0-0.1l-4.9-4.1l-0.3-2l-0.8,0.3l-0.9-0.2l-1.3,0 l-0.7-0.2l0.4-1l-0.3-0.5l0.1-1.5l0.3-1l-0.2-0.7l0.4-4.3l-0.3-2.4l-0.2-0.8l0-1.1l0-1.5l0.8-4.1l1.1,0.3l0.5-1.2l1.7-0.1l1.1-2.8 l1-2.9l0.2-0.6l0-0.1l0.7-1.3l2.1-2.4l0.6-0.5l17.3-11.2l-0.2-0.5l-2.5-5.8l-0.9-2.1l-1.8-4.3l-2.9-2.4l0-0.6l-0.2-2.4l1.4-7 l0.1-0.6l0.7-1.9l0.9-2.5l0.3-0.7l0.8-2.1l1.2-3.5l1.6-3.5l0.2-0.1l0.7-0.3l0.6-0.4l0.3-0.1l0.1-0.6l0-1l0-3l0.2-4.1l0.1-1.9 l0.8-0.7l1.4-0.9l2.7-1.7l0.6-0.3l1.2-0.6l3.9-1.8l2.1-1.2l0.7-3.4l2-6.3l1.3-5.1l0.2-1l0.1-0.5l0.4-1.4l0.2-1.3l0.2-1.2l0.5-5.1 l0.1-1.2L524.5,54.8z"/>
    <path class = "bezirk" id="Lichtenberg" d="M573.7,178.1l-1.1-2.7l-2.2-3.9l-1-1.2l-1.3-1.7l-0.6-0.7l-1.5-1.7l-2.6-2.4l-2.1-1.9l-1-0.9l-0.4-0.3l-1.8-1.3l-2.7-1.9 l-1.2-0.7l-0.7-0.4l-1-0.6l-0.9-0.4l0.2-0.5l-0.9-0.4l-5-1.9l-3.4-1.3l-1.4-0.5l-1.4-0.5l-1.2-0.4l-5.3-1.9l-2.7-0.8l-4.7-0.9 l-2.3,0.1l-3.2,0.2l-0.5,0.1l-1.1,0.1l-5.7,0.4l-3,0.1l-2.4-5.8l-0.8-1.7L489.5,151l-0.6,0.5l-2.1,2.4l-0.7,1.3l0,0.1l-0.2,0.6 l-1,2.9l-1.1,2.8l-1.7,0.1l-0.5,1.2l-1.1-0.3l-0.8,4.1l0,1.5l0,1.1l0.2,0.8l0.3,2.4l-0.4,4.3l0.2,0.7l-0.3,1l-0.1,1.5l0.3,0.5 l-0.4,1l0.7,0.2l1.3,0l0.9,0.2l0.8-0.3l0.3,2l4.9,4.1l0,0.1l0,0l-4.1,5.3l0.4,0.7l0,0.8l-0.3,1.3l-0.1,0.4l2.5,0.4l-0.1,0.7 l-0.4,2.5l-0.3,1l0.2,0.5l1.6,0.2l3.3,1.6l1.1,1l4.1,6.7l0.7,1.9l0.1,1.5l0,1l-1.4,4.9l-4.3-1.6l-4.4-1.2l-0.7,0.4l-3.7,4.6 l-0.5,0.2l-1.7,0.1l-0.4,0.6l0.7,1.8l-0.9,1.1l-6.3-0.2l-4.5-0.1l-1.2-0.8l-1.1-0.1l2.7,13.8l-0.2,0.3l-2.5,3l-0.4,1.4l-0.6,1.9 l0.5,0.4l1,0.5l1,2.6l-1.6,1.2l-3,1.5l-1.2,0.9l-2.9,5.8l-4.6,1.6l1.5,3l0.7,1l1.7,1.3l2.8,1.5l3.9,0.8l2.1,1.1l1.1,0.8l0.3,0.2 l1.3,1.4l1.4,2.4l1,1.4l0.6,1.4l0.5-0.2l1.6,4.1l0.8,3.1l1.5,0.7l-1.9-0.5l-0.7,2.5l0.4,2.2l0.2,0.9l0.3,1.3l-0.2,1l-0.2,0.7 l-0.3,0.6l-0.3,0.5l-0.7,1.2l-0.6,1.1l-1,1.7l0.8,0.4l-0.9,0.5l0,0.3l-0.8,0.8l-0.9,1.3l-0.1,0.7l-0.6,1.2l-0.6,1.1l-0.7,2.6l-1,4.8 l1.2,0.4l1.4,0.3l1.7,0.3l4.6,2.9l1.1,2.1l2,2.9l4.3,4.7l0.4,0.6l1,0.3l0.8,1.1l1.5,1.3l0.3,0.5l0.1,0.5l4.1,2.1l-0.5,1.4l2.1,3 l0.4,1l1.1,3.6l0.1,0l2.4-0.3l1.4,0l4.3,1.5l0.1,0l0,0.1l0.3,1l0.9,2.7l1.1,3.4l3.9,5.9l4.2-1l1.9-0.4l0.6-0.1l0.5,0l0.5,0.1 l0.5,0.1l0.9,0.4l4.6,2.5l1.3-2l1.2,1.4l1.4,1.7l6.9,9.8l1.8-2.1l6-7.2l2.2-3l2.1,1.5l1,0.2l0.1,0l5.8,1l-0.4-1l0.9-0.1l0.5,0.1 l0.9,0.3l0.6,0.1h2.5l-0.7-6.3l-3.2-4.9l-3.9-21.6l-0.1-0.5l-0.2-0.6l-0.4-0.9l-0.4-1.4l-0.3-2.3l-0.4-1.4l-2.2-3.6l-0.2-0.3 l-1.3-1.4l-0.4,0.6l-0.2,0.3l-0.5,0.3l-0.1-0.2l-1.1-2l-3.5-6.5l-0.5-1.1l1.8-0.1l0.5-0.3l0.2-0.6l-0.5-2.9l-0.1-2.6l0.1-1.6 l-0.5-0.4l0-1.5l1.6,0.1l0-0.2l0-0.4l0-0.6l0-0.6l-0.1-0.6l-0.2-0.7l-0.2-0.5l-0.4-0.7l-0.4-0.5l-0.5-0.5l-0.5-0.4l-0.5-0.3 l-0.4-0.2l-0.5-0.2l-0.8-0.1l-1-0.1l-0.9-0.1l-0.8-0.1h-0.6l-0.7,0.1l-1.5,0.2l-3.4-0.2l-0.6,0l-6.6-0.3l0-0.5l0-0.4l0.2-3.5 l0.3-7.8l0.2-7.3l-0.3-6.4l-0.3-4.7l-0.2-2.5l-0.3-1.5l-1.6-3.3l0-0.3l0,0.3l1.3-0.2l1.9-0.2l1.3-0.2l1.1-0.2l0.5-0.2l0.8-0.3l1-0.5 l0.5-0.3l2.4-1.2l1.5-0.7l2.2-0.9l2.5-0.9l-7.8-29.6v0l2.7-2.3l1.3-1.2l2.8-2.7l2.2-2.2l3.1-3.9l3.1-3.8l1.2-1.5v0l0.3-0.3l1.2-0.2 l2.1-1.2l1.2-1.7l0.6-0.3l4.2-1.7l0.8-0.3l5.8-2.3l5.5-2.1l2.1-0.8l2-1l1.2-0.8l1.3-2.6l0,0L573.7,178.1z"/>
    <path class = "bezirk" id="Marzahn-Hellersdorf" d="M670.9,263.2l-0.2-0.5l-0.2-1.3l-0.7-3.2l-0.3-1.5l-1.5,0l-4.9,0.1l-2.8,0.2l-1.4,0l-2.1-0.2l-1-0.1l-0.6-0.1l-0.7-0.3 l-1.2-0.4l-1.1-0.2l-0.5-0.1l-3.8-0.1l-2.9,0l-1-0.1l-1.5,0l-0.9,0.1l-1.9,0.3l-2.5,0.4l-0.7,0.1v0l-0.2,0l-0.1-0.7l-0.2-1.3 l-0.2-1.3l-0.2-1.3l-0.2-1.6l1-1l-0.2-1.1l-0.2-1.2l-0.2-1.3l-0.2-1.6l-0.2-1.5l3,0.8l0.6-0.2l0.6-0.6l0.5,0.2l1.2,0.4l0.5-0.4 l0.9-0.3l1.4,0.4l0.5-0.1l0.5,0.3l0.5-0.5l0.6-0.8l0.6-1l0.7-1.1l0.8-1.4l0.5-0.9l-0.1-0.5l-0.3-1.3l-0.1-0.7l-0.9,0l-0.7,0 l-0.6-0.2l-0.8-0.5l-0.9-0.4l-0.5-0.1l-1.2-0.2l-1.3-0.2l-0.8-0.1l-1.9-0.3l-2.6-0.3l-1.3-0.2l-1.5-0.1l-2.3-0.3l-1.2-0.1l-0.7-0.1 l-0.6-0.2l-0.5-0.1l-1.2-0.2l-3.8-1l-3.2-0.8l-0.3-0.1l-0.8-0.2l-2.4-0.6l-4.4-1.2l-3.8-1.1l-1.8-0.5l-3.4-0.9l-2-0.6l-0.5-0.1 l-2.7-0.7l-3-0.8l-0.5-0.1l-0.5-0.2l-0.1-0.5l0.2-0.7l0,0l0.4-1.1l0.1-0.6l0-0.6l0.3-0.7l0.3-0.7l0.2-0.7l0.1-2.4l0.1-2l-0.1-0.8 l-1.3-2.7l-0.2-0.7l-1.4-2l-0.4-1.1l-0.2-1l-0.1-2.1l-0.3-1.3l-0.1-0.6l-0.1-0.6l-0.1-1.2l-0.1-0.9l-0.8-2.4l0-0.7l-0.1-1.2l0.2-1 l0-0.6l-0.1-1l-0.1-0.5l-0.2-0.9l-0.3-1l-0.8-2.3l-0.7-1.3l-1.1,0l-1.3,0l-1.3-0.2l-0.5-1.7l-0.3-1.1l-0.4-0.6l-0.9-0.7l-0.5-0.4 l-0.8-0.2l-1.3,0.4l-1.9,0.6l-0.8-0.1l-1.3-0.1l-0.5,0.4l-0.7,0l-0.1-0.5l-0.3-0.7l-0.5-1.2l0,0l-1.3,2.6l-1.2,0.8l-2,1l-2.1,0.8 l-5.5,2.1l-5.8,2.3l-0.8,0.3l-4.2,1.7l-0.6,0.3l-1.2,1.7l-2.1,1.2l-1.2,0.2l-0.3,0.3l-1.2,1.5l-3.1,3.8l-3.1,3.9l-2.2,2.2l-2.8,2.7 l-1.3,1.2l-2.7,2.3v0l7.8,29.6l-2.5,0.9l-2.2,0.9l-1.5,0.7l-2.4,1.2l-0.5,0.3l-1,0.5l-0.8,0.3l-0.5,0.2l-1.1,0.2l-1.3,0.2l-1.9,0.2 l-1.3,0.2l1.6,3.3l0.3,1.5l0.2,2.5l0.3,4.7l0.3,6.4l-0.2,7.3l-0.3,7.8l-0.2,3.5l0,0.4l0,0.5l6.6,0.3l0.6,0l3.4,0.2l1.5-0.2l0.7-0.1 h0.6l0.8,0.1l0.9,0.1l1,0.1l0.8,0.1l0.5,0.2l0.4,0.2l0.5,0.3l0.5,0.4l0.5,0.5l0.4,0.5l0.4,0.7l0.2,0.5l0.2,0.7l0.1,0.6l0,0.6l0,0.6 l0,0.4l0,0.2l-1.6-0.1l0,1.5l0.5,0.4l-0.1,1.6l0.1,2.6l0.5,2.9l-0.2,0.6l-0.5,0.3l-1.8,0.1l0.5,1.1l3.5,6.5l1.1,2l0.8-0.4l0.4-0.6 l1.3,1.4l0.2,0.3l2.2,3.6l0.4,1.4l0.3,2.3l0.4,1.4l0.4,0.9l0.2,0.6l0.1,0.5l3.9,21.6l3.2,4.9l0.7,6.3l1.9,0.1l1.9,0.4l1.2,0.2 l1.4,0.1l3.9-0.2l2.5-0.9l0.2,0.4l0.2-0.3l0.5-0.4l0.3-0.5l0.9-0.8l1.2-0.8l0.1-0.1l3.4-1.5l2.2-1.4l0.1,0.6l0.2-0.7l0.7-1.8 l0.5-2.8l5.2-2.7l2.2,2l1.2-0.6l3.1-1.4l0.4-0.2l4.9,3.8l2.2,1.8l0.9,0.7l1.9,1.6l0.8,0.8l1.1,0.8l0.9,1l1.3,1.1l0.8,0.6l1.6,1.3 l1.5,1l1.1,0.1l4.6-0.1l-0.1,3.1l3.4,1l0.3-0.4l-0.4-0.2l0.7-0.9l1.1-1.5l1.4-1.8l1.8-2.3l0.3-0.8l-0.5-0.3l-1.1-0.5l-1.3-0.5l0.1-1 l0.5-2.7l0.4-2.9l0.3-2l0.4-0.7l3.3-4.6l2.2-3l2.8-3.9l0.4-0.5l2.1-2.8l1.6-2.2l1.3-1.7l1.9-2.5l-4.2-1l-1.1-0.7l-0.8-0.4l1.2-2.7 l0.3-1.3l1.9-6.1l0.8-4.5l0.3-1.5l0.7-2.7l0.5-2l0.2-0.6l0.2-0.6l0.2-0.5l0.6-1.4l1.6-3.7l0.8-1.7l0.3-0.6l0.6-1.1l0.5-1l0.5-0.8 l0.7-1.1l0.5-0.6l2-2.3l2.2-2.1l1.8-2.2l0.9-1l0.6-0.6l0.8-0.7l1.2-0.9l2.5-1.9l0.5-0.4l1.8-1.2l3.3-2.2l3.9-2.7l1.7-1.7l1.4-1.4 L670.9,263.2z"/>
    <g class = "bezirk" id="Treptow-Köpenick">
    <path d="M776.7,409.6l-0.6-0.1l-2.3-0.5l0.4-0.9l1.1-2.4l0.4-0.9l0.3-0.7l-0.1-0.6l-1.3,0.1l-0.3-0.8l-0.7-0.6l-0.6-0.7l-0.9-0.5 l-0.6-0.2l-0.8-0.3L766,399l-1.4-0.3l-0.9-0.3l-1.6,0.5l-1.7-0.5l-2.1-0.4l-1.9-0.3l-0.5-0.2l-1.1-0.2l-1-0.7l-0.1-0.6l-1.3-0.2 l-1.5,0.5l-2.9-0.4l-0.5,0l-1-0.3l-2.2-2.6l-2.7-3.1l-2.1-2.3l-1.7-2l-0.6-0.6l-3.9-8l-0.4-0.5l-1.5-1.9l-0.8,0.3l-0.3-0.5l-1-0.1 l-1.4-0.4l-0.6-0.3l-1.6-1l-3.5-2.3l-1.1-0.9l-1.5-1.3l-0.5-0.4l-1.7-1.4l-0.4-0.5l-0.3-0.7l-1.4,0l-0.8,0l0.8,1.9l1,1.5l1.2,2.9 l0.4,0.5l0.2,2.2l0.4,3.4l0.3,1.8l2.2,0.8l0.4,2.5l0,0.5l-0.3,1.4l-0.4,2.8l-0.6,1.5l-1.5-0.2l-2.1-0.2l-1.3-0.3l-0.7-0.2l-1.1-0.3 l0.3-1.8l0-0.5l-0.1-0.7l-0.9-2.2l0.1-3l-0.4-0.7l-0.4-3.2l-0.6-1.4l-0.6-1.5l-0.3-0.5l-0.7-0.5l-3.8-0.8l-1.2-0.4l-0.8-0.1l-1.3,0 l-1.6,0.1l-0.5-0.4l-0.6-0.2l-3.4-1.6l-2.1-2l-0.7-1.2l-0.7-1l-0.3-0.5l-0.4-0.5l-2.4-1.5l-1.9-1.4l-1.8-1.2l-2.8-2.5l-0.7-0.5 l-0.3-0.2l-0.2-0.1l-2.4-1.5l-2.6,0.7l-1.1,0.1l-1.2,0.1l-0.7-0.2l-0.7-0.4l-0.6-0.3l-1.4-0.8l-1-0.4L671,353l-1.5-1.4l-1.1-1 l-1.1-0.7l-2.4-0.6l-1.2-0.6l-2-1.1l-0.6-0.4l-1.4-0.8l-2.7-0.2l-1-0.3l-0.8-0.2l-0.7,0.8l-0.9,0.7l-0.5,0.3l-1.6,1l-2.2,1.6 l-0.8,0.7l-1,0.4l-0.9,0.3l-4.5,1.5l-0.7,0.6l-0.4,0.5l-1.1,1l-1.3,0.6l-0.5,0l-0.6-0.1l-0.6-0.3l-0.7,0l-0.6,0.3l-0.4,5.7 l-0.2,0.6l0,0.8l0,0.7l0.6,0.6l-1.8,0l-0.7,0.1l0,1.7l0.3,1.1l0.3,0.5l-0.7,0.7l-1.4-0.4l0,0l0.3-0.5l0.2-0.5l0.1-2.2l-0.7-0.1 l0-2.4l0.1-1.1l-0.8-0.3l-3.5-0.9l-0.5,0.1l-1.9,2l-3.6-1.3l-0.3,0.4l-3.4-1l0.1-3.1L613,357l-1.1-0.1l-1.5-1l-1.6-1.3l-0.8-0.6 l-1.3-1.1l-0.9-1l-1.1-0.8l-0.8-0.8l-1.9-1.6l-0.9-0.7l-2.2-1.8l-4.9-3.8l-0.4,0.2l-3.1,1.4l-1.2,0.6l-2.2-2l-5.2,2.7l-0.5,2.8 l-0.7,1.8l-0.2,0.7l-0.1-0.6l-2.2,1.4l-3.4,1.5l-0.1,0.1l-1.2,0.8l-0.9,0.8l-0.3,0.5l-0.5,0.4l-0.2,0.3l-0.2-0.4l-2.5,0.9l-3.9,0.2 l-1.4-0.1l-1.2-0.2l-1.9-0.4l-1.9-0.1h-2.5l-0.6-0.1l-0.9-0.3l-0.5-0.1l-0.9,0.1l0.4,1l-5.8-1l-0.1,0l-1-0.2l-2.1-1.5l-2.2,3 l-6,7.2l-1.8,2.1l-6.9-9.8l-1.4-1.7l-1.2-1.4l-1.3,2l-4.6-2.5l-0.9-0.4l-0.5-0.1l-0.5-0.1l-0.5,0l-0.6,0.1l-1.9,0.4l-4.2,1 l-3.9-5.9l-1.1-3.4l-0.9-2.7l-0.3-1l0-0.1l-0.1,0l-4.3-1.5l-1.4,0l-2.4,0.3l-0.1,0l-1.1-3.6l-0.4-1l-2.1-3l-1.9-0.8l-0.6-0.1 l-2,0.2l-0.9,0.4l-1,0.8l-2.5,1.7l-0.1-0.3l-0.6-2.2l-0.7-0.5l-1.7-0.4l-0.6,0.1l-0.4,0.6l-0.4,0.9l-0.9-1.5l-0.1-1.3l-1.6-2.2 L475,326l-2-1.4l-0.6-0.1l-2.9-0.9l-4.6-2.3l-2.9-2.2l1-1.4l-1.2-0.6l-0.9-0.2l-2.8-1.8l-1.4-0.4l-3.2-1l-1.6-0.3l-0.7,0.1l-0.5,0 l-0.3,0.1l-1.1,0.3l-0.8,0.5l-1.3,1.5l-2,2.4l-2.2,0.1l-5.1,6.3l-0.7,0.8l-0.5,0.8l0,0.6l0.6,0.7l4.5,3.8l2.5-2.8l2,1.8l2.7,2.1 l5.4,4.6l2.3-2.8l0.1,0.2l4,4.6l7.9,9.1l1.4,1.7l-0.1,0.9l-0.8,3.8l0.3,2.2l3,5.1l0.9,1.2l1.7,2.4l1.6,2.4l1.5,2.1l0.6,1.4l0,1.3 l-0.3,0.9l-0.4,0.8l-0.6,1.3l-0.6,0.9l-0.9,1.3l-0.3,0.8l-0.1,0.6l-0.2,0.5l-0.5,1.4l-0.2,0.8l-3.5-0.2l-8.6-0.4l-6.7-0.1l-0.5,0 l0.8,1.7l1.6,3.2l0.9,2.2l0.8,1.8l0.9,2.1l0.6,1.5l0.9,1.6l1,1.6l1.1,1.4l5.4,4.5l8.1,6.4l1.2,1l0.3,0.3l1.5,1.2l4.2,3.2l1,0.8 l3.2,2.5l5.3,4.3l5.1,4l3,2.3l7,5.5l2.6,1.6l4.3,1.6l2.9,0.6l2.9,0.4l0.7,0.1l0,0.2l0.9,0.2l-0.1,0.4l-0.8,2.5l-0.8,1.8l-0.6,1.2 l0.3,1l0.1,0.6l0.7,1.3l0.6,0.2l0.5,0.6l0.2,1.2l0.4,0.7l0.5,1.2l0.4,0.7l0.2,0.6l0,1.4l0.4,1.1l0.1,1.2l0.2,1.3l-0.8,1.8l0.2,0.6 l2.1,1.1l-1,1.8l-0.4,0.7l0.4,0.6l-0.1,0.8l-0.5,0.6l0.4,0.6l-0.5,2.5l-0.6,2.4l-0.5,1.1l-0.3,0.6l-0.8,1.2l-1.5,2.3l-2.2,2.5 l-0.3,0.6l0.2,0.7l-0.9,1.1l0.1,0.5l1.5,0.5l2.4,1.3l1.1,0.8l0.5,0.2l1.6,0.7l0.8,0.4l0.7,0.4l0.5,0.2l0.8,0.3l0.7,0.2l0.8,0.5 l0.7,0.6l0.6,0.5l0.5,0.4l0.7,0.7l0.5,0.4l0.6-0.4l0.9-0.6l0.8-0.5l1.1-0.7l1-0.6l1.3-0.7l1.2-0.6l0.6-0.3l0.5-0.1l1.3-1l-0.2,1.1 l-0.3,1.1l-0.8,1.6l0.2,0.5l0.1,0.2l-1,0.4l0.3,0.7l-1.1,4L539,497l-0.5,3.9l0.8,3.6l17,0.8l6.1,0.4l1.9,0.1l0.6,0l0.7,0l1.8,0 l1.8,0.1l0.5,0l0.8-0.1l0.8-0.2l1.2-0.2l1.3-0.3l3.5-1.1l4-1.4l1.2-0.3l0.7-0.2l4.5-1.2l1.9-0.6l3.1-1l2.5-0.9l0.6-0.3l1.9-1 l2.3-0.8l0.9-0.4l0,0l0,0l0.2,0.3l1.4,2l0,0.6l-0.5,3.1l0,0.6l0.6,1l0,0.6l0.5,0.2l0.5,0.1l0.2,0.7l-0.1,0.6l-0.4,0.9l0,0.6 l1.5,2.3l3.4,1l0.7,1.2l0.6,0.9l0.9,0.6l0.4,0.5l1.1,1.1l0.5,1.3l0.3,0.6l0.5,0.7l0.7,0.7l0.5,0.6l0.7,1.2l0.2,0.7l0.1,1.4l0.3,3.9 l0.1,0.5l0.2,1.1l0,0.5l-0.1,0.6l-0.1,0.5l-0.9,2.3l0.6-0.3l1-0.3l1.5-0.8l0.5-0.4l0.7-0.3l1-0.6l1.8-1l0-0.5l2.5-1.4l5.9-3.4 l7.1-4.1l1-0.7l1-0.4l0.6,0.8l1.1,2.2l1.7,3.1l1.5,2.6l2.5-0.6l3.8-0.9l3.4-0.6l0.8,0.6l0.1,2.6l0.1,4.4l0.1,1.3l-0.2,1.3l-0.8,2.2 l0.9,0.3l0.7,0.3l3,0.3l0.1,0.5l0.1,0.6l0.2,1.4l0.3,0.8l0.2,1l0,1.6l-0.2,0.8l-0.4,0.9l-0.3,0.6l-0.5,0.6l-1,1l-0.9,0.9l-2.7,2.7 l-1.9,2.4l-0.6,0.8l-0.6,1l-0.7,1.5l-0.3,0.9l-0.3,1.1l-0.4,2.9L648,567l0,2.4l0,1l-0.2,2.6v3.5l-0.3,1.8l0,0.8l0.2,0.8l0.4,1.3 l0.7,1.8l0.8,1.5l1.8,2.3l1.7,1.6l0.5,0.7l0.5,1l0.5,0.8l0.5,0l1.5,0.1l0.7,1.3l0.7,0.8l2,0.8l0.5,0l0.5-0.1l0.8-0.4l1.2-0.8 l0.9-0.9l0.4-0.9l0-0.7l-0.4-3l0.1-1.2l0.6-1l0.5-0.9l0.1-0.5l0.7-1.8l0.5-1l2.1-2.5l0.4-0.9v-1.3l0.8-1.7l0.1-0.5l0-0.5l0.3-2.7 l0.5-0.6l1.6-1l0.1-0.6l0.5-0.8l0.6-0.4l1.2-0.6l0.5-0.5l0.7-1.5l0-0.5l0-0.8l0.3-1.1l0.3-0.6l0.3-0.7l0.6-0.9l0.6-0.6l0.7-0.4 l1.2-0.4l0-0.6l-0.3-1.3l0-1l0.2-0.8l0.1-1.3l0.2-1l0.3-1.2l0.5-1l0.5-0.8l1-1.5l0.5-0.5l0.9-0.4l0.5-0.5l0.4-1.1l0.3-0.6l0.7-1.3 l0.6-0.3l1.8-0.5l1.2-0.5l1.1-0.6l1-0.8l1.4-1.2l0.5-0.3l1.5-0.4l1.7-0.1l0.8,0l1.3,0.8l0.9,0.2l2,1.8l0.5,0.4l1,0.5l0.8-0.1 l0.7-0.2l0.5-0.3l0.9-0.2l0.3,0.5l1.6,0.4l0-0.4l-0.7-0.6l0.4-0.2l1.4-0.2l0.1-0.5l-0.4-0.9l0.1-0.5l0.4-0.7l0.5-0.5l0.5-0.6l1-1.1 l0.9-1.5l0.4-0.6l0.3-0.6l1.3-2.3l0.7-1.3l0.3-0.6l0.3-0.7l1-1.8l0.5-2.7l-0.7-0.3l-0.6-0.4l-2.3,0.4l1.3-7l-3,0.6l-1.1,0.1 l-0.7-0.4l-2.8-2.1l-1.3-1.1l-0.5-0.3l-1.4,0.5l-0.8-0.4l-0.6-0.6l-0.8-0.6l0.3-0.5l0.3-1.5l0.9,0.2l0.1-0.3l0.1-0.5l0.4-0.7 l0.3,0.5l0.7,0.7l0.6,0l0.6-0.1l0.7-0.3l0.5-0.6l1.4-1.5l0.6-0.7l1.2-1.5l0.7-1l0.6-0.8l0.5-0.4l0.5-0.8l0.6-0.7l0-0.7l0.2-0.6 l-0.1-1.8l0.5-0.8l0.6-0.2l0.6,0l0.4,0.6l-0.2,0.6l-0.5,1.2l0.5,0.2l0.6-0.4l0.8-0.8l0.7-1l0.5-1.2l0.2-0.6l0.8-0.8l0.8-0.2 l0.6,0.1l0.7-0.2l0.4-0.5l0.6-1l0.5-0.3l0.4-0.6l1-0.5l0.7-0.1l0.9,0l0.8-0.6l0.5-0.5l0.3-0.6l1-0.4l0.6-1.1l0.5-0.3l0.6-0.6 l0.6-0.3l0.5-0.2l0.7-0.5l0.3-0.6l0.5-0.7l1.1-0.7l0.5-0.5l0.9-0.1l0.8,0.6l0.4,0.7l0.6,0.2l1.2-0.2l0.9,0l0.9,0.4l0.8,0.4l0.9,0.4 l0.7-0.5l0.8-0.5l0.6-0.4l0.5-0.7l0.7,0.1l0.8-0.4l0.9-0.7l0.5,0.2l0.6,0.2l0.5-0.2l0.5-0.3l0.4,0.6l1.2-0.6l0.4-0.4l0.3-0.7 l1.1-1.1l0.6-0.6l0.7-1.2l0-0.6l-0.1-1l0-0.9l0.6-1.9l0.8-2.3l1.7-0.8l0.9-0.3l0.3-0.7l0.1-0.6l0.1-0.5l-0.5-1.3l-0.2-1l-0.3-0.7 l-0.9-1.2l-0.6-0.3l-0.8-0.4l-0.8-0.5l-0.4-0.5l-0.1-0.6l-0.1-0.5l-0.5-0.5l-0.7-1l-0.4-0.7l-0.8-1.3l-0.6-1l-0.4-0.6l-0.9-1.5 l-0.2-0.5l-0.1-0.6l0-0.6l0.1-0.2l0.1-0.5l0.2-0.8l0.5-1.3l0.7-1.3l0.1-0.7l0-1l0-0.3l-0.2-0.7l0.3-0.5l0.5-0.7l2.1-3.2l4.3-6.9 l1.9,0.3l1.6,0l0.3-1.5l0.3-1.2l0.1-0.5l-2.8-1l0.6-1.5l0.4-2.8l0.1-0.9l0.1-0.8l-2.2-0.5l-0.6-0.1l-2.2-0.5l-2.8-0.7l-0.7-0.1 l-1.2-0.4l-1.3-0.5l-2.2-1.2l-0.9-0.5l-0.5-0.4l-0.5-0.3l-2.1-1.7l-1.1-0.8l0-0.6l0.5,0.6l1,0.5l2.5,2l2.2,1.3l1.6,0.8l0.8,0.3 l1.8,0.6l5.1,1l0.6,0.1l0.2-0.7l2.3,0.4l2.6-0.2l0.3-2.3l-0.2-0.7l0.3-2l0.5-3.4l0.5-0.4l2.3-2l4.5-3.8l6.5-0.2L776.7,409.6z"/>
    <polygon points="780.9,418.2 775.1,417.3 776.1,412.5 774.1,420.5 776.6,420.9 778.3,421.2 779.8,421.5 780.1,420.7 780.5,420.2 781,418.9"/>
    </g>
    <polygon class = "bezirk" id="Neukölln" points="526.2,462.9 527.2,461 525.1,459.9 524.9,459.3 525.7,457.6 525.6,456.2 525.5,455 525.1,454 525.1,452.6 524.9,452 524.4,451.3 523.9,450.1 523.5,449.4 523.3,448.2 522.8,447.6 522.3,447.4 521.5,446.1 521.4,445.5 521.1,444.5 521.7,443.2 522.5,441.4 523.3,438.9 523.4,438.5 522.5,438.3 522.6,438.1 521.8,438 519,437.6 516,437 511.7,435.5 509.1,433.9 502.1,428.4 499.1,426.1 494,422.1 488.7,417.8 485.5,415.3 484.5,414.5 480.4,411.3 478.9,410.1 478.5,409.8 477.3,408.8 469.2,402.4 463.8,398 462.7,396.6 461.7,395.1 460.8,393.4 460.2,392 459.3,389.8 458.5,388.1 457.6,385.9 456,382.7 455.2,381 455.7,381 462.4,381.1 471,381.5 474.5,381.7 474.7,380.9 475.2,379.5 475.4,379 475.5,378.4 475.8,377.6 476.7,376.3 477.3,375.4 477.9,374.1 478.3,373.3 478.6,372.4 478.6,371.1 478,369.7 476.6,367.6 475,365.2 473.2,362.8 472.4,361.6 469.3,356.5 469.1,354.3 469.9,350.6 470,349.7 468.6,348 460.7,338.9 456.7,334.3 456.6,334.1 454.3,336.9 448.9,332.3 446.3,330.3 444.2,328.5 441.7,331.3 437.2,327.4 436.5,326.8 436.7,327.4 436.1,327.5 436,327 435.5,326.5 434.9,326 434.1,325.6 433.3,325.2 423.9,320.2 418.9,317.4 417.6,316.8 416.3,316.4 418,321.4 419.3,324.7 420.3,327.5 421.4,330.4 420.9,330.7 419.9,332.7 416.9,331.7 413.1,330.9 403.1,328.7 402.5,328.7 403.1,331.2 403.2,331.8 402.1,333.6 401.6,333.9 401.3,334.7 400.8,339.6 401,343.8 402,346.5 406.6,347.3 408.7,346.2 412.3,369.9 417.4,368.9 417.8,374.7 417.7,376.8 418.8,377.2 418.9,378.3 418.9,378.3 419,378.7 417.1,378.3 416.2,380.6 420.8,383.3 422.6,385.2 422,385.3 420.3,385.4 418.6,385.3 416.8,385.2 413.1,393.1 412.1,393.2 412,393.5 411.8,394.2 407.8,406.3 404.3,421.7 402.6,424.7 402.5,426.4 402.2,426.9 401.7,430.3 400.5,436.4 400.5,436.8 400.5,436.8 400.3,437.5 396.9,446 400,446.8 399.3,449.7 394.3,451.7 393.5,453.1 394.1,454.8 396.8,462.8 400.3,461.7 402.4,461.3 404.2,461.2 405.5,461.4 410.3,463.7 413.7,466 415.3,466.5 415.1,467 415.6,466.9 417.5,466.4 420,465.4 421.9,464.7 423.9,464.1 425.8,463.6 426.8,463.4 428.5,462.9 435.6,459.6 436.2,459.5 438.1,458.8 439.7,457.9 441.2,457.2 443.3,456 445.5,454.8 446.1,454.6 446.6,454.4 447.2,453.8 449.9,452.5 451.3,451.8 453.1,451 454.8,450.2 455.6,449.9 458.8,448.9 460.6,448.6 462.4,448.3 463.1,448.5 465.3,449.4 466.9,450 467.3,451.1 467.4,451.4 467.9,453 468.5,455.3 470.3,460.7 471.6,464 473.5,469.7 475.2,473.9 476.5,478.1 477.2,478.7 477.4,479.5 477.4,480.1 478,482.5 478.6,484.2 478.9,485.2 479,486.6 479.7,492 482.4,490.9 483.8,490.3 487,489.5 490.7,488.9 491.2,488.9 493.2,488.3 496,487.5 498.6,487 499.7,486.9 501.3,486.5 502.2,486.2 503.8,486 507.7,485.3 509.1,484.9 512.9,484 516.5,483 518.7,481.6 518.5,481.1 519.4,480 519.3,479.3 519.6,478.7 521.8,476.3 523.4,474 524.1,472.7 524.4,472.2 524.9,471.1 525.5,468.7 526.1,466.2 525.6,465.6 526.2,465.1 526.3,464.2 525.9,463.6"/>
    <path class = "bezirk" id="Tempelhof-Schöneberg" d="M423.5,508.9l-0.5-2.7l-0.4-1.2l-1.4-5.5l-1.7-6l-2.4-8.7l-1.6-5.7l-0.5-1.8l-0.4-1.4l-0.7-3.7l-0.2-2.7l0-0.8l0.3-1.4 l0.9-0.3l0.2-0.5l-1.6-0.5l-3.4-2.3l-4.8-2.3l-1.3-0.3l-1.8,0.1l-2,0.4l-3.5,1.1l-2.7-8.1l-0.5-1.6l0.8-1.4l5-2l0.7-2.9l-3.2-0.8 l3.4-8.5l0.2-0.8l0.1-0.3l1.2-6.1l0.5-3.4l0.3-0.5l0.1-1.7l1.7-3l3.5-15.4l4-12.1l0.2-0.7h0l0.1-0.3l0.9,0l3.7-7.9l1.8,0.2l1.7,0.1 l1.7-0.1l0.6-0.2l-1.9-1.8l-4.6-2.7l0.9-2.3l1.9,0.4l-0.1-0.5l-0.2-1l-1.1-0.4l0.1-2.1l-0.4-5.8l-5.1,1l-3.6-23.7l-2.1,1.1l-4.7-0.7 l-0.9-2.8l-0.3-4.2l0.5-4.9l0.4-0.8l-2.6,1.6l-3,0l-0.4,0.5l-0.9,1.7l-6.7-0.1l0-3.3l-3.4-0.1l-5.1,0.1l-0.1,1.7l-0.7,0.1l-0.7-0.2 l-8.6-0.2l-4.9,0h0h-0.6l0.6-0.1l1.7-0.2l0.1-4.6l-0.6,0l1.2-2.3l0.9-0.5l0-2l1.1-1.6l0.1-0.5l-5.8-1.8l-3-1.1l0.5-1.1l-0.4-1.1 l0.3-4.7l1.2-1.6l0.1-0.9l-0.7-0.1l-6.8-1.6l-0.6-0.3l-9.8-4l-7.7-2.9l-5-2.1l-2,3.2l-2.7,4.4l2.1,1.4l0.1,0.9l-1,2.8l-0.8,3.3 l0.1,2.5l-0.4,4l0,2.2l0.5,0.6l-0.6,0.6l0,1.2l0.2,2.6l0,4l0,6l0,3.7l0,0.5l0,2.2l0,0.6l0,0.2l0,0.5l-4.3,0.5l-0.1,0.8l-5-0.1 l-8.3-0.1l-0.2,12.2l-0.1,0.9l0,5.4l1,0l7.6,4.4l1.3-2.1l1.5,0.8l0.7-1l3.4-0.7l1.9-2l2,1.4l0.4,0.3l0.4,1.6l6.3,6.6l3.2,4.4 l-0.3,0.6l0.5,0.3l0.5,0.2l0.7,0l0,3.2l2,0.2l1.2-0.3l0.6-0.4l0.7,0l0.7,1.1l0.2,0.9l0,0.5l1.9,0l0,0l0.3-1.3l-0.3,1.3l0.6,1.3 l0.6,1.9l2.7,7.3l0.7,2l0.9,2.7l1.3,2.5l0.1,0l1.1,2.2l0.1,0.2l-0.3,0.2l4.2,13l4.8,12.9l0.1,0.3l-0.8,0.8l-1.2,0.9l-1.8,1.2 l-0.7,1.5l-4.3,9l-3.4,1.8l-1.4,1.3l-3,1.8l-1,0.6l-5.4,3l-2,1.1l-3.1,1.6l-1.7,1l-1.3,0.8l0.4,1.2l0.1,1.6l-0.5,1.7l0.5,0l0.1,1.7 l-0.1,5.3l3.2,3.2l3.4,3.4l1.7,1.7l2.1,1.6l1.7,1.7l2.3,1.9l1.3,1.1l1,0.8l0.8,0.8l2,1.3l1.8,1.2l1.7,0.9l4.5,2.8l3.6,2.3l-1.9,9.2 l4.8,0.5l1.3,0.1l0.7,0l1.9,0l3.9-0.3l0.3,0l0.2,0l3.1-0.2l1.8-0.1l0.3,3.3l0.1,0.9l0.3,3.3l0.3,3.6l-0.1,0.9l0.2,1.4l-0.1,1.5 l-0.1,1.4l0.4,1.1l0,1.4l3.8,0.2l6.9,0.4l1.7,0.2l0.9,0.1l1.5,0.3l1.9,0.3l0.6,0.1l2.1,0.1l1.1,0.2l2.3,0.4l0.7-0.1l2.5-0.3 l-0.1,0.7l5.5,0.3l3.2,0.2l0.1-0.4l1-2.7l2.6-6.1l2-4.7l0.9-2l0.5-1.1L423.5,508.9z"/>
    <path class = "bezirk" id="Steglitz-Zehlendorf" d="M363.6,433.3l-4.8-12.9l-4.2-13l0.3-0.2l-0.1-0.2l-1.1-2.2l-0.1,0l-1.3-2.5l-0.9-2.7l-0.7-2l-2.7-7.3l-0.6-1.9l-0.6-1.3l0,0 l-1.9,0l0-0.5l-0.2-0.9l-0.7-1.1l-0.7,0l-0.6,0.4l-1.2,0.3l-2-0.2l0-3.2l-0.7,0l-0.5-0.2l-0.5-0.3l0.3-0.6l-3.2-4.4l-6.3-6.6 l-0.4-1.6l-0.4-0.3l-2-1.4l-1.9,2l-3.4,0.7l-0.7,1l-1.5-0.8l-1.3,2.1l-7.6-4.4l-1,0l-8.7-0.3l-0.5,0l-0.6,0.1l-1-0.3l-0.5-0.4 l-0.6-0.5l-0.6,0.5l-1.1-0.7l-1.1,0.8l-8.7-2.3L285,364l-8.4-2.6l-0.7,0.6l-0.7-0.9l-8.4,2.7l-2.8,0.7l-0.4-0.2l-4.8,1l-1.5,0.3 l-3.2,0.5l-1.6,0.3l-1.4,0.2l-1.8,0.4l-1,0.2l-1.1-0.1l-0.4-0.8l-1-0.6l-0.9,0.9l-1,0.7l-0.9,0.7l-1.6-0.2l-2.1-0.2l-0.9-0.1 l-1.7,0.3l-0.7-0.2l-4.5-1.3l-0.5-0.1l-5.2-1.4l-3.8-1v0l-1.6-0.4l-1.7-0.5l-0.3,0l-1.9-0.8l-2.5-1.1l-0.7-0.2l-0.8,0l-3.5,0.6 l-5.2,0.9l-3.8-0.3l-2.7-0.1l-1.2,0.3l-1.4,0.4l-0.5,0.2l-1.2,0.1l-0.6,0.2l-1.5-0.4l-2.1-0.4l-1.7-0.7l-1-0.1l-0.8-0.2l-0.8-0.1 l-0.7,0.1l-0.4,0.3l-1.2,0.4l-0.6,0.6l-0.8,1.2l-0.6,0.3l-0.8,0.3l-0.6-0.1l-0.7-0.5l-0.4-2l-0.7-1.2l-0.8-0.5l-1.5,0.1l-1.2,0.6 l-6.3-0.4l-1.6,6.9l-0.7,2.8l-1.4,5.7l-17.5,15l-7.1,4.8l0,0l-0.3,0.2L117.9,409l-15,3.5l-4.5,0.9l-0.8,1.9l0,1.6l-1.2,1.4l-0.9,0.5 l-4.4,2.6l-3.5,5.4l-1.9,1.1l0.8,5.7l-5,4.4l-1.6,2l-1.4,0.6l-0.9,2.3l-1.5-0.8l-1-0.2l-1-0.4l-0.7-0.8l-1.1-0.4l-0.4,0.1l-1.1,1.1 l0,0.6l-0.5,1.7l-1.2,1.5l-1,1.2l-8,4l2.2,10.7l0,1.7l0.4,1.5l0.7,0.2l0.5,0.1l0.5,0.3l1,1l4.4,2l0.8-0.7l0.9-0.6l-0.2-0.6l0.1-0.5 l-0.4-0.6l-0.7-0.5l-0.7-0.9l-0.8-1.5l0.1-0.4l0.8-0.1l1.3-0.6l1.5-0.5l0.9,0.1l-0.2,0.5l0.1,0.8l0.4,1.7l0,1.8l0,0.9l2.5,0.8 l1.4,0.5l0.5-0.2l0.8,0.5l0.5-0.1l0.4,0l0.4,0l0.2-0.5l0-0.8l0.3-2.7l0-0.5l-0.1-0.8l-0.1-0.5l0-0.6l0.8,0l1.5,0.6l0.3,1.7l0.2,1.2 l0.8-0.1l0.6-0.1l0.3,1.7l-0.6,0.1l-0.8,0.1l0.2,1.4l-2.4,0.4l-1.8-0.5l-0.3,1.6l2.4,0.4l0.9,0.7l-1.1,1.4l0.6,0.5l0.8,0.8l0.6,0.8 l0.7,1l0.3,0.4l0.3,1.6l0.6,0.7l4.4,2.7l1.4,0.4l0.5,0.1l0.6,1.2l1.6,2.3l0.5,0.8l1.3,1.5l2.8,2.4l0.6,0.7l0.7,0.4l0.5,0.3l1.4,0.2 l0.8-0.2l1-0.6l4.1-3l1.2-1.2l1,1l1.6,0.8l0.6,0.1l1.2,0.8l-3,0.5l0.6,2.1l2,0.1l0.7,0.1l0.5,0.3l-5.1,4.6l-2.7,2.9l-0.5,0.7 l-0.8,1.4l-0.5-0.4l1.4-1.8l-2.9,0.1l-0.9,0.1l-0.3,1.3l-0.2,2.4l1.4,1.3l1.1,1.1l1.4,1.4l0.6,0.3l0.7-0.4l0.8,0.1l0.7,0.1l0.5-2.7 l-0.5,0.1l-0.5-0.1l-2.8-2.7l1.3-1.7l2.8-3.2l4.4-3.8l1.2-1l2.7-1.9l1.3-0.5l-0.1,1.1l0.5,0.7l0.3,0.4l2.2,1l0.6,0.1l1.4,0.2 l5.5,0.8l2.3,0.6l1.4,0.4l3.2,0.5l1.1,0l2.8-0.3l5.5-0.4l0.7,0l0.6-0.4l2.4-1.8l-0.5-3.6l-0.8,0.2l-2.3,0.6l-8.4,1.3l-2.8,0.1l0-0.5 l0.1-0.9l0.5-1.3l0.4-1.4l0.6-1.3l0-0.7l0.1-5.1l14.1-7.5l1.3-0.7l6.9-3.6l3.1-1.6l2.6-1.4l0.2-0.1l9.9-5.8l1.6-1.1l0.6-0.2l1-0.2 l1.6,0.1l0.7-0.1l1.1,0l3.7-0.6l1.3-0.3l1.7-0.4l2-0.6l2.6-1l1.5-0.8l0.7-0.2l1.5-0.8l0.5-0.4l1.4-1.1l1.1-0.3l0.5-0.1l1.7-0.7 l1.2-0.5l0.8-0.3l1.8-0.6l1-0.5l0.7,0l1.2,0.2l1,0.1l1.3,0.2l0.4,0.1l1,0.2l2.6,0.2l1.1,0l1.6-0.6l1.3-0.3l2.3,0.1l2.8-0.2l3.7-0.2 l2.1-0.3l0.2,0.6l0.5,1.4l0.5,1.9l0.5,2.8l0.3,1.7l0.1,1.3l0.6,2.8l0.6,4.1l0,0.5l-0.1,4.5l-0.2,0.8l0.4,0.9l0,0.7l0.3,3.8l0.1,0.7 l1.6-0.9l0.8-0.4l1.1-0.4l1.5-0.3l0.6-0.1l0.7-0.1l1.6-0.1l1.4,0l0.9,0.1l1,0.3l1,0.4l2.5,1.6l1,0.5l2,0.8l0.5,0l2.1,0l0.5,0l0.1,0 l0.6,0.1l0.9,0l1.7-0.2l0.5-0.4l0.6-0.1l1.9-0.7l0.5-0.2l0.6-0.3l2.3-1.8l2.9-2.3l0.9-0.7l2-1.8l3.9-3.6l1.3-1.3l5-4.6l0.8-0.7 l3.3-2.2l0.3,0.5l0,0.5l-0.2,0.8l-0.4,0.6l-0.6,0.3l2.9,4.6l1.4,2.1l0.7,1.1l0.6,0.9l1.2,1.7l3.1,4.7l1.8,2.7l2.9,4.9l1.8,2.8 l0.9,1.2l1.1-1.2l0.8-1l4.9-3.3l5.2-3.2l4.3-2.6l4.6-2.7l1.4-0.8l3-1.8l6.8-4.4l1.2-0.8l-0.5,0l0.5-1.7l-0.1-1.6l-0.4-1.2l1.3-0.8 l1.7-1l3.1-1.6l2-1.1l5.4-3l1-0.6l3-1.8l1.4-1.3l3.4-1.8l4.3-9l0.7-1.5l1.8-1.2l1.2-0.9l0.8-0.8L363.6,433.3z"/>
    <path class = "bezirk" id="Charlottenburg-Wilmersdorf" d="M331.3,300.4l-1.1-0.3l-0.6,0l-0.7,0.1l-0.3-0.6l-0.3-0.9l-0.5,0.1l-0.8,0.2l-0.5,0.1l-1.3-0.1l-0.7-0.4l-1.1-0.9l-0.2-0.9 l0.8-2.2l-0.6-0.8l-0.9-0.4l-3.8-2l1.1-0.5l2.2-1.1l0.5-0.4l0.5-1.1l-0.5-0.2l-1.7-0.9l-0.6-0.4l-0.4-0.7l5.2-0.5l0.2-0.8l0.2-0.6 l0.1-0.5l-0.8-0.8l-1.4-3.6l-0.3,0.1l-0.9,0.1l-0.8-0.1l-0.6-0.2l-1.1-0.7l-0.4-0.5l-0.4-0.4l-0.3-0.6l-0.2-0.5l-0.2-0.6l0-0.8 l0-0.6l0.2-0.8l0.2-1l0-0.8l-0.1-0.8l-0.4-1l-0.5-0.8l-0.6-0.7l-1-1.1l-1-0.8l-0.9-0.5l-0.7-0.4l-0.7-0.2l-0.7-0.1l-0.9,0l-0.9,0.1 l-1.1,0.4l-0.5,0.3l-0.5,0.4l-0.5,0.6l-0.3,0.6l-0.2,0.7l-0.1,0.6l-0.1,1.1l0.1,0.6l0.4,0.5l-1.3,1.7l-0.9-0.5l-3.8-16.7l3.5-1.2 l0-0.5l0.5-0.6l0.2-1.5l-4.8,0.9l-0.1-0.4l-1.4-6.3l9.6-2l8.1-1.9l0.6-0.2l0.6-0.3l-2.2-4.5l0-0.7l0-0.4l-1.4-1.3l-2-1.5l-5.5-6.7 l-1.5-1.5l-0.7-0.3l-13.9-0.9l-3.2-0.2l-32.8-1.2l0,0.4l0,0.9l3.5,10.3l-1,4.6l-0.3,1.7l0.5,0.2l0.7,0.4l0.9,0.6l0.7,0.7l0.8,1.2 l0.5,1.8l0.1,0.9l4.4,2.1l1.5,0.5l0.8,0.2l-0.5,2.4l-0.7,3.5l0,0l0,0.1l-0.3,0.9l-1.2-0.4l-1,0l-0.9,0.2l-0.7,0.4l-0.9,0.7l-2,1.3 l-0.9,0.1h-0.8l-0.8-0.1l-1.5-0.2l-1.2,0l-0.7,0l-0.5,0l-0.8,0.1l-1.6,0.2l-0.4,0l-0.7,0.1l-1.3,0.2l-1.2,0.4l-1,0.4l-2.3,1.2 l-0.8,0.2l-2.4,0.3l-3.9,0.2l-1.6-0.1l-1.2,0l-0.8-0.1l-0.5-0.2l-0.8-0.3l-0.6-0.3l-0.8-1.6l0,0.3l-1.3,1.3l0.6,0.4l0.4,0.6l0.2,0.7 l0.1,1.2l0.1,0.9l0.7,1.7l-0.4,0.6l-0.8-0.3l-7.4-3.1l-0.2,0.5l-1.1-0.4h-1l-1.4-0.1l-5.6,0.6l-0.4,0l-2.2-0.2l-0.8,0.4l-1,0.2 l-1.3-0.3l-2-0.2l-1.4-0.4l-0.2,0l-0.4-0.1l-0.4,1l-0.8,2.1l-0.8,2.2l-0.4,1.6l-0.2,0.8l-0.2,1.1l0,1.3l0.4,7.7l0.3,2.4l0.2,0.8 l0.7,1.1l-1.3,0.1l-0.3-0.5l-0.9,0.5l-1.3,2l-1.1,1.7l-0.6,1.4l-0.2,0.8l-0.5,1.2l0.7,0.2l-0.3,0.7l-1.5-0.1l-1.1-0.1l-0.5-0.1 l-0.7-0.2l-0.7-0.2l-0.3,1.4l-2.3,6.5l0.4,3.2l-1.2,1.6l-8.3,3.9l-6.4,0.1l-2.3,1.7l-2.4,1.8l0,0.3l-0.4,6l-3.1,8.4L169,339 l-2.8,9.6l0.7,11.4l6.3,0.4l1.2-0.6l1.5-0.1l0.8,0.5l0.7,1.2l0.4,2l0.7,0.5l0.6,0.1l0.8-0.3l0.6-0.3l0.8-1.2l0.6-0.6l1.2-0.4 l0.4-0.3l0.7-0.1l0.8,0.1l0.8,0.2l1,0.1l1.7,0.7l2.1,0.4l1.5,0.4l0.6-0.2l1.2-0.1l0.5-0.2l1.4-0.4l1.2-0.3l2.7,0.1l3.8,0.3l5.2-0.9 l3.5-0.6l0.8,0l0.7,0.2l2.5,1.1l1.9,0.8l0.3,0l1.7,0.5l1.6,0.4l3.8,1l5.2,1.4l0.5,0.1l4.5,1.3l0.7,0.2l1.7-0.3l0.9,0.1l2.1,0.2 l1.6,0.2l0.9-0.7l1-0.7l0.9-0.9l1,0.6l0.4,0.8l1.1,0.1l1-0.2l1.8-0.4l1.4-0.2l1.6-0.3l3.2-0.5l1.5-0.3l4.8-1l0.4,0.2l2.8-0.7 l8.4-2.7l0.7,0.9l0.7-0.6l8.4,2.6l0.2,0.1l8.7,2.3l1.1-0.8l1.1,0.7l0.6-0.5l0.6,0.5l0.5,0.4l1,0.3l0.6-0.1l0.5,0l8.7,0.3l0-5.4 l0.1-0.9l0.2-12.2l8.3,0.1l5,0.1l0.1-0.8l4.3-0.5l0-0.5l0-0.2l0-0.6l0-2.2l0-0.5l0-3.7l0-6l0-4l-0.2-2.6l0-1.2l0.6-0.6l-0.5-0.6 l0-2.2l0.4-4l-0.1-2.5l0.8-3.3l1-2.8l-0.1-0.9l-2.1-1.4l2.7-4.4L331.3,300.4z"/>
    <polygon class = "bezirk" id="Berlin-Mitte" points="423.9,292.5 420.5,289.3 419.2,288.2 418.7,287.7 419.4,286.7 419.9,285.5 421.7,280.9 423,277.7 422.4,277.4 423.4,275.1 424.7,274.8 425.6,271.6 424.4,271.1 422.3,270 422.4,268.2 421.6,268.1 420.9,267.8 419,266.8 417.2,265.6 415.4,264.5 413.4,263.2 410.9,261.3 410.3,260.9 409.3,260.4 406.3,259 404.6,258.5 401.9,257.7 400,257.2 400.4,255.5 400.5,254.6 400.9,252.5 402.9,248.9 402,248.2 401.1,245.3 399,238.2 398.9,237.8 398,238.2 394.5,227.4 392.3,219.9 390.9,220.1 391.4,219.3 391.7,218.3 391.9,217.6 392,216.7 391.8,215.8 391.5,212.8 391.3,211.4 391.2,210.5 391.2,209 391.2,208.3 391.2,207.9 391.2,206.5 390.9,204.9 390.4,202.4 389.8,200.7 389,199 388.1,197.4 387.2,196.2 386.5,195.5 385.1,194.2 384.4,193.8 384.2,193.3 382.1,191.3 382.5,190.8 381.9,190.1 380.9,190.9 377.4,190.4 374,192.4 371.2,192.9 369.5,202.5 363.2,202.7 358.6,206.7 358.6,206.7 358.4,206.9 356.8,207.1 356.2,201.6 351.5,202.8 351.2,200.4 348.7,200.2 348.2,200.1 344.6,200 339.9,200 326.9,195.8 321,200.7 320.1,199.9 315.6,199.5 315.4,200.2 315.1,200.9 314.7,201.5 314.2,201.9 313.2,202.4 312.5,202.7 311.9,202.7 310.2,203.2 310.1,203.2 305.8,204.1 298.3,206.9 297.6,207.4 288,224.2 291.2,224.3 305.1,225.3 305.8,225.6 307.2,227 312.7,233.7 314.6,235.2 316,236.6 316,237 316,237 316,237.6 318.2,242.2 317.7,242.4 317,242.7 308.9,244.6 299.3,246.6 300.7,252.8 300.8,253.2 305.5,252.3 305.3,253.8 304.8,254.4 304.8,254.8 301.3,256.1 305.1,272.8 306,273.3 307.3,271.6 307,271.1 306.9,270.5 307,269.4 307.1,268.8 307.4,268.1 307.7,267.5 308.2,267 308.7,266.6 309.3,266.3 310.4,265.9 311.3,265.7 312.2,265.7 312.9,265.8 313.6,266 314.4,266.4 315.2,266.9 316.2,267.7 317.2,268.8 317.8,269.5 318.2,270.3 318.6,271.3 318.7,272.2 318.7,272.9 318.5,274 318.3,274.8 318.2,275.4 318.3,276.2 318.5,276.7 318.6,277.2 319,277.8 319.4,278.3 319.8,278.7 320.9,279.4 321.5,279.7 322.3,279.7 323.2,279.7 323.5,279.6 323.9,279.4 323.5,279.6 324.9,283.2 325.8,284 325.6,284.5 325.7,284.5 325.6,284.5 325.4,285 325.2,285.8 320,286.3 320.4,287 321,287.4 322.8,288.2 323.3,288.4 322.8,289.5 322.3,289.8 320,291 318.9,291.5 322.7,293.5 323.5,293.9 324.1,294.7 323.3,296.8 323.4,297.8 324.6,298.6 325.2,299 326.5,299.1 327.1,299 327.9,298.9 328.4,298.8 328.6,299.6 328.9,300.2 329.6,300.1 330.2,300.1 331.3,300.4 336.2,302.5 343.9,305.4 353.7,309.4 354.3,309.7 361.1,311.3 362.1,310.1 362.7,309.3 363.4,306 364.8,303.7 365.2,303.2 366,302.8 367.4,303.6 368.8,299.5 369.2,298.4 369.7,296.9 370.1,295.9 370.3,295.3 371.5,296.9 378.6,296.2 383.8,295.7 385.9,295.5 388,295.3 391.1,295 393.2,294.8 393.9,293.1 394.3,292.4 396,293.4 396.9,294 398.3,294.8 399,295.4 399.8,294.6 402.7,298.2 404.8,296.8 406.8,300.5 409.4,301.9 410.1,300.5 413,301.8 413.6,300.4 414.5,300 415,299.2 416.3,299.8 417.1,300.1 417.8,300.3 418.7,300.4 419.6,300.4 420.4,300.2 421.2,299.9 422,299.5 422.7,299 423.3,298.4 423.9,297.6 424.2,297 424.5,296.2 424.6,295.1 425.2,293.7 424.4,293"/>
    <polygon class = "bezirk" id="Friedrichshain-Kreuzberg" points="488.1,327.9 488,327.4 487.6,326.8 486.1,325.5 485.3,324.4 484.2,324.1 483.9,323.5 479.6,318.8 477.6,316 476.5,313.8 471.9,310.9 470.2,310.6 468.8,310.3 467.6,309.9 468.6,305.2 469.3,302.6 469.8,301.6 470.5,300.4 470.6,299.7 471.5,298.4 472.3,297.7 472.3,297.4 473.2,296.9 472.4,296.5 473.4,294.8 474,293.8 474.7,292.5 475,292.1 475.2,291.4 475.4,290.7 475.7,289.6 475.4,288.3 475.2,287.4 474.8,285.2 475.5,282.7 477.4,283.2 475.9,282.5 475.1,279.4 473.5,275.3 473,275.5 472.4,274.1 471.5,272.8 468.6,273.1 462.6,274.1 461,274.3 460.3,274 455.1,272.4 453.8,272 453.3,271.8 454,269.7 452.9,267.1 451.2,263.1 449.9,260.4 448.4,261.1 444.9,262.8 439.5,254.6 438,255.9 435.3,258.7 434.3,257.3 426.6,258.8 421.7,259.7 420.9,260 419.8,259.9 415.4,264.5 417.2,265.6 419,266.8 420.9,267.8 421.6,268.1 422.4,268.2 422.3,270 424.4,271.1 425.6,271.6 424.7,274.8 423.4,275.1 422.4,277.4 423,277.7 421.7,280.9 419.9,285.5 419.4,286.7 418.7,287.7 419.2,288.2 420.5,289.3 423.9,292.5 424.4,293 424.5,292.9 424.5,292.9 424.4,293 425.2,293.7 424.6,295.1 424.5,296.2 424.2,297 423.9,297.6 423.3,298.4 422.7,299 422,299.5 421.2,299.9 420.4,300.2 419.6,300.4 418.7,300.4 417.8,300.3 417.1,300.1 416.3,299.8 415,299.2 414.5,300 413.6,300.4 413,301.8 410.1,300.5 409.4,301.9 406.8,300.5 404.8,296.8 402.7,298.2 399.8,294.6 399,295.4 398.3,294.8 396.9,294 396,293.4 394.3,292.4 393.9,293.1 393.2,294.8 391.1,295 388,295.3 385.9,295.5 383.8,295.7 378.6,296.2 371.5,296.9 370.3,295.3 370.1,295.9 369.7,296.9 369.2,298.4 368.8,299.5 367.4,303.6 366,302.8 365.2,303.2 364.8,303.7 363.4,306 362.7,309.3 362.1,310.1 361.1,311.3 361.9,311.4 361.8,312.3 360.7,313.8 360.3,318.6 360.7,319.7 360.2,320.8 363.2,321.9 369,323.7 368.9,324.2 367.8,325.8 367.8,327.8 366.9,328.3 365.7,330.6 366.3,330.6 366.2,335.3 364.5,335.5 364.4,335.6 369.3,335.6 377.9,335.8 378.6,335.9 379.3,335.8 379.4,334.1 384.6,334.1 388,334.2 387.9,337.5 394.7,337.6 395.6,336 396,335.5 399.1,335.4 401.6,333.9 402.1,333.6 403.2,331.8 403.1,331.2 402.5,328.7 403.1,328.7 413.1,330.9 416.9,331.7 419.9,332.7 420.9,330.7 421.4,330.4 420.3,327.5 419.3,324.7 418,321.4 416.3,316.4 417.6,316.8 418.9,317.4 423.9,320.2 433.3,325.2 434.1,325.6 434.9,326 435.5,326.5 436,327 436.1,327.5 436.7,327.4 436.5,326.8 436.6,326.2 437.1,325.4 437.8,324.6 442.9,318.3 445.1,318.2 447.1,315.9 448.4,314.3 449.2,313.9 450.3,313.5 450.6,313.5 451.1,313.5 451.9,313.4 453.4,313.8 456.6,314.8 458,315.2 460.8,317 461.7,317.2 462.9,317.8 461.9,319.1 464.8,321.4 469.4,323.6 472.3,324.5 473,324.6 475,326 475.9,326.9 477.6,329.1 477.7,330.3 478.5,331.8 478.9,330.9 479.3,330.3 479.9,330.3 481.5,330.7 482.2,331.2 482.8,333.4 482.9,333.6 485.3,331.9 486.3,331.1 487.3,330.7 489.2,330.5 489.8,330.6 491.7,331.4 492.2,330"/>    
	
	<path fill="#212121" d=" M 682.01 48.01 C 715.34 47.99 748.66 48.00 781.99 48.01 C 782.01 77.34 782.00 106.68 782.00 136.01 C 782.00 141.79 780.95 147.81 777.50 152.58 C 773.24 158.86 766.13 162.08 759.75 165.71 C 750.47 170.75 741.44 176.28 732.03 181.06 C 721.12 175.44 710.59 169.06 699.80 163.20 C 693.89 160.07 688.11 155.97 685.01 149.87 C 682.46 144.99 682.01 139.37 681.99 133.96 C 682.02 105.31 681.98 76.66 682.01 48.01 Z" />
	<path fill="#ffffff" d=" M 683.73 49.67 C 715.93 49.67 748.12 49.67 780.32 49.68 C 780.34 77.78 780.32 105.88 780.33 133.98 C 780.25 138.96 780.04 144.17 777.76 148.71 C 775.26 154.02 770.45 157.75 765.44 160.53 C 754.28 166.75 743.15 173.02 732.01 179.26 C 721.08 173.11 710.15 166.97 699.19 160.85 C 694.05 158.05 689.12 154.29 686.49 148.92 C 683.24 142.46 683.79 135.02 683.72 128.01 C 683.73 101.90 683.70 75.79 683.73 49.67 Z" />	
	<path class = "bezirk" id = "Berlin" fill="#242424" d=" M 731.27 59.93 C 735.97 59.78 740.26 57.03 745.05 57.70 C 748.65 58.17 752.28 58.22 755.91 58.22 C 758.65 58.98 757.80 62.33 756.52 64.04 C 757.04 67.00 757.81 70.04 757.08 73.03 C 756.66 75.43 755.18 77.56 755.11 80.03 C 755.48 82.70 756.68 85.33 756.18 88.08 C 755.55 91.59 753.33 94.55 752.61 98.03 C 752.20 101.47 754.05 104.60 754.64 107.91 C 755.47 111.89 754.11 115.93 754.63 119.93 C 755.38 125.10 758.28 129.71 758.78 134.93 C 759.14 138.66 760.11 142.28 760.67 145.97 C 757.22 152.59 749.82 156.22 742.66 157.35 C 740.88 154.84 741.49 151.65 741.31 148.78 C 743.66 148.09 747.47 149.76 748.80 147.04 C 747.89 144.84 745.59 143.64 744.16 141.82 C 741.78 139.17 739.95 135.25 736.02 134.76 C 731.77 134.67 728.53 138.12 726.19 141.28 C 723.80 144.34 723.18 148.24 721.70 151.73 C 720.04 153.66 717.13 152.72 715.03 152.23 C 710.18 150.61 705.29 149.09 700.42 147.52 C 700.56 145.06 700.86 142.60 701.78 140.30 C 706.45 139.42 709.70 143.74 714.09 144.15 C 714.03 138.47 712.51 132.06 716.21 127.13 C 718.90 122.89 724.10 121.73 727.75 118.66 C 730.48 116.08 728.57 111.86 726.73 109.33 C 723.54 105.16 718.07 108.50 713.97 109.00 C 704.40 111.05 695.55 104.19 691.35 96.10 C 691.89 96.21 692.98 96.44 693.52 96.56 C 693.65 95.12 693.95 93.71 694.30 92.31 C 694.57 92.51 695.11 92.90 695.37 93.09 C 696.49 92.43 697.62 91.76 698.76 91.10 C 701.48 93.50 703.14 96.77 705.39 99.56 C 707.13 101.91 710.45 100.43 712.76 99.81 C 716.38 98.22 720.57 97.24 723.33 94.21 C 718.39 92.30 714.07 89.20 709.67 86.33 C 706.72 84.36 703.68 82.16 702.19 78.82 C 700.67 75.36 699.26 71.85 697.16 68.69 C 698.48 68.26 699.76 67.66 700.84 66.74 C 704.22 65.03 706.64 68.41 707.74 71.16 C 708.71 73.64 709.50 76.62 712.21 77.77 C 716.22 79.65 720.68 80.32 724.90 81.64 C 727.07 82.61 729.17 81.37 731.10 80.42 C 733.39 79.20 736.22 78.17 737.18 75.50 C 734.51 75.65 731.82 75.51 729.34 74.45 C 729.80 73.66 730.26 72.88 730.74 72.09 C 733.23 71.88 735.94 70.96 738.11 72.73 C 739.12 71.80 736.74 69.81 737.53 68.30 C 734.69 68.56 732.05 67.28 729.24 67.17 C 728.14 65.04 727.08 62.89 726.11 60.70 C 727.80 60.34 729.53 60.06 731.27 59.93 Z" />	
</svg>
