<?xml version="1.0" encoding="UTF-8" standalone="no"?>
<svg xmlns="http://www.w3.org/2000/svg" version="1.1" width="100%" height="100%" viewBox="50 -10 800 610">


<g ng-class="{berlin_border_hover: showBerlinBorder}" > <!-- STYLE SHOULD BE CSS  -->
		<polygon points="780.901,418.2 775.1,417.3 776.1,412.5 774.1,420.5 776.6,420.9 778.3,421.2 779.8,421.501 780.1,420.7 780.5,420.2 781,418.9 		"/>
		<path d="M776.7,409.6L776.1,409.5l-2.3-0.5l0.4-0.899l1.1-2.4l0.4-0.9l0.3-0.699l-0.1-0.601L774.6,403.6l-0.3-0.801l-0.7-0.6 l-0.6-0.7l-0.9-0.5l-0.6-0.2l-0.8-0.3L766,399l-1.4-0.3l-0.899-0.3l-1.601,0.5l-1.699-0.5L758.3,398l-1.899-0.3l-0.5-0.2 l-1.101-0.2l-1-0.699L753.7,396l-1.3-0.2l-1.5,0.5L748,395.9h-0.5l-1-0.3L744.3,393l-2.7-3.1l-2.1-2.3l-1.7-2L737.2,385l-3.9-8 l-0.399-0.5l-1.5-1.899l-0.801,0.3l-0.3-0.5l-1-0.101l-1.399-0.399l-0.601-0.3l-1.6-1l-3.5-2.301L721.1,369.4l-1.5-1.3l-0.5-0.4 l-1.699-1.399l-0.4-0.5l-0.3-0.7h-1.4h-0.8l0.8,1.899l1,1.5l1.2,2.9l0.4,0.5l0.199,2.2l0.4,3.399l0.3,1.8l2.2,0.801l0.4,2.5v0.5 L721.1,384.5l-0.399,2.8l-0.601,1.5l-1.5-0.199l-2.1-0.2l-1.3-0.3l-0.7-0.2l-1.1-0.3l0.3-1.801v-0.5l-0.1-0.699l-0.9-2.2l0.1-3 l-0.399-0.7l-0.4-3.2l-0.6-1.399l-0.601-1.5l-0.3-0.5l-0.7-0.5L706,370.8l-1.2-0.399L704,370.3h-1.3l-1.6,0.101l-0.5-0.4 L700,369.8l-3.399-1.6l-2.101-2l-0.7-1.2l-0.699-1l-0.301-0.5l-0.399-0.5l-2.4-1.5l-1.9-1.399l-1.8-1.2l-2.8-2.5l-0.7-0.5 l-0.3-0.2l-0.2-0.1l-2.399-1.5L677.3,354.8l-1.1,0.101L675,355l-0.7-0.2l-0.7-0.399l-0.6-0.3l-1.4-0.801l-1-0.399l0.4,0.1 l-1.5-1.399l-1.1-1l-1.101-0.7l-2.399-0.601l-1.2-0.6l-2-1.1l-0.601-0.4l-1.399-0.8l-2.7-0.2l-1-0.3l-0.8-0.2l-0.7,0.8l-0.9,0.7 l-0.5,0.3l-1.6,1l-2.2,1.601l-0.8,0.699l-1,0.4l-0.9,0.3l-4.5,1.5l-0.699,0.601l-0.4,0.5l-1.1,1l-1.301,0.6h-0.5l-0.6-0.1 l-0.6-0.301h-0.7L635.6,355.6L635.2,361.3L635,361.9v0.8v0.7l0.6,0.6h-1.8l-0.7,0.101v1.699l0.301,1.101l0.3,0.5l-0.7,0.7 l-1.4-0.4l0.301-0.5l0.199-0.5l0.101-2.2l-0.7-0.1V362l0.1-1.1l-0.8-0.3l-3.5-0.9l-0.5,0.101l-1.9,2l-3.6-1.301l-0.3,0.4l-3.4-1 l0.016-0.495L621,360.4l0.301-0.4l-0.4-0.2l0.7-0.899l1.1-1.5l1.4-1.8l1.8-2.301l0.3-0.8l-0.5-0.3l-1.1-0.5l-1.3-0.5l0.1-1 l0.5-2.7l0.4-2.899l0.3-2l0.399-0.7l3.301-4.601l2.199-3l2.801-3.899l0.399-0.5l2.101-2.8l1.6-2.2l1.3-1.7l1.9-2.5l-4.2-1 l-1.1-0.7L634.5,318.6l1.2-2.7l0.3-1.3l1.9-6.101l0.8-4.5l0.3-1.5l0.7-2.7l0.5-2l0.2-0.6l0.2-0.6l0.2-0.5l0.6-1.4l1.6-3.7 l0.801-1.7l0.3-0.6l0.6-1.1l0.5-1l0.5-0.801l0.7-1.1l0.5-0.6l2-2.301l2.2-2.1l1.8-2.2l0.9-1l0.6-0.6l0.8-0.7l1.2-0.9l2.5-1.899 l0.5-0.4l1.8-1.2l3.3-2.2l3.9-2.699l1.7-1.7l1.399-1.4l-0.6,0.4l-0.2-0.5l-0.2-1.3l-0.7-3.2l-0.3-1.5H668l-4.9,0.1l-2.8,0.2 h-1.399l-2.101-0.2l-1-0.1l-0.6-0.1l-0.7-0.301l-1.2-0.399l-1.1-0.2l-0.5-0.1l-3.8-0.101H645l-1-0.1h-1.5l-0.9,0.1l-1.899,0.3 l-2.5,0.4l-0.7,0.1h-0.2l-0.1-0.699L636,254.3l-0.2-1.3l-0.2-1.3l-0.199-1.6l1-1L636.2,248l-0.2-1.2l-0.2-1.3l-0.2-1.6l-0.2-1.5 l3,0.8L639,243l0.6-0.6l0.5,0.2l1.2,0.399l0.5-0.399l0.9-0.301l1.399,0.4l0.5-0.1l0.5,0.3l0.5-0.5l0.601-0.8l0.6-1l0.7-1.101 l0.8-1.399l0.5-0.9l-0.1-0.5l-0.301-1.3l-0.1-0.7h-0.9H646.7l-0.601-0.2l-0.8-0.5l-0.9-0.399l-0.5-0.101l-1.199-0.2L641.4,233.1 L640.6,233l-1.899-0.3l-2.601-0.3l-1.3-0.2l-1.5-0.1L631,231.8l-1.2-0.1l-0.7-0.1l-0.6-0.2L628,231.3l-1.2-0.199l-3.8-1 l-3.2-0.801l-0.3-0.1l-0.8-0.2l-2.4-0.6l-4.4-1.2l-3.8-1.1l-1.8-0.5l-3.4-0.9l-2-0.6L600.4,224l-2.699-0.7l-3-0.8l-0.5-0.1 l-0.5-0.2l-0.101-0.5l0.2-0.7l0.4-1.1l0.1-0.601v-0.6l0.3-0.7l0.3-0.7l0.2-0.699l0.101-2.4l0.1-2l-0.1-0.8l-1.301-2.7L593.7,208 l-1.4-2l-0.4-1.1l-0.199-1L591.6,201.8l-0.3-1.3l-0.1-0.6L591.1,199.3L591,198.1l-0.1-0.9l-0.801-2.4V194.1l-0.1-1.2l0.2-1V191.3 l-0.101-1l-0.1-0.5l-0.2-0.899l-0.3-1l-0.8-2.3L588,184.3h-1.1H585.6l-1.3-0.199l-0.5-1.7l-0.3-1.101l-0.4-0.6L582.2,180 l-0.5-0.399l-0.8-0.2L579.6,179.8L577.7,180.4l-0.8-0.101l-1.301-0.1l-0.5,0.4h-0.699l-0.101-0.5l-0.3-0.7l-0.398-0.956 l0.099-0.344l-1.101-2.7l-2.199-3.9l-1-1.2L568.1,168.6l-0.6-0.7l-1.5-1.7l-2.6-2.399l-2.101-1.9l-1-0.9l-0.399-0.3l-1.801-1.3 l-2.699-1.9l-1.2-0.699l-0.7-0.4l-1-0.6l-0.9-0.4l0.2-0.5l-0.899-0.4l-5-1.899l-3.4-1.3l-1.4-0.5l-1.399-0.5l-1.2-0.4l-5.3-1.9 l-2.7-0.8l-4.7-0.899l-2.3,0.1l-3.2,0.2l-0.5,0.1l-1.1,0.101L513,147.2l-3,0.101l-2.4-5.801l-0.8-1.699l-0.336,0.218l-0.318-0.889 l0.354-0.229l-0.2-0.5l-2.5-5.8l-0.899-2.101l-1.801-4.3l-2.899-2.399V123.2l-0.2-2.399l1.4-7l0.1-0.601l0.7-1.899l0.899-2.5 l0.301-0.7l0.8-2.101l1.2-3.5L505,99l0.2-0.1l0.7-0.3l0.6-0.4l0.3-0.1l0.101-0.601v-1v-3l0.199-4.1l0.101-1.9l0.8-0.699l1.4-0.9 l2.699-1.7l0.601-0.3l1.2-0.6L517.8,81.5l2.101-1.199l0.699-3.4l2-6.3l1.301-5.101l0.199-1L524.2,64L524.6,62.6l0.2-1.3l0.2-1.2 L525.5,55l0.1-1.199l-1.1,0.999l-1.3,0.101l-0.8-2.4l-0.601-1.7l-3,1l-1.1,0.5l-2.9,1.4l-2.7-2.6l-1.899-1.7l-1.2-1l-1.2-1.2 l-0.8-0.4l-1.1-0.699L505,45.8l-0.5-0.3l-0.6-0.5l-1-0.6l-1.101-0.7l-0.6-0.1l-1.601-1L498.7,42l-1.3-1.1l-2.601-1.4L493,38l-1-1 l-1.3-1.5l-0.601-0.6l-4.5-6.2l1-5.3l0.301-2.3l0.3-2.7L487.6,16l0.301-2.5l0.3-1.6l0.7-1.601L488.6,9.5l-2.199,1.2l-1.101,0.5 l-7.5,3l-2.2,1.7v-1l-0.5-1.101l-0.6-1l1.4-4.8l4-6.6l-0.5-1l-2.7,2.8L475,1.6L469.7,8.5l-4.9,6.9l-6.899-3.2L458,13l-4.3,4.9 l-0.5,0.3l-3.7,4.2l-0.9,0.899l3.301,1.301L461.1,32.3l11.801,1.7l0.3,0.5l0.3,0.5l0.2,0.9l-0.101,0.6l-0.1,0.601l-0.2,1.3 l-0.6,0.6l-0.9,0.5l-0.899,0.8l-1.2,1.301l-0.5,0.699l-0.7,0.301l-0.6-0.101L467.3,42.6l-0.6-0.101H466l-0.6,0.3l-1.2,0.9 l-0.5,0.5l-0.7,0.4l-0.7,0.3l-0.6,0.5l-0.4,0.6l-0.7,1.4l-1.1,0.5l-0.5,0.2l-0.9,0.699l-3.3-0.399l-3.8-0.5l-1-0.2l-0.101-1 L449.7,46l-0.5-0.1l-0.7-0.101l-0.9-0.1l-2.2-0.1h-0.6l-0.7,0.199l-0.6,0.301l-0.8,0.3l-2.2,0.1l-0.7,0.7l-0.6,0.1h-0.4l-0.4-0.5 l-0.6,0.4l-0.7,3.8l-0.5,2.8l-3.399,0.9L432.1,55l-1.3,0.4l-0.4,0.5l-0.199,1.7L429.9,59.8l-0.1,0.9l0.3,2.2l0.2,1.399l0.1,0.801 l0.5,0.6L431,66.5l-1.4,1.101l-0.7,0.3l-4.3-0.3L423.9,68l-0.6,0.4l-0.5,0.399l-2.3,2l-0.7-0.6l-2.3-1.8l-1.7-1.3l-3.2-2.4 l-0.6-0.5l-2.101-2.7l-0.1-0.5l0.4-0.7v-0.5v-0.5l-0.301-0.5l-0.8-0.1l-0.6-0.2l-0.601-0.7l-0.5-0.6L405,57.8l-1.4,0.4l-1.1,0.5 L402,58l-0.7-0.899l-0.7-0.601l-1.6-1l-1.1-0.8L397,54l-1.3-1.2L394.1,51.1l-0.5-0.601l-0.699-0.7l-1-1.199l-0.4-0.301l-0.5,0.2 l-0.5,0.7l0.4,0.3l-0.9,0.7h-0.7l-1.399-0.4l-0.2,0.801l-0.101,0.8l-0.8,1.399l-0.3,0.4l-0.4,0.6l-0.199,1l-0.2,0.801l-0.101,1 l-0.5,0.199l-0.8,1.101l-0.7,1l-0.3,0.6l-0.1,0.601v1v1.1v0.4V63.5L383,64.1l-0.3,0.6l-0.2,1.1l-0.4,0.7l-1.1,1.2l-0.5,0.2 l-0.6,0.3l-1.5,0.7l-0.7,0.2H377L376.5,69l-0.5-0.1l-0.5-0.101l-0.4,0.101l-0.699,0.3l-0.5,0.7l1.1,0.8l0.2,0.6l-2.4,1l-0.3,0.5 l-0.6,0.801l-0.7-0.801L370.6,73.6l-0.6,0.8l-0.2,0.8l-1.6,2.6L367.6,78.1l0.801,1.1l0.8,1.7l-0.7,0.6L365.9,84l-1.5,0.601 l-0.6,0.5l-0.7,0.1l-0.7-0.3l-0.5,0.6l-0.6,1l-0.2,0.601L360,88l-0.5-0.2L359,87.4l-0.5,0.3l0.3,0.6h-0.6L360.6,92.4l1.8,3.399 l0.045,0.106L360.8,92.8l-2.399-4.1l-0.301-0.1l-0.5,0.199l-0.5,0.2l-0.5-0.5l-0.8,0.3l0.5,0.4l0.5,0.4l-0.6,0.5H355.1l-0.399-0.5 H354.1l-0.8,0.5l-0.3,0.5h-0.6l-0.5,0.399l-0.7-0.1l-0.5,0.3l-0.5,0.9l-0.9,0.199l-0.6,0.4l-1-0.2l-0.5-0.1l-0.5-0.3l-0.4-0.2 l-0.5,0.3l-0.399,0.4l-1.101,0.1l-0.5,0.1l-0.3,0.2l-0.3,0.5L343.1,93l-0.6-0.2L342,93l-0.3-1.6L337,91.8l-2.8-0.199L333.3,92 h-0.6l-0.7,0.3l-0.8-0.1l-0.9,0.3l-0.6-0.199l-1,0.1l-0.8-0.2l-0.101,0.5l-0.399,0.101L326.5,93l-0.399,0.4l-0.301-0.2l-3.8-2.5 l-0.5,0.2l-0.5-0.3l-1.6-1l-1.2-0.7l-0.6-0.3l-1.801-0.5l-1.5-0.4l-0.6-0.3l-1-0.4l-0.7-0.2l-1.2-0.199l-2.1-0.2l-1.2-0.2 l-0.4-0.1l-1.899-0.8l-2-0.601l-0.5-0.2l-1.2-0.6l-0.9-0.3h-0.5l-1.699,0.2L296.6,84h-0.8l-1.4,0.4l-4.8,0.7l-0.2-0.2L290,84.4 l2-0.8L292.9,83l0.4-0.199L295.9,82l1.301-1l0.3-0.6l-0.601-0.2l0.4-0.8l-0.3-0.5l-0.101-0.5l-0.399-2.3l-1.9-3.801l-1.3-2.399 l-0.5-1.4v-0.8l1.3-0.8l-0.2-0.8L293.7,65L293.1,63.6l1-0.2V62.8l1-0.399l-0.1-0.9l0.899-1.2l0.2-0.899l0.3-1.5l-0.1-0.4l-0.2-1.8 l-0.8,0.2l-1.8-3.4l-0.9-2.399L286.8,39l10.3-6.899l-0.5-0.2l-0.8-1.2l-1.4-1.5l-0.5-1L291,28.5l-1.601,0.3L288.7,28.9H288.1 l-1-0.2H286.2h-2h-1.9h-1h-0.5h-0.5L280,29l-0.5-0.2L276,28.1l-1.3-0.2l-0.5,0.1h-0.5l-0.601-0.1l-0.7-0.2l-0.699-0.3l-0.7-0.2 l-0.8-0.1L269.4,27l-1.1-0.399l-0.4,6.6l-0.3,4l-0.2,3.6l3.4,0.2v0.7l-0.2,3.1l-0.8,3.301l0.4,1L269.9,52l-0.8,9.101l-0.7,0.1 L267,61.4l-4.9,1.2l-0.6,0.1l-2.2-0.1l-2.8,0.8l-2.4,0.2l-4.5-1l-3.3-0.801l0.1,1.101l0.101,0.6l0.1,0.8l0.3,1L247.2,66l0.8,1.5 l0.3,0.601l0.5,1.399l0.5,1.9l0.2,1l-0.101,2.3l-0.1,1.5v0.7l-0.1,1.2l-0.101,1.8l-0.2,2l-0.1,1.6l-0.1,1.7v1l-0.2-0.1l-0.7-0.5 l-0.9-0.2l-1.3-0.601l-1.3-0.3l-0.6,0.101h-1.9H241l-0.9,0.3l-2,0.1h-0.6l-1.4,0.3h-0.6l-1.8-0.1l-0.601-0.1L232.2,85l-1.301,0.3 l-0.5,0.2h-0.5l-1.1-0.1l-2.5-1.4l-0.5-0.2l-0.6-0.1l-0.7,0.1L223.9,84l-0.399,0.2l-1,0.2l-5,0.2l-3.3,0.699L212.4,85.4 L211.7,85.3l-1.2-0.1l-0.7-0.1L209.1,85l-1.399-0.3l-0.5-0.8h-0.5l-1-0.3L204,84l-1.3-0.1l-0.9-0.101v0.7l-0.1,0.8l-0.2,0.7 l-0.101,2l-0.1,1L201,90.1l-1.9,4.1l-0.3,0.6l-1.2,3l-1.6,1.5l-0.5,0.4l-1.2,2.6l-1.6,3.4l-3.101,6.2l-0.8,1.7l-0.9,1.8 l-0.699,1.2l-0.301,0.6l-0.399,0.6l-0.5,0.5l-0.8,0.4l-2.2,1l-0.4,0.2l-0.5,0.3l-0.7,0.7l-0.199,0.5l-0.101,0.7v0.8l0.2,1.5 l0.5,1.3l0.6,0.8l0.9,1l2.2,3.2l1.5,2.5l0.7,1.1l2,2.2l1.5,1.601l0.8,0.699l3,2.2l1.3,1l3,3.101l0.5,1l0.2,0.399l0.399,1.8 L200,149.5l-0.9,3l-0.8,2.601l-0.4,1.399L197,158.1l0.6,3.199l0.8,2.301L198.7,167l0.399,2.8l0.101,1l0.199,1.7l1.138,1.706 l-1.338-1.605L199,170.9l-0.101-1l-0.399-2.8l-0.301-3.4l-0.8-2.3l-0.6-3.2l-3.5-0.5l-1.8,0.101l-0.801-0.101l-1-0.3l-0.899-0.2 l-0.9-0.3l-1.2-0.2l-1-0.3l-0.5-0.3l-2.5-1.4L182,154.2l-0.5-0.3l-0.7-0.5l-0.601-0.4l-0.699-0.199l-1.4-0.2l-0.8-0.5l-0.601-0.2 L176,151.6l-2.801-0.5l-1.399-0.4l-1.2-0.399L170,150l-1.2-1l-0.7-0.6l-1.5-0.7l-1-0.5l-0.8-0.399l-0.5-0.4l-1.4-1.5l-0.699-0.3 l-0.601-0.2l-0.7-0.1L159.8,144l-0.8-0.3l-1.101-0.5l-0.8-0.5l-0.8-0.2h-1.2l-1.4-0.1l-1.399-0.3l-0.7-0.3l-1.1-1l-0.5-0.5 l-2.301-1l-2-0.4L145,138.6l-0.801-0.9l-0.5-0.399l-2.199-1.5l-3.2,0.8l-2,0.5l-2.601,0.8l-0.899,0.4l-0.7,0.5l-0.5,0.5 l-0.399,0.5L130.4,141.2l-0.699,1.3l-1.7,2.4l-2.7,3.3l-3.1,1.8l-3,1.9l-4.301,1l-1.5,0.6l-2.699,2.4l-3,0.8l-1.7,0.101l-1.7-1.2 l-1,0.6l-0.2,2.101l0.9,0.1l-1.4,4.9l1.8-0.2l0.5,0.399l0.4,0.5l0.6,1.9l0.301,1.5l0.399,1.3l0.8,0.8l2.9-0.699l0.8-0.2L112.7,168 l0.8,0.101l1,0.1l0.899-0.6l2.2-1l0.8-0.3l1-0.2l0.9-0.8l3-1.301l2.4-0.8l0.399,0.7l0.7,0.5l0.5,0.7l0.2,1.5L128,168l0.6,1.301 l0.601,1.5l0.3,1.3l0.2,1.5l-0.101,1.1l0.101,1.7l-0.101,0.7L129.7,178l-0.2,0.801l-0.2,2.3l-0.4,0.6l-0.1,0.601l0.1,0.8 l-0.399,1.8L128,186l-0.7,0.4l-0.2,0.5v1l-0.899,2.5l-0.301,1.3l-0.1,0.2l-0.7,1.4l-0.5,0.8l-1,1.5l-0.3,0.6l-0.1,0.7l-0.5,4.7 l-0.5,0.5L121.3,203l0.3,0.5l0.4,2l0.2,0.5l0.199,0.5l0.101,1.2v1.4l0.3,1.899l0.1,1.101l-0.1,1.1l-0.2,0.7l-0.7,0.9l-0.3,0.8 l-0.1,0.7l-0.7,0.8l-0.9,0.2l-0.3,0.6l-0.2,0.1L119.2,218.1H118.4L117.7,218l-1-0.3l-0.601-0.1l-2.7-0.2l-1.6-0.1l-0.7-0.2 l-0.7-0.4l-1.3-0.8l-1.2-1.3l-1.3-1.9l-1.1-1l-0.7-0.5l-0.6,2.4l-1.2,4.3l-1.101,4l-0.6,2.2l-1,3.5l-1.1,3.899l0.1,1.5l-0.9,6 L98,240.801l-0.101,0.6l-0.399,2l-0.2,0.8l-0.5,1.3l-1.4,3.4l-0.5,1.2l-0.699,1.7l-0.5,1.3L94,254l-0.3,1l-0.2,0.8L93.4,256.6v0.6 l-0.1,0.9l-0.1,0.6l-0.101,0.5v1.3v0.9v0.6l-0.1,1.2v1l-0.101,2.5l-0.199,1.6l0.1,0.801v0.5l0.1,1.1l-0.3,2.1l-0.3,1.301 l-0.1,0.699L92.1,275.4l-0.1,0.8l-0.101,1l-0.3,1.8l1.2,0.101h0.7H94.4L94.8,279l3-0.5l1.8-0.2h1.5l0.5-0.1l1.4-0.4l0.899-0.199 l0.9-0.2l1.2-0.101l1.2-0.199l2.899-0.7l1.3-0.2l0.601-0.1l1-0.2l0.899-0.3l1.2-0.4l2-0.6l1.3-0.2l0.5,0.399l0.5,0.301l0.5,0.3 l0.5,0.5l0.301,0.899l0.199,0.801l0.601,0.899l0.899,0.101l1.101,0.3l0.7,0.399l0.5,0.3l2,1.301l1,0.6l0.8,0.5l0.8,0.7l0.6,0.5 l0.7,0.5l1.3,0.899l0.5,0.301l0.5,0.3l1.101,0.7l0.5,0.3l1,0.3l0.899,0.4l0.2,0.1l1.5,1l1.3,0.9l1,0.6l0.9,0.6l0.5,0.301l2.8,1.6 l0.7,0.4l0.9,0.5l-0.801,0.699l-0.3,0.601l-4.2,4.7l-3.5,3.8l-1.899,1.899l-0.601,0.7l-1,1.2l-0.6,0.7l-0.2,0.2l-1.6,1.8 l-0.601,0.7l-0.5,0.6l-0.6,0.8l-0.5,0.601l-0.4,0.5l-1.1,1.3l-1.9,1.899l-0.5,0.601l-2.6,3.3l-3.5,4.4l-2.9,3.699l-3.6,4.601 l-1.4,1.7l-0.8,1l-0.5,0.7l-0.8,1.1l-1.2,1.6l-1.8,2.5l-1.4,1.801l-1.699,2.1l-1.5,1.5l-0.801,0.6l-3.3,0.801l-3.1,0.699l-2.8,0.9 v3.3v0.8L91.6,353.9l-0.5,1.3l-0.8,2.2l-0.7,1.5l-2.3,3l0.1,2.2l-2,1.899l-0.899,1.8l-0.5,1.3l0.5,2.2l0.2,1.3v0.7v2.5l-0.9,3.4 l2,2.1l0.3,2.101l-0.6,6.2l-0.2,0.8L85,391l-0.4,1.2l-0.8,1.2l-0.6,1l-0.601,1.3l1.8,1.4L85,397.7l0.5,0.6l0.6,1.101l1.3,0.7 L88.2,400.5l0.5,0.601l-1.5,1l1.8,2.5l1.399,0.1l1,1.3l0.4-0.5l1.3,1.101L94.5,409l0.899,0.9l0.4,0.5l0.5,0.899l0.5,0.5l1.5,1.601 l4.212-0.843l-0.002,0.021L98.4,413.4l-0.8,1.899v1.601l-1.2,1.399l-0.899,0.5l-4.4,2.601l-3.5,5.4l-1.899,1.1l0.8,5.7l-5,4.4 l-1.601,2l-1.399,0.6l-0.9,2.3l-1.5-0.8l-1-0.2l-1-0.399l-0.7-0.801l-1.1-0.399l-0.4,0.1l-1.1,1.101v0.6l-0.5,1.7l-1.2,1.5l-1,1.2 l-8,4l2.2,10.699v1.7l0.4,1.5l0.699,0.2l0.5,0.1l0.5,0.301l1,1l4.4,2l0.8-0.7l0.9-0.601l-0.2-0.6l0.1-0.5l-0.399-0.6l-0.7-0.5 l-0.7-0.9l-0.8-1.5l0.1-0.4l0.801-0.1l1.3-0.6l1.5-0.5l0.899,0.1l-0.199,0.5l0.1,0.8l0.4,1.7v1.8v0.9l2.5,0.8l1.399,0.5l0.5-0.2 l0.8,0.5l0.5-0.1h0.4h0.4l0.199-0.5v-0.8l0.301-2.7v-0.5l-0.101-0.8l-0.1-0.5V461.4h0.8l1.5,0.601l0.3,1.699l0.2,1.2l0.8-0.1 L84.7,464.7l0.3,1.7l-0.601,0.101l-0.8,0.1l0.2,1.4l-2.4,0.399l-1.8-0.5l-0.3,1.601l2.4,0.399l0.899,0.7l-1.1,1.4l0.6,0.5l0.8,0.8 l0.601,0.8l0.7,1l0.3,0.4l0.3,1.6l0.6,0.7l4.4,2.7l1.4,0.399l0.5,0.101l0.6,1.199l1.6,2.301l0.5,0.8l1.301,1.5l2.8,2.399l0.6,0.7 l0.7,0.4l0.5,0.3l1.4,0.2l0.8-0.2l1-0.6l4.1-3l1.2-1.2l1,1l1.6,0.8l0.601,0.1l1.2,0.801l-3,0.5l0.6,2.1l2,0.1l0.7,0.101l0.5,0.3 l-5.101,4.6l-2.699,2.9l-0.5,0.7L104.9,501.2l-0.5-0.399l1.4-1.8l-2.9,0.1L102,499.2l-0.3,1.301l-0.2,2.399l1.399,1.3l1.101,1.101 l1.399,1.399l0.601,0.301l0.7-0.4l0.8,0.1l0.7,0.101l0.5-2.7l-0.5,0.1l-0.5-0.1l-2.801-2.7l1.301-1.7l2.8-3.2l4.399-3.8l1.2-1 l2.7-1.899l1.3-0.5l-0.1,1.1l0.5,0.7l0.3,0.4l2.2,1l0.6,0.1l1.4,0.2l5.5,0.8l2.3,0.6l1.4,0.4l3.199,0.5H137l2.8-0.3l5.5-0.4h0.7 l0.6-0.399l2.4-1.801l-0.5-3.6l-0.8,0.2l-2.301,0.6L137,490.7l-2.8,0.101v-0.5l0.1-0.9l0.5-1.3l0.4-1.4l0.6-1.3v-0.7l0.1-5.1 L150,472.1l1.3-0.7l6.9-3.6l3.1-1.601l2.6-1.399l0.2-0.101l9.9-5.8l1.6-1.1l0.601-0.2l1-0.2l1.6,0.101l0.7-0.101h1.1l3.7-0.6 l1.3-0.3l1.7-0.4l2-0.6l2.6-1l1.5-0.801l0.7-0.199l1.5-0.801l0.5-0.399l1.4-1.101l1.1-0.3l0.5-0.1l1.7-0.7l1.2-0.5l0.8-0.3 l1.8-0.601l1-0.5h0.7l1.2,0.2l1,0.101l1.3,0.199l0.4,0.101l1,0.2l2.6,0.199h1.1l1.601-0.6l1.3-0.3l2.3,0.1l2.8-0.2l3.7-0.199 l2.101-0.301l0.199,0.601l0.5,1.399l0.5,1.9l0.5,2.8l0.301,1.7l0.1,1.3l0.6,2.8l0.601,4.101v0.5l-0.101,4.5l-0.199,0.8l0.399,0.9 v0.699l0.3,3.801l0.101,0.699l1.6-0.899l0.8-0.4l1.101-0.399l1.5-0.301l0.6-0.1l0.7-0.1l1.6-0.101h1.4l0.9,0.101l1,0.3l1,0.399 l2.5,1.601l1,0.5l2,0.8h0.5h2.1h0.5h0.1l0.601,0.1h0.899l1.7-0.199l0.5-0.4l0.601-0.1l1.899-0.7l0.5-0.2l0.601-0.3l2.3-1.8 l2.899-2.301l0.9-0.699l2-1.801l3.9-3.6l1.3-1.3l5-4.601l0.8-0.699l3.3-2.2l0.3,0.5v0.5l-0.199,0.8l-0.4,0.6l-0.6,0.301l2.899,4.6 l1.4,2.1l0.7,1.101l0.6,0.899l1.2,1.7l3.1,4.7l1.8,2.7l2.9,4.899l1.8,2.801l0.9,1.199l1.1-1.199l0.801-1l4.899-3.301l5.2-3.199 l4.3-2.601l4.601-2.7l1.399-0.8l3-1.8l6.8-4.4l1.2-0.8h-0.5l0.5-1.7l-0.1-1.6l-0.4-1.2l1.3-0.8l1.7-1l3.101-1.6l2-1.101 l2.837-1.576h1.66L340.8,456.1l-2,1.1l-3.1,1.601l-1.7,1l-1.3,0.8l0.4,1.2l0.1,1.6l-0.5,1.7h0.5l0.1,1.7l-0.1,5.3l3.2,3.2 l3.399,3.399l1.7,1.7l2.101,1.601l1.699,1.699l2.301,1.9l1.3,1.1l1,0.801l0.8,0.8l2,1.3l1.8,1.2l1.7,0.899l4.5,2.801l3.6,2.3 l-1.899,9.2l4.8,0.5l1.3,0.1h0.7h1.9l3.899-0.3h0.3h0.2l3.101-0.2l1.8-0.1l0.3,3.3l0.1,0.899l0.301,3.301l0.3,3.6l-0.101,0.9 l0.2,1.399l-0.1,1.5l-0.101,1.4l0.4,1.1v1.4l3.8,0.2l6.9,0.399l1.7,0.2l0.899,0.1l1.5,0.301l1.9,0.3l0.6,0.1l2.101,0.101 l1.1,0.199l2.3,0.4l0.7-0.1l2.5-0.301l-0.1,0.7l5.5,0.3l3.199,0.2l0.101-0.399l1-2.7l2.6-6.101l2-4.699l0.9-2l0.5-1.101l0.1-2 l-0.5-2.7l-0.4-1.2l-1.399-5.5l-1.7-6l-2.4-8.699l-1.6-5.7l-0.5-1.8l-0.4-1.4l-0.699-3.7l-0.2-2.7v-0.8l0.3-1.399l0.9-0.301 l0.199-0.5l-1.6-0.5l-3.4-2.3l-4.8-2.3l-0.402-0.093l0.603,0.093l4.8,2.3l3.4,2.301l1.6,0.5l-0.2,0.5l0.5-0.101l1.9-0.5l2.5-1 l1.9-0.7l2-0.6l1.899-0.5l1-0.2l1.7-0.5l7.1-3.3l0.601-0.1l1.899-0.7l1.601-0.9l1.5-0.7l2.1-1.199l2.2-1.2l0.6-0.2l0.5-0.2 l0.601-0.6l2.7-1.3l1.399-0.7l1.8-0.8l1.7-0.801l0.8-0.3l3.2-1l1.8-0.3l1.801-0.3l0.699,0.2l2.2,0.899l1.601,0.601l0.399,1.1 l0.101,0.3l0.5,1.601l0.6,2.3l1.8,5.399l1.3,3.301l1.9,5.699l1.7,4.2l1.3,4.2l0.7,0.6l0.2,0.801v0.6l0.6,2.4l0.6,1.699l0.301,1 l0.1,1.4l0.7,5.4l2.7-1.101l1.399-0.6l3.2-0.8l3.7-0.601h0.5l2-0.6l2.8-0.8l2.6-0.5l1.101-0.101l1.6-0.399l0.9-0.301l1.6-0.199 l3.9-0.7l1.399-0.4l3.801-0.899l3.6-1l2.2-1.4l-0.2-0.5l0.9-1.1l-0.101-0.7l0.3-0.601l2.2-2.399l0.132-0.189l0.559-0.062 l-0.49,0.751l-2.2,2.5l-0.3,0.6l0.2,0.7l-0.9,1.1l0.101,0.5l1.5,0.5l2.399,1.301l1.101,0.8l0.5,0.2l1.6,0.699l0.8,0.4l0.7,0.4 l0.5,0.199l0.8,0.301l0.7,0.199l0.8,0.5l0.7,0.601l0.601,0.5l0.5,0.399l0.699,0.7l0.5,0.4l0.601-0.4l0.899-0.6l0.801-0.5l1.1-0.7 l1-0.6l1.3-0.7l1.2-0.601l0.6-0.3l0.5-0.1l1.3-1l-0.199,1.1l-0.301,1.101l-0.8,1.6l0.2,0.5l0.1,0.2l-1,0.399l0.301,0.7l-1.101,4 l-0.8,2.601l-0.5,3.899l0.8,3.601l17,0.8l6.101,0.399l1.899,0.101h0.601h0.699h1.801l1.8,0.1h0.5l0.8-0.1l0.8-0.2l1.2-0.2l1.3-0.3 l3.5-1.101l4-1.399l1.2-0.3l0.7-0.2l4.5-1.2l1.899-0.6l3.101-1l2.5-0.9l0.6-0.3l1.9-1l2.3-0.8l0.9-0.4l0.199,0.3l1.4,2v0.601 l-0.5,3.1v0.601l0.6,1v0.6l0.5,0.2l0.5,0.1l0.2,0.7l-0.1,0.6l-0.4,0.9v0.6l1.5,2.301l3.4,1l0.7,1.199l0.6,0.9l0.9,0.6l0.399,0.5 l1.101,1.101l0.5,1.3l0.3,0.6l0.5,0.7l0.7,0.7l0.5,0.6l0.699,1.2l0.2,0.7l0.101,1.4l0.3,3.899l0.1,0.5l0.2,1.101v0.5l-0.1,0.6 l-0.101,0.5l-0.899,2.3l0.6-0.3l1-0.3l1.5-0.8l0.5-0.4l0.7-0.3l1-0.601l1.8-1v-0.5l2.5-1.399l5.9-3.4l7.1-4.1l1-0.7l1-0.4l0.6,0.8 l1.101,2.2l1.7,3.101l1.5,2.6l2.5-0.6l3.8-0.9l3.399-0.6l0.801,0.6l0.1,2.6l0.1,4.4l0.101,1.3L655,534l-0.8,2.2l0.899,0.3 l0.7,0.301l3,0.3l0.101,0.5l0.1,0.6l0.2,1.4l0.3,0.8l0.2,1v1.6l-0.2,0.8l-0.4,0.9l-0.3,0.6l-0.5,0.601l-1,1l-0.9,0.899l-2.699,2.7 l-1.9,2.4l-0.6,0.8l-0.601,1l-0.7,1.5l-0.3,0.9l-0.3,1.1l-0.4,2.9l-0.899,5.9v2.399v1l-0.2,2.601v3.5l-0.3,1.8v0.8l0.2,0.8 l0.399,1.3l0.7,1.8l0.8,1.5l1.801,2.301l1.699,1.6l0.5,0.7l0.5,1l0.5,0.8h0.5l1.5,0.1l0.7,1.301l0.7,0.8l2,0.8h0.5l0.5-0.1 l0.8-0.4l1.2-0.8l0.9-0.9l0.399-0.9V590.1l-0.399-3l0.1-1.2l0.6-1l0.5-0.9l0.101-0.5l0.7-1.8l0.5-1l2.1-2.5l0.4-0.9V576l0.8-1.7 l0.1-0.5v-0.5l0.3-2.699l0.5-0.601l1.601-1l0.1-0.6l0.5-0.8l0.601-0.4l1.199-0.6l0.5-0.5l0.7-1.5v-0.5V563.3l0.3-1.1l0.301-0.6 l0.3-0.7l0.6-0.9l0.6-0.6l0.7-0.4l1.2-0.399V558l-0.3-1.3v-1l0.2-0.8l0.1-1.3l0.2-1l0.3-1.2l0.5-1l0.5-0.8l1-1.5l0.5-0.5l0.9-0.4 l0.5-0.5l0.399-1.1l0.301-0.601l0.699-1.3l0.601-0.3l1.8-0.5l1.2-0.5l1.1-0.6l1-0.801l1.4-1.199l0.5-0.301l1.5-0.399l1.7-0.101 h0.8l1.3,0.801l0.9,0.199l2,1.801l0.5,0.399l1,0.5l0.8-0.1l0.7-0.2l0.5-0.3l0.899-0.2l0.3,0.5l1.601,0.4v-0.4l-0.7-0.6l0.4-0.2 l1.399-0.2l0.101-0.5l-0.4-0.9l0.1-0.5l0.4-0.699l0.5-0.5l0.5-0.601l1-1.1l0.9-1.5l0.399-0.6l0.3-0.601l1.301-2.3l0.699-1.3 l0.301-0.601l0.3-0.699l1-1.801l0.5-2.699L716,524.2l-0.6-0.399L713.1,524.2l1.301-7l-3,0.601l-1.101,0.1l-0.7-0.399l-2.8-2.101 l-1.3-1.1l-0.5-0.3l-1.4,0.5l-0.8-0.4l-0.6-0.6l-0.8-0.601l0.3-0.5l0.3-1.5l0.9,0.2l0.1-0.3l0.1-0.5l0.4-0.7l0.3,0.5l0.7,0.7h0.6 l0.601-0.101l0.7-0.3l0.5-0.6l1.399-1.5l0.601-0.7l1.199-1.5l0.7-1l0.601-0.8l0.5-0.4l0.5-0.8l0.6-0.7v-0.7l0.2-0.6l-0.101-1.8 l0.5-0.8l0.601-0.2h0.6l0.4,0.6l-0.2,0.601l-0.5,1.199l0.5,0.2l0.6-0.399l0.8-0.801l0.7-1l0.5-1.199l0.2-0.601l0.8-0.8l0.8-0.2 l0.601,0.101l0.7-0.2l0.399-0.5l0.601-1l0.5-0.3l0.399-0.601l1-0.5l0.7-0.1h0.9l0.8-0.601l0.5-0.5l0.3-0.6l1-0.4l0.6-1.1l0.5-0.3 l0.601-0.601l0.6-0.3l0.5-0.2l0.7-0.5l0.3-0.6l0.5-0.7l1.101-0.7l0.5-0.5l0.899-0.1l0.8,0.6l0.4,0.7l0.6,0.2l1.2-0.2h0.9 l0.899,0.4l0.801,0.399l0.899,0.4l0.7-0.5l0.8-0.5l0.601-0.4l0.5-0.699l0.699,0.1l0.801-0.4l0.899-0.699l0.5,0.199l0.601,0.2 l0.5-0.2l0.5-0.3l0.399,0.601l1.2-0.601l0.4-0.399l0.3-0.7l1.1-1.101l0.601-0.6l0.699-1.2v-0.6l-0.1-1v-0.9l0.6-1.899l0.801-2.301 l1.699-0.8l0.9-0.3l0.3-0.7l0.101-0.6l0.1-0.5l-0.5-1.3l-0.2-1l-0.3-0.7l-0.9-1.2l-0.6-0.3l-0.8-0.4l-0.8-0.5l-0.4-0.5l-0.1-0.6 l-0.101-0.5l-0.5-0.5l-0.7-1L751,461.6l-0.8-1.3l-0.601-1L749.2,458.7l-0.9-1.5l-0.2-0.5l-0.1-0.6v-0.6l0.1-0.2l0.101-0.5 l0.199-0.8l0.5-1.301l0.7-1.3l0.101-0.7v-1v-0.3l-0.2-0.7l0.3-0.5l0.5-0.699l2.1-3.2l4.3-6.9l1.9,0.3h1.6l0.301-1.5l0.3-1.199 l0.1-0.5l-2.8-1l0.6-1.5l0.4-2.801l0.1-0.899l0.101-0.8l-2.2-0.5l-0.6-0.101l-2.2-0.5l-2.8-0.7l-0.7-0.1l-1.2-0.4l-1.3-0.5 l-2.2-1.199l-0.842-0.468l0.201-0.461l1.74,1.028l1.601,0.8l0.8,0.3l1.8,0.601l5.101,1l0.6,0.1l0.2-0.7l2.3,0.4l2.6-0.2l0.301-2.3 l-0.2-0.7l0.3-2l0.5-3.4l0.5-0.399l2.3-2l4.5-3.8l6.5-0.2L776.7,409.6z M206.183,181.073L206,180.8l-1.301-1.699l-1.5-1.5l-1.5-2 l-1.032-1.238l1.232,1.138l1.5,2l1.5,1.5l1.301,1.7l0.188,0.283L206.183,181.073z"/>
</g>

    <path class = "bezirk" id="Spandau" d="M267.3,249.3l-1.5-0.5l-4.4-2.1l-0.1-0.9l-0.5-1.8l-0.8-1.2l-0.7-0.7l-0.9-0.6l-0.7-0.4l-0.5-0.2l0.3-1.7l1-4.6l-3.5-10.3 l0-0.9l0-0.4l-10.3-0.3l-3.6-0.3l-2.4-0.5l-1.8-0.6l-1.8-1.2l-3.1-2.2l-10.3-8.4l-1.8-1.4l-7.1-5.5l-1.4-1l-0.5-0.7l-0.1-0.1 l-0.3-0.5l-0.3-0.8l0.2-0.6l-0.2-0.5l-0.2-0.5l-0.1-1.2l0-1.4l0.1-1.5l0-0.7l-0.2-0.6l-0.1-0.3l-0.5-0.9l-0.5-1.7l-0.2-1.6l-0.8-2.2 l-0.7-1.6l-0.4-2.5l-0.6-0.9l-1.3-1.7l-1.5-1.5l-1.5-2l-1.3-1.2l-1.2-1.8l-0.2-1.7l-0.1-1l-0.4-2.8l-0.3-3.4l-0.8-2.3l-0.6-3.2 l-3.5-0.5l-1.8,0.1l-0.8-0.1l-1-0.3l-0.9-0.2l-0.9-0.3l-1.2-0.2l-1-0.3l-0.5-0.3l-2.5-1.4l-0.7-0.5l-0.5-0.3l-0.7-0.5l-0.6-0.4 l-0.7-0.2l-1.4-0.2l-0.8-0.5l-0.6-0.2l-0.7-0.3l-2.8-0.5l-1.4-0.4l-1.2-0.4l-0.6-0.3l-1.2-1l-0.7-0.6l-1.5-0.7l-1-0.5l-0.8-0.4 l-0.5-0.4l-1.4-1.5l-0.7-0.3l-0.6-0.2l-0.7-0.1l-1.1-0.3l-0.8-0.3l-1.1-0.5l-0.8-0.5l-0.8-0.2l-1.2,0l-1.4-0.1l-1.4-0.3l-0.7-0.3 l-1.1-1l-0.5-0.5l-2.3-1l-2-0.4l-0.7-0.3l-0.8-0.9l-0.5-0.4l-2.2-1.5l-3.2,0.8l-2,0.5l-2.6,0.8l-0.9,0.4l-0.7,0.5l-0.5,0.5l-0.4,0.5 l-0.8,1.4l-0.7,1.3l-1.7,2.4l-2.7,3.3l-3.1,1.8l-3,1.9l-4.3,1l-1.5,0.6l-2.7,2.4l-3,0.8l-1.7,0.1l-1.7-1.2l-1,0.6l-0.2,2.1l0.9,0.1 l-1.4,4.9l1.8-0.2l0.5,0.4l0.4,0.5l0.6,1.9l0.3,1.5l0.4,1.3l0.8,0.8l2.9-0.7l0.8-0.2l1.6-0.6l0.8,0.1l1,0.1l0.9-0.6l2.2-1l0.8-0.3 l1-0.2l0.9-0.8l3-1.3l2.4-0.8l0.4,0.7l0.7,0.5l0.5,0.7l0.2,1.5l0.5,1.4l0.6,1.3l0.6,1.5l0.3,1.3l0.2,1.5l-0.1,1.1l0.1,1.7l-0.1,0.7 l0.1,0.9l-0.2,0.8l-0.2,2.3l-0.4,0.6l-0.1,0.6l0.1,0.8l-0.4,1.8l-0.5,1.1l-0.7,0.4l-0.2,0.5l0,1l-0.9,2.5l-0.3,1.3l-0.1,0.2h0 l-0.7,1.4l-0.5,0.8l-1,1.5l-0.3,0.6l-0.1,0.7l-0.5,4.7l-0.5,0.5l-0.9,0.9l0.3,0.5l0.4,2l0.2,0.5l0.2,0.5l0.1,1.2l0,1.4l0.3,1.9 l0.1,1.1l-0.1,1.1l-0.2,0.7l-0.7,0.9l-0.3,0.8l-0.1,0.7l-0.7,0.8l-0.9,0.2l-0.3,0.6l-0.2,0.1l-0.2,0.1l-0.8,0l-0.7-0.1l-1-0.3 l-0.6-0.1l-2.7-0.2l-1.6-0.1l-0.7-0.2l-0.7-0.4l-1.3-0.8l-1.2-1.3l-1.3-1.9l-1.1-1l-0.7-0.5l-0.6,2.4l-1.2,4.3l-1.1,4l-0.6,2.2 l-1,3.5l-1.1,3.9l0.1,1.5l-0.9,6l-0.4,1.8l-0.1,0.6l-0.4,2l-0.2,0.8l-0.5,1.3l-1.4,3.4l-0.5,1.2l-0.7,1.7l-0.5,1.3L94,254l-0.3,1 l-0.2,0.8l-0.1,0.8l0,0.6l-0.1,0.9l-0.1,0.6l-0.1,0.5l0,1.3l0,0.9l0,0.6l-0.1,1.2l0,1l-0.1,2.5l-0.2,1.6l0.1,0.8l0,0.5l0.1,1.1 l-0.3,2.1l-0.3,1.3l-0.1,0.7l-0.1,0.6l-0.1,0.8l-0.1,1l-0.3,1.8l1.2,0.1l0.7,0l0.9,0l0.4-0.1l3-0.5l1.8-0.2l1.5,0l0.5-0.1l1.4-0.4 l0.9-0.2l0.9-0.2l1.2-0.1l1.2-0.2l2.9-0.7l1.3-0.2l0.6-0.1l1-0.2l0.9-0.3l1.2-0.4l2-0.6l1.3-0.2l0.5,0.4l0.5,0.3l0.5,0.3l0.5,0.5 l0.3,0.9l0.2,0.8l0.6,0.9l0.9,0.1l1.1,0.3l0.7,0.4l0.5,0.3l2,1.3l1,0.6l0.8,0.5l0.8,0.7l0.6,0.5l0.7,0.5l1.3,0.9l0.5,0.3l0.5,0.3 l1.1,0.7l0.5,0.3l1,0.3l0.9,0.4l0.2,0.1l1.5,1l1.3,0.9l1,0.6l0.9,0.6l0.5,0.3l2.8,1.6l0.7,0.4l0.9,0.5l-0.8,0.7l-0.3,0.6l-4.2,4.7 l-3.5,3.8l-1.9,1.9l-0.6,0.7l-1,1.2l-0.6,0.7l-0.2,0.2l-1.6,1.8l-0.6,0.7l-0.5,0.6l-0.6,0.8l-0.5,0.6l-0.4,0.5l-1.1,1.3l-1.9,1.9 l-0.5,0.6l-2.6,3.3l-3.5,4.4l-2.9,3.7l-3.6,4.6l-1.4,1.7l-0.8,1l-0.5,0.7l0,0l-0.8,1.1l-1.2,1.6l-1.8,2.5l-1.4,1.8l-1.7,2.1 l-1.5,1.5l-0.8,0.6l-3.3,0.8l-3.1,0.7l-2.8,0.9v3.3v0.8l-0.1,0.6l-0.5,1.3l-0.8,2.2l-0.7,1.5l-2.3,3l0.1,2.2l-2,1.9l-0.9,1.8 l-0.5,1.3l0.5,2.2l0.2,1.3l0,0.7l0,2.5l-0.9,3.4l2,2.1l0.3,2.1l-0.6,6.2l-0.2,0.8L85,391l-0.4,1.2l-0.8,1.2l-0.6,1l-0.6,1.3l1.8,1.4 l0.6,0.6l0.5,0.6l0.6,1.1l1.3,0.7l0.8,0.4l0.5,0.6l-1.5,1l1.8,2.5l1.4,0.1l1,1.3l0.4-0.5l1.3,1.1l1.4,2.4l0.9,0.9l0.4,0.5l0.5,0.9 l0.5,0.5l1.5,1.6l4.5-0.9l15-3.5l20.5-13.7l0.3-0.2l7.1-4.8l17.5-15l1.4-5.7l0.7-2.8l1.6-6.9l-0.7-11.4l2.8-9.6l-3.5-11.4l3.1-8.4 l0.4-6l0-0.3l2.4-1.8l2.3-1.7l6.4-0.1l8.3-3.9l1.2-1.6l-0.4-3.2l2.3-6.5l0.3-1.4l0.7,0.2l0.7,0.2l0.5,0.1l1.1,0.1l1.5,0.1l0.3-0.7 l-0.7-0.2l0.5-1.2l0.2-0.8l0.6-1.4l1.1-1.7l1.3-2l0.9-0.5l0.3,0.5l1.3-0.1l-0.7-1.1l-0.2-0.8l-0.3-2.4l-0.4-7.7l0-1.3l0.2-1.1 l0.2-0.8l0.4-1.6l0.8-2.2l0.8-2.1l0.4-1l0.4,0.1l0.2,0l1.4,0.4l2,0.2l1.3,0.3l1-0.2l0.8-0.4l2.2,0.2l0.4,0l5.6-0.6l1.4,0.1h1 l1.1,0.4l0.2-0.5l7.4,3.1l0.8,0.3l0.4-0.6l-0.7-1.7l-0.1-0.9l-0.1-1.2l-0.2-0.7l-0.4-0.6l-0.6-0.4l1.3-1.3l0-0.3l0.8,1.6l0.6,0.3 l0.8,0.3l0.5,0.2l0.8,0.1l1.2,0l1.6,0.1l3.9-0.2l2.4-0.3l0.8-0.2l2.3-1.2l1-0.4l1.2-0.4l1.3-0.2l0.7-0.1l0.4,0l1.6-0.2l0.8-0.1 l0.5,0l0.7,0l1.2,0l1.5,0.2l0.8,0.1h0.8l0.9-0.1l2-1.3l0.9-0.7l0.7-0.4l0.9-0.2l1,0l1.2,0.4l0.3-0.9l0-0.1l0.7-3.5l0.5-2.4 L267.3,249.3z"/>
    <path class = "bezirk" id="Reinickendorf" d="M381.2,187.6l0.4-0.6l-5.6-5l-0.9,0.5l-2.8-0.8L358,168.5l-3.8-3.3l-16-14.1l-0.3-0.3l0.8-0.2l3.1-0.9l2.7-0.3l3.9-0.1 l1.7-0.2l1.9-0.4l0.1-0.2l1-1.4l2.7-4l0.3-0.4l3.4-4.3l0.5-0.6l0.8-1.1l2.1-2.7l4.9-12.1l0.2-0.5l0.5-1.1l0.2-0.4l0.1-6.1l-0.4-3.2 l-1-3l-1.7-4l-3.1-7.4l-1.8-3.4l-2.4-4.1l-0.3-0.1l-0.5,0.2l-0.5,0.2l-0.5-0.5l-0.8,0.3l0.5,0.4l0.5,0.4l-0.6,0.5l-1.1,0l-0.4-0.5 l-0.6,0l-0.8,0.5l-0.3,0.5l-0.6,0l-0.5,0.4l-0.7-0.1l-0.5,0.3l-0.5,0.9l-0.9,0.2l-0.6,0.4l-1-0.2l-0.5-0.1l-0.5-0.3l-0.4-0.2 l-0.5,0.3l-0.4,0.4l-1.1,0.1l-0.5,0.1l-0.3,0.2l-0.3,0.5l-0.1-0.5l-0.6-0.2l-0.5,0.2l-0.3-1.6l-4.7,0.4l-2.8-0.2l-0.9,0.4l-0.6,0 l-0.7,0.3l-0.8-0.1l-0.9,0.3l-0.6-0.2l-1,0.1l-0.8-0.2l-0.1,0.5l-0.4,0.1l-0.9,0.2l-0.4,0.4l-0.3-0.2l-3.8-2.5l-0.5,0.2l-0.5-0.3 l-1.6-1l-1.2-0.7l-0.6-0.3l-1.8-0.5l-1.5-0.4l-0.6-0.3l-1-0.4l-0.7-0.2l-1.2-0.2l-2.1-0.2l-1.2-0.2l-0.4-0.1l-1.9-0.8l-2-0.6 l-0.5-0.2l-1.2-0.6l-0.9-0.3l-0.5,0l-1.7,0.2l-1.8,0.2l-0.8,0l-1.4,0.4l-4.8,0.7l-0.2-0.2l0.6-0.5l2-0.8l0.9-0.6l0.4-0.2l2.6-0.8 l1.3-1l0.3-0.6l-0.6-0.2l0.4-0.8l-0.3-0.5l-0.1-0.5l-0.4-2.3l-1.9-3.8l-1.3-2.4l-0.5-1.4l0-0.8l1.3-0.8l-0.2-0.8l-0.2-1.1l-0.6-1.4 l1-0.2l0-0.6l1-0.4l-0.1-0.9l0.9-1.2l0.2-0.9l0.3-1.5l-0.1-0.4l-0.2-1.8l-0.8,0.2l-1.8-3.4l-0.9-2.4l-5.8-11.1l10.3-6.9l-0.5-0.2 l-0.8-1.2l-1.4-1.5l-0.5-1l-2.9,0.3l-1.6,0.3l-0.7,0.1l-0.6,0l-1-0.2l-0.9,0h-2l-1.9,0l-1,0l-0.5,0l-0.5,0L280,29l-0.5-0.2l-3.5-0.7 l-1.3-0.2l-0.5,0.1l-0.5,0l-0.6-0.1l-0.7-0.2l-0.7-0.3l-0.7-0.2l-0.8-0.1l-0.8-0.1l-1.1-0.4l-0.4,6.6l-0.3,4l-0.2,3.6l3.4,0.2l0,0.7 l-0.2,3.1l-0.8,3.3l0.4,1l-0.3,2.9l-0.8,9.1l-0.7,0.1l-1.4,0.2l-4.9,1.2l-0.6,0.1l-2.2-0.1l-2.8,0.8l-2.4,0.2l-4.5-1l-3.3-0.8 l0.1,1.1l0.1,0.6l0.1,0.8l0.3,1l0.3,0.7l0.8,1.5l0.3,0.6l0.5,1.4l0.5,1.9l0.2,1l-0.1,2.3l-0.1,1.5l0,0.7l-0.1,1.2l-0.1,1.8l-0.2,2 l-0.1,1.6l-0.1,1.7l0,1l-0.2-0.1l-0.7-0.5l-0.9-0.2l-1.3-0.6l-1.3-0.3l-0.6,0.1l-1.9,0H241l-0.9,0.3l-2,0.1l-0.6,0l-1.4,0.3l-0.6,0 l-1.8-0.1l-0.6-0.1l-0.9-0.1l-1.3,0.3l-0.5,0.2l-0.5,0l-1.1-0.1l-2.5-1.4l-0.5-0.2l-0.6-0.1l-0.7,0.1l-0.6,0.2l-0.4,0.2l-1,0.2 l-5,0.2l-3.3,0.7l-1.8,0.1l-0.7-0.1l-1.2-0.1l-0.7-0.1l-0.7-0.1l-1.4-0.3l-0.5-0.8l-0.5,0l-1-0.3l-1.7,0.4l-1.3-0.1l-0.9-0.1l0,0.7 l-0.1,0.8l-0.2,0.7l-0.1,2l-0.1,1l-0.3,1.1l-1.9,4.1l-0.3,0.6l-1.2,3l-1.6,1.5l-0.5,0.4l-1.2,2.6l-1.6,3.4l-3.1,6.2l-0.8,1.7 l-0.9,1.8l-0.7,1.2l-0.3,0.6l-0.4,0.6l-0.5,0.5l-0.8,0.4l-2.2,1l-0.4,0.2l-0.5,0.3l-0.7,0.7l-0.2,0.5l-0.1,0.7l0,0.8l0.2,1.5 l0.5,1.3l0.6,0.8l0.9,1l2.2,3.2l1.5,2.5l0.7,1.1l2,2.2l1.5,1.6l0.8,0.7l3,2.2l1.3,1l3,3.1l0.5,1l0.2,0.4l0.4,1.8l-0.4,1.2l-0.9,3 l-0.8,2.6l-0.4,1.4l-0.9,1.6l0.6,3.2l0.8,2.3l0.3,3.4l0.4,2.8l0.1,1l0.2,1.7l1.2,1.8l1.3,1.2l1.5,2l1.5,1.5l1.3,1.7l0.6,0.9l0.4,2.5 l0.7,1.6l0.8,2.2l0.2,1.6l0.5,1.7l0.5,0.9l0.1,0.3l0.2,0.6l0,0.7l-0.1,1.5l0,1.4l0.1,1.2l0.2,0.5l0.2,0.5l-0.2,0.6l0.3,0.8l0.3,0.5 l0.1,0.1l0.5,0.7l1.4,1l7.1,5.5l1.8,1.4l10.3,8.4l3.1,2.2l1.8,1.2l1.8,0.6l2.4,0.5l3.6,0.3l10.3,0.3l32.8,1.2l9.5-16.8l0.7-0.5 l7.6-2.8l4.2-0.9v0l0.2,0l1.7-0.4l0.6-0.1l0.7-0.2l1-0.5l0.5-0.5l0.4-0.6l0.3-0.7l0.2-0.8l4.5,0.4l0.9,0.9l5.9-5l13,4.3l4.7,0 l3.6,0.1l0.4,0l2.5,0.2l0.3,2.4l4.7-1.2l0.6,5.5l1.5-0.2l0.3-0.2l4.6-4l6.3-0.2l1.8-9.6l2.8-0.5l3.4-2.1l3.5,0.5l0.9-0.8l0.5-0.6 l0.4-0.4L381.2,187.6z M290,85.5L290,85.5"/>
    <path class = "bezirk" id="Pankow" d="M524.5,54.8l-1.3,0.1l-0.8-2.4l-0.6-1.7l-3,1l-1.1,0.5l-2.9,1.4l-2.7-2.6l-1.9-1.7l-1.2-1l-1.2-1.2l-0.8-0.4l-1.1-0.7 l-0.9-0.3l-0.5-0.3l-0.6-0.5l-1-0.6l-1.1-0.7l-0.6-0.1l-1.6-1l-0.9-0.6l-1.3-1.1l-2.6-1.4l-1.8-1.5l-1-1l-1.3-1.5l-0.6-0.6l-4.5-6.2 l1-5.3l0.3-2.3l0.3-2.7l0.4-2.4l0.3-2.5l0.3-1.6l0.7-1.6l-0.3-0.8l-2.2,1.2l-1.1,0.5l-7.5,3l-2.2,1.7l0-1l-0.5-1.1l-0.6-1l1.4-4.8 l4-6.6l-0.5-1l-2.7,2.8L475,1.6l-5.3,6.9l-4.9,6.9l-6.9-3.2L458,13l-4.3,4.9l-0.5,0.3l-3.7,4.2l-0.9,0.9l3.3,1.3l9.2,7.7l11.8,1.7 l0.3,0.5l0.3,0.5l0.2,0.9l-0.1,0.6l-0.1,0.6l-0.2,1.3l-0.6,0.6l-0.9,0.5l-0.9,0.8l-1.2,1.3l-0.5,0.7l-0.7,0.3l-0.6-0.1l-0.6,0.1 l-0.6-0.1l-0.7,0l-0.6,0.3l-1.2,0.9l-0.5,0.5l-0.7,0.4l-0.7,0.3l-0.6,0.5l-0.4,0.6l-0.7,1.4l-1.1,0.5l-0.5,0.2l-0.9,0.7l-3.3-0.4 l-3.8-0.5l-1-0.2l-0.1-1l-0.2-0.7l-0.5-0.1l-0.7-0.1l-0.9-0.1l-2.2-0.1h-0.6l-0.7,0.2l-0.6,0.3l-0.8,0.3l-2.2,0.1l-0.7,0.7l-0.6,0.1 l-0.4,0l-0.4-0.5l-0.6,0.4l-0.7,3.8l-0.5,2.8l-3.4,0.9l-1.1,0.3l-1.3,0.4l-0.4,0.5l-0.2,1.7l-0.3,2.2l-0.1,0.9l0.3,2.2l0.2,1.4 l0.1,0.8l0.5,0.6l0.1,0.8l-1.4,1.1l-0.7,0.3l-4.3-0.3l-0.7,0.4l-0.6,0.4l-0.5,0.4l-2.3,2l-0.7-0.6l-2.3-1.8l-1.7-1.3l-3.2-2.4 l-0.6-0.5l-2.1-2.7l-0.1-0.5l0.4-0.7l0-0.5l0-0.5l-0.3-0.5l-0.8-0.1l-0.6-0.2l-0.6-0.7l-0.5-0.6l-2.4,0.6l-1.4,0.4l-1.1,0.5L402,58 l-0.7-0.9l-0.7-0.6l-1.6-1l-1.1-0.8L397,54l-1.3-1.2l-1.6-1.7l-0.5-0.6l-0.7-0.7l-1-1.2l-0.4-0.3l-0.5,0.2l-0.5,0.7l0.4,0.3 l-0.9,0.7l-0.7,0l-1.4-0.4l-0.2,0.8l-0.1,0.8l-0.8,1.4l-0.3,0.4l-0.4,0.6l-0.2,1l-0.2,0.8l-0.1,1l-0.5,0.2l-0.8,1.1l-0.7,1l-0.3,0.6 l-0.1,0.6l0,1l0,1.1l0,0.4l0,0.9l-0.2,0.6l-0.3,0.6l-0.2,1.1l-0.4,0.7l-1.1,1.2l-0.5,0.2l-0.6,0.3l-1.5,0.7l-0.7,0.2l-0.7,0 l-0.5-0.1l-0.5-0.1l-0.5-0.1l-0.4,0.1l-0.7,0.3l-0.5,0.7l1.1,0.8l0.2,0.6l-2.4,1l-0.3,0.5l-0.6,0.8l-0.7-0.8l-0.6,0.8l-0.6,0.8 l-0.2,0.8l-1.6,2.6l-0.6,0.3l0.8,1.1l0.8,1.7l-0.7,0.6l-2.6,2.5l-1.5,0.6l-0.6,0.5l-0.7,0.1l-0.7-0.3l-0.5,0.6l-0.6,1l-0.2,0.6 l-1.1,0.9l-0.5-0.2l-0.5-0.4l-0.5,0.3l0.3,0.6l-0.6,0l2.4,4.1l1.8,3.4l3.1,7.4l1.7,4l1,3l0.4,3.2l-0.1,6.1l-0.2,0.4l-0.5,1.1 l-0.2,0.5l-4.9,12.1l-2.1,2.7l-0.8,1.1l-0.5,0.6l-3.4,4.3l-0.3,0.4l-2.7,4l-1,1.4l-0.1,0.2l-1.9,0.4l-1.7,0.2l-3.9,0.1l-2.7,0.3 l-3.1,0.9l0.2,0.1l-0.7,0.3l16,14.1l3.8,3.3l14.4,13.2l2.8,0.8l0.9-0.5l5.6,5l-0.4,0.6l1.6,1.6l-0.4,0.4l-0.5,0.6l0.6,0.7l-0.4,0.5 l2.1,2l0.2,0.5l0.7,0.5l1.4,1.3l0.7,0.7l0.9,1.2l1,1.6l0.7,1.7l0.6,1.7l0.5,2.4l0.3,1.6l0,1.4l0,0.4l0,0l0,0.7l0,1.5l0.1,0.9 l0.2,1.4l0.4,3l0.1,0.9l-0.1,0.9l-0.2,0.8l-0.3,1l-0.5,0.8l1.4-0.2l2.2,7.5l3.5,10.8l1-0.4l0.1,0.4l2.1,7.1l0.9,3l0.9,0.7l-2,3.5 l-0.4,2.1l-0.1,0.9l-0.4,1.7l1.8,0.6l2.7,0.7l1.7,0.5l3,1.4l1,0.5l0.6,0.4l2.5,1.9l2,1.4l4.4-4.6l1.2,0.1l0.7-0.3l4.9-0.9l7.7-1.5 l1,1.4l2.7-2.7l1.5-1.4l5.4,8.2l3.5-1.7l1.5-0.7l1.3,2.7l1.7,3.9l1.1,2.7l-0.7,2.1l0.5,0.2l1.3,0.4l5.2,1.6l0.7,0.2l1.6-0.2l6-1 l2.9-0.3l-1.4-2.4l-1.3-1.4l-0.3-0.2l-1.1-0.8l-2.1-1.1l-3.9-0.8l-2.8-1.5l-1.7-1.3l-0.7-1l-1.5-3l4.6-1.6l2.9-5.8l1.2-0.9l3-1.5 l1.6-1.2l-1-2.6l-1-0.5l-0.5-0.4l0.6-1.9l0,0l0.4-1.4l2.5-3l0.2-0.3l-2.7-13.8l1.1,0.1l1.2,0.8l4.5,0.1l6.3,0.2l0.9-1.1l-0.7-1.8 l0.4-0.6l1.7-0.1l0.5-0.2l3.7-4.6l0.7-0.4l4.4,1.2l4.3,1.6l1.4-4.9l0-1l-0.1-1.5l-0.7-1.9l-4.1-6.7l-1.1-1l-3.3-1.6l-1.6-0.2 l-0.2-0.5l0.3-1l0.4-2.5l0.1-0.7l-2.5-0.4l0.1-0.4l0.3-1.3l0-0.8l-0.4-0.7l4.1-5.3l0-0.1l-4.9-4.1l-0.3-2l-0.8,0.3l-0.9-0.2l-1.3,0 l-0.7-0.2l0.4-1l-0.3-0.5l0.1-1.5l0.3-1l-0.2-0.7l0.4-4.3l-0.3-2.4l-0.2-0.8l0-1.1l0-1.5l0.8-4.1l1.1,0.3l0.5-1.2l1.7-0.1l1.1-2.8 l1-2.9l0.2-0.6l0-0.1l0.7-1.3l2.1-2.4l0.6-0.5l17.3-11.2l-0.2-0.5l-2.5-5.8l-0.9-2.1l-1.8-4.3l-2.9-2.4l0-0.6l-0.2-2.4l1.4-7 l0.1-0.6l0.7-1.9l0.9-2.5l0.3-0.7l0.8-2.1l1.2-3.5l1.6-3.5l0.2-0.1l0.7-0.3l0.6-0.4l0.3-0.1l0.1-0.6l0-1l0-3l0.2-4.1l0.1-1.9 l0.8-0.7l1.4-0.9l2.7-1.7l0.6-0.3l1.2-0.6l3.9-1.8l2.1-1.2l0.7-3.4l2-6.3l1.3-5.1l0.2-1l0.1-0.5l0.4-1.4l0.2-1.3l0.2-1.2l0.5-5.1 l0.1-1.2L524.5,54.8z"/>
    <path class = "bezirk" id="Lichtenberg" d="M573.7,178.1l-1.1-2.7l-2.2-3.9l-1-1.2l-1.3-1.7l-0.6-0.7l-1.5-1.7l-2.6-2.4l-2.1-1.9l-1-0.9l-0.4-0.3l-1.8-1.3l-2.7-1.9 l-1.2-0.7l-0.7-0.4l-1-0.6l-0.9-0.4l0.2-0.5l-0.9-0.4l-5-1.9l-3.4-1.3l-1.4-0.5l-1.4-0.5l-1.2-0.4l-5.3-1.9l-2.7-0.8l-4.7-0.9 l-2.3,0.1l-3.2,0.2l-0.5,0.1l-1.1,0.1l-5.7,0.4l-3,0.1l-2.4-5.8l-0.8-1.7L489.5,151l-0.6,0.5l-2.1,2.4l-0.7,1.3l0,0.1l-0.2,0.6 l-1,2.9l-1.1,2.8l-1.7,0.1l-0.5,1.2l-1.1-0.3l-0.8,4.1l0,1.5l0,1.1l0.2,0.8l0.3,2.4l-0.4,4.3l0.2,0.7l-0.3,1l-0.1,1.5l0.3,0.5 l-0.4,1l0.7,0.2l1.3,0l0.9,0.2l0.8-0.3l0.3,2l4.9,4.1l0,0.1l0,0l-4.1,5.3l0.4,0.7l0,0.8l-0.3,1.3l-0.1,0.4l2.5,0.4l-0.1,0.7 l-0.4,2.5l-0.3,1l0.2,0.5l1.6,0.2l3.3,1.6l1.1,1l4.1,6.7l0.7,1.9l0.1,1.5l0,1l-1.4,4.9l-4.3-1.6l-4.4-1.2l-0.7,0.4l-3.7,4.6 l-0.5,0.2l-1.7,0.1l-0.4,0.6l0.7,1.8l-0.9,1.1l-6.3-0.2l-4.5-0.1l-1.2-0.8l-1.1-0.1l2.7,13.8l-0.2,0.3l-2.5,3l-0.4,1.4l-0.6,1.9 l0.5,0.4l1,0.5l1,2.6l-1.6,1.2l-3,1.5l-1.2,0.9l-2.9,5.8l-4.6,1.6l1.5,3l0.7,1l1.7,1.3l2.8,1.5l3.9,0.8l2.1,1.1l1.1,0.8l0.3,0.2 l1.3,1.4l1.4,2.4l1,1.4l0.6,1.4l0.5-0.2l1.6,4.1l0.8,3.1l1.5,0.7l-1.9-0.5l-0.7,2.5l0.4,2.2l0.2,0.9l0.3,1.3l-0.2,1l-0.2,0.7 l-0.3,0.6l-0.3,0.5l-0.7,1.2l-0.6,1.1l-1,1.7l0.8,0.4l-0.9,0.5l0,0.3l-0.8,0.8l-0.9,1.3l-0.1,0.7l-0.6,1.2l-0.6,1.1l-0.7,2.6l-1,4.8 l1.2,0.4l1.4,0.3l1.7,0.3l4.6,2.9l1.1,2.1l2,2.9l4.3,4.7l0.4,0.6l1,0.3l0.8,1.1l1.5,1.3l0.3,0.5l0.1,0.5l4.1,2.1l-0.5,1.4l2.1,3 l0.4,1l1.1,3.6l0.1,0l2.4-0.3l1.4,0l4.3,1.5l0.1,0l0,0.1l0.3,1l0.9,2.7l1.1,3.4l3.9,5.9l4.2-1l1.9-0.4l0.6-0.1l0.5,0l0.5,0.1 l0.5,0.1l0.9,0.4l4.6,2.5l1.3-2l1.2,1.4l1.4,1.7l6.9,9.8l1.8-2.1l6-7.2l2.2-3l2.1,1.5l1,0.2l0.1,0l5.8,1l-0.4-1l0.9-0.1l0.5,0.1 l0.9,0.3l0.6,0.1h2.5l-0.7-6.3l-3.2-4.9l-3.9-21.6l-0.1-0.5l-0.2-0.6l-0.4-0.9l-0.4-1.4l-0.3-2.3l-0.4-1.4l-2.2-3.6l-0.2-0.3 l-1.3-1.4l-0.4,0.6l-0.2,0.3l-0.5,0.3l-0.1-0.2l-1.1-2l-3.5-6.5l-0.5-1.1l1.8-0.1l0.5-0.3l0.2-0.6l-0.5-2.9l-0.1-2.6l0.1-1.6 l-0.5-0.4l0-1.5l1.6,0.1l0-0.2l0-0.4l0-0.6l0-0.6l-0.1-0.6l-0.2-0.7l-0.2-0.5l-0.4-0.7l-0.4-0.5l-0.5-0.5l-0.5-0.4l-0.5-0.3 l-0.4-0.2l-0.5-0.2l-0.8-0.1l-1-0.1l-0.9-0.1l-0.8-0.1h-0.6l-0.7,0.1l-1.5,0.2l-3.4-0.2l-0.6,0l-6.6-0.3l0-0.5l0-0.4l0.2-3.5 l0.3-7.8l0.2-7.3l-0.3-6.4l-0.3-4.7l-0.2-2.5l-0.3-1.5l-1.6-3.3l0-0.3l0,0.3l1.3-0.2l1.9-0.2l1.3-0.2l1.1-0.2l0.5-0.2l0.8-0.3l1-0.5 l0.5-0.3l2.4-1.2l1.5-0.7l2.2-0.9l2.5-0.9l-7.8-29.6v0l2.7-2.3l1.3-1.2l2.8-2.7l2.2-2.2l3.1-3.9l3.1-3.8l1.2-1.5v0l0.3-0.3l1.2-0.2 l2.1-1.2l1.2-1.7l0.6-0.3l4.2-1.7l0.8-0.3l5.8-2.3l5.5-2.1l2.1-0.8l2-1l1.2-0.8l1.3-2.6l0,0L573.7,178.1z"/>
    <path class = "bezirk" id="Marzahn-Hellersdorf" d="M670.9,263.2l-0.2-0.5l-0.2-1.3l-0.7-3.2l-0.3-1.5l-1.5,0l-4.9,0.1l-2.8,0.2l-1.4,0l-2.1-0.2l-1-0.1l-0.6-0.1l-0.7-0.3 l-1.2-0.4l-1.1-0.2l-0.5-0.1l-3.8-0.1l-2.9,0l-1-0.1l-1.5,0l-0.9,0.1l-1.9,0.3l-2.5,0.4l-0.7,0.1v0l-0.2,0l-0.1-0.7l-0.2-1.3 l-0.2-1.3l-0.2-1.3l-0.2-1.6l1-1l-0.2-1.1l-0.2-1.2l-0.2-1.3l-0.2-1.6l-0.2-1.5l3,0.8l0.6-0.2l0.6-0.6l0.5,0.2l1.2,0.4l0.5-0.4 l0.9-0.3l1.4,0.4l0.5-0.1l0.5,0.3l0.5-0.5l0.6-0.8l0.6-1l0.7-1.1l0.8-1.4l0.5-0.9l-0.1-0.5l-0.3-1.3l-0.1-0.7l-0.9,0l-0.7,0 l-0.6-0.2l-0.8-0.5l-0.9-0.4l-0.5-0.1l-1.2-0.2l-1.3-0.2l-0.8-0.1l-1.9-0.3l-2.6-0.3l-1.3-0.2l-1.5-0.1l-2.3-0.3l-1.2-0.1l-0.7-0.1 l-0.6-0.2l-0.5-0.1l-1.2-0.2l-3.8-1l-3.2-0.8l-0.3-0.1l-0.8-0.2l-2.4-0.6l-4.4-1.2l-3.8-1.1l-1.8-0.5l-3.4-0.9l-2-0.6l-0.5-0.1 l-2.7-0.7l-3-0.8l-0.5-0.1l-0.5-0.2l-0.1-0.5l0.2-0.7l0,0l0.4-1.1l0.1-0.6l0-0.6l0.3-0.7l0.3-0.7l0.2-0.7l0.1-2.4l0.1-2l-0.1-0.8 l-1.3-2.7l-0.2-0.7l-1.4-2l-0.4-1.1l-0.2-1l-0.1-2.1l-0.3-1.3l-0.1-0.6l-0.1-0.6l-0.1-1.2l-0.1-0.9l-0.8-2.4l0-0.7l-0.1-1.2l0.2-1 l0-0.6l-0.1-1l-0.1-0.5l-0.2-0.9l-0.3-1l-0.8-2.3l-0.7-1.3l-1.1,0l-1.3,0l-1.3-0.2l-0.5-1.7l-0.3-1.1l-0.4-0.6l-0.9-0.7l-0.5-0.4 l-0.8-0.2l-1.3,0.4l-1.9,0.6l-0.8-0.1l-1.3-0.1l-0.5,0.4l-0.7,0l-0.1-0.5l-0.3-0.7l-0.5-1.2l0,0l-1.3,2.6l-1.2,0.8l-2,1l-2.1,0.8 l-5.5,2.1l-5.8,2.3l-0.8,0.3l-4.2,1.7l-0.6,0.3l-1.2,1.7l-2.1,1.2l-1.2,0.2l-0.3,0.3l-1.2,1.5l-3.1,3.8l-3.1,3.9l-2.2,2.2l-2.8,2.7 l-1.3,1.2l-2.7,2.3v0l7.8,29.6l-2.5,0.9l-2.2,0.9l-1.5,0.7l-2.4,1.2l-0.5,0.3l-1,0.5l-0.8,0.3l-0.5,0.2l-1.1,0.2l-1.3,0.2l-1.9,0.2 l-1.3,0.2l1.6,3.3l0.3,1.5l0.2,2.5l0.3,4.7l0.3,6.4l-0.2,7.3l-0.3,7.8l-0.2,3.5l0,0.4l0,0.5l6.6,0.3l0.6,0l3.4,0.2l1.5-0.2l0.7-0.1 h0.6l0.8,0.1l0.9,0.1l1,0.1l0.8,0.1l0.5,0.2l0.4,0.2l0.5,0.3l0.5,0.4l0.5,0.5l0.4,0.5l0.4,0.7l0.2,0.5l0.2,0.7l0.1,0.6l0,0.6l0,0.6 l0,0.4l0,0.2l-1.6-0.1l0,1.5l0.5,0.4l-0.1,1.6l0.1,2.6l0.5,2.9l-0.2,0.6l-0.5,0.3l-1.8,0.1l0.5,1.1l3.5,6.5l1.1,2l0.8-0.4l0.4-0.6 l1.3,1.4l0.2,0.3l2.2,3.6l0.4,1.4l0.3,2.3l0.4,1.4l0.4,0.9l0.2,0.6l0.1,0.5l3.9,21.6l3.2,4.9l0.7,6.3l1.9,0.1l1.9,0.4l1.2,0.2 l1.4,0.1l3.9-0.2l2.5-0.9l0.2,0.4l0.2-0.3l0.5-0.4l0.3-0.5l0.9-0.8l1.2-0.8l0.1-0.1l3.4-1.5l2.2-1.4l0.1,0.6l0.2-0.7l0.7-1.8 l0.5-2.8l5.2-2.7l2.2,2l1.2-0.6l3.1-1.4l0.4-0.2l4.9,3.8l2.2,1.8l0.9,0.7l1.9,1.6l0.8,0.8l1.1,0.8l0.9,1l1.3,1.1l0.8,0.6l1.6,1.3 l1.5,1l1.1,0.1l4.6-0.1l-0.1,3.1l3.4,1l0.3-0.4l-0.4-0.2l0.7-0.9l1.1-1.5l1.4-1.8l1.8-2.3l0.3-0.8l-0.5-0.3l-1.1-0.5l-1.3-0.5l0.1-1 l0.5-2.7l0.4-2.9l0.3-2l0.4-0.7l3.3-4.6l2.2-3l2.8-3.9l0.4-0.5l2.1-2.8l1.6-2.2l1.3-1.7l1.9-2.5l-4.2-1l-1.1-0.7l-0.8-0.4l1.2-2.7 l0.3-1.3l1.9-6.1l0.8-4.5l0.3-1.5l0.7-2.7l0.5-2l0.2-0.6l0.2-0.6l0.2-0.5l0.6-1.4l1.6-3.7l0.8-1.7l0.3-0.6l0.6-1.1l0.5-1l0.5-0.8 l0.7-1.1l0.5-0.6l2-2.3l2.2-2.1l1.8-2.2l0.9-1l0.6-0.6l0.8-0.7l1.2-0.9l2.5-1.9l0.5-0.4l1.8-1.2l3.3-2.2l3.9-2.7l1.7-1.7l1.4-1.4 L670.9,263.2z"/>
    <g class = "bezirk" id="Treptow-Köpenick">
    <path d="M776.7,409.6l-0.6-0.1l-2.3-0.5l0.4-0.9l1.1-2.4l0.4-0.9l0.3-0.7l-0.1-0.6l-1.3,0.1l-0.3-0.8l-0.7-0.6l-0.6-0.7l-0.9-0.5 l-0.6-0.2l-0.8-0.3L766,399l-1.4-0.3l-0.9-0.3l-1.6,0.5l-1.7-0.5l-2.1-0.4l-1.9-0.3l-0.5-0.2l-1.1-0.2l-1-0.7l-0.1-0.6l-1.3-0.2 l-1.5,0.5l-2.9-0.4l-0.5,0l-1-0.3l-2.2-2.6l-2.7-3.1l-2.1-2.3l-1.7-2l-0.6-0.6l-3.9-8l-0.4-0.5l-1.5-1.9l-0.8,0.3l-0.3-0.5l-1-0.1 l-1.4-0.4l-0.6-0.3l-1.6-1l-3.5-2.3l-1.1-0.9l-1.5-1.3l-0.5-0.4l-1.7-1.4l-0.4-0.5l-0.3-0.7l-1.4,0l-0.8,0l0.8,1.9l1,1.5l1.2,2.9 l0.4,0.5l0.2,2.2l0.4,3.4l0.3,1.8l2.2,0.8l0.4,2.5l0,0.5l-0.3,1.4l-0.4,2.8l-0.6,1.5l-1.5-0.2l-2.1-0.2l-1.3-0.3l-0.7-0.2l-1.1-0.3 l0.3-1.8l0-0.5l-0.1-0.7l-0.9-2.2l0.1-3l-0.4-0.7l-0.4-3.2l-0.6-1.4l-0.6-1.5l-0.3-0.5l-0.7-0.5l-3.8-0.8l-1.2-0.4l-0.8-0.1l-1.3,0 l-1.6,0.1l-0.5-0.4l-0.6-0.2l-3.4-1.6l-2.1-2l-0.7-1.2l-0.7-1l-0.3-0.5l-0.4-0.5l-2.4-1.5l-1.9-1.4l-1.8-1.2l-2.8-2.5l-0.7-0.5 l-0.3-0.2l-0.2-0.1l-2.4-1.5l-2.6,0.7l-1.1,0.1l-1.2,0.1l-0.7-0.2l-0.7-0.4l-0.6-0.3l-1.4-0.8l-1-0.4L671,353l-1.5-1.4l-1.1-1 l-1.1-0.7l-2.4-0.6l-1.2-0.6l-2-1.1l-0.6-0.4l-1.4-0.8l-2.7-0.2l-1-0.3l-0.8-0.2l-0.7,0.8l-0.9,0.7l-0.5,0.3l-1.6,1l-2.2,1.6 l-0.8,0.7l-1,0.4l-0.9,0.3l-4.5,1.5l-0.7,0.6l-0.4,0.5l-1.1,1l-1.3,0.6l-0.5,0l-0.6-0.1l-0.6-0.3l-0.7,0l-0.6,0.3l-0.4,5.7 l-0.2,0.6l0,0.8l0,0.7l0.6,0.6l-1.8,0l-0.7,0.1l0,1.7l0.3,1.1l0.3,0.5l-0.7,0.7l-1.4-0.4l0,0l0.3-0.5l0.2-0.5l0.1-2.2l-0.7-0.1 l0-2.4l0.1-1.1l-0.8-0.3l-3.5-0.9l-0.5,0.1l-1.9,2l-3.6-1.3l-0.3,0.4l-3.4-1l0.1-3.1L613,357l-1.1-0.1l-1.5-1l-1.6-1.3l-0.8-0.6 l-1.3-1.1l-0.9-1l-1.1-0.8l-0.8-0.8l-1.9-1.6l-0.9-0.7l-2.2-1.8l-4.9-3.8l-0.4,0.2l-3.1,1.4l-1.2,0.6l-2.2-2l-5.2,2.7l-0.5,2.8 l-0.7,1.8l-0.2,0.7l-0.1-0.6l-2.2,1.4l-3.4,1.5l-0.1,0.1l-1.2,0.8l-0.9,0.8l-0.3,0.5l-0.5,0.4l-0.2,0.3l-0.2-0.4l-2.5,0.9l-3.9,0.2 l-1.4-0.1l-1.2-0.2l-1.9-0.4l-1.9-0.1h-2.5l-0.6-0.1l-0.9-0.3l-0.5-0.1l-0.9,0.1l0.4,1l-5.8-1l-0.1,0l-1-0.2l-2.1-1.5l-2.2,3 l-6,7.2l-1.8,2.1l-6.9-9.8l-1.4-1.7l-1.2-1.4l-1.3,2l-4.6-2.5l-0.9-0.4l-0.5-0.1l-0.5-0.1l-0.5,0l-0.6,0.1l-1.9,0.4l-4.2,1 l-3.9-5.9l-1.1-3.4l-0.9-2.7l-0.3-1l0-0.1l-0.1,0l-4.3-1.5l-1.4,0l-2.4,0.3l-0.1,0l-1.1-3.6l-0.4-1l-2.1-3l-1.9-0.8l-0.6-0.1 l-2,0.2l-0.9,0.4l-1,0.8l-2.5,1.7l-0.1-0.3l-0.6-2.2l-0.7-0.5l-1.7-0.4l-0.6,0.1l-0.4,0.6l-0.4,0.9l-0.9-1.5l-0.1-1.3l-1.6-2.2 L475,326l-2-1.4l-0.6-0.1l-2.9-0.9l-4.6-2.3l-2.9-2.2l1-1.4l-1.2-0.6l-0.9-0.2l-2.8-1.8l-1.4-0.4l-3.2-1l-1.6-0.3l-0.7,0.1l-0.5,0 l-0.3,0.1l-1.1,0.3l-0.8,0.5l-1.3,1.5l-2,2.4l-2.2,0.1l-5.1,6.3l-0.7,0.8l-0.5,0.8l0,0.6l0.6,0.7l4.5,3.8l2.5-2.8l2,1.8l2.7,2.1 l5.4,4.6l2.3-2.8l0.1,0.2l4,4.6l7.9,9.1l1.4,1.7l-0.1,0.9l-0.8,3.8l0.3,2.2l3,5.1l0.9,1.2l1.7,2.4l1.6,2.4l1.5,2.1l0.6,1.4l0,1.3 l-0.3,0.9l-0.4,0.8l-0.6,1.3l-0.6,0.9l-0.9,1.3l-0.3,0.8l-0.1,0.6l-0.2,0.5l-0.5,1.4l-0.2,0.8l-3.5-0.2l-8.6-0.4l-6.7-0.1l-0.5,0 l0.8,1.7l1.6,3.2l0.9,2.2l0.8,1.8l0.9,2.1l0.6,1.5l0.9,1.6l1,1.6l1.1,1.4l5.4,4.5l8.1,6.4l1.2,1l0.3,0.3l1.5,1.2l4.2,3.2l1,0.8 l3.2,2.5l5.3,4.3l5.1,4l3,2.3l7,5.5l2.6,1.6l4.3,1.6l2.9,0.6l2.9,0.4l0.7,0.1l0,0.2l0.9,0.2l-0.1,0.4l-0.8,2.5l-0.8,1.8l-0.6,1.2 l0.3,1l0.1,0.6l0.7,1.3l0.6,0.2l0.5,0.6l0.2,1.2l0.4,0.7l0.5,1.2l0.4,0.7l0.2,0.6l0,1.4l0.4,1.1l0.1,1.2l0.2,1.3l-0.8,1.8l0.2,0.6 l2.1,1.1l-1,1.8l-0.4,0.7l0.4,0.6l-0.1,0.8l-0.5,0.6l0.4,0.6l-0.5,2.5l-0.6,2.4l-0.5,1.1l-0.3,0.6l-0.8,1.2l-1.5,2.3l-2.2,2.5 l-0.3,0.6l0.2,0.7l-0.9,1.1l0.1,0.5l1.5,0.5l2.4,1.3l1.1,0.8l0.5,0.2l1.6,0.7l0.8,0.4l0.7,0.4l0.5,0.2l0.8,0.3l0.7,0.2l0.8,0.5 l0.7,0.6l0.6,0.5l0.5,0.4l0.7,0.7l0.5,0.4l0.6-0.4l0.9-0.6l0.8-0.5l1.1-0.7l1-0.6l1.3-0.7l1.2-0.6l0.6-0.3l0.5-0.1l1.3-1l-0.2,1.1 l-0.3,1.1l-0.8,1.6l0.2,0.5l0.1,0.2l-1,0.4l0.3,0.7l-1.1,4L539,497l-0.5,3.9l0.8,3.6l17,0.8l6.1,0.4l1.9,0.1l0.6,0l0.7,0l1.8,0 l1.8,0.1l0.5,0l0.8-0.1l0.8-0.2l1.2-0.2l1.3-0.3l3.5-1.1l4-1.4l1.2-0.3l0.7-0.2l4.5-1.2l1.9-0.6l3.1-1l2.5-0.9l0.6-0.3l1.9-1 l2.3-0.8l0.9-0.4l0,0l0,0l0.2,0.3l1.4,2l0,0.6l-0.5,3.1l0,0.6l0.6,1l0,0.6l0.5,0.2l0.5,0.1l0.2,0.7l-0.1,0.6l-0.4,0.9l0,0.6 l1.5,2.3l3.4,1l0.7,1.2l0.6,0.9l0.9,0.6l0.4,0.5l1.1,1.1l0.5,1.3l0.3,0.6l0.5,0.7l0.7,0.7l0.5,0.6l0.7,1.2l0.2,0.7l0.1,1.4l0.3,3.9 l0.1,0.5l0.2,1.1l0,0.5l-0.1,0.6l-0.1,0.5l-0.9,2.3l0.6-0.3l1-0.3l1.5-0.8l0.5-0.4l0.7-0.3l1-0.6l1.8-1l0-0.5l2.5-1.4l5.9-3.4 l7.1-4.1l1-0.7l1-0.4l0.6,0.8l1.1,2.2l1.7,3.1l1.5,2.6l2.5-0.6l3.8-0.9l3.4-0.6l0.8,0.6l0.1,2.6l0.1,4.4l0.1,1.3l-0.2,1.3l-0.8,2.2 l0.9,0.3l0.7,0.3l3,0.3l0.1,0.5l0.1,0.6l0.2,1.4l0.3,0.8l0.2,1l0,1.6l-0.2,0.8l-0.4,0.9l-0.3,0.6l-0.5,0.6l-1,1l-0.9,0.9l-2.7,2.7 l-1.9,2.4l-0.6,0.8l-0.6,1l-0.7,1.5l-0.3,0.9l-0.3,1.1l-0.4,2.9L648,567l0,2.4l0,1l-0.2,2.6v3.5l-0.3,1.8l0,0.8l0.2,0.8l0.4,1.3 l0.7,1.8l0.8,1.5l1.8,2.3l1.7,1.6l0.5,0.7l0.5,1l0.5,0.8l0.5,0l1.5,0.1l0.7,1.3l0.7,0.8l2,0.8l0.5,0l0.5-0.1l0.8-0.4l1.2-0.8 l0.9-0.9l0.4-0.9l0-0.7l-0.4-3l0.1-1.2l0.6-1l0.5-0.9l0.1-0.5l0.7-1.8l0.5-1l2.1-2.5l0.4-0.9v-1.3l0.8-1.7l0.1-0.5l0-0.5l0.3-2.7 l0.5-0.6l1.6-1l0.1-0.6l0.5-0.8l0.6-0.4l1.2-0.6l0.5-0.5l0.7-1.5l0-0.5l0-0.8l0.3-1.1l0.3-0.6l0.3-0.7l0.6-0.9l0.6-0.6l0.7-0.4 l1.2-0.4l0-0.6l-0.3-1.3l0-1l0.2-0.8l0.1-1.3l0.2-1l0.3-1.2l0.5-1l0.5-0.8l1-1.5l0.5-0.5l0.9-0.4l0.5-0.5l0.4-1.1l0.3-0.6l0.7-1.3 l0.6-0.3l1.8-0.5l1.2-0.5l1.1-0.6l1-0.8l1.4-1.2l0.5-0.3l1.5-0.4l1.7-0.1l0.8,0l1.3,0.8l0.9,0.2l2,1.8l0.5,0.4l1,0.5l0.8-0.1 l0.7-0.2l0.5-0.3l0.9-0.2l0.3,0.5l1.6,0.4l0-0.4l-0.7-0.6l0.4-0.2l1.4-0.2l0.1-0.5l-0.4-0.9l0.1-0.5l0.4-0.7l0.5-0.5l0.5-0.6l1-1.1 l0.9-1.5l0.4-0.6l0.3-0.6l1.3-2.3l0.7-1.3l0.3-0.6l0.3-0.7l1-1.8l0.5-2.7l-0.7-0.3l-0.6-0.4l-2.3,0.4l1.3-7l-3,0.6l-1.1,0.1 l-0.7-0.4l-2.8-2.1l-1.3-1.1l-0.5-0.3l-1.4,0.5l-0.8-0.4l-0.6-0.6l-0.8-0.6l0.3-0.5l0.3-1.5l0.9,0.2l0.1-0.3l0.1-0.5l0.4-0.7 l0.3,0.5l0.7,0.7l0.6,0l0.6-0.1l0.7-0.3l0.5-0.6l1.4-1.5l0.6-0.7l1.2-1.5l0.7-1l0.6-0.8l0.5-0.4l0.5-0.8l0.6-0.7l0-0.7l0.2-0.6 l-0.1-1.8l0.5-0.8l0.6-0.2l0.6,0l0.4,0.6l-0.2,0.6l-0.5,1.2l0.5,0.2l0.6-0.4l0.8-0.8l0.7-1l0.5-1.2l0.2-0.6l0.8-0.8l0.8-0.2 l0.6,0.1l0.7-0.2l0.4-0.5l0.6-1l0.5-0.3l0.4-0.6l1-0.5l0.7-0.1l0.9,0l0.8-0.6l0.5-0.5l0.3-0.6l1-0.4l0.6-1.1l0.5-0.3l0.6-0.6 l0.6-0.3l0.5-0.2l0.7-0.5l0.3-0.6l0.5-0.7l1.1-0.7l0.5-0.5l0.9-0.1l0.8,0.6l0.4,0.7l0.6,0.2l1.2-0.2l0.9,0l0.9,0.4l0.8,0.4l0.9,0.4 l0.7-0.5l0.8-0.5l0.6-0.4l0.5-0.7l0.7,0.1l0.8-0.4l0.9-0.7l0.5,0.2l0.6,0.2l0.5-0.2l0.5-0.3l0.4,0.6l1.2-0.6l0.4-0.4l0.3-0.7 l1.1-1.1l0.6-0.6l0.7-1.2l0-0.6l-0.1-1l0-0.9l0.6-1.9l0.8-2.3l1.7-0.8l0.9-0.3l0.3-0.7l0.1-0.6l0.1-0.5l-0.5-1.3l-0.2-1l-0.3-0.7 l-0.9-1.2l-0.6-0.3l-0.8-0.4l-0.8-0.5l-0.4-0.5l-0.1-0.6l-0.1-0.5l-0.5-0.5l-0.7-1l-0.4-0.7l-0.8-1.3l-0.6-1l-0.4-0.6l-0.9-1.5 l-0.2-0.5l-0.1-0.6l0-0.6l0.1-0.2l0.1-0.5l0.2-0.8l0.5-1.3l0.7-1.3l0.1-0.7l0-1l0-0.3l-0.2-0.7l0.3-0.5l0.5-0.7l2.1-3.2l4.3-6.9 l1.9,0.3l1.6,0l0.3-1.5l0.3-1.2l0.1-0.5l-2.8-1l0.6-1.5l0.4-2.8l0.1-0.9l0.1-0.8l-2.2-0.5l-0.6-0.1l-2.2-0.5l-2.8-0.7l-0.7-0.1 l-1.2-0.4l-1.3-0.5l-2.2-1.2l-0.9-0.5l-0.5-0.4l-0.5-0.3l-2.1-1.7l-1.1-0.8l0-0.6l0.5,0.6l1,0.5l2.5,2l2.2,1.3l1.6,0.8l0.8,0.3 l1.8,0.6l5.1,1l0.6,0.1l0.2-0.7l2.3,0.4l2.6-0.2l0.3-2.3l-0.2-0.7l0.3-2l0.5-3.4l0.5-0.4l2.3-2l4.5-3.8l6.5-0.2L776.7,409.6z"/>
    <polygon points="780.9,418.2 775.1,417.3 776.1,412.5 774.1,420.5 776.6,420.9 778.3,421.2 779.8,421.5 780.1,420.7 780.5,420.2 781,418.9"/>
    </g>
    <polygon class = "bezirk" id="Neukölln" points="526.2,462.9 527.2,461 525.1,459.9 524.9,459.3 525.7,457.6 525.6,456.2 525.5,455 525.1,454 525.1,452.6 524.9,452 524.4,451.3 523.9,450.1 523.5,449.4 523.3,448.2 522.8,447.6 522.3,447.4 521.5,446.1 521.4,445.5 521.1,444.5 521.7,443.2 522.5,441.4 523.3,438.9 523.4,438.5 522.5,438.3 522.6,438.1 521.8,438 519,437.6 516,437 511.7,435.5 509.1,433.9 502.1,428.4 499.1,426.1 494,422.1 488.7,417.8 485.5,415.3 484.5,414.5 480.4,411.3 478.9,410.1 478.5,409.8 477.3,408.8 469.2,402.4 463.8,398 462.7,396.6 461.7,395.1 460.8,393.4 460.2,392 459.3,389.8 458.5,388.1 457.6,385.9 456,382.7 455.2,381 455.7,381 462.4,381.1 471,381.5 474.5,381.7 474.7,380.9 475.2,379.5 475.4,379 475.5,378.4 475.8,377.6 476.7,376.3 477.3,375.4 477.9,374.1 478.3,373.3 478.6,372.4 478.6,371.1 478,369.7 476.6,367.6 475,365.2 473.2,362.8 472.4,361.6 469.3,356.5 469.1,354.3 469.9,350.6 470,349.7 468.6,348 460.7,338.9 456.7,334.3 456.6,334.1 454.3,336.9 448.9,332.3 446.3,330.3 444.2,328.5 441.7,331.3 437.2,327.4 436.5,326.8 436.7,327.4 436.1,327.5 436,327 435.5,326.5 434.9,326 434.1,325.6 433.3,325.2 423.9,320.2 418.9,317.4 417.6,316.8 416.3,316.4 418,321.4 419.3,324.7 420.3,327.5 421.4,330.4 420.9,330.7 419.9,332.7 416.9,331.7 413.1,330.9 403.1,328.7 402.5,328.7 403.1,331.2 403.2,331.8 402.1,333.6 401.6,333.9 401.3,334.7 400.8,339.6 401,343.8 402,346.5 406.6,347.3 408.7,346.2 412.3,369.9 417.4,368.9 417.8,374.7 417.7,376.8 418.8,377.2 418.9,378.3 418.9,378.3 419,378.7 417.1,378.3 416.2,380.6 420.8,383.3 422.6,385.2 422,385.3 420.3,385.4 418.6,385.3 416.8,385.2 413.1,393.1 412.1,393.2 412,393.5 411.8,394.2 407.8,406.3 404.3,421.7 402.6,424.7 402.5,426.4 402.2,426.9 401.7,430.3 400.5,436.4 400.5,436.8 400.5,436.8 400.3,437.5 396.9,446 400,446.8 399.3,449.7 394.3,451.7 393.5,453.1 394.1,454.8 396.8,462.8 400.3,461.7 402.4,461.3 404.2,461.2 405.5,461.4 410.3,463.7 413.7,466 415.3,466.5 415.1,467 415.6,466.9 417.5,466.4 420,465.4 421.9,464.7 423.9,464.1 425.8,463.6 426.8,463.4 428.5,462.9 435.6,459.6 436.2,459.5 438.1,458.8 439.7,457.9 441.2,457.2 443.3,456 445.5,454.8 446.1,454.6 446.6,454.4 447.2,453.8 449.9,452.5 451.3,451.8 453.1,451 454.8,450.2 455.6,449.9 458.8,448.9 460.6,448.6 462.4,448.3 463.1,448.5 465.3,449.4 466.9,450 467.3,451.1 467.4,451.4 467.9,453 468.5,455.3 470.3,460.7 471.6,464 473.5,469.7 475.2,473.9 476.5,478.1 477.2,478.7 477.4,479.5 477.4,480.1 478,482.5 478.6,484.2 478.9,485.2 479,486.6 479.7,492 482.4,490.9 483.8,490.3 487,489.5 490.7,488.9 491.2,488.9 493.2,488.3 496,487.5 498.6,487 499.7,486.9 501.3,486.5 502.2,486.2 503.8,486 507.7,485.3 509.1,484.9 512.9,484 516.5,483 518.7,481.6 518.5,481.1 519.4,480 519.3,479.3 519.6,478.7 521.8,476.3 523.4,474 524.1,472.7 524.4,472.2 524.9,471.1 525.5,468.7 526.1,466.2 525.6,465.6 526.2,465.1 526.3,464.2 525.9,463.6"/>
    <path class = "bezirk" id="Tempelhof-Schöneberg" d="M423.5,508.9l-0.5-2.7l-0.4-1.2l-1.4-5.5l-1.7-6l-2.4-8.7l-1.6-5.7l-0.5-1.8l-0.4-1.4l-0.7-3.7l-0.2-2.7l0-0.8l0.3-1.4 l0.9-0.3l0.2-0.5l-1.6-0.5l-3.4-2.3l-4.8-2.3l-1.3-0.3l-1.8,0.1l-2,0.4l-3.5,1.1l-2.7-8.1l-0.5-1.6l0.8-1.4l5-2l0.7-2.9l-3.2-0.8 l3.4-8.5l0.2-0.8l0.1-0.3l1.2-6.1l0.5-3.4l0.3-0.5l0.1-1.7l1.7-3l3.5-15.4l4-12.1l0.2-0.7h0l0.1-0.3l0.9,0l3.7-7.9l1.8,0.2l1.7,0.1 l1.7-0.1l0.6-0.2l-1.9-1.8l-4.6-2.7l0.9-2.3l1.9,0.4l-0.1-0.5l-0.2-1l-1.1-0.4l0.1-2.1l-0.4-5.8l-5.1,1l-3.6-23.7l-2.1,1.1l-4.7-0.7 l-0.9-2.8l-0.3-4.2l0.5-4.9l0.4-0.8l-2.6,1.6l-3,0l-0.4,0.5l-0.9,1.7l-6.7-0.1l0-3.3l-3.4-0.1l-5.1,0.1l-0.1,1.7l-0.7,0.1l-0.7-0.2 l-8.6-0.2l-4.9,0h0h-0.6l0.6-0.1l1.7-0.2l0.1-4.6l-0.6,0l1.2-2.3l0.9-0.5l0-2l1.1-1.6l0.1-0.5l-5.8-1.8l-3-1.1l0.5-1.1l-0.4-1.1 l0.3-4.7l1.2-1.6l0.1-0.9l-0.7-0.1l-6.8-1.6l-0.6-0.3l-9.8-4l-7.7-2.9l-5-2.1l-2,3.2l-2.7,4.4l2.1,1.4l0.1,0.9l-1,2.8l-0.8,3.3 l0.1,2.5l-0.4,4l0,2.2l0.5,0.6l-0.6,0.6l0,1.2l0.2,2.6l0,4l0,6l0,3.7l0,0.5l0,2.2l0,0.6l0,0.2l0,0.5l-4.3,0.5l-0.1,0.8l-5-0.1 l-8.3-0.1l-0.2,12.2l-0.1,0.9l0,5.4l1,0l7.6,4.4l1.3-2.1l1.5,0.8l0.7-1l3.4-0.7l1.9-2l2,1.4l0.4,0.3l0.4,1.6l6.3,6.6l3.2,4.4 l-0.3,0.6l0.5,0.3l0.5,0.2l0.7,0l0,3.2l2,0.2l1.2-0.3l0.6-0.4l0.7,0l0.7,1.1l0.2,0.9l0,0.5l1.9,0l0,0l0.3-1.3l-0.3,1.3l0.6,1.3 l0.6,1.9l2.7,7.3l0.7,2l0.9,2.7l1.3,2.5l0.1,0l1.1,2.2l0.1,0.2l-0.3,0.2l4.2,13l4.8,12.9l0.1,0.3l-0.8,0.8l-1.2,0.9l-1.8,1.2 l-0.7,1.5l-4.3,9l-3.4,1.8l-1.4,1.3l-3,1.8l-1,0.6l-5.4,3l-2,1.1l-3.1,1.6l-1.7,1l-1.3,0.8l0.4,1.2l0.1,1.6l-0.5,1.7l0.5,0l0.1,1.7 l-0.1,5.3l3.2,3.2l3.4,3.4l1.7,1.7l2.1,1.6l1.7,1.7l2.3,1.9l1.3,1.1l1,0.8l0.8,0.8l2,1.3l1.8,1.2l1.7,0.9l4.5,2.8l3.6,2.3l-1.9,9.2 l4.8,0.5l1.3,0.1l0.7,0l1.9,0l3.9-0.3l0.3,0l0.2,0l3.1-0.2l1.8-0.1l0.3,3.3l0.1,0.9l0.3,3.3l0.3,3.6l-0.1,0.9l0.2,1.4l-0.1,1.5 l-0.1,1.4l0.4,1.1l0,1.4l3.8,0.2l6.9,0.4l1.7,0.2l0.9,0.1l1.5,0.3l1.9,0.3l0.6,0.1l2.1,0.1l1.1,0.2l2.3,0.4l0.7-0.1l2.5-0.3 l-0.1,0.7l5.5,0.3l3.2,0.2l0.1-0.4l1-2.7l2.6-6.1l2-4.7l0.9-2l0.5-1.1L423.5,508.9z"/>
    <path class = "bezirk" id="Steglitz-Zehlendorf" d="M363.6,433.3l-4.8-12.9l-4.2-13l0.3-0.2l-0.1-0.2l-1.1-2.2l-0.1,0l-1.3-2.5l-0.9-2.7l-0.7-2l-2.7-7.3l-0.6-1.9l-0.6-1.3l0,0 l-1.9,0l0-0.5l-0.2-0.9l-0.7-1.1l-0.7,0l-0.6,0.4l-1.2,0.3l-2-0.2l0-3.2l-0.7,0l-0.5-0.2l-0.5-0.3l0.3-0.6l-3.2-4.4l-6.3-6.6 l-0.4-1.6l-0.4-0.3l-2-1.4l-1.9,2l-3.4,0.7l-0.7,1l-1.5-0.8l-1.3,2.1l-7.6-4.4l-1,0l-8.7-0.3l-0.5,0l-0.6,0.1l-1-0.3l-0.5-0.4 l-0.6-0.5l-0.6,0.5l-1.1-0.7l-1.1,0.8l-8.7-2.3L285,364l-8.4-2.6l-0.7,0.6l-0.7-0.9l-8.4,2.7l-2.8,0.7l-0.4-0.2l-4.8,1l-1.5,0.3 l-3.2,0.5l-1.6,0.3l-1.4,0.2l-1.8,0.4l-1,0.2l-1.1-0.1l-0.4-0.8l-1-0.6l-0.9,0.9l-1,0.7l-0.9,0.7l-1.6-0.2l-2.1-0.2l-0.9-0.1 l-1.7,0.3l-0.7-0.2l-4.5-1.3l-0.5-0.1l-5.2-1.4l-3.8-1v0l-1.6-0.4l-1.7-0.5l-0.3,0l-1.9-0.8l-2.5-1.1l-0.7-0.2l-0.8,0l-3.5,0.6 l-5.2,0.9l-3.8-0.3l-2.7-0.1l-1.2,0.3l-1.4,0.4l-0.5,0.2l-1.2,0.1l-0.6,0.2l-1.5-0.4l-2.1-0.4l-1.7-0.7l-1-0.1l-0.8-0.2l-0.8-0.1 l-0.7,0.1l-0.4,0.3l-1.2,0.4l-0.6,0.6l-0.8,1.2l-0.6,0.3l-0.8,0.3l-0.6-0.1l-0.7-0.5l-0.4-2l-0.7-1.2l-0.8-0.5l-1.5,0.1l-1.2,0.6 l-6.3-0.4l-1.6,6.9l-0.7,2.8l-1.4,5.7l-17.5,15l-7.1,4.8l0,0l-0.3,0.2L117.9,409l-15,3.5l-4.5,0.9l-0.8,1.9l0,1.6l-1.2,1.4l-0.9,0.5 l-4.4,2.6l-3.5,5.4l-1.9,1.1l0.8,5.7l-5,4.4l-1.6,2l-1.4,0.6l-0.9,2.3l-1.5-0.8l-1-0.2l-1-0.4l-0.7-0.8l-1.1-0.4l-0.4,0.1l-1.1,1.1 l0,0.6l-0.5,1.7l-1.2,1.5l-1,1.2l-8,4l2.2,10.7l0,1.7l0.4,1.5l0.7,0.2l0.5,0.1l0.5,0.3l1,1l4.4,2l0.8-0.7l0.9-0.6l-0.2-0.6l0.1-0.5 l-0.4-0.6l-0.7-0.5l-0.7-0.9l-0.8-1.5l0.1-0.4l0.8-0.1l1.3-0.6l1.5-0.5l0.9,0.1l-0.2,0.5l0.1,0.8l0.4,1.7l0,1.8l0,0.9l2.5,0.8 l1.4,0.5l0.5-0.2l0.8,0.5l0.5-0.1l0.4,0l0.4,0l0.2-0.5l0-0.8l0.3-2.7l0-0.5l-0.1-0.8l-0.1-0.5l0-0.6l0.8,0l1.5,0.6l0.3,1.7l0.2,1.2 l0.8-0.1l0.6-0.1l0.3,1.7l-0.6,0.1l-0.8,0.1l0.2,1.4l-2.4,0.4l-1.8-0.5l-0.3,1.6l2.4,0.4l0.9,0.7l-1.1,1.4l0.6,0.5l0.8,0.8l0.6,0.8 l0.7,1l0.3,0.4l0.3,1.6l0.6,0.7l4.4,2.7l1.4,0.4l0.5,0.1l0.6,1.2l1.6,2.3l0.5,0.8l1.3,1.5l2.8,2.4l0.6,0.7l0.7,0.4l0.5,0.3l1.4,0.2 l0.8-0.2l1-0.6l4.1-3l1.2-1.2l1,1l1.6,0.8l0.6,0.1l1.2,0.8l-3,0.5l0.6,2.1l2,0.1l0.7,0.1l0.5,0.3l-5.1,4.6l-2.7,2.9l-0.5,0.7 l-0.8,1.4l-0.5-0.4l1.4-1.8l-2.9,0.1l-0.9,0.1l-0.3,1.3l-0.2,2.4l1.4,1.3l1.1,1.1l1.4,1.4l0.6,0.3l0.7-0.4l0.8,0.1l0.7,0.1l0.5-2.7 l-0.5,0.1l-0.5-0.1l-2.8-2.7l1.3-1.7l2.8-3.2l4.4-3.8l1.2-1l2.7-1.9l1.3-0.5l-0.1,1.1l0.5,0.7l0.3,0.4l2.2,1l0.6,0.1l1.4,0.2 l5.5,0.8l2.3,0.6l1.4,0.4l3.2,0.5l1.1,0l2.8-0.3l5.5-0.4l0.7,0l0.6-0.4l2.4-1.8l-0.5-3.6l-0.8,0.2l-2.3,0.6l-8.4,1.3l-2.8,0.1l0-0.5 l0.1-0.9l0.5-1.3l0.4-1.4l0.6-1.3l0-0.7l0.1-5.1l14.1-7.5l1.3-0.7l6.9-3.6l3.1-1.6l2.6-1.4l0.2-0.1l9.9-5.8l1.6-1.1l0.6-0.2l1-0.2 l1.6,0.1l0.7-0.1l1.1,0l3.7-0.6l1.3-0.3l1.7-0.4l2-0.6l2.6-1l1.5-0.8l0.7-0.2l1.5-0.8l0.5-0.4l1.4-1.1l1.1-0.3l0.5-0.1l1.7-0.7 l1.2-0.5l0.8-0.3l1.8-0.6l1-0.5l0.7,0l1.2,0.2l1,0.1l1.3,0.2l0.4,0.1l1,0.2l2.6,0.2l1.1,0l1.6-0.6l1.3-0.3l2.3,0.1l2.8-0.2l3.7-0.2 l2.1-0.3l0.2,0.6l0.5,1.4l0.5,1.9l0.5,2.8l0.3,1.7l0.1,1.3l0.6,2.8l0.6,4.1l0,0.5l-0.1,4.5l-0.2,0.8l0.4,0.9l0,0.7l0.3,3.8l0.1,0.7 l1.6-0.9l0.8-0.4l1.1-0.4l1.5-0.3l0.6-0.1l0.7-0.1l1.6-0.1l1.4,0l0.9,0.1l1,0.3l1,0.4l2.5,1.6l1,0.5l2,0.8l0.5,0l2.1,0l0.5,0l0.1,0 l0.6,0.1l0.9,0l1.7-0.2l0.5-0.4l0.6-0.1l1.9-0.7l0.5-0.2l0.6-0.3l2.3-1.8l2.9-2.3l0.9-0.7l2-1.8l3.9-3.6l1.3-1.3l5-4.6l0.8-0.7 l3.3-2.2l0.3,0.5l0,0.5l-0.2,0.8l-0.4,0.6l-0.6,0.3l2.9,4.6l1.4,2.1l0.7,1.1l0.6,0.9l1.2,1.7l3.1,4.7l1.8,2.7l2.9,4.9l1.8,2.8 l0.9,1.2l1.1-1.2l0.8-1l4.9-3.3l5.2-3.2l4.3-2.6l4.6-2.7l1.4-0.8l3-1.8l6.8-4.4l1.2-0.8l-0.5,0l0.5-1.7l-0.1-1.6l-0.4-1.2l1.3-0.8 l1.7-1l3.1-1.6l2-1.1l5.4-3l1-0.6l3-1.8l1.4-1.3l3.4-1.8l4.3-9l0.7-1.5l1.8-1.2l1.2-0.9l0.8-0.8L363.6,433.3z"/>
    <path class = "bezirk" id="Charlottenburg-Wilmersdorf" d="M331.3,300.4l-1.1-0.3l-0.6,0l-0.7,0.1l-0.3-0.6l-0.3-0.9l-0.5,0.1l-0.8,0.2l-0.5,0.1l-1.3-0.1l-0.7-0.4l-1.1-0.9l-0.2-0.9 l0.8-2.2l-0.6-0.8l-0.9-0.4l-3.8-2l1.1-0.5l2.2-1.1l0.5-0.4l0.5-1.1l-0.5-0.2l-1.7-0.9l-0.6-0.4l-0.4-0.7l5.2-0.5l0.2-0.8l0.2-0.6 l0.1-0.5l-0.8-0.8l-1.4-3.6l-0.3,0.1l-0.9,0.1l-0.8-0.1l-0.6-0.2l-1.1-0.7l-0.4-0.5l-0.4-0.4l-0.3-0.6l-0.2-0.5l-0.2-0.6l0-0.8 l0-0.6l0.2-0.8l0.2-1l0-0.8l-0.1-0.8l-0.4-1l-0.5-0.8l-0.6-0.7l-1-1.1l-1-0.8l-0.9-0.5l-0.7-0.4l-0.7-0.2l-0.7-0.1l-0.9,0l-0.9,0.1 l-1.1,0.4l-0.5,0.3l-0.5,0.4l-0.5,0.6l-0.3,0.6l-0.2,0.7l-0.1,0.6l-0.1,1.1l0.1,0.6l0.4,0.5l-1.3,1.7l-0.9-0.5l-3.8-16.7l3.5-1.2 l0-0.5l0.5-0.6l0.2-1.5l-4.8,0.9l-0.1-0.4l-1.4-6.3l9.6-2l8.1-1.9l0.6-0.2l0.6-0.3l-2.2-4.5l0-0.7l0-0.4l-1.4-1.3l-2-1.5l-5.5-6.7 l-1.5-1.5l-0.7-0.3l-13.9-0.9l-3.2-0.2l-32.8-1.2l0,0.4l0,0.9l3.5,10.3l-1,4.6l-0.3,1.7l0.5,0.2l0.7,0.4l0.9,0.6l0.7,0.7l0.8,1.2 l0.5,1.8l0.1,0.9l4.4,2.1l1.5,0.5l0.8,0.2l-0.5,2.4l-0.7,3.5l0,0l0,0.1l-0.3,0.9l-1.2-0.4l-1,0l-0.9,0.2l-0.7,0.4l-0.9,0.7l-2,1.3 l-0.9,0.1h-0.8l-0.8-0.1l-1.5-0.2l-1.2,0l-0.7,0l-0.5,0l-0.8,0.1l-1.6,0.2l-0.4,0l-0.7,0.1l-1.3,0.2l-1.2,0.4l-1,0.4l-2.3,1.2 l-0.8,0.2l-2.4,0.3l-3.9,0.2l-1.6-0.1l-1.2,0l-0.8-0.1l-0.5-0.2l-0.8-0.3l-0.6-0.3l-0.8-1.6l0,0.3l-1.3,1.3l0.6,0.4l0.4,0.6l0.2,0.7 l0.1,1.2l0.1,0.9l0.7,1.7l-0.4,0.6l-0.8-0.3l-7.4-3.1l-0.2,0.5l-1.1-0.4h-1l-1.4-0.1l-5.6,0.6l-0.4,0l-2.2-0.2l-0.8,0.4l-1,0.2 l-1.3-0.3l-2-0.2l-1.4-0.4l-0.2,0l-0.4-0.1l-0.4,1l-0.8,2.1l-0.8,2.2l-0.4,1.6l-0.2,0.8l-0.2,1.1l0,1.3l0.4,7.7l0.3,2.4l0.2,0.8 l0.7,1.1l-1.3,0.1l-0.3-0.5l-0.9,0.5l-1.3,2l-1.1,1.7l-0.6,1.4l-0.2,0.8l-0.5,1.2l0.7,0.2l-0.3,0.7l-1.5-0.1l-1.1-0.1l-0.5-0.1 l-0.7-0.2l-0.7-0.2l-0.3,1.4l-2.3,6.5l0.4,3.2l-1.2,1.6l-8.3,3.9l-6.4,0.1l-2.3,1.7l-2.4,1.8l0,0.3l-0.4,6l-3.1,8.4L169,339 l-2.8,9.6l0.7,11.4l6.3,0.4l1.2-0.6l1.5-0.1l0.8,0.5l0.7,1.2l0.4,2l0.7,0.5l0.6,0.1l0.8-0.3l0.6-0.3l0.8-1.2l0.6-0.6l1.2-0.4 l0.4-0.3l0.7-0.1l0.8,0.1l0.8,0.2l1,0.1l1.7,0.7l2.1,0.4l1.5,0.4l0.6-0.2l1.2-0.1l0.5-0.2l1.4-0.4l1.2-0.3l2.7,0.1l3.8,0.3l5.2-0.9 l3.5-0.6l0.8,0l0.7,0.2l2.5,1.1l1.9,0.8l0.3,0l1.7,0.5l1.6,0.4l3.8,1l5.2,1.4l0.5,0.1l4.5,1.3l0.7,0.2l1.7-0.3l0.9,0.1l2.1,0.2 l1.6,0.2l0.9-0.7l1-0.7l0.9-0.9l1,0.6l0.4,0.8l1.1,0.1l1-0.2l1.8-0.4l1.4-0.2l1.6-0.3l3.2-0.5l1.5-0.3l4.8-1l0.4,0.2l2.8-0.7 l8.4-2.7l0.7,0.9l0.7-0.6l8.4,2.6l0.2,0.1l8.7,2.3l1.1-0.8l1.1,0.7l0.6-0.5l0.6,0.5l0.5,0.4l1,0.3l0.6-0.1l0.5,0l8.7,0.3l0-5.4 l0.1-0.9l0.2-12.2l8.3,0.1l5,0.1l0.1-0.8l4.3-0.5l0-0.5l0-0.2l0-0.6l0-2.2l0-0.5l0-3.7l0-6l0-4l-0.2-2.6l0-1.2l0.6-0.6l-0.5-0.6 l0-2.2l0.4-4l-0.1-2.5l0.8-3.3l1-2.8l-0.1-0.9l-2.1-1.4l2.7-4.4L331.3,300.4z"/>
    <polygon class = "bezirk" id="Berlin-Mitte" points="423.9,292.5 420.5,289.3 419.2,288.2 418.7,287.7 419.4,286.7 419.9,285.5 421.7,280.9 423,277.7 422.4,277.4 423.4,275.1 424.7,274.8 425.6,271.6 424.4,271.1 422.3,270 422.4,268.2 421.6,268.1 420.9,267.8 419,266.8 417.2,265.6 415.4,264.5 413.4,263.2 410.9,261.3 410.3,260.9 409.3,260.4 406.3,259 404.6,258.5 401.9,257.7 400,257.2 400.4,255.5 400.5,254.6 400.9,252.5 402.9,248.9 402,248.2 401.1,245.3 399,238.2 398.9,237.8 398,238.2 394.5,227.4 392.3,219.9 390.9,220.1 391.4,219.3 391.7,218.3 391.9,217.6 392,216.7 391.8,215.8 391.5,212.8 391.3,211.4 391.2,210.5 391.2,209 391.2,208.3 391.2,207.9 391.2,206.5 390.9,204.9 390.4,202.4 389.8,200.7 389,199 388.1,197.4 387.2,196.2 386.5,195.5 385.1,194.2 384.4,193.8 384.2,193.3 382.1,191.3 382.5,190.8 381.9,190.1 380.9,190.9 377.4,190.4 374,192.4 371.2,192.9 369.5,202.5 363.2,202.7 358.6,206.7 358.6,206.7 358.4,206.9 356.8,207.1 356.2,201.6 351.5,202.8 351.2,200.4 348.7,200.2 348.2,200.1 344.6,200 339.9,200 326.9,195.8 321,200.7 320.1,199.9 315.6,199.5 315.4,200.2 315.1,200.9 314.7,201.5 314.2,201.9 313.2,202.4 312.5,202.7 311.9,202.7 310.2,203.2 310.1,203.2 305.8,204.1 298.3,206.9 297.6,207.4 288,224.2 291.2,224.3 305.1,225.3 305.8,225.6 307.2,227 312.7,233.7 314.6,235.2 316,236.6 316,237 316,237 316,237.6 318.2,242.2 317.7,242.4 317,242.7 308.9,244.6 299.3,246.6 300.7,252.8 300.8,253.2 305.5,252.3 305.3,253.8 304.8,254.4 304.8,254.8 301.3,256.1 305.1,272.8 306,273.3 307.3,271.6 307,271.1 306.9,270.5 307,269.4 307.1,268.8 307.4,268.1 307.7,267.5 308.2,267 308.7,266.6 309.3,266.3 310.4,265.9 311.3,265.7 312.2,265.7 312.9,265.8 313.6,266 314.4,266.4 315.2,266.9 316.2,267.7 317.2,268.8 317.8,269.5 318.2,270.3 318.6,271.3 318.7,272.2 318.7,272.9 318.5,274 318.3,274.8 318.2,275.4 318.3,276.2 318.5,276.7 318.6,277.2 319,277.8 319.4,278.3 319.8,278.7 320.9,279.4 321.5,279.7 322.3,279.7 323.2,279.7 323.5,279.6 323.9,279.4 323.5,279.6 324.9,283.2 325.8,284 325.6,284.5 325.7,284.5 325.6,284.5 325.4,285 325.2,285.8 320,286.3 320.4,287 321,287.4 322.8,288.2 323.3,288.4 322.8,289.5 322.3,289.8 320,291 318.9,291.5 322.7,293.5 323.5,293.9 324.1,294.7 323.3,296.8 323.4,297.8 324.6,298.6 325.2,299 326.5,299.1 327.1,299 327.9,298.9 328.4,298.8 328.6,299.6 328.9,300.2 329.6,300.1 330.2,300.1 331.3,300.4 336.2,302.5 343.9,305.4 353.7,309.4 354.3,309.7 361.1,311.3 362.1,310.1 362.7,309.3 363.4,306 364.8,303.7 365.2,303.2 366,302.8 367.4,303.6 368.8,299.5 369.2,298.4 369.7,296.9 370.1,295.9 370.3,295.3 371.5,296.9 378.6,296.2 383.8,295.7 385.9,295.5 388,295.3 391.1,295 393.2,294.8 393.9,293.1 394.3,292.4 396,293.4 396.9,294 398.3,294.8 399,295.4 399.8,294.6 402.7,298.2 404.8,296.8 406.8,300.5 409.4,301.9 410.1,300.5 413,301.8 413.6,300.4 414.5,300 415,299.2 416.3,299.8 417.1,300.1 417.8,300.3 418.7,300.4 419.6,300.4 420.4,300.2 421.2,299.9 422,299.5 422.7,299 423.3,298.4 423.9,297.6 424.2,297 424.5,296.2 424.6,295.1 425.2,293.7 424.4,293"/>
    <polygon class = "bezirk" id="Friedrichshain-Kreuzberg" points="488.1,327.9 488,327.4 487.6,326.8 486.1,325.5 485.3,324.4 484.2,324.1 483.9,323.5 479.6,318.8 477.6,316 476.5,313.8 471.9,310.9 470.2,310.6 468.8,310.3 467.6,309.9 468.6,305.2 469.3,302.6 469.8,301.6 470.5,300.4 470.6,299.7 471.5,298.4 472.3,297.7 472.3,297.4 473.2,296.9 472.4,296.5 473.4,294.8 474,293.8 474.7,292.5 475,292.1 475.2,291.4 475.4,290.7 475.7,289.6 475.4,288.3 475.2,287.4 474.8,285.2 475.5,282.7 477.4,283.2 475.9,282.5 475.1,279.4 473.5,275.3 473,275.5 472.4,274.1 471.5,272.8 468.6,273.1 462.6,274.1 461,274.3 460.3,274 455.1,272.4 453.8,272 453.3,271.8 454,269.7 452.9,267.1 451.2,263.1 449.9,260.4 448.4,261.1 444.9,262.8 439.5,254.6 438,255.9 435.3,258.7 434.3,257.3 426.6,258.8 421.7,259.7 420.9,260 419.8,259.9 415.4,264.5 417.2,265.6 419,266.8 420.9,267.8 421.6,268.1 422.4,268.2 422.3,270 424.4,271.1 425.6,271.6 424.7,274.8 423.4,275.1 422.4,277.4 423,277.7 421.7,280.9 419.9,285.5 419.4,286.7 418.7,287.7 419.2,288.2 420.5,289.3 423.9,292.5 424.4,293 424.5,292.9 424.5,292.9 424.4,293 425.2,293.7 424.6,295.1 424.5,296.2 424.2,297 423.9,297.6 423.3,298.4 422.7,299 422,299.5 421.2,299.9 420.4,300.2 419.6,300.4 418.7,300.4 417.8,300.3 417.1,300.1 416.3,299.8 415,299.2 414.5,300 413.6,300.4 413,301.8 410.1,300.5 409.4,301.9 406.8,300.5 404.8,296.8 402.7,298.2 399.8,294.6 399,295.4 398.3,294.8 396.9,294 396,293.4 394.3,292.4 393.9,293.1 393.2,294.8 391.1,295 388,295.3 385.9,295.5 383.8,295.7 378.6,296.2 371.5,296.9 370.3,295.3 370.1,295.9 369.7,296.9 369.2,298.4 368.8,299.5 367.4,303.6 366,302.8 365.2,303.2 364.8,303.7 363.4,306 362.7,309.3 362.1,310.1 361.1,311.3 361.9,311.4 361.8,312.3 360.7,313.8 360.3,318.6 360.7,319.7 360.2,320.8 363.2,321.9 369,323.7 368.9,324.2 367.8,325.8 367.8,327.8 366.9,328.3 365.7,330.6 366.3,330.6 366.2,335.3 364.5,335.5 364.4,335.6 369.3,335.6 377.9,335.8 378.6,335.9 379.3,335.8 379.4,334.1 384.6,334.1 388,334.2 387.9,337.5 394.7,337.6 395.6,336 396,335.5 399.1,335.4 401.6,333.9 402.1,333.6 403.2,331.8 403.1,331.2 402.5,328.7 403.1,328.7 413.1,330.9 416.9,331.7 419.9,332.7 420.9,330.7 421.4,330.4 420.3,327.5 419.3,324.7 418,321.4 416.3,316.4 417.6,316.8 418.9,317.4 423.9,320.2 433.3,325.2 434.1,325.6 434.9,326 435.5,326.5 436,327 436.1,327.5 436.7,327.4 436.5,326.8 436.6,326.2 437.1,325.4 437.8,324.6 442.9,318.3 445.1,318.2 447.1,315.9 448.4,314.3 449.2,313.9 450.3,313.5 450.6,313.5 451.1,313.5 451.9,313.4 453.4,313.8 456.6,314.8 458,315.2 460.8,317 461.7,317.2 462.9,317.8 461.9,319.1 464.8,321.4 469.4,323.6 472.3,324.5 473,324.6 475,326 475.9,326.9 477.6,329.1 477.7,330.3 478.5,331.8 478.9,330.9 479.3,330.3 479.9,330.3 481.5,330.7 482.2,331.2 482.8,333.4 482.9,333.6 485.3,331.9 486.3,331.1 487.3,330.7 489.2,330.5 489.8,330.6 491.7,331.4 492.2,330"/>


</svg>