<?xml version="1.0" encoding="utf-8"?>
<!-- Generator: Adobe Illustrator 16.0.3, SVG Export Plug-In . SVG Version: 6.00 Build 0)  -->
<!DOCTYPE svg PUBLIC "-//W3C//DTD SVG 1.1//EN" "http://www.w3.org/Graphics/SVG/1.1/DTD/svg11.dtd">
<svg version="1.1" id="Ebene_1" xmlns="http://www.w3.org/2000/svg" xmlns:xlink="http://www.w3.org/1999/xlink" x="0px" y="0px"
	 width="67.336px" height="69.848px" viewBox="17.628 0 67.336 69.848" enable-background="new 17.628 0 67.336 69.848"
	 xml:space="preserve">
<g id="Your_Icon">
	<g id="Your_Icon_1_">
		<g>
			<path d="M23.03,39.611v1.534h2.639v-1.534c0-3.175,2.583-5.759,5.759-5.759c3.177,0,5.76,2.584,5.76,5.759v1.534h2.639v-1.534
				c0-4.63-3.768-8.397-8.399-8.397C26.797,31.214,23.03,34.981,23.03,39.611z"/>
			<path d="M43.126,45.323c0,0.827-0.669,1.497-1.496,1.497H21.227c-0.827,0-1.497-0.669-1.497-1.497v-1.758
				c0-0.826,0.67-1.496,1.497-1.496H41.63c0.828,0,1.496,0.67,1.496,1.496V45.323z"/>
			<path d="M43.148,49.371c0-0.827-0.691-1.593-1.518-1.593H21.227c-0.827,0-1.782,0.766-1.782,1.593v1.756
				c0,0.009,0.002,0.016,0.002,0.022c0,0.017-0.002,0.034-0.002,0.05v3.905c0,1.835,0.956,3.044,1.782,3.044H41.63
				c0.826,0,1.518-1.209,1.518-3.043V51.2c0-0.017-0.002-0.032-0.002-0.05c0-0.008,0.002-0.014,0.002-0.021V49.371z"/>
			<path d="M32.066,46.869c0.552,0,0.999,0.161,0.999,0.359v4.892c0,0.199-0.448,0.359-0.999,0.359h-1.175
				c-0.551,0-0.999-0.16-0.999-0.359v-4.892c0-0.199,0.447-0.359,0.999-0.359H32.066z"/>
			<path d="M32.653,45.729c1.153,0,2.084,0.112,2.084,0.252v3.44c0,0.139-0.934,0.253-2.084,0.253h-2.45
				c-1.15,0-2.084-0.113-2.084-0.253v-3.44c0-0.139,0.934-0.252,2.084-0.252L32.653,45.729L32.653,45.729z"/>
		</g>
	</g>
	<g>
		<path d="M81.455,48.557c-1.362-2.783-3.473-4.476-8.648-4.476h-0.54h-0.524c-1.883,0-2.945,0.141-4.545,0.646
			C64.426,45.6,54.158,57.941,54.158,57.941c-0.628,0.626-0.628,1.643,0,2.271c0.313,0.313,0.723,0.469,1.131,0.469
			c0.412,0,0.822-0.155,1.137-0.469l9.771-9.013c0.017,0.232,0.196,9.578,0.196,9.578h11.751l0.253-8.164l0.793,8.164h3.803
			C82.509,55.687,81.856,49.374,81.455,48.557z M69.751,60.702h-2.672l8.872-15.869c0.883,0.179,1.612,0.446,2.236,0.781
			L69.751,60.702z"/>
		<path d="M77.82,37.229c0,3.069-2.484,5.553-5.549,5.553h-0.005c-0.005,0-0.005,0-0.009,0c-3.061,0-5.547-2.483-5.547-5.553
			c0-0.593,0.118-1.159,0.289-1.693h5.266h5.264C77.705,36.07,77.82,36.636,77.82,37.229z"/>
		<polygon points="77.99,30.341 77.529,34.679 72.267,34.679 67,34.679 63.801,29.109 66.711,30.427 		"/>
		<path d="M58.379,62.643c-0.242,0.113-0.528,0.01-0.644-0.231l-7.742-16.467c-0.114-0.242-0.011-0.53,0.231-0.643l0.037-0.016
			c0.242-0.114,0.528-0.011,0.643,0.23l7.743,16.468c0.113,0.242,0.011,0.529-0.231,0.643L58.379,62.643z"/>
	</g>
	<g>
		<path d="M64.23,15.768l-0.842,1.757c-0.15,0.31-0.524,0.442-0.834,0.293l-8.93-4.262c-0.138,0.11-0.287,0.202-0.449,0.278l0,0
			v6.981c0,0.534-0.436,0.97-0.969,0.97l0,0c-0.533,0-0.969-0.436-0.969-0.97v-2.509l-10.859,3.708v1.613h-2.386v-9.947h2.386v6.459
			l10.86-3.745v-2.562c-0.741-0.344-1.252-1.072-1.252-1.913c0-0.034,0.001-0.067,0.002-0.1l-7.222-3.447
			c-0.311-0.148-0.443-0.523-0.294-0.833l3.37-7.033c0.149-0.31,0.523-0.441,0.834-0.294L66.361,9.61l0.002,0
			c0.092,0.042,3.042,1.358,3.018,1.568c-0.023,0.211-0.895,0.525-1.832-0.032c-0.709-0.354-1.014-0.101-1.014-0.101L64.23,15.768z"
			/>
		<circle cx="52.807" cy="10.559" r="1.512"/>
		<circle cx="52.807" cy="10.559" r="1.039"/>
	</g>
	<path d="M18.739,37.291c-0.614,0-1.111-0.498-1.111-1.111c0-13.25,7.814-25.314,19.908-30.736c0.56-0.252,1.217,0,1.468,0.56
		c0.251,0.56,0.001,1.218-0.559,1.468c-11.296,5.064-18.595,16.333-18.595,28.709C19.851,36.792,19.353,37.291,18.739,37.291z"/>
	<path d="M51.301,69.848c-0.003,0-0.006,0-0.008,0c-8.105,0-15.935-2.922-22.049-8.227c-0.464-0.402-0.513-1.104-0.111-1.566
		c0.402-0.463,1.105-0.512,1.567-0.111c5.709,4.955,13.023,7.683,20.593,7.683c0.004,0.001,0.004,0.001,0.007,0
		c5.284,0,10.509-1.337,15.108-3.862c0.539-0.297,1.215-0.101,1.51,0.438c0.295,0.539,0.1,1.215-0.438,1.51
		C62.553,68.416,56.958,69.848,51.301,69.848z"/>
	<path d="M82.794,45.555c-0.093,0-0.188-0.012-0.282-0.036c-0.594-0.156-0.949-0.763-0.793-1.357
		c0.68-2.588,1.023-5.274,1.023-7.982c0-8.847-3.758-17.334-10.313-23.284c-0.454-0.413-0.487-1.116-0.076-1.57
		c0.413-0.455,1.115-0.488,1.569-0.076c7.017,6.37,11.041,15.457,11.041,24.929c0,2.898-0.369,5.774-1.096,8.546
		C83.738,45.225,83.287,45.555,82.794,45.555z"/>
	<path d="M66.521,13.252c0.164,0.078,0.235,0.272,0.158,0.437l-1.904,4.053c-0.078,0.164-0.273,0.234-0.438,0.157l-0.35-0.164
		c-0.164-0.078-0.233-0.273-0.157-0.437l1.904-4.053c0.077-0.165,0.272-0.234,0.437-0.157L66.521,13.252z"/>
</g>
</svg>
