<?xml version="1.0" encoding="utf-8"?>
<!-- Generator: Adobe Illustrator 16.0.3, SVG Export Plug-In . SVG Version: 6.00 Build 0)  -->
<!DOCTYPE svg PUBLIC "-//W3C//DTD SVG 1.1//EN" "http://www.w3.org/Graphics/SVG/1.1/DTD/svg11.dtd">
<svg version="1.1" id="Layer_1" xmlns="http://www.w3.org/2000/svg" xmlns:xlink="http://www.w3.org/1999/xlink" x="0px" y="0px"
	 width="74.075px" height="55.471px" viewBox="14.259 6.709 74.075 55.471" enable-background="new 14.259 6.709 74.075 55.471"
	 xml:space="preserve">
<path d="M88.334,20.967c0-1.533-1.244-2.778-2.778-2.778h-0.239c-0.258-1.267-1.377-2.222-2.723-2.222h-37.83l-7.261-8.425
	l-0.014,0.003c-0.504-0.516-1.206-0.837-1.984-0.837H17.037c-1.534,0-2.777,1.244-2.777,2.778v49.912l-0.001,0.004
	c0,1.533,1.243,2.777,2.776,2.777h0.001h12.499h0.001h12.5h0h40.555h0.001c1.535,0,2.778-1.244,2.778-2.777v-0.019L88.334,20.967z
	 M42.037,59.957H29.536h-12.5c-0.288,0-0.525-0.221-0.552-0.502l2.954-38.374c0.004-0.057,0.006-0.114,0.006-0.171
	c0-0.307,0.248-0.555,0.553-0.555h0.534l64.84,0.056l0,0h0.184c0.288,0,0.526,0.222,0.554,0.503l-0.737,9.561l0,0L83.154,59.23
	c-0.004,0.058-0.006,0.115-0.006,0.172c0,0.306-0.25,0.555-0.556,0.555H42.037z"/>
</svg>
