<?xml version="1.0" encoding="utf-8"?>
<!-- Generator: Adobe Illustrator 16.0.3, SVG Export Plug-In . SVG Version: 6.00 Build 0)  -->
<!DOCTYPE svg PUBLIC "-//W3C//DTD SVG 1.1//EN" "http://www.w3.org/Graphics/SVG/1.1/DTD/svg11.dtd">
<svg version="1.1" id="Ebene_1" xmlns="http://www.w3.org/2000/svg" xmlns:xlink="http://www.w3.org/1999/xlink" x="0px" y="0px"
	 width="56.296px" height="48.148px" viewBox="23.148 19.629 56.296 48.148" enable-background="new 23.148 19.629 56.296 48.148"
	 xml:space="preserve">
<g>
	<rect x="23.148" y="65.556" width="56.296" height="2.222"/>
</g>
<rect x="14.259" y="-2.593" fill="none" width="74.075" height="74.074"/>
<polygon points="59.444,37.407 75.74,37.407 75.74,34.444 77.223,34.444 77.223,33.704 60.556,33.704 59.444,34.815 "/>
<polygon points="43.148,37.407 26.852,37.407 26.852,34.444 25.371,34.444 25.371,33.704 42.037,33.704 43.148,34.815 "/>
<polygon points="29.815,44.074 29.815,43.333 25.371,43.333 25.371,44.074 26.111,44.074 26.111,64.074 25.371,64.074 
	25.371,64.814 29.815,64.814 29.815,64.074 29.074,64.074 29.074,44.074 "/>
<polygon points="38.704,44.074 38.704,43.333 34.259,43.333 34.259,44.074 35,44.074 35,64.074 34.259,64.074 34.259,64.814 
	38.704,64.814 38.704,64.074 37.963,64.074 37.963,44.074 "/>
<polygon points="47.593,44.074 47.593,43.333 43.148,43.333 43.148,44.074 43.889,44.074 43.889,64.074 43.148,64.074 
	43.148,64.814 47.593,64.814 47.593,64.074 46.852,64.074 46.852,44.074 "/>
<polygon points="59.444,44.074 59.444,43.333 55,43.333 55,44.074 55.74,44.074 55.74,64.074 55,64.074 55,64.814 59.444,64.814 
	59.444,64.074 58.703,64.074 58.703,44.074 "/>
<polygon points="68.334,44.074 68.334,43.333 63.889,43.333 63.889,44.074 64.629,44.074 64.629,64.074 63.889,64.074 
	63.889,64.814 68.334,64.814 68.334,64.074 67.593,64.074 67.593,44.074 "/>
<polygon points="77.223,44.074 77.223,43.333 72.777,43.333 72.777,44.074 73.519,44.074 73.519,64.074 72.777,64.074 
	72.777,64.814 77.223,64.814 77.223,64.074 76.481,64.074 76.481,44.074 "/>
<polygon points="58.703,38.148 58.703,34.444 59.444,33.704 59.444,32.963 58.703,32.963 58.703,32.222 43.889,32.222 
	43.889,32.963 43.148,32.963 43.148,33.704 43.889,34.444 43.889,38.148 23.889,38.148 24.629,38.889 24.629,39.629 26.111,39.629 
	26.111,42.593 76.481,42.593 76.481,39.629 77.963,39.629 77.963,38.889 78.703,38.148 "/>
<circle cx="51.297" cy="22.593" r="0.741"/>
<polygon points="50.556,21.111 52.037,21.111 52.777,20.371 52.777,19.629 51.297,20.371 51.297,20.371 49.815,19.629 
	49.815,20.371 "/>
<path d="M52.037,24.815c0-0.409-0.332-0.741-0.74-0.741c-0.41,0-0.741,0.332-0.741,0.741v3.704h1.481V24.815z"/>
<path d="M56.481,27.037c-0.409,0-0.741,0.332-0.741,0.741v1.481h-1.48v-1.481c0-0.409-0.332-0.741-0.741-0.741
	s-0.741,0.332-0.741,0.741v1.481h-2.962v-1.481c0-0.409-0.332-0.741-0.741-0.741c-0.409,0-0.741,0.332-0.741,0.741v1.481h-1.481
	v-1.481c0-0.409-0.332-0.741-0.741-0.741c-0.409,0-0.741,0.332-0.741,0.741v3.704h0.741h0.741h1.481h1.481h2.962h1.482h1.48h0.741
	h0.741v-3.704C57.223,27.369,56.891,27.037,56.481,27.037z"/>
</svg>
