<?xml version="1.0" encoding="utf-8"?>
<!-- Generator: Adobe Illustrator 16.0.3, SVG Export Plug-In . SVG Version: 6.00 Build 0)  -->
<!DOCTYPE svg PUBLIC "-//W3C//DTD SVG 1.1//EN" "http://www.w3.org/Graphics/SVG/1.1/DTD/svg11.dtd">
<svg version="1.1" id="Camada_1" xmlns="http://www.w3.org/2000/svg" xmlns:xlink="http://www.w3.org/1999/xlink" x="0px" y="0px"
	 width="74.076px" height="32.165px" viewBox="14.461 5.854 74.076 32.165" enable-background="new 14.461 5.854 74.076 32.165"
	 xml:space="preserve">
<path d="M20.681,38.017c0,0-3.854-2.825-6.192-4.599c-0.062-3.211,0-7.227,0-7.227h5.3V10.978h3.684v7.367h2.563v-3.121l3.523-0.094
	V5.854h2.723v9.289h4.671l0.06,4.307l-2.009,0.017v6.669l53.534,0.057c-2.074,2.683-9.143,11.83-9.143,11.83
	C78.438,38.021,20.681,38.017,20.681,38.017z"/>
<rect x="43.97" y="19.466" width="8.968" height="5.125"/>
<rect x="54.699" y="19.466" width="8.648" height="5.125"/>
<rect x="65.43" y="19.466" width="8.809" height="5.125"/>
<rect x="43.97" y="12.58" width="8.968" height="5.124"/>
<rect x="54.699" y="12.58" width="8.648" height="5.124"/>
<rect x="65.43" y="12.58" width="8.809" height="5.124"/>
</svg>
