<svg xmlns="http://www.w3.org/2000/svg" xmlns:xlink="http://www.w3.org/1999/xlink" version="1.1" x="0px" y="0px" width="100px" height="100px" viewBox="0 0 100 100" enable-background="new 0 0 100 100" xml:space="preserve">
<g id="Captions">
</g>
<g id="Your_Icon">
	<path fill-rule="evenodd" clip-rule="evenodd" fill="#000000" d="M76.938,48.71c0-2.215-1.661-4.058-3.69-4.243L72.51,40.41   l16.977-0.738v8.48c1.104,1.115,2.581,1.849,4.057,1.849c1.657,0,3.134-0.733,4.238-1.849v-9.219   c1.295-0.737,2.028-2.033,2.028-3.51V23.62c0-2.029-1.652-3.877-3.686-4.063L93.909,5.905C93.353,2.586,90.4,0,87.081,0H72.876   h-14.21c-3.504,0-6.457,2.586-7.01,5.905l-2.028,13.651c-2.214,0.187-3.875,2.034-3.875,4.063v1.476h-9.957   c-3.51,0-6.281,2.395-6.829,5.714l-2.215,13.657c-2.218,0.186-3.875,2.028-3.875,4.243v1.291h-9.962   c-3.505,0-6.458,2.585-7.009,5.905L3.876,69.371C1.657,69.562,0,71.404,0,73.619v11.619c0,1.476,0.738,2.772,2.028,3.696v9.223   C3.133,99.263,4.609,100,6.271,100c1.476,0,3.138-0.737,4.057-1.843v-8.49l16.796,0.558l16.604-0.558v8.49   C44.833,99.263,46.31,100,47.786,100c1.662,0,3.138-0.737,4.242-1.843v-9.223c1.285-0.743,2.029-2.221,2.029-3.696V73.619   c0-2.215-1.657-4.057-3.872-4.248l-0.558-4.057L66.6,64.577v8.49c1.115,1.291,2.591,1.849,4.057,1.849   c1.667,0,3.144-0.558,4.248-1.849v-9.229c1.296-0.733,2.033-2.027,2.033-3.506V48.71z M72.876,16.604   c16.61,0.372,16.977,0.558,16.977,0.558c1.477,0,2.767-1.29,2.767-2.767c0,0,0-0.557-0.743-4.434   c-0.361-2.762-2.581-4.795-5.343-5.167l-8.676-0.547H67.715l-8.677,0.547c-2.762,0.372-4.98,2.405-5.353,5.167   c-0.547,3.877-0.547,4.434-0.547,4.434c0,1.477,1.104,2.767,2.767,2.767C55.905,17.162,56.086,16.977,72.876,16.604 M30.81,35.058   c0.371-2.771,2.58-4.981,5.352-5.353l8.671-0.553H54.98l8.672,0.553c2.767,0.371,4.98,2.581,5.354,5.353   c0.737,3.876,0.737,4.243,0.737,4.243c0,1.476-1.295,2.766-2.772,2.766c0,0-0.18,0-16.971-0.552   c-16.791,0.552-16.977,0.552-16.977,0.552c-1.662,0-2.953-1.29-2.953-2.766c0,0,0.187-0.367,0.739-4.424V35.058z M7.934,59.963   c0.371-2.763,2.581-4.796,5.352-5.162l8.667-0.552h10.153l8.671,0.552c2.761,0.366,4.976,2.399,5.347,5.162   c0.743,3.876,0.743,4.248,0.743,4.248c0,1.657-1.295,2.771-2.771,2.771c0,0-0.367,0-16.971-0.562   c-16.796,0.562-17.163,0.562-17.163,0.562c-1.476,0-2.771-1.113-2.771-2.771C7.191,64.211,7.191,63.839,7.934,59.963"/>
</g>
</svg>