<?xml version="1.0" encoding="utf-8"?>
<!-- Generator: Adobe Illustrator 16.0.3, SVG Export Plug-In . SVG Version: 6.00 Build 0)  -->
<!DOCTYPE svg PUBLIC "-//W3C//DTD SVG 1.1//EN" "http://www.w3.org/Graphics/SVG/1.1/DTD/svg11.dtd">
<svg version="1.1" id="Calque_1" xmlns="http://www.w3.org/2000/svg" xmlns:xlink="http://www.w3.org/1999/xlink" x="0px" y="0px"
	 width="47.227px" height="46.247px" viewBox="28.281 11.457 47.227 46.247" enable-background="new 28.281 11.457 47.227 46.247"
	 xml:space="preserve">
<g>
	<circle cx="42.684" cy="41.536" r="3.978"/>
	<path d="M44.97,46.251l-0.024-0.048H44.8h-0.972h-2.283h-0.971h-0.17l-1.02,0.121h-0.146c-0.05,0.006-0.096,0.018-0.145,0.023
		l-0.218,0.025h-0.024c-4.369,0.616-4.761,2.695-4.761,2.695l-0.048,0.388v8.248h17.292v-8.247l-0.049-0.388
		C51.285,49.067,50.824,46.542,44.97,46.251z"/>
	<path d="M66.052,46.251l-0.024-0.048h-0.146H64.91h-2.283h-0.971h-0.17l-1.021,0.121H60.32c-0.051,0.006-0.096,0.018-0.146,0.023
		l-0.219,0.025h-0.022c-4.368,0.616-4.762,2.695-4.762,2.695l-0.048,0.388v8.248h17.292v-8.247l-0.048-0.388
		C72.365,49.067,71.905,46.542,66.052,46.251z"/>
	<circle cx="63.767" cy="41.536" r="3.978"/>
	<circle cx="35.56" cy="23.382" r="3.013"/>
	<path d="M49.196,25.921l8.185-8.82l-6.754,9.553c0.134,0.14,0.254,0.294,0.354,0.469c0.479,0.832,0.479,1.906,0.001,2.737
		c-0.452,0.783-1.251,1.232-2.192,1.232c0,0,0,0-0.001,0h-5.293v5.798c2.161,0.366,3.822,2.204,3.919,4.443h11.667
		c0.107-2.507,2.174-4.515,4.707-4.515c0.236,0,0.467,0.023,0.695,0.057V14.606c0-1.732-1.418-3.149-3.15-3.149H46.646
		c-1.732,0-3.15,1.417-3.15,3.149V25.89l5.289-0.001C48.925,25.889,49.062,25.902,49.196,25.921z"/>
	<path d="M35.205,46.778v-4.63h0.801l-0.001,4.223c0.713-0.307,1.615-0.569,2.765-0.73l0.262-0.027
		c0.06-0.012,0.102-0.019,0.146-0.024l0.419-0.037V45.07c-0.981-0.865-1.608-2.124-1.608-3.533c0-1.411,0.626-2.676,1.61-3.542
		l0.002-6.513v-1.44h9.182c1.928,0.006,1.928-2.981,0.002-2.981h-9.58v0.003h-0.049h-0.155l-7.03-0.003
		c-2.268,0-3.69,1.852-3.69,4.16v9.843c0,1.913,2.527,1.913,2.527,0v-9.582h0.805l-0.005,24.425c0,0.964,0.763,1.745,1.716,1.789
		l0.005-8.33l0.047-0.389C33.415,48.772,33.685,47.689,35.205,46.778z"/>
	<rect x="52.088" y="52.145" width="2.242" height="1.112"/>
	<rect x="73.266" y="52.145" width="2.242" height="1.112"/>
	<rect x="28.199" y="52.145" width="2.609" height="1.112"/>
</g>
</svg>
