<svg xmlns="http://www.w3.org/2000/svg" xmlns:xlink="http://www.w3.org/1999/xlink" version="1.1" baseProfile="basic" id="Calque_1" x="0px" y="0px" width="100px" height="100px" viewBox="5.0 -10.0 100.0 135.0" xml:space="preserve">
<g>
	<circle cx="38.373" cy="59.574" r="5.37"/>
	<path d="M41.459,65.939l-0.032-0.065H41.23h-1.312h-3.082h-1.311h-0.23l-1.377,0.163h-0.197c-0.068,0.008-0.129,0.024-0.196,0.032   l-0.294,0.034h-0.033c-5.898,0.832-6.427,3.638-6.427,3.638l-0.065,0.524V81.4h23.345V70.266l-0.066-0.524   C49.985,69.741,49.363,66.332,41.459,65.939z"/>
	<path d="M69.92,65.939l-0.033-0.065h-0.197h-1.311h-3.083h-1.31h-0.23l-1.377,0.163h-0.197c-0.068,0.008-0.129,0.024-0.197,0.032   l-0.295,0.034h-0.031c-5.898,0.832-6.428,3.638-6.428,3.638l-0.064,0.524V81.4h23.343V70.266l-0.065-0.524   C78.443,69.741,77.822,66.332,69.92,65.939z"/>
	<circle cx="66.835" cy="59.574" r="5.37"/>
	<circle cx="28.756" cy="35.065" r="4.068"/>
	<path d="M47.165,38.494l11.05-11.907l-9.118,12.896c0.18,0.189,0.342,0.398,0.478,0.633c0.648,1.123,0.648,2.573,0.001,3.695   c-0.61,1.057-1.689,1.663-2.959,1.663c0,0,0,0-0.001,0H39.47v7.827c2.917,0.494,5.16,2.975,5.29,5.998h15.75   c0.145-3.385,2.936-6.095,6.355-6.095c0.32,0,0.631,0.031,0.938,0.077V23.218c0-2.338-1.914-4.252-4.252-4.252H43.722   c-2.339,0-4.252,1.914-4.252,4.252v15.233l7.139-0.002C46.799,38.45,46.984,38.468,47.165,38.494z"/>
	<path d="M28.276,66.65V60.4h1.082L29.356,66.1c0.963-0.414,2.18-0.768,3.733-0.986l0.353-0.037   c0.081-0.016,0.137-0.025,0.197-0.033l0.566-0.05v-0.65c-1.325-1.167-2.171-2.867-2.171-4.769c0-1.905,0.845-3.613,2.174-4.781   l0.003-8.792v-1.944h12.396c2.602,0.008,2.602-4.024,0.002-4.024H33.676v0.004H33.61h-0.209l-9.49-0.004   c-3.062,0-4.982,2.499-4.982,5.615v13.288c0,2.582,3.412,2.582,3.412,0V46.001h1.086L23.42,78.975c0,1.301,1.03,2.356,2.317,2.415   l0.007-11.245l0.064-0.525C25.86,69.342,26.225,67.881,28.276,66.65z"/>
	<rect x="51.068" y="73.895" width="3.028" height="1.502"/>
	<rect x="79.658" y="73.895" width="3.028" height="1.502"/>
	<rect x="18.818" y="73.895" width="3.522" height="1.502"/>
</g>
</svg>