<svg xmlns="http://www.w3.org/2000/svg" xmlns:xlink="http://www.w3.org/1999/xlink" version="1.1" x="0px" y="0px" width="100px" height="100px" viewBox="0 0 100 100" enable-background="new 0 0 100 100" xml:space="preserve">
<g id="Captions">
</g>
<g id="Your_Icon">
	<path fill-rule="evenodd" clip-rule="evenodd" fill="#000000" d="M42.902,74.042c0,10.565-2.763,21.978-2.938,22.844   c-0.339,0.688-1.035,0.688-1.728,0.519c-0.518-0.18-4.327-1.902-5.362-2.081c-0.867-0.349-0.693-1.215-0.867-1.732l-2.425-12.628   h2.076c-1.21-7.439-3.635-17.815-3.635-23.522c0-5.716,1.732-11.422,1.907-12.119c0.174-0.688,1.384-2.759,2.943-1.035   c1.728,1.901,4.321,3.635,6.572,4.152c0.518,0.179,1.21,0.349,1.21,0.349v3.465C40.657,57.788,42.902,63.665,42.902,74.042    M65.918,94.805c0,0-5.538-29.756-5.707-30.961c-0.344-1.394-1.041-3.983-1.041-9.172c0-12.637,6.922-21.459,7.271-21.808   c0.169-0.17,1.21-1.384,2.594,0.349c1.554,2.25,6.055,8.135,7.782,9.858c1.559,1.563,4.84,4.85,10.034,8.833   c-1.21,1.205-1.036,2.59-1.036,2.59c0.688,0,1.559,0,2.42-0.17c0,0-0.174-0.696,0.175-1.215c0.522,0.358,2.25,1.732,3.635,1.912   l-7.439,44.464l1.897,0.509l7.443-44.812c1.38-0.16,2.251-1.206,2.251-1.902c0-0.866-0.349-1.554-1.385-2.241   c-1.21-0.866-7.612-5.536-12.632-11.94c-3.287-4.491-7.265-10.725-10.033-21.62c-0.349-1.563,0.688-2.081,1.036-2.081   c0.522,0,1.21,0.169,1.906,0.169c5.881,0,7.787-4.839,7.787-7.26c0-2.43-2.081-8.305-8.658-8.305c-5.88,0-8.3,5.706-8.3,8.305   c0,1.724-0.522,2.072-1.385,2.42c-2.071,1.205-7.086,3.107-13.319,10.547c-7.963,9.171-9.168,19.906-9.168,19.906   s-0.522-0.349-1.04-0.527c-3.635-1.036-5.881-5.537-5.881-8.465c0-2.957,3.112-10.217,3.112-10.387   c0.169-0.348,0.518-0.867,1.728-1.045c5.711-0.518,7.095-6.563,7.095-8.305c0-1.723-1.558-8.126-8.479-8.126   s-8.301,6.403-8.301,8.305c0,1.732,0.349,2.42,0.349,3.286c0,0.697-0.696,1.385-1.394,2.071   C16.09,29.586,3.636,50.858,3.806,80.963h6.055l-1.385,19.03h11.249c2.077,0,1.733-1.723,0.696-2.071   c-1.563-0.697-4.85-1.902-5.367-2.071c-0.522-0.349-1.036-0.876-0.522-2.26l3.291-12.628h4.323l6.229,19.03h25.434   c0.518,0,1.21-0.339,1.554-1.045c0.174-0.678-0.861-1.205-1.21-1.375c-0.344,0-3.287-1.215-3.635-1.554   c-0.174-0.169-0.861-0.518-0.683-1.562c0.17-0.866,2.067-9.68,2.067-19.897c1.215,3.116,3.117,7.787,4.327,12.289   c1.389,4.491,2.773,10.725,2.942,11.93c0.344,1.385,1.385,1.215,1.385,1.215h10.904c0.514,0,1.21-0.509,1.21-1.215   c0-0.856-0.871-1.205-0.871-1.205s-4.496-1.394-5.188-1.554C65.918,95.851,65.918,95.323,65.918,94.805"/>
</g>
</svg>