<?xml version="1.0" encoding="utf-8"?>
<!-- Generator: Adobe Illustrator 16.0.3, SVG Export Plug-In . SVG Version: 6.00 Build 0)  -->
<!DOCTYPE svg PUBLIC "-//W3C//DTD SVG 1.1//EN" "http://www.w3.org/Graphics/SVG/1.1/DTD/svg11.dtd">
<svg version="1.1" id="Layer_1" xmlns="http://www.w3.org/2000/svg" xmlns:xlink="http://www.w3.org/1999/xlink" x="0px" y="0px"
	 width="73.267px" height="72.621px" viewBox="13.689 13.689 73.267 72.621" enable-background="new 13.689 13.689 73.267 72.621"
	 xml:space="preserve">
<path d="M86.311,50l-25.168-5.542l9.908-15.509l-15.51,9.909L50,13.689l-5.542,25.168l-15.509-9.909l9.909,15.509L13.689,50
	l25.168,5.542l-9.909,15.509l15.509-9.908L50,86.311l5.541-25.168l15.51,9.909l-9.908-15.51L86.311,50L86.311,50z M65.935,34.065
	L65.935,34.065l-6.411,10.036l-2.971-0.654L65.935,34.065L65.935,34.065z M34.064,34.065l10.036,6.412l-0.654,2.97L34.064,34.065
	L34.064,34.065z M34.065,65.936l6.411-10.037l2.97,0.654L34.065,65.936L34.065,65.936z M55.246,55.247L55.246,55.247L50,50v29.07
	l-5.247-23.824L50,50H20.93l23.823-5.247L50,50v-29.07l5.246,23.823L50,50h29.069 M65.936,65.936l-10.037-6.412l0.654-2.971
	L65.936,65.936L65.936,65.936z"/>
</svg>
