<?xml version="1.0" encoding="utf-8"?>
<!-- Generator: Adobe Illustrator 16.0.3, SVG Export Plug-In . SVG Version: 6.00 Build 0)  -->
<!DOCTYPE svg PUBLIC "-//W3C//DTD SVG 1.1//EN" "http://www.w3.org/Graphics/SVG/1.1/DTD/svg11.dtd">
<svg version="1.1" id="Your_Icon" xmlns="http://www.w3.org/2000/svg" xmlns:xlink="http://www.w3.org/1999/xlink" x="0px" y="0px"
	 width="100px" height="86.52px" viewBox="0 8.374 100 86.52" enable-background="new 0 8.374 100 86.52" xml:space="preserve">
<path d="M25.746,16.814c0-4.661,3.778-8.44,8.439-8.44s8.44,3.779,8.44,8.44s-3.779,8.44-8.44,8.44S25.746,21.476,25.746,16.814"/>
<path d="M30.348,55.713c-1.817,4.154-4.606,16.639-9.051,18.413c-6.886,2.749-13.771,5.497-20.657,8.246
	c-3.346-7.731,7.276-10.459,12.227-12.593c5.134-2.213,5.131-4.463,7.277-9.785c3.387-8.4,3.793-16.919,4.851-25.914
	c-2.435,0.782-7.216,1.204-8.468,3.53c-2.366,4.394-5.537,11.471-11.953,8.017c1.741-3.233,4.999-13.655,8.704-14.845
	c2.155-1.565,6.429-2.065,8.95-2.875c5.152-1.656,4.329,0.298,9.52,1.639c3.264,0.843,7.327-1.771,9.746-0.32
	c2.989,1.794,5.979,3.588,8.969,5.382c4.875,2.925,9.751,5.852,14.626,8.777c-5.14,8.565-19.352-3.771-24.578-6.908
	c-2.436,20.698,0.917,37.716,4.407,58.364C33.473,96.384,31.884,63.288,30.348,55.713z"/>
<circle cx="79.639" cy="38.67" r="7.673"/>
<path d="M82.663,94.936c-10.382-0.461,0.323-18.512-8.47-21.023c-2.445-0.699-3.428,3.908-6.973,3.908c-4.764,0-9.525,0-14.289,0
	c0-9.178,13.381-2.174,14.383-6.184c1.387-5.546,2.772-11.092,4.16-16.637c-7.724-2.143-6.908,10.807-14.265,7.131
	c4.59-9.178,8.078-16.082,19.741-12.576c3.099,0.931,6.029-1.589,8.24,0.622c1.996,1.997,3.992,3.993,5.988,5.989
	c2.939,2.939,5.879,5.879,8.818,8.818c-4.744,4.742-12.389-4.394-15.689-7.133C83.762,70.214,83.212,82.575,82.663,94.936z"/>
</svg>
