<?xml version="1.0" encoding="utf-8"?>
<!-- Generator: Adobe Illustrator 16.0.3, SVG Export Plug-In . SVG Version: 6.00 Build 0)  -->
<!DOCTYPE svg PUBLIC "-//W3C//DTD SVG 1.1//EN" "http://www.w3.org/Graphics/SVG/1.1/DTD/svg11.dtd">
<svg version="1.1" id="Ebene_1" xmlns="http://www.w3.org/2000/svg" xmlns:xlink="http://www.w3.org/1999/xlink" x="0px" y="0px"
	 width="73.543px" height="55.111px" viewBox="14.524 6.889 73.543 55.111" enable-background="new 14.524 6.889 73.543 55.111"
	 xml:space="preserve">
<g id="Captions">
</g>
<g id="Your_Icon">
	<path d="M55.55,23.818c-0.735-4.169-2.196-9.138-3.981-13.334l-0.008,0.002c-3.649-3.141-11.232-4.467-19.546-3
		c-8.315,1.463-14.987,5.304-17.343,9.504l-0.068,0.013c-0.242,4.55,0.083,9.72,0.819,13.894
		c2.943,16.684,15.064,32.896,26.146,30.943C52.647,59.885,58.492,40.506,55.55,23.818z M22.12,31.498
		c-0.488,0.176-1.042,0.17-1.546-0.07c-1.017-0.47-1.451-1.675-0.979-2.684c1.857-3.989,6.612-5.717,10.598-3.862
		c1.013,0.474,1.45,1.676,0.978,2.688c-0.474,1.013-1.675,1.451-2.685,0.979c-1.968-0.918-4.31-0.061-5.228,1.901
		C23.022,30.957,22.606,31.318,22.12,31.498z M51.021,38.333c-5.001,15.867-16.252,17.848-26.377,4.653l0.019-0.003
		c-0.009-0.006-0.019-0.01-0.025-0.016c-0.587-0.413-0.731-1.222-0.319-1.812c0.416-0.589,1.221-0.732,1.812-0.321
		c0.801,0.566,1.651,1.039,2.521,1.444c3.007,1.397,6.359,1.856,9.689,1.269c3.333-0.588,6.324-2.167,8.67-4.505
		c0.68-0.682,1.313-1.417,1.875-2.219c0.416-0.587,1.225-0.731,1.813-0.319c0.59,0.412,0.73,1.221,0.318,1.812
		c-0.002,0.006-0.01,0.013-0.016,0.019L51.021,38.333z M50.895,26.081c-0.787,0.79-2.069,0.79-2.857,0
		c-1.534-1.533-4.03-1.533-5.56,0c-0.397,0.397-0.915,0.595-1.432,0.595c-0.519-0.004-1.036-0.198-1.433-0.595
		c-0.787-0.788-0.787-2.07,0-2.859c3.113-3.11,8.172-3.11,11.281,0C51.686,24.013,51.686,25.292,50.895,26.081z M87.988,17.003
		h-0.006c-2.357-4.203-9.025-8.041-17.344-9.507c-6.246-1.103-12.082-0.627-16.147,1.01l0.266,0.619
		c1.569,3.679,2.937,8.04,3.8,12.036c1.821,0.725,3.381,2.111,4.272,4.022c0.474,1.014,0.034,2.218-0.978,2.691
		c-0.816,0.378-1.745,0.16-2.326-0.46c0.36,3.795,0.324,7.667-0.094,11.424c1.79,0.317,3.572,1.001,5.414,1.326
		c4.704,0.828,9.823-0.688,12.322,7.245l-0.02-0.004c0.008,0.01,0.014,0.017,0.02,0.023c0.409,0.588,0.269,1.4-0.32,1.812
		c-0.588,0.412-1.398,0.268-1.811-0.32c-0.563-0.805-1.199-1.538-1.877-2.218c-2.348-2.342-6.602-1.302-9.932-1.889
		c-1.859-0.326-3.176-0.467-4.396-1.23c-0.436,2.289-1.01,3.803-1.739,5.902c-0.997,2.889-2.221,5.423-3.636,7.577
		c2.121,2.548,4.665,4.263,7.567,4.778c11.081,1.952,23.203-14.259,26.146-30.943C87.905,26.723,88.23,21.553,87.988,17.003z
		 M83.15,29.639c-0.793,0.788-2.071,0.788-2.861,0c-1.535-1.535-4.028-1.535-5.563,0c-0.393,0.396-0.911,0.594-1.43,0.594
		c-0.516,0-1.035-0.199-1.428-0.594c-0.792-0.79-0.792-2.07,0-2.857c3.105-3.11,8.167-3.114,11.28-0.004
		C83.937,27.567,83.937,28.848,83.15,29.639z"/>
</g>
</svg>
