<?xml version="1.0" encoding="utf-8"?>
<!-- Generator: Adobe Illustrator 16.0.3, SVG Export Plug-In . SVG Version: 6.00 Build 0)  -->
<!DOCTYPE svg PUBLIC "-//W3C//DTD SVG 1.1//EN" "http://www.w3.org/Graphics/SVG/1.1/DTD/svg11.dtd">
<svg version="1.1" id="Layer_1" xmlns="http://www.w3.org/2000/svg" xmlns:xlink="http://www.w3.org/1999/xlink" x="0px" y="0px"
	 width="88.93px" height="90px" viewBox="5.536 5 88.93 90" enable-background="new 5.536 5 88.93 90" xml:space="preserve">
<rect fill="none" width="100" height="100"/>
<g>
	<path d="M91.953,50.872L76.368,35.287c1.015-2.534,1.591-5.289,1.591-8.183C77.959,14.917,68.04,5,55.852,5
		c-7.01,0-13.252,3.287-17.306,8.391c-3.481-1.577-8.042-2.534-13.13-2.534c-11.149,0-19.88,4.54-19.88,10.335v56.1
		c0,5.798,8.731,10.338,19.88,10.338c0.342,0,0.675-0.022,1.015-0.037C28.807,91.921,36.336,95,45.518,95
		c11.151,0,19.884-4.54,19.884-10.333V65.203c0-5.793-8.732-10.333-19.884-10.333c-0.074,0-0.146,0.005-0.217,0.005v-8.349
		c3.137,1.71,6.732,2.686,10.551,2.686c3.017,0,5.893-0.61,8.516-1.711L79.846,62.98c1.618,1.617,3.77,2.506,6.057,2.506
		c2.285,0,4.438-0.889,6.053-2.506c1.617-1.619,2.511-3.769,2.511-6.053C94.464,54.641,93.57,52.488,91.953,50.872z M25.416,13.449
		c4.702,0,8.678,0.834,11.634,2.087c-2.081,3.371-3.303,7.323-3.303,11.567c0,0.282,0.03,0.555,0.042,0.832
		c-2.416,0.625-5.229,1.003-8.373,1.003c-10.342,0-17.291-4.004-17.291-7.746C8.125,17.453,15.074,13.449,25.416,13.449z
		 M8.125,26.373c0.069,0.063,0.162,0.12,0.231,0.183c0.3,0.261,0.62,0.516,0.966,0.761c0.134,0.097,0.268,0.194,0.412,0.287
		c0.411,0.277,0.851,0.541,1.313,0.791c0.069,0.037,0.127,0.079,0.194,0.111c0.541,0.287,1.114,0.545,1.711,0.791
		c0.166,0.069,0.335,0.129,0.504,0.194c0.464,0.18,0.943,0.351,1.442,0.508c0.194,0.06,0.386,0.125,0.583,0.185
		c0.624,0.18,1.267,0.352,1.932,0.5c0.056,0.014,0.102,0.027,0.157,0.042c0.721,0.152,1.468,0.287,2.229,0.397
		c0.217,0.032,0.435,0.056,0.657,0.083c0.583,0.079,1.172,0.139,1.771,0.19c0.236,0.019,0.469,0.037,0.708,0.051
		c0.813,0.051,1.636,0.088,2.482,0.088c0.841,0,1.667-0.037,2.483-0.088c0.238-0.014,0.471-0.032,0.707-0.051
		c0.599-0.051,1.19-0.111,1.771-0.19c0.219-0.027,0.439-0.051,0.656-0.083c0.763-0.111,1.51-0.245,2.229-0.397
		c0.053-0.014,0.104-0.028,0.157-0.042c0.212-0.046,0.412-0.106,0.62-0.162c0.391,2.506,1.179,4.873,2.339,7.027
		c-2.883,1.096-6.616,1.813-10.962,1.813c-10.342,0-17.291-4.004-17.291-7.744L8.125,26.373L8.125,26.373z M8.125,36.775
		c3.391,3.111,9.787,5.173,17.291,5.173c4.716,0,8.96-0.832,12.323-2.21c1.005,1.433,2.175,2.737,3.483,3.893
		c-2.54,2.617-8.236,4.767-15.807,4.767c-10.342,0-17.291-4.003-17.291-7.744L8.125,36.775L8.125,36.775z M8.125,45.813
		c3.391,3.116,9.787,5.178,17.291,5.178c7.506,0,13.904-2.062,17.295-5.178v3.879c0,3.746-6.951,7.75-17.295,7.75
		c-10.342,0-17.291-4.004-17.291-7.75V45.813z M8.125,54.855c3.391,3.111,9.787,5.174,17.291,5.174c1.008,0,1.993-0.041,2.959-0.115
		c-1.734,1.54-2.737,3.343-2.737,5.289v1.271c-0.079,0-0.148,0.004-0.222,0.004c-10.342,0-17.291-4.004-17.291-7.744V54.855z
		 M29.422,71.329c0.134,0.097,0.271,0.194,0.414,0.287c0.412,0.276,0.851,0.54,1.313,0.79c0.067,0.037,0.125,0.074,0.194,0.111
		c0.541,0.281,1.114,0.541,1.71,0.789c0.167,0.065,0.333,0.131,0.501,0.194c0.465,0.181,0.945,0.347,1.442,0.509
		c0.194,0.061,0.386,0.12,0.585,0.182c0.624,0.185,1.267,0.354,1.933,0.504c0.055,0.009,0.102,0.027,0.157,0.035
		c0.719,0.158,1.465,0.287,2.226,0.398c0.217,0.032,0.437,0.061,0.659,0.087c0.583,0.074,1.169,0.136,1.771,0.187
		c0.236,0.019,0.467,0.041,0.708,0.056c0.813,0.051,1.637,0.083,2.482,0.083c0.842,0,1.667-0.032,2.483-0.083
		c0.236-0.015,0.472-0.037,0.705-0.056c0.599-0.051,1.19-0.111,1.773-0.187c0.219-0.026,0.439-0.055,0.656-0.087
		c0.763-0.111,1.509-0.24,2.229-0.398c0.054-0.008,0.102-0.026,0.156-0.035c0.664-0.148,1.31-0.319,1.932-0.504
		c0.201-0.062,0.391-0.121,0.587-0.182c0.497-0.162,0.978-0.328,1.442-0.509c0.168-0.063,0.336-0.129,0.502-0.194
		c0.596-0.244,1.172-0.508,1.709-0.789c0.07-0.037,0.131-0.08,0.199-0.111c0.463-0.254,0.896-0.514,1.31-0.79
		c0.146-0.093,0.276-0.19,0.42-0.292c0.338-0.24,0.651-0.494,0.952-0.754c0.074-0.064,0.166-0.119,0.238-0.188v5.242
		c0,3.739-6.951,7.744-17.293,7.744s-17.291-4.005-17.291-7.744v-5.242c0.069,0.063,0.162,0.12,0.231,0.185
		C28.759,70.83,29.078,71.084,29.422,71.329z M8.125,63.896c3.391,3.115,9.787,5.178,17.291,5.178c0.074,0,0.144-0.01,0.222-0.01
		v6.444c-0.079,0.005-0.148,0.015-0.222,0.015c-10.342,0-17.291-4.004-17.291-7.744V63.896z M25.416,85.037
		c-10.342,0-17.291-4.004-17.291-7.744v-4.354c3.391,3.11,9.787,5.172,17.291,5.172c0.074,0,0.148-0.004,0.222-0.004v6.561
		c0,0.125,0.023,0.245,0.03,0.365C25.583,85.031,25.501,85.037,25.416,85.037z M45.518,92.406c-10.342,0-17.291-4.004-17.291-7.739
		v-3.884c3.389,3.115,9.787,5.179,17.291,5.179c7.505,0,13.902-2.063,17.292-5.179v3.884C62.811,88.402,55.859,92.406,45.518,92.406
		z M62.811,65.203c0,3.744-6.949,7.744-17.292,7.744c-10.342,0-17.291-4-17.291-7.744c0-3.74,6.949-7.743,17.291-7.743
		C55.859,57.46,62.811,61.463,62.811,65.203z M42.541,54.991c0.053-0.048,0.116-0.089,0.171-0.136v0.121
		C42.651,54.98,42.596,54.986,42.541,54.991z M55.852,44.029c-9.331,0-16.921-7.591-16.921-16.926
		c0-9.33,7.591-16.921,16.921-16.921c9.33,0,16.926,7.591,16.926,16.921C72.775,36.438,65.182,44.029,55.852,44.029z M88.292,59.313
		c-1.276,1.276-3.505,1.276-4.78,0L69.482,45.287l4.777-4.78l14.031,14.032c0.637,0.639,0.988,1.488,0.988,2.391
		C89.279,57.831,88.928,58.676,88.292,59.313z"/>
	<path d="M55.852,13.65c-0.718,0-1.297,0.578-1.297,1.294c0,0.717,0.579,1.297,1.297,1.297c5.991,0,10.863,4.873,10.863,10.862
		c0,0.717,0.581,1.299,1.297,1.299c0.715,0,1.297-0.583,1.297-1.299C69.309,19.683,63.271,13.65,55.852,13.65z"/>
</g>
</svg>
