<?xml version="1.0" encoding="utf-8"?>
<!-- Generator: Adobe Illustrator 16.0.3, SVG Export Plug-In . SVG Version: 6.00 Build 0)  -->
<!DOCTYPE svg PUBLIC "-//W3C//DTD SVG 1.1//EN" "http://www.w3.org/Graphics/SVG/1.1/DTD/svg11.dtd">
<svg version="1.1" id="Your_Icon" xmlns="http://www.w3.org/2000/svg" xmlns:xlink="http://www.w3.org/1999/xlink" x="0px" y="0px"
	 width="90px" height="86.754px" viewBox="5 6.623 90 86.754" enable-background="new 5 6.623 90 86.754" xml:space="preserve">
<g>
	<g>
		<path d="M78.449,27.67l-0.936,0.936c0.336-0.337,0.57-0.74,0.701-1.17L78.449,27.67z"/>
	</g>
	<g>
		<path d="M78.449,27.67l-0.936,0.936c0.336-0.337,0.57-0.74,0.701-1.17L78.449,27.67z"/>
	</g>
	<g>
		<path d="M94.178,25.461l-8.744-8.745c-0.535-0.534-1.246-0.824-1.994-0.824c-0.74,0-1.451,0.29-1.985,0.824l-7.911,7.911
			l-2.068,2.069V9.432c0-1.545-1.265-2.809-2.81-2.809H7.809C6.255,6.623,5,7.887,5,9.432v81.136c0,1.545,1.255,2.809,2.809,2.809
			h60.857c1.545,0,2.809-1.264,2.809-2.809V52.135L94.178,29.43C95.273,28.335,95.273,26.556,94.178,25.461z M65.857,87.759H10.618
			V12.241h55.239v20.073L50.071,48.099H20.898c-1.039,0-1.873,0.843-1.873,1.873c0,1.04,0.833,1.874,1.873,1.874h25.429l-3.361,3.36
			c-0.253,0.253-0.459,0.552-0.599,0.88l-1.601,3.745H20.898c-1.039,0-1.873,0.843-1.873,1.873c0,1.039,0.833,1.873,1.873,1.873
			h18.266l-3.342,7.808c-0.028,0.075-0.056,0.15-0.075,0.225H20.898c-1.039,0-1.873,0.844-1.873,1.873
			c0,1.039,0.833,1.873,1.873,1.873h17.339c0.187,0,0.375-0.027,0.543-0.084c0.009,0,0.009,0,0.009,0
			c0.243-0.027,0.487-0.103,0.721-0.196l15.289-6.554c0.328-0.141,0.627-0.338,0.881-0.59l10.176-10.178v30.005H65.857z
			 M49.697,64.587l-5.955,2.556l2.556-5.955L49.697,64.587z M66.682,48.989L53.029,62.63l-4.765-4.767L70.65,35.469l5.158-5.149
			l4.767,4.766L66.682,48.989z M83.225,32.445l-4.775-4.775l-0.936,0.936c0.336-0.337,0.57-0.74,0.701-1.17l0.234,0.234l4.99-5
			l4.774,4.775L83.225,32.445z"/>
	</g>
</g>
<g>
	<path d="M55.568,28.389H20.897c-1.034,0-1.873-0.838-1.873-1.873c0-1.035,0.838-1.873,1.873-1.873h34.671
		c1.035,0,1.873,0.838,1.873,1.873C57.441,27.551,56.604,28.389,55.568,28.389z"/>
</g>
<g>
	<path d="M55.568,40.118H20.897c-1.034,0-1.873-0.838-1.873-1.873c0-1.034,0.838-1.873,1.873-1.873h34.671
		c1.035,0,1.873,0.838,1.873,1.873C57.441,39.28,56.604,40.118,55.568,40.118z"/>
</g>
</svg>
