<svg xmlns="http://www.w3.org/2000/svg" xmlns:xlink="http://www.w3.org/1999/xlink" version="1.1" id="Your_Icon" x="0px" y="0px" width="100px" height="100px" viewBox="0 0 100 100" enable-background="new 0 0 100 100" xml:space="preserve">
<g>
	<g>
		<path fill="#000000" d="M78.449,27.67l-0.936,0.936c0.337-0.337,0.571-0.74,0.702-1.17L78.449,27.67z"/>
	</g>
	<g>
		<path fill="#000000" d="M78.449,27.67l-0.936,0.936c0.337-0.337,0.571-0.74,0.702-1.17L78.449,27.67z"/>
	</g>
	<g>
		<path fill="#000000" d="M94.178,25.461l-8.745-8.745c-0.534-0.534-1.245-0.824-1.994-0.824c-0.74,0-1.451,0.29-1.985,0.824    l-7.911,7.911l-2.069,2.069V9.432c0-1.545-1.264-2.809-2.809-2.809H7.809C6.255,6.623,5,7.887,5,9.432v81.136    c0,1.545,1.255,2.809,2.809,2.809h60.857c1.545,0,2.809-1.264,2.809-2.809V52.135L94.178,29.43    C95.274,28.335,95.274,26.556,94.178,25.461z M65.857,87.759H10.618V12.241h55.239v20.073L50.071,48.099H20.898    c-1.039,0-1.873,0.843-1.873,1.873c0,1.039,0.833,1.873,1.873,1.873h25.429l-3.361,3.361c-0.253,0.253-0.459,0.552-0.599,0.88    l-1.601,3.745H20.898c-1.039,0-1.873,0.843-1.873,1.873c0,1.039,0.833,1.873,1.873,1.873h18.266l-3.342,7.808    c-0.028,0.075-0.056,0.15-0.075,0.225H20.898c-1.039,0-1.873,0.843-1.873,1.873c0,1.039,0.833,1.873,1.873,1.873h17.339    c0.187,0,0.375-0.028,0.543-0.084c0.009,0,0.009,0,0.009,0c0.243-0.028,0.487-0.103,0.721-0.197l15.289-6.554    c0.328-0.14,0.627-0.337,0.88-0.59l10.177-10.177V87.759z M49.697,64.587l-5.955,2.556l2.556-5.955L49.697,64.587z M66.681,48.989    L53.03,62.63l-4.766-4.766L70.65,35.469l5.159-5.149l4.766,4.766L66.681,48.989z M83.224,32.445l-4.775-4.775l-0.936,0.936    c0.337-0.337,0.571-0.74,0.702-1.17l0.234,0.234l4.99-5l4.775,4.775L83.224,32.445z"/>
	</g>
</g>
<g>
	<path fill="#000000" d="M55.569,28.389H20.897c-1.034,0-1.873-0.838-1.873-1.873s0.838-1.873,1.873-1.873h34.672   c1.034,0,1.873,0.838,1.873,1.873S56.603,28.389,55.569,28.389z"/>
</g>
<g>
	<path fill="#000000" d="M55.569,40.118H20.897c-1.034,0-1.873-0.838-1.873-1.873c0-1.034,0.838-1.873,1.873-1.873h34.672   c1.034,0,1.873,0.838,1.873,1.873C57.441,39.28,56.603,40.118,55.569,40.118z"/>
</g>
</svg>