<?xml version="1.0" encoding="utf-8"?>
<!-- Generator: Adobe Illustrator 16.0.3, SVG Export Plug-In . SVG Version: 6.00 Build 0)  -->
<!DOCTYPE svg PUBLIC "-//W3C//DTD SVG 1.1//EN" "http://www.w3.org/Graphics/SVG/1.1/DTD/svg11.dtd">
<svg version="1.1" id="Camada_1" xmlns="http://www.w3.org/2000/svg" xmlns:xlink="http://www.w3.org/1999/xlink" x="0px" y="0px"
	 width="60.173px" height="70.042px" viewBox="13.524 14.15 60.173 70.042" enable-background="new 13.524 14.15 60.173 70.042"
	 xml:space="preserve">
<path d="M72.472,82.533c-2.107-1.004-5.555-1.77-6.465-4.547c0,0-0.049-7.371,0.623-11.537l0.336-3.303c0,0,0.717-2.729-1.533-3.781
	l-0.431-0.336c0,0-7.181-6.08-10.629-7.803c0,0,2.204-2.395,3.593-7.087c0,0,0.141-0.957,0.91,0
	c0.764,0.959,1.674,0.288,1.962,0.049c0.286-0.241,2.487-0.479,7.659-4.788c0,0,1.006-0.765,1.58-0.813
	c0.574-0.048,2.441-0.574,2.107-2.059c-0.336-1.484-2.156-2.395-2.156-2.395h-1.771c0,0-1.148,1.244-1.148,2.013
	c0,0.767-0.717,1.339-0.766,1.483c-0.048,0.144-3.018,2.012-4.789,2.012c0,0,0.527-3.256-0.859-5.793l-0.385-3.562
	c0,0-0.143-0.793-2.105-1.993l0.049-1.818h1.962c0,0,0.574-0.287,0.813-0.862c0.238-0.574,0.72-3.544,0.72-3.544l-0.433-5.36
	c0,0-0.478-3.208-5.36-2.441c-4.883,0.764-4.454,5.075-4.454,5.075s-0.238,1.962,2.25,4.116l-0.908,1.438
	c0,0-2.729-0.289-3.734,0.619c-1.005,0.91-7.708,5.267-9.239,7.996c0,0-1.484,1.535-0.384,3.113c1.102,1.58,6.223,8.184,6.223,8.184
	s-2.152,3.016-3.59,4.547c-1.435,1.535-1.962,4.072-2.203,4.742c-0.238,0.672-2.105,2.68-2.729,3.113c0,0,1.246,0.908,1.82,1.291
	c0,0-3.255,4.596-4.166,6.271c-0.909,1.676-2.153,1.723-2.298,1.773c-0.144,0.045-5.122-0.77-8.281,2.008
	c-3.161,2.777-6.033,1.533-6.033,1.533s-3.064-0.814-3.303,2.105c-0.239,2.92-0.431,3.113-0.909,4.453
	c-0.479,1.342-0.815,3.924,0,4.404c0.813,0.479,1.962-2.107,1.962-2.107s3.446-4.26,3.926-4.596
	c0.479-0.336,10.819-2.582,10.819-2.582s3.16-0.336,4.452-0.195c1.293,0.145,2.729-0.717,2.729-0.717l0.382-0.479
	c0,0,6.465-3.975,9.816-8.855c0,0,3.445,0.238,5.744,1.002l0.238-1.529c0,0,3.113,1.688,7.468,1.969c0,0-1.388,3.678-0.667,7.414
	c0.715,3.734,2.057,6.127,1.77,8.521s-0.432,3.209-0.287,3.973c0.143,0.766,4.022,0.816,4.644,0.816
	c0.623,0,3.064,0.813,6.319,0.381C73.331,84.066,74.577,83.541,72.472,82.533z M46.761,40.118c-1.674-1.626-2.488-4.642-2.488-4.642
	c0.957-0.528,3.592-2.633,3.592-2.633C48.151,36.099,46.761,40.118,46.761,40.118z"/>
</svg>
