<svg xmlns="http://www.w3.org/2000/svg" xmlns:xlink="http://www.w3.org/1999/xlink" version="1.1" id="Ebene_1" x="0px" y="0px" viewBox="5.0 -10.0 100.0 135.0" enable-background="new 0 0 100 100" xml:space="preserve" height="100px" width="100px">
<g>
	<rect x="12" y="92" fill="#000000" width="76" height="3"/>
</g>
<rect fill="none" width="100" height="100"/>
<polygon fill="#000000" points="61,54 83,54 83,50 85,50 85,49 62.5,49 61,50.5 "/>
<polygon fill="#000000" points="39,54 17,54 17,50 15,50 15,49 37.5,49 39,50.5 "/>
<polygon fill="#000000" points="21,63 21,62 15,62 15,63 16,63 16,90 15,90 15,91 21,91 21,90 20,90 20,63 "/>
<polygon fill="#000000" points="33,63 33,62 27,62 27,63 28,63 28,90 27,90 27,91 33,91 33,90 32,90 32,63 "/>
<polygon fill="#000000" points="45,63 45,62 39,62 39,63 40,63 40,90 39,90 39,91 45,91 45,90 44,90 44,63 "/>
<polygon fill="#000000" points="61,63 61,62 55,62 55,63 56,63 56,90 55,90 55,91 61,91 61,90 60,90 60,63 "/>
<polygon fill="#000000" points="73,63 73,62 67,62 67,63 68,63 68,90 67,90 67,91 73,91 73,90 72,90 72,63 "/>
<polygon fill="#000000" points="85,63 85,62 79,62 79,63 80,63 80,90 79,90 79,91 85,91 85,90 84,90 84,63 "/>
<polygon fill="#000000" points="60,55 60,50 61,49 61,48 60,48 60,47 40,47 40,48 39,48 39,49 40,50 40,55 13,55 14,56 14,57 16,57   16,61 84,61 84,57 86,57 86,56 87,55 "/>
<circle fill="#000000" cx="50" cy="34" r="1"/>
<polygon fill="#000000" points="49,32 51,32 52,31 52,30 50,31 50,31 48,30 48,31 "/>
<path fill="#000000" d="M51,37c0-0.552-0.448-1-1-1s-1,0.448-1,1v5h2V37z"/>
<path fill="#000000" d="M57,40c-0.552,0-1,0.448-1,1v2h-2v-2c0-0.552-0.448-1-1-1s-1,0.448-1,1v2h-4v-2c0-0.552-0.448-1-1-1  s-1,0.448-1,1v2h-2v-2c0-0.552-0.448-1-1-1s-1,0.448-1,1v5h1h1h2h2h4h2h2h1h1v-5C58,40.448,57.552,40,57,40z"/>
</svg>