<svg xmlns="http://www.w3.org/2000/svg" xmlns:xlink="http://www.w3.org/1999/xlink" version="1.1" id="Camada_1" x="0px" y="0px" width="100px" height="43.427px" viewBox="5.202 18.6313 100.0 58.62645" enable-background="new 0.202 22.974 100 43.427" xml:space="preserve">
<path d="M8.598,66.394c0,0-5.202-3.813-8.359-6.208c-0.083-4.335,0-9.755,0-9.755h7.155V29.892h4.973v9.945h3.459v-4.213  l4.756-0.126V22.974h3.676v12.54h6.307l0.081,5.815l-2.712,0.022v9.003l72.271,0.077c-2.8,3.621-12.344,15.97-12.344,15.97  C86.57,66.4,8.598,66.394,8.598,66.394z"/>
<rect x="40.039" y="41.35" width="12.107" height="6.918"/>
<rect x="54.524" y="41.35" width="11.674" height="6.918"/>
<rect x="69.009" y="41.35" width="11.891" height="6.918"/>
<rect x="40.039" y="32.054" width="12.107" height="6.918"/>
<rect x="54.524" y="32.054" width="11.674" height="6.918"/>
<rect x="69.009" y="32.054" width="11.891" height="6.918"/>
</svg>