<svg xmlns="http://www.w3.org/2000/svg" xmlns:xlink="http://www.w3.org/1999/xlink" version="1.1" id="Layer_1" x="0px" y="0px" width="100px" height="100px" viewBox="5.0 -10.0 100.0 135.0" enable-background="new 0 0 100 100" xml:space="preserve">
<g>
	<path d="M58.585,35.762l6.475,0.398l-6.037,2.381C58.925,37.599,58.778,36.672,58.585,35.762z M57.405,31.785l6.455-0.619   l-5.587,3.293C58.03,33.548,57.74,32.655,57.405,31.785z M55.613,28.042l6.282-1.622l-5.004,4.127   C56.51,29.688,56.082,28.852,55.613,28.042z M53.269,24.641l13.869-7.226l-11.932,9.95C54.617,26.415,53.97,25.505,53.269,24.641z    M49.974,21.247L72.151,2.261L52.765,24.038C51.904,23.04,50.972,22.107,49.974,21.247z M46.745,18.867L58.179,5.559L49.489,20.84   C48.619,20.126,47.703,19.466,46.745,18.867z M43.464,17.119l6.289-9.331l-3.784,10.609C45.16,17.929,44.323,17.502,43.464,17.119z    M39.552,15.738l4.006-7.816l-1.331,8.684C41.356,16.271,40.464,15.98,39.552,15.738z M35.471,14.989l2.381-6.038l0.397,6.475   C37.34,15.233,36.413,15.086,35.471,14.989z M31.323,14.886l1.408-6.337l1.407,6.337c-0.466-0.024-0.936-0.037-1.407-0.037   C32.259,14.849,31.79,14.862,31.323,14.886z M27.212,15.426l0.398-6.475l2.381,6.038C29.05,15.086,28.122,15.233,27.212,15.426z    M23.235,16.606l-0.619-6.455l3.294,5.587C24.999,15.98,24.106,16.271,23.235,16.606z M19.493,18.398l-1.621-6.282l4.127,5.003   C21.138,17.502,20.302,17.929,19.493,18.398z M16.078,20.754L13.492,14.8l4.861,4.298C17.565,19.61,16.806,20.163,16.078,20.754z    M13.073,23.612l-3.486-5.477l5.477,3.486C14.365,22.25,13.7,22.914,13.073,23.612z M10.549,26.903l-4.298-4.862l5.954,2.586   C11.614,25.355,11.062,26.114,10.549,26.903z M8.57,30.547L3.567,26.42l6.281,1.622C9.38,28.852,8.952,29.688,8.57,30.547z    M7.188,34.459l-5.586-3.294l6.455,0.619C7.722,32.655,7.432,33.547,7.188,34.459z M6.44,38.541L0.403,36.16l6.475-0.399   C6.685,36.671,6.538,37.599,6.44,38.541z M6.337,42.688L0,41.28l6.337-1.408C6.312,40.339,6.3,40.808,6.3,41.28   S6.312,42.222,6.337,42.688z M6.878,46.799L0.403,46.4L6.44,44.02C6.538,44.961,6.685,45.889,6.878,46.799z M8.058,50.775   l-6.456,0.619l5.587-3.294C7.432,49.013,7.722,49.905,8.058,50.775z M9.849,54.518L3.567,56.14l5.003-4.127   C8.952,52.873,9.38,53.709,9.849,54.518z M9.483,56.862l1.065-1.205c0.089,0.138,0.18,0.274,0.271,0.409   C10.36,56.311,9.914,56.576,9.483,56.862z"/>
	<path d="M9.914,41.28c0-12.602,10.216-22.817,22.817-22.817c12.439,0,22.553,9.954,22.812,22.331c-2.644,1.213-5.014,2.919-6.989,5   c-1.877-0.574-3.867-0.882-5.926-0.882c-7.799,0-14.562,4.409-17.942,10.868c-2.015-0.961-4.27-1.5-6.648-1.5   c-1.288,0-2.539,0.158-3.735,0.455C11.543,50.963,9.914,46.312,9.914,41.28z"/>
	<path d="M83.893,59.657c1.524-0.798,3.259-1.249,5.099-1.249c6.08,0,11.009,4.928,11.009,11.009c0,1.729-0.398,3.364-1.108,4.821   H79.091l-0.049-0.102l-0.092,0.102H7.092c-0.571-1.389-0.887-2.909-0.887-4.503c0-6.534,5.298-11.832,11.832-11.832   c3.284,0,6.255,1.338,8.399,3.498c1.699-7.371,8.305-12.867,16.191-12.867c2.516,0,4.9,0.559,7.037,1.559   c3.462-4.687,9.025-7.727,15.299-7.727C74.882,42.367,83.026,49.964,83.893,59.657z"/>
	<path fill-rule="evenodd" clip-rule="evenodd" d="M52.361,78.836c0.342-1.14,3.561-5.177,3.615-5.177   c0.02,0,0.853,4.037,0.511,5.177c-0.342,1.139-1.543,2.062-2.682,2.062C52.666,80.898,52.02,79.975,52.361,78.836z"/>
	<path fill-rule="evenodd" clip-rule="evenodd" d="M57.251,84.268c0.342-1.139,3.561-5.176,3.615-5.176   c0.02,0,0.852,4.037,0.51,5.176c-0.342,1.14-1.543,2.063-2.682,2.063S56.909,85.407,57.251,84.268z"/>
	<path fill-rule="evenodd" clip-rule="evenodd" d="M65.399,78.836c0.342-1.14,3.561-5.177,3.615-5.177   c0.02,0,0.852,4.037,0.51,5.177c-0.342,1.139-1.542,2.062-2.682,2.062C65.704,80.898,65.058,79.975,65.399,78.836z"/>
	<path fill-rule="evenodd" clip-rule="evenodd" d="M70.288,84.268c0.342-1.139,3.561-5.176,3.616-5.176   c0.02,0,0.852,4.037,0.51,5.176c-0.342,1.14-1.542,2.063-2.682,2.063S69.946,85.407,70.288,84.268z"/>
	<path fill-rule="evenodd" clip-rule="evenodd" d="M78.438,78.836c0.342-1.14,3.561-5.177,3.616-5.177   c0.02,0,0.852,4.037,0.51,5.177c-0.342,1.139-1.543,2.062-2.682,2.062C78.742,80.898,78.096,79.975,78.438,78.836z"/>
	<path fill-rule="evenodd" clip-rule="evenodd" d="M83.327,84.268c0.342-1.139,3.561-5.176,3.615-5.176   c0.02,0,0.852,4.037,0.51,5.176c-0.342,1.14-1.542,2.063-2.682,2.063C83.632,86.331,82.985,85.407,83.327,84.268z"/>
	<path fill-rule="evenodd" clip-rule="evenodd" d="M91.476,78.836c0.342-1.14,3.561-5.177,3.615-5.177   c0.02,0,0.852,4.037,0.511,5.177c-0.342,1.139-1.542,2.062-2.682,2.062S91.134,79.975,91.476,78.836z"/>
	<path fill-rule="evenodd" clip-rule="evenodd" d="M53.828,95.676c0.342-1.139,3.561-5.176,3.616-5.176   c0.019,0,0.851,4.037,0.51,5.176c-0.342,1.141-1.543,2.063-2.682,2.063C54.133,97.739,53.486,96.816,53.828,95.676z"/>
	<path fill-rule="evenodd" clip-rule="evenodd" d="M61.978,90.244c0.342-1.14,3.561-5.176,3.615-5.176   c0.02,0,0.852,4.036,0.51,5.176c-0.342,1.139-1.543,2.062-2.682,2.062S61.635,91.383,61.978,90.244z"/>
	<path fill-rule="evenodd" clip-rule="evenodd" d="M66.866,95.676c0.342-1.139,3.561-5.176,3.615-5.176   c0.02,0,0.852,4.037,0.51,5.176c-0.342,1.141-1.542,2.063-2.682,2.063C67.171,97.739,66.524,96.816,66.866,95.676z"/>
	<path fill-rule="evenodd" clip-rule="evenodd" d="M75.015,90.244c0.342-1.14,3.561-5.176,3.616-5.176   c0.02,0,0.852,4.036,0.51,5.176c-0.342,1.139-1.542,2.062-2.682,2.062S74.673,91.383,75.015,90.244z"/>
	<path fill-rule="evenodd" clip-rule="evenodd" d="M79.904,95.676c0.342-1.139,3.561-5.176,3.616-5.176   c0.02,0,0.852,4.037,0.51,5.176c-0.342,1.141-1.543,2.063-2.682,2.063C80.209,97.739,79.562,96.816,79.904,95.676z"/>
	<path fill-rule="evenodd" clip-rule="evenodd" d="M88.054,90.244c0.342-1.14,3.561-5.176,3.615-5.176   c0.02,0,0.852,4.036,0.51,5.176c-0.342,1.139-1.543,2.062-2.682,2.062S87.712,91.383,88.054,90.244z"/>
	<path fill-rule="evenodd" clip-rule="evenodd" d="M95.223,42.765l-1.945-0.343l1.55-1.085c0.619-0.434,0.77-1.287,0.336-1.906   l-0.072-0.103c-0.434-0.619-1.287-0.77-1.906-0.336l-3.995,2.797l-3.624-0.639l2.555-2.836l4.871-0.255   c0.754-0.04,1.334-0.684,1.295-1.438l-0.007-0.125c-0.04-0.755-0.684-1.335-1.438-1.295l-1.889,0.099l1.322-1.468   c0.506-0.562,0.46-1.427-0.102-1.933l-0.094-0.083c0,0,0,0,0,0l-0.064-0.058c-0.561-0.506-1.427-0.461-1.933,0.101l-1.351,1.5   l-0.105-2.012c-0.039-0.755-0.684-1.334-1.438-1.295l-0.125,0.006c-0.756,0.04-1.336,0.684-1.296,1.438l0.255,4.871l-2.855,3.17   l-1.598-3.956l1.906-4.489c0.295-0.696-0.029-1.5-0.726-1.795l-0.115-0.049c-0.696-0.295-1.499,0.029-1.795,0.725l-0.787,1.854   l-0.756-1.871c-0.283-0.701-1.081-1.04-1.782-0.756l-0.115,0.047c-0.001,0-0.001,0-0.001,0l-0.08,0.033   c-0.701,0.283-1.04,1.081-0.757,1.782l0.74,1.832l-1.74-0.739c-0.696-0.295-1.5,0.029-1.795,0.725l-0.049,0.115   c-0.296,0.696,0.029,1.5,0.725,1.794l4.489,1.906l1.43,3.539l-4.044-0.713l-2.797-3.995c-0.434-0.62-1.288-0.77-1.907-0.336   l-0.103,0.072c-0.619,0.434-0.77,1.287-0.336,1.906l1.155,1.65l-1.987-0.351c-0.744-0.131-1.455,0.366-1.586,1.11L68.735,39.7   c0,0.001,0,0.001,0,0.001l-0.016,0.085c-0.131,0.744,0.366,1.454,1.111,1.585l1.945,0.343l-1.55,1.085   c-0.619,0.434-0.77,1.287-0.336,1.906l0.071,0.103c0.434,0.619,1.287,0.77,1.906,0.336l3.996-2.797l4.119,0.727l-2.707,3.005   l-4.87,0.255c-0.755,0.04-1.335,0.684-1.296,1.438l0.007,0.125c0.04,0.755,0.684,1.335,1.438,1.295l1.889-0.099l-1.322,1.468   c-0.506,0.562-0.46,1.427,0.102,1.933l0.094,0.084c0.561,0.506,1.427,0.46,1.933-0.102l1.409-1.564l0.111,2.134   c0.039,0.755,0.684,1.335,1.438,1.296l0.125-0.008c0.755-0.039,1.335-0.684,1.296-1.438l-0.256-4.871l2.855-3.171l1.599,3.957   l-1.905,4.49c-0.296,0.695,0.029,1.499,0.725,1.795l0.115,0.049c0.695,0.295,1.5-0.029,1.795-0.726l0.835-1.968l0.788,1.952   c0.283,0.7,1.082,1.04,1.783,0.757l0.115-0.047c0.701-0.283,1.039-1.082,0.756-1.782l-0.74-1.832l1.742,0.739   c0.695,0.295,1.499-0.029,1.795-0.725l0.049-0.115c0.295-0.696-0.029-1.5-0.726-1.795l-4.489-1.906l-1.516-3.75l3.785,0.667   l2.798,3.995c0.434,0.619,1.287,0.77,1.906,0.336l0.103-0.072c0.619-0.434,0.77-1.287,0.336-1.907l-1.226-1.751l2.073,0.366   c0.744,0.131,1.454-0.366,1.586-1.11l0.021-0.123C96.464,43.606,95.968,42.896,95.223,42.765z"/>
</g>
</svg>