<?xml version="1.0" encoding="utf-8"?>
<!-- Generator: Adobe Illustrator 16.0.3, SVG Export Plug-In . SVG Version: 6.00 Build 0)  -->
<!DOCTYPE svg PUBLIC "-//W3C//DTD SVG 1.1//EN" "http://www.w3.org/Graphics/SVG/1.1/DTD/svg11.dtd">
<svg version="1.1" id="Layer_1" xmlns="http://www.w3.org/2000/svg" xmlns:xlink="http://www.w3.org/1999/xlink" x="0px" y="0px"
	 width="74.075px" height="70.725px" viewBox="14.259 -0.918 74.075 70.725" enable-background="new 14.259 -0.918 74.075 70.725"
	 xml:space="preserve">
<g>
	<path d="M57.656,23.898l4.795,0.294l-4.471,1.764C57.907,25.258,57.799,24.572,57.656,23.898z M56.781,20.952l4.781-0.458
		l-4.139,2.439C57.244,22.258,57.029,21.596,56.781,20.952z M55.454,18.179l4.653-1.201L56.4,20.035
		C56.119,19.398,55.801,18.779,55.454,18.179z M53.718,15.66l10.273-5.353l-8.839,7.37C54.717,16.974,54.236,16.3,53.718,15.66z
		 M51.277,13.146L67.705-0.918L53.344,15.213C52.707,14.474,52.016,13.783,51.277,13.146z M48.885,11.383l8.47-9.857l-6.438,11.319
		C50.273,12.315,49.595,11.827,48.885,11.383z M46.455,10.088l4.659-6.912l-2.803,7.858C47.711,10.688,47.091,10.372,46.455,10.088z
		 M43.557,9.065l2.967-5.79l-0.986,6.433C44.894,9.46,44.232,9.245,43.557,9.065z M40.534,8.51l1.764-4.473l0.294,4.796
		C41.918,8.691,41.232,8.582,40.534,8.51z M37.461,8.434l1.043-4.694l1.042,4.694c-0.345-0.018-0.693-0.027-1.042-0.027
		C38.155,8.407,37.808,8.417,37.461,8.434z M34.417,8.834l0.294-4.796l1.764,4.473C35.778,8.582,35.09,8.691,34.417,8.834z
		 M31.47,9.708l-0.458-4.781l2.44,4.138C32.777,9.245,32.116,9.46,31.47,9.708z M28.699,11.036l-1.201-4.653l3.057,3.706
		C29.917,10.372,29.298,10.688,28.699,11.036z M26.169,12.781l-1.916-4.41l3.601,3.184C27.271,11.933,26.708,12.343,26.169,12.781z
		 M23.943,14.898l-2.582-4.057l4.057,2.582C24.9,13.889,24.407,14.381,23.943,14.898z M22.073,17.335l-3.184-3.602l4.41,1.916
		C22.862,16.189,22.453,16.751,22.073,17.335z M20.607,20.035l-3.706-3.057l4.653,1.201C21.208,18.779,20.89,19.398,20.607,20.035z
		 M19.583,22.933l-4.138-2.44l4.782,0.458C19.979,21.596,19.765,22.257,19.583,22.933z M19.03,25.957l-4.472-1.764l4.796-0.295
		C19.211,24.571,19.102,25.258,19.03,25.957z M18.953,29.028l-4.694-1.043l4.694-1.043c-0.018,0.346-0.027,0.693-0.027,1.043
		S18.935,28.683,18.953,29.028z M19.354,32.073l-4.796-0.295l4.472-1.763C19.102,30.712,19.211,31.399,19.354,32.073z
		 M20.228,35.019l-4.782,0.458l4.139-2.44C19.765,33.713,19.979,34.374,20.228,35.019z M21.555,37.791l-4.653,1.202l3.706-3.057
		C20.89,36.573,21.208,37.192,21.555,37.791z M21.284,39.527l0.789-0.893c0.066,0.102,0.133,0.203,0.201,0.303
		C21.933,39.119,21.603,39.315,21.284,39.527z"/>
	<path d="M21.603,27.985c0-9.335,7.567-16.902,16.901-16.902c9.214,0,16.707,7.374,16.898,16.542
		c-1.959,0.899-3.715,2.163-5.177,3.704c-1.39-0.425-2.864-0.653-4.39-0.653c-5.777,0-10.787,3.266-13.29,8.05
		c-1.493-0.712-3.163-1.111-4.925-1.111c-0.954,0-1.88,0.117-2.767,0.337C22.81,35.158,21.603,31.712,21.603,27.985z"/>
	<path d="M76.402,41.598c1.129-0.591,2.414-0.925,3.777-0.925c4.504,0,8.154,3.65,8.154,8.155c0,1.28-0.295,2.492-0.82,3.571H72.846
		l-0.037-0.076l-0.068,0.076H19.513c-0.423-1.029-0.657-2.155-0.657-3.335c0-4.84,3.924-8.765,8.765-8.765
		c2.433,0,4.633,0.991,6.221,2.591c1.259-5.46,6.152-9.531,11.994-9.531c1.864,0,3.629,0.414,5.212,1.155
		c2.564-3.472,6.686-5.724,11.333-5.724C69.728,28.791,75.76,34.418,76.402,41.598z"/>
	<path d="M53.045,55.805c0.254-0.845,2.639-3.835,2.678-3.835c0.016,0,0.633,2.99,0.379,3.835c-0.254,0.844-1.143,1.527-1.986,1.527
		S52.793,56.648,53.045,55.805z"/>
	<path d="M56.668,59.828c0.253-0.844,2.637-3.834,2.678-3.834c0.014,0,0.631,2.99,0.377,3.834c-0.253,0.844-1.143,1.528-1.986,1.528
		S56.414,60.672,56.668,59.828z"/>
	<path d="M62.703,55.805c0.254-0.845,2.638-3.835,2.678-3.835c0.015,0,0.631,2.99,0.377,3.835c-0.252,0.844-1.142,1.527-1.986,1.527
		C62.929,57.332,62.45,56.648,62.703,55.805z"/>
	<path d="M66.324,59.828c0.254-0.844,2.639-3.834,2.679-3.834c0.015,0,0.632,2.99,0.378,3.834s-1.143,1.528-1.986,1.528
		C66.55,61.356,66.071,60.672,66.324,59.828z"/>
	<path d="M72.361,55.805C72.615,54.96,75,51.97,75.04,51.97c0.015,0,0.631,2.99,0.378,3.835c-0.254,0.844-1.143,1.527-1.986,1.527
		C72.586,57.332,72.107,56.648,72.361,55.805z"/>
	<path d="M75.982,59.828c0.254-0.844,2.639-3.834,2.678-3.834c0.016,0,0.632,2.99,0.379,3.834c-0.254,0.844-1.143,1.528-1.987,1.528
		C76.209,61.356,75.729,60.672,75.982,59.828z"/>
	<path d="M82.02,55.805c0.253-0.845,2.638-3.835,2.678-3.835c0.015,0,0.631,2.99,0.379,3.835c-0.254,0.844-1.143,1.527-1.987,1.527
		S81.766,56.648,82.02,55.805z"/>
	<path d="M54.132,68.278c0.253-0.843,2.638-3.834,2.679-3.834c0.014,0,0.631,2.991,0.377,3.834
		c-0.252,0.845-1.143,1.528-1.986,1.528S53.879,69.123,54.132,68.278z"/>
	<path d="M60.169,64.255c0.253-0.845,2.638-3.834,2.678-3.834c0.015,0,0.632,2.989,0.378,3.834
		c-0.254,0.844-1.143,1.527-1.986,1.527S59.915,65.099,60.169,64.255z"/>
	<path d="M63.789,68.278c0.254-0.843,2.639-3.834,2.678-3.834c0.016,0,0.632,2.991,0.379,3.834
		c-0.254,0.845-1.143,1.528-1.987,1.528C64.016,69.807,63.536,69.123,63.789,68.278z"/>
	<path d="M69.826,64.255c0.253-0.845,2.638-3.834,2.678-3.834c0.016,0,0.632,2.989,0.379,3.834
		c-0.254,0.844-1.143,1.527-1.987,1.527S69.572,65.099,69.826,64.255z"/>
	<path d="M73.447,68.278c0.254-0.843,2.638-3.834,2.679-3.834c0.015,0,0.631,2.991,0.378,3.834
		c-0.254,0.845-1.143,1.528-1.986,1.528S73.193,69.123,73.447,68.278z"/>
	<path d="M79.484,64.255c0.254-0.845,2.638-3.834,2.678-3.834c0.016,0,0.631,2.989,0.378,3.834
		c-0.253,0.844-1.144,1.527-1.987,1.527S79.23,65.099,79.484,64.255z"/>
	<path d="M84.795,29.085l-1.441-0.254l1.148-0.804c0.459-0.321,0.57-0.953,0.249-1.412l-0.054-0.077
		c-0.32-0.458-0.953-0.57-1.411-0.249l-2.96,2.072l-2.684-0.474l1.893-2.101l3.607-0.189c0.559-0.029,0.988-0.506,0.959-1.065
		l-0.004-0.093c-0.03-0.559-0.508-0.989-1.066-0.959l-1.398,0.073l0.979-1.087c0.375-0.417,0.342-1.057-0.075-1.432l-0.069-0.062
		l0,0l-0.047-0.043c-0.416-0.375-1.058-0.341-1.433,0.075l-1.001,1.111l-0.078-1.49c-0.028-0.559-0.506-0.988-1.064-0.959
		l-0.093,0.004c-0.56,0.03-0.989,0.507-0.96,1.065l0.189,3.608l-2.115,2.348l-1.184-2.93l1.412-3.325
		c0.219-0.516-0.021-1.111-0.538-1.33l-0.085-0.036c-0.516-0.219-1.111,0.021-1.33,0.537l-0.583,1.373l-0.56-1.386
		c-0.21-0.52-0.801-0.771-1.32-0.56l-0.085,0.035c-0.001,0-0.001,0-0.001,0l-0.059,0.024c-0.52,0.21-0.771,0.801-0.562,1.32
		l0.548,1.357l-1.289-0.547c-0.516-0.219-1.11,0.021-1.329,0.537l-0.036,0.085c-0.219,0.516,0.021,1.111,0.537,1.329l3.325,1.412
		l1.06,2.622l-2.996-0.528l-2.072-2.959c-0.32-0.459-0.953-0.57-1.412-0.249l-0.076,0.053c-0.459,0.322-0.57,0.954-0.249,1.412
		l0.855,1.222l-1.472-0.26c-0.551-0.097-1.078,0.271-1.175,0.822l-0.017,0.091c0,0,0,0,0,0l-0.012,0.063
		c-0.098,0.551,0.271,1.077,0.823,1.174l1.44,0.254l-1.148,0.804c-0.458,0.321-0.57,0.953-0.248,1.412l0.053,0.077
		c0.32,0.458,0.953,0.57,1.411,0.249l2.96-2.072l3.051,0.539L71.5,31.54l-3.607,0.189c-0.561,0.029-0.99,0.506-0.961,1.065
		l0.006,0.093c0.029,0.559,0.506,0.989,1.064,0.959l1.399-0.073l-0.979,1.087c-0.375,0.417-0.34,1.057,0.076,1.432l0.069,0.062
		c0.415,0.375,1.058,0.341,1.433-0.076l1.043-1.158l0.082,1.581c0.029,0.56,0.507,0.989,1.065,0.96l0.093-0.006
		c0.559-0.029,0.988-0.507,0.96-1.065l-0.19-3.608l2.115-2.349l1.185,2.931l-1.411,3.326c-0.219,0.515,0.021,1.11,0.537,1.33
		l0.086,0.036c0.514,0.219,1.11-0.021,1.329-0.538l0.618-1.458l0.584,1.446c0.209,0.519,0.801,0.77,1.32,0.561l0.086-0.035
		c0.52-0.21,0.77-0.802,0.56-1.32l-0.548-1.357l1.29,0.547c0.515,0.219,1.11-0.021,1.329-0.537l0.037-0.085
		c0.219-0.516-0.021-1.111-0.538-1.33l-3.325-1.412l-1.123-2.778l2.804,0.494l2.073,2.959c0.32,0.458,0.953,0.57,1.411,0.249
		l0.077-0.053c0.458-0.322,0.57-0.954,0.248-1.413L82.889,30.9l1.535,0.271c0.552,0.097,1.078-0.271,1.176-0.822l0.016-0.091
		C85.714,29.708,85.347,29.182,84.795,29.085z"/>
</g>
</svg>
