<?xml version="1.0" encoding="utf-8"?>
<!-- Generator: Adobe Illustrator 16.0.3, SVG Export Plug-In . SVG Version: 6.00 Build 0)  -->
<!DOCTYPE svg PUBLIC "-//W3C//DTD SVG 1.1//EN" "http://www.w3.org/Graphics/SVG/1.1/DTD/svg11.dtd">
<svg version="1.1" id="Ebene_1" xmlns="http://www.w3.org/2000/svg" xmlns:xlink="http://www.w3.org/1999/xlink" x="0px" y="0px"
	 width="59.259px" height="54.814px" viewBox="21.667 7.037 59.259 54.814" enable-background="new 21.667 7.037 59.259 54.814"
	 xml:space="preserve">
<g id="Captions">
</g>
<g id="Your_Icon">
	<path d="M80.926,20.371c0-2.193-0.46-2.963-2.773-2.963H38.297L37.111,10c-0.163-2.163-1.259-2.963-3.587-2.963h-8.893
		c-2.195,0-2.965,0.726-2.965,2.963v1.481c0,2.298,0.77,2.963,2.965,2.963h5.513l4.862,28.148c0.518,1.541,1.941,2.889,4.446,2.963
		h32.608c2.594,0,3.811-0.533,4.447-2.963L80.926,20.371z M70.52,38.148H41.217l-2.179-13.333H73.04L70.52,38.148z M40.937,55.926
		c0,3.274,2.652,5.926,5.929,5.926c3.275,0,5.929-2.651,5.929-5.926c0-3.273-2.653-5.926-5.929-5.926
		C43.588,50,40.937,52.652,40.937,55.926z M60.203,55.926c0,3.274,2.654,5.926,5.93,5.926s5.929-2.651,5.929-5.926
		c0-3.273-2.653-5.926-5.929-5.926S60.203,52.652,60.203,55.926z"/>
</g>
</svg>
