<svg xmlns="http://www.w3.org/2000/svg" xmlns:xlink="http://www.w3.org/1999/xlink" version="1.1" baseProfile="tiny" x="0px" y="0px" width="100px" height="100px" viewBox="5.0 -10.0 100.0 135.0" xml:space="preserve">
<g id="Captions">
</g>
<g id="Your_Icon">
	<path fill-rule="evenodd" fill="#000000" d="M90,31c0-2.961-0.621-4-3.744-4H32.451L30.85,17c-0.219-2.92-1.699-4-4.842-4H14.002   C11.039,13,10,13.98,10,17v2c0,3.102,1.039,4,4.002,4h7.443l6.564,38c0.699,2.08,2.621,3.9,6.002,4h44.021   c3.502,0,5.143-0.719,6.004-4L90,31z M75.951,55H36.393l-2.941-18h45.902L75.951,55z M36.014,79c0,4.42,3.58,8,8.004,8   c4.422,0,8.004-3.58,8.004-8s-3.582-8-8.004-8C39.594,71,36.014,74.58,36.014,79z M62.025,79c0,4.42,3.582,8,8.004,8   s8.004-3.58,8.004-8s-3.582-8-8.004-8S62.025,74.58,62.025,79z"/>
</g>
</svg>