<?xml version="1.0" encoding="utf-8"?>
<!-- Generator: Adobe Illustrator 16.0.3, SVG Export Plug-In . SVG Version: 6.00 Build 0)  -->
<!DOCTYPE svg PUBLIC "-//W3C//DTD SVG 1.1//EN" "http://www.w3.org/Graphics/SVG/1.1/DTD/svg11.dtd">
<svg version="1.1" id="Layer_1" xmlns="http://www.w3.org/2000/svg" xmlns:xlink="http://www.w3.org/1999/xlink" x="0px" y="0px"
	 width="100px" height="100px" viewBox="0 0 100 100" enable-background="new 0 0 100 100" xml:space="preserve">
<path d="M81.943,0c-1.533,0-2.777,1.244-2.777,2.778v18.056c0,1.534,1.244,2.778,2.777,2.778H100V0H81.943z"/>
<rect x="2.777" y="86.111" width="94.445" height="13.889"/>
<path d="M69.443,29.167h-1.611L53.041,39.733c-1.826,1.354-3.436,2.01-4.914,2.01c-1.873,0-3.43-1.058-4.162-2.83
	c-1.004-2.423-0.328-6.224,1.41-8.061c0.172-0.197,0.717-0.82,1.477-1.686h-6.574h-3.854h-5.867V62.5h38.889V29.167H69.443z"/>
<polygon points="88.889,50.001 72.223,50.001 72.223,58.335 77.092,58.335 79.166,65.277 50,65.277 50,65.277 20.832,65.277 
	22.906,58.335 27.777,58.335 27.777,50.001 11.111,50.001 0,75 0,75 0,83.333 100,83.333 100,75 100,75 "/>
<path d="M76.389,2.778H62.5l-13.889,8.333c-2.535,1.64-4.168,2.777-5.557,6.944c-0.693,2.083-2.777,8.333-2.777,8.333h7.813
	l1.908-5.555c1.391-2.778,11.053-2.718,6.945,1.389l-9.805,10.864c-1.145,1.145-2.059,9.104,4.248,4.414L70.83,23.611l1.391-4.167
	l4.166-4.167V2.778H76.389z"/>
</svg>
