<svg xmlns="http://www.w3.org/2000/svg" xmlns:xlink="http://www.w3.org/1999/xlink" version="1.1" id="Your_Icon" x="0px" y="0px" width="100px" height="100px" viewBox="0 0 100 100" enable-background="new 0 0 100 100" xml:space="preserve">
<path d="M63.365,42.969h8.351l-13.754-9.985V20.452h-8.187v6.587L35.857,16.936L0,42.969h8.35v33.587H2.946v6.508h65.822v-6.508  h-5.403V42.969z M30.945,60.816h-9.824v-9.824h9.824V60.816z M50.593,76.862h-9.824V57.214h9.824V76.862z"/>
<polygon points="100,77.795 94.708,52.723 89.972,77.795 94.004,77.795 94.004,83.064 95.969,83.064 95.969,77.795 "/>
<path d="M87.229,71.367c0-3.741-3.033-6.774-6.775-6.774c-3.742,0-6.775,3.033-6.775,6.774c0,3.407,2.517,6.218,5.792,6.694v5.003  h1.965v-5.003C84.712,77.584,87.229,74.773,87.229,71.367z"/>
</svg>