<?xml version="1.0" encoding="utf-8"?>
<!-- Generator: Adobe Illustrator 16.0.3, SVG Export Plug-In . SVG Version: 6.00 Build 0)  -->
<!DOCTYPE svg PUBLIC "-//W3C//DTD SVG 1.1//EN" "http://www.w3.org/Graphics/SVG/1.1/DTD/svg11.dtd">
<svg version="1.1" id="Your_Icon" xmlns="http://www.w3.org/2000/svg" xmlns:xlink="http://www.w3.org/1999/xlink" x="0px" y="0px"
	 width="100px" height="66.128px" viewBox="0 16.936 100 66.128" enable-background="new 0 16.936 100 66.128" xml:space="preserve"
	>
<path d="M63.365,42.969h8.351l-13.754-9.985V20.452h-8.187v6.587L35.857,16.936L0,42.969h8.35v33.587H2.946v6.508h65.822v-6.508
	h-5.402V42.969L63.365,42.969z M30.945,60.816h-9.824v-9.824h9.824V60.816z M50.593,76.861h-9.824V57.214h9.824V76.861z"/>
<polygon points="100,77.795 94.708,52.723 89.973,77.795 94.004,77.795 94.004,83.064 95.969,83.064 95.969,77.795 "/>
<path d="M87.229,71.367c0-3.741-3.033-6.774-6.774-6.774c-3.742,0-6.774,3.033-6.774,6.774c0,3.406,2.516,6.218,5.791,6.693v5.004
	h1.965v-5.004C84.712,77.584,87.229,74.773,87.229,71.367z"/>
</svg>
